%TF.GenerationSoftware,KiCad,Pcbnew,(6.0.7)*%
%TF.CreationDate,2022-10-05T07:51:38+03:00*%
%TF.ProjectId,Basic-150-MHz-Telemetry-Transmitter-THT,42617369-632d-4313-9530-2d4d487a2d54,rev?*%
%TF.SameCoordinates,Original*%
%TF.FileFunction,Legend,Bot*%
%TF.FilePolarity,Positive*%
%FSLAX46Y46*%
G04 Gerber Fmt 4.6, Leading zero omitted, Abs format (unit mm)*
G04 Created by KiCad (PCBNEW (6.0.7)) date 2022-10-05 07:51:39*
%MOMM*%
%LPD*%
G01*
G04 APERTURE LIST*
%ADD10C,0.300000*%
%ADD11C,1.600000*%
%ADD12C,1.400000*%
%ADD13O,1.400000X1.400000*%
%ADD14R,1.700000X1.700000*%
%ADD15O,1.700000X1.700000*%
%ADD16C,1.500000*%
%ADD17O,1.600000X1.600000*%
%ADD18R,1.050000X1.500000*%
%ADD19O,1.050000X1.500000*%
%ADD20C,1.700000*%
G04 APERTURE END LIST*
D10*
%TO.C,G\u002A\u002A\u002A*%
X83816371Y-111607600D02*
X83961514Y-111535028D01*
X84179228Y-111535028D01*
X84396942Y-111607600D01*
X84542085Y-111752742D01*
X84614657Y-111897885D01*
X84687228Y-112188171D01*
X84687228Y-112405885D01*
X84614657Y-112696171D01*
X84542085Y-112841314D01*
X84396942Y-112986457D01*
X84179228Y-113059028D01*
X84034085Y-113059028D01*
X83816371Y-112986457D01*
X83743800Y-112913885D01*
X83743800Y-112405885D01*
X84034085Y-112405885D01*
X82872942Y-111535028D02*
X82872942Y-111897885D01*
X83235800Y-111752742D02*
X82872942Y-111897885D01*
X82510085Y-111752742D01*
X83090657Y-112188171D02*
X82872942Y-111897885D01*
X82655228Y-112188171D01*
X81711800Y-111535028D02*
X81711800Y-111897885D01*
X82074657Y-111752742D02*
X81711800Y-111897885D01*
X81348942Y-111752742D01*
X81929514Y-112188171D02*
X81711800Y-111897885D01*
X81494085Y-112188171D01*
X80550657Y-111535028D02*
X80550657Y-111897885D01*
X80913514Y-111752742D02*
X80550657Y-111897885D01*
X80187800Y-111752742D01*
X80768371Y-112188171D02*
X80550657Y-111897885D01*
X80332942Y-112188171D01*
G36*
X81422799Y-111968754D02*
G01*
X81100166Y-111968754D01*
X81100166Y-111807437D01*
X81261482Y-111807437D01*
X81261482Y-111646121D01*
X81422799Y-111646121D01*
X81422799Y-111968754D01*
G37*
G36*
X81584115Y-113097968D02*
G01*
X81422799Y-113097968D01*
X81422799Y-112936652D01*
X81584115Y-112936652D01*
X81584115Y-113097968D01*
G37*
G36*
X83519912Y-113097968D02*
G01*
X83358596Y-113097968D01*
X83358596Y-113259285D01*
X83197279Y-113259285D01*
X83197279Y-113097968D01*
X83035963Y-113097968D01*
X83035963Y-112936652D01*
X83519912Y-112936652D01*
X83519912Y-113097968D01*
G37*
G36*
X83519912Y-111484804D02*
G01*
X83681228Y-111484804D01*
X83681228Y-111646121D01*
X83358596Y-111646121D01*
X83358596Y-111323488D01*
X83519912Y-111323488D01*
X83519912Y-111484804D01*
G37*
G36*
X83681228Y-112291386D02*
G01*
X83842545Y-112291386D01*
X83842545Y-112452703D01*
X83519912Y-112452703D01*
X83519912Y-112130070D01*
X83681228Y-112130070D01*
X83681228Y-112291386D01*
G37*
G36*
X83519912Y-114711132D02*
G01*
X83358596Y-114711132D01*
X83358596Y-114549816D01*
X83197279Y-114549816D01*
X83197279Y-114388500D01*
X83035963Y-114388500D01*
X83035963Y-114549816D01*
X83197279Y-114549816D01*
X83197279Y-114711132D01*
X83035963Y-114711132D01*
X83035963Y-114549816D01*
X82874646Y-114549816D01*
X82874646Y-114388500D01*
X83035963Y-114388500D01*
X83035963Y-114065867D01*
X83519912Y-114065867D01*
X83519912Y-114711132D01*
G37*
G36*
X80293584Y-111968754D02*
G01*
X80132268Y-111968754D01*
X80132268Y-111807437D01*
X80293584Y-111807437D01*
X80293584Y-111968754D01*
G37*
G36*
X82874646Y-114711132D02*
G01*
X82713330Y-114711132D01*
X82713330Y-114549816D01*
X82874646Y-114549816D01*
X82874646Y-114711132D01*
G37*
G36*
X82552014Y-111162172D02*
G01*
X82390697Y-111162172D01*
X82390697Y-111000855D01*
X82552014Y-111000855D01*
X82552014Y-111162172D01*
G37*
G36*
X84810443Y-112452703D02*
G01*
X84810443Y-112775336D01*
X84487810Y-112775336D01*
X84487810Y-112614019D01*
X84326494Y-112614019D01*
X84326494Y-112291386D01*
X84487810Y-112291386D01*
X84487810Y-111968754D01*
X84326494Y-111968754D01*
X84326494Y-112291386D01*
X84165178Y-112291386D01*
X84165178Y-112130070D01*
X83681228Y-112130070D01*
X83681228Y-111968754D01*
X84003861Y-111968754D01*
X84165178Y-111968754D01*
X84326494Y-111968754D01*
X84326494Y-111807437D01*
X84487810Y-111807437D01*
X84487810Y-111646121D01*
X84165178Y-111646121D01*
X84165178Y-111968754D01*
X84003861Y-111968754D01*
X84003861Y-111484804D01*
X84165178Y-111484804D01*
X84165178Y-111323488D01*
X84810443Y-111323488D01*
X84810443Y-112291386D01*
X84649127Y-112291386D01*
X84649127Y-112452703D01*
X84810443Y-112452703D01*
G37*
G36*
X83842545Y-111484804D02*
G01*
X83681228Y-111484804D01*
X83681228Y-111323488D01*
X83842545Y-111323488D01*
X83842545Y-111484804D01*
G37*
G36*
X84810443Y-113097968D02*
G01*
X84649127Y-113097968D01*
X84649127Y-112936652D01*
X84810443Y-112936652D01*
X84810443Y-113097968D01*
G37*
G36*
X80616217Y-111807437D02*
G01*
X80293584Y-111807437D01*
X80293584Y-111646121D01*
X80616217Y-111646121D01*
X80616217Y-111807437D01*
G37*
G36*
X83681228Y-111968754D02*
G01*
X83519912Y-111968754D01*
X83519912Y-111807437D01*
X83681228Y-111807437D01*
X83681228Y-111968754D01*
G37*
G36*
X84487810Y-114388500D02*
G01*
X84003861Y-114388500D01*
X84003861Y-113904550D01*
X84487810Y-113904550D01*
X84487810Y-114388500D01*
G37*
G36*
X83681228Y-114711132D02*
G01*
X83681228Y-114549816D01*
X83842545Y-114549816D01*
X84649127Y-114549816D01*
X84649127Y-113743234D01*
X83842545Y-113743234D01*
X83842545Y-114549816D01*
X83681228Y-114549816D01*
X83681228Y-113581918D01*
X84810443Y-113581918D01*
X84810443Y-114711132D01*
X83681228Y-114711132D01*
G37*
G36*
X82552014Y-114549816D02*
G01*
X82390697Y-114549816D01*
X82390697Y-114388500D01*
X82552014Y-114388500D01*
X82552014Y-114549816D01*
G37*
G36*
X82390697Y-113097968D02*
G01*
X82229381Y-113097968D01*
X82229381Y-112775336D01*
X82390697Y-112775336D01*
X82390697Y-113097968D01*
G37*
G36*
X82068064Y-111807437D02*
G01*
X81745432Y-111807437D01*
X81745432Y-111646121D01*
X82068064Y-111646121D01*
X82068064Y-111807437D01*
G37*
G36*
X83842545Y-111807437D02*
G01*
X83681228Y-111807437D01*
X83681228Y-111646121D01*
X83842545Y-111646121D01*
X83842545Y-111807437D01*
G37*
G36*
X84326494Y-113097968D02*
G01*
X84487810Y-113097968D01*
X84487810Y-113259285D01*
X84649127Y-113259285D01*
X84649127Y-113420601D01*
X84326494Y-113420601D01*
X84326494Y-113259285D01*
X84165178Y-113259285D01*
X84165178Y-113420601D01*
X83681228Y-113420601D01*
X83681228Y-113259285D01*
X84003861Y-113259285D01*
X84003861Y-113097968D01*
X83681228Y-113097968D01*
X83681228Y-112936652D01*
X84326494Y-112936652D01*
X84326494Y-113097968D01*
G37*
G36*
X83519912Y-111162172D02*
G01*
X83358596Y-111162172D01*
X83358596Y-111000855D01*
X83519912Y-111000855D01*
X83519912Y-111162172D01*
G37*
G36*
X82390697Y-114711132D02*
G01*
X82229381Y-114711132D01*
X82229381Y-114549816D01*
X82390697Y-114549816D01*
X82390697Y-114711132D01*
G37*
G36*
X80454900Y-114227183D02*
G01*
X80293584Y-114227183D01*
X80293584Y-114388500D01*
X80454900Y-114388500D01*
X80454900Y-114711132D01*
X80293584Y-114711132D01*
X80293584Y-114388500D01*
X80132268Y-114388500D01*
X80132268Y-114065867D01*
X80454900Y-114065867D01*
X80454900Y-114227183D01*
G37*
G36*
X80616217Y-114227183D02*
G01*
X80616217Y-114388500D01*
X80454900Y-114388500D01*
X80454900Y-114227183D01*
X80616217Y-114227183D01*
G37*
G36*
X81261482Y-113743234D02*
G01*
X81100166Y-113743234D01*
X81100166Y-113581918D01*
X81261482Y-113581918D01*
X81261482Y-113743234D01*
G37*
G36*
X81906748Y-111162172D02*
G01*
X82068064Y-111162172D01*
X82068064Y-111484804D01*
X81745432Y-111484804D01*
X81745432Y-111646121D01*
X81422799Y-111646121D01*
X81422799Y-111484804D01*
X81261482Y-111484804D01*
X81261482Y-111646121D01*
X81100166Y-111646121D01*
X81100166Y-111807437D01*
X80938850Y-111807437D01*
X80938850Y-111968754D01*
X80777533Y-111968754D01*
X80777533Y-112130070D01*
X80616217Y-112130070D01*
X80616217Y-112452703D01*
X80454900Y-112452703D01*
X80454900Y-112775336D01*
X80616217Y-112775336D01*
X80616217Y-112614019D01*
X80777533Y-112614019D01*
X80777533Y-112452703D01*
X81100166Y-112452703D01*
X81100166Y-112130070D01*
X81261482Y-112130070D01*
X81261482Y-112452703D01*
X81422799Y-112452703D01*
X81422799Y-112291386D01*
X81584115Y-112291386D01*
X81584115Y-111807437D01*
X81745432Y-111807437D01*
X81745432Y-112614019D01*
X81906748Y-112614019D01*
X81906748Y-112775336D01*
X81422799Y-112775336D01*
X81422799Y-112614019D01*
X80938850Y-112614019D01*
X80938850Y-112775336D01*
X80777533Y-112775336D01*
X80777533Y-112936652D01*
X80616217Y-112936652D01*
X80616217Y-113259285D01*
X80777533Y-113259285D01*
X80777533Y-112936652D01*
X80938850Y-112936652D01*
X80938850Y-112775336D01*
X81100166Y-112775336D01*
X81100166Y-112936652D01*
X81261482Y-112936652D01*
X81261482Y-113259285D01*
X81584115Y-113259285D01*
X81584115Y-113581918D01*
X81745432Y-113581918D01*
X81745432Y-113420601D01*
X81906748Y-113420601D01*
X81906748Y-113097968D01*
X82068064Y-113097968D01*
X82068064Y-113420601D01*
X82229381Y-113420601D01*
X82229381Y-113904550D01*
X82068064Y-113904550D01*
X82068064Y-113743234D01*
X81906748Y-113743234D01*
X81906748Y-113904550D01*
X82068064Y-113904550D01*
X82068064Y-114065867D01*
X82390697Y-114065867D01*
X82390697Y-113743234D01*
X82713330Y-113743234D01*
X82713330Y-113581918D01*
X82874646Y-113581918D01*
X82874646Y-113420601D01*
X83035963Y-113420601D01*
X83035963Y-113259285D01*
X82713330Y-113259285D01*
X82713330Y-113097968D01*
X82552014Y-113097968D01*
X82552014Y-112775336D01*
X82874646Y-112775336D01*
X82874646Y-112614019D01*
X83035963Y-112614019D01*
X83035963Y-112452703D01*
X83197279Y-112452703D01*
X83197279Y-112130070D01*
X83035963Y-112130070D01*
X83035963Y-111807437D01*
X82874646Y-111807437D01*
X82874646Y-111484804D01*
X83035963Y-111484804D01*
X83035963Y-111646121D01*
X83358596Y-111646121D01*
X83358596Y-112452703D01*
X83519912Y-112452703D01*
X83519912Y-112775336D01*
X83358596Y-112775336D01*
X83358596Y-112614019D01*
X83197279Y-112614019D01*
X83197279Y-112775336D01*
X83035963Y-112775336D01*
X83035963Y-112936652D01*
X82874646Y-112936652D01*
X82874646Y-113097968D01*
X83035963Y-113097968D01*
X83035963Y-113259285D01*
X83197279Y-113259285D01*
X83197279Y-113420601D01*
X83358596Y-113420601D01*
X83358596Y-113259285D01*
X83519912Y-113259285D01*
X83519912Y-113581918D01*
X83358596Y-113581918D01*
X83358596Y-113743234D01*
X82713330Y-113743234D01*
X82713330Y-113904550D01*
X82552014Y-113904550D01*
X82552014Y-114065867D01*
X82390697Y-114065867D01*
X82390697Y-114227183D01*
X82229381Y-114227183D01*
X82229381Y-114549816D01*
X82068064Y-114549816D01*
X82068064Y-114388500D01*
X81906748Y-114388500D01*
X81906748Y-114227183D01*
X81584115Y-114227183D01*
X81584115Y-114065867D01*
X81906748Y-114065867D01*
X81906748Y-113904550D01*
X81745432Y-113904550D01*
X81745432Y-113743234D01*
X81584115Y-113743234D01*
X81584115Y-114065867D01*
X81422799Y-114065867D01*
X81422799Y-114227183D01*
X81584115Y-114227183D01*
X81584115Y-114549816D01*
X81906748Y-114549816D01*
X81906748Y-114711132D01*
X81100166Y-114711132D01*
X81100166Y-114549816D01*
X81261482Y-114549816D01*
X81261482Y-114388500D01*
X81422799Y-114388500D01*
X81422799Y-114227183D01*
X81261482Y-114227183D01*
X81261482Y-114065867D01*
X81100166Y-114065867D01*
X81100166Y-114549816D01*
X80938850Y-114549816D01*
X80938850Y-114227183D01*
X80616217Y-114227183D01*
X80616217Y-114065867D01*
X80777533Y-114065867D01*
X80777533Y-113904550D01*
X80938850Y-113904550D01*
X81422799Y-113904550D01*
X81422799Y-113420601D01*
X80938850Y-113420601D01*
X80938850Y-113904550D01*
X80777533Y-113904550D01*
X80616217Y-113904550D01*
X80616217Y-114065867D01*
X80454900Y-114065867D01*
X80454900Y-113904550D01*
X80616217Y-113904550D01*
X80616217Y-113581918D01*
X80454900Y-113581918D01*
X80454900Y-113743234D01*
X80293584Y-113743234D01*
X80293584Y-113581918D01*
X80132268Y-113581918D01*
X80132268Y-113420601D01*
X80454900Y-113420601D01*
X80454900Y-112936652D01*
X80293584Y-112936652D01*
X80293584Y-112452703D01*
X80132268Y-112452703D01*
X80132268Y-112130070D01*
X80454900Y-112130070D01*
X80454900Y-111968754D01*
X80777533Y-111968754D01*
X80777533Y-111807437D01*
X80938850Y-111807437D01*
X80938850Y-111646121D01*
X80777533Y-111646121D01*
X80777533Y-111484804D01*
X80454900Y-111484804D01*
X80454900Y-111323488D01*
X80938850Y-111323488D01*
X80938850Y-111484804D01*
X81261482Y-111484804D01*
X81261482Y-111323488D01*
X81422799Y-111323488D01*
X81422799Y-111484804D01*
X81745432Y-111484804D01*
X81745432Y-111323488D01*
X81906748Y-111323488D01*
X81906748Y-111162172D01*
X81745432Y-111162172D01*
X81745432Y-111000855D01*
X81906748Y-111000855D01*
X81906748Y-111162172D01*
G37*
G36*
X81906748Y-110516906D02*
G01*
X82068064Y-110516906D01*
X82068064Y-111000855D01*
X81906748Y-111000855D01*
X81906748Y-110839539D01*
X81745432Y-110839539D01*
X81745432Y-111000855D01*
X81584115Y-111000855D01*
X81584115Y-111162172D01*
X81422799Y-111162172D01*
X81422799Y-110839539D01*
X81584115Y-110839539D01*
X81584115Y-110516906D01*
X81422799Y-110516906D01*
X81422799Y-110355590D01*
X81745432Y-110355590D01*
X81745432Y-110194273D01*
X81422799Y-110194273D01*
X81422799Y-110032957D01*
X82390697Y-110032957D01*
X82390697Y-110194273D01*
X82874646Y-110194273D01*
X82874646Y-110032957D01*
X83519912Y-110032957D01*
X83519912Y-110194273D01*
X83358596Y-110194273D01*
X83358596Y-110355590D01*
X83519912Y-110355590D01*
X83519912Y-110839539D01*
X83358596Y-110839539D01*
X83358596Y-110355590D01*
X83197279Y-110355590D01*
X83197279Y-110194273D01*
X83035963Y-110194273D01*
X83035963Y-110355590D01*
X83197279Y-110355590D01*
X83197279Y-110839539D01*
X83358596Y-110839539D01*
X83358596Y-111000855D01*
X83197279Y-111000855D01*
X83197279Y-111484804D01*
X83035963Y-111484804D01*
X83035963Y-111323488D01*
X82874646Y-111323488D01*
X82874646Y-111484804D01*
X82713330Y-111484804D01*
X82713330Y-111968754D01*
X82552014Y-111968754D01*
X82552014Y-111484804D01*
X82390697Y-111484804D01*
X82390697Y-111323488D01*
X82713330Y-111323488D01*
X82713330Y-111000855D01*
X82874646Y-111000855D01*
X82874646Y-111162172D01*
X83035963Y-111162172D01*
X83035963Y-110678222D01*
X82874646Y-110678222D01*
X82874646Y-110839539D01*
X82713330Y-110839539D01*
X82713330Y-110516906D01*
X82552014Y-110516906D01*
X82552014Y-110839539D01*
X82229381Y-110839539D01*
X82229381Y-110678222D01*
X82390697Y-110678222D01*
X82390697Y-110516906D01*
X82229381Y-110516906D01*
X82229381Y-110355590D01*
X82390697Y-110355590D01*
X82390697Y-110194273D01*
X82229381Y-110194273D01*
X82229381Y-110355590D01*
X82068064Y-110355590D01*
X82068064Y-110194273D01*
X81906748Y-110194273D01*
X81906748Y-110516906D01*
X81745432Y-110516906D01*
X81745432Y-110678222D01*
X81906748Y-110678222D01*
X81906748Y-110516906D01*
G37*
G36*
X83681228Y-111162172D02*
G01*
X83681228Y-111000855D01*
X83842545Y-111000855D01*
X84649127Y-111000855D01*
X84649127Y-110194273D01*
X83842545Y-110194273D01*
X83842545Y-111000855D01*
X83681228Y-111000855D01*
X83681228Y-110032957D01*
X84810443Y-110032957D01*
X84810443Y-111162172D01*
X83681228Y-111162172D01*
G37*
G36*
X80938850Y-110839539D02*
G01*
X80454900Y-110839539D01*
X80454900Y-110355590D01*
X80938850Y-110355590D01*
X80938850Y-110839539D01*
G37*
G36*
X84487810Y-110839539D02*
G01*
X84003861Y-110839539D01*
X84003861Y-110355590D01*
X84487810Y-110355590D01*
X84487810Y-110839539D01*
G37*
G36*
X80293584Y-111646121D02*
G01*
X80132268Y-111646121D01*
X80132268Y-111323488D01*
X80293584Y-111323488D01*
X80293584Y-111646121D01*
G37*
G36*
X82552014Y-113259285D02*
G01*
X82713330Y-113259285D01*
X82713330Y-113420601D01*
X82552014Y-113420601D01*
X82552014Y-113581918D01*
X82390697Y-113581918D01*
X82390697Y-113097968D01*
X82552014Y-113097968D01*
X82552014Y-113259285D01*
G37*
G36*
X84487810Y-112936652D02*
G01*
X84326494Y-112936652D01*
X84326494Y-112775336D01*
X84487810Y-112775336D01*
X84487810Y-112936652D01*
G37*
G36*
X83681228Y-113259285D02*
G01*
X83519912Y-113259285D01*
X83519912Y-113097968D01*
X83681228Y-113097968D01*
X83681228Y-113259285D01*
G37*
G36*
X82229381Y-111162172D02*
G01*
X82068064Y-111162172D01*
X82068064Y-111000855D01*
X82229381Y-111000855D01*
X82229381Y-111162172D01*
G37*
G36*
X84003861Y-112775336D02*
G01*
X83681228Y-112775336D01*
X83681228Y-112614019D01*
X83842545Y-112614019D01*
X83842545Y-112452703D01*
X84003861Y-112452703D01*
X84003861Y-112775336D01*
G37*
G36*
X80777533Y-114549816D02*
G01*
X80616217Y-114549816D01*
X80616217Y-114388500D01*
X80777533Y-114388500D01*
X80777533Y-114549816D01*
G37*
G36*
X82874646Y-114388500D02*
G01*
X82713330Y-114388500D01*
X82713330Y-113904550D01*
X82874646Y-113904550D01*
X82874646Y-114388500D01*
G37*
G36*
X80132268Y-111162172D02*
G01*
X80132268Y-111000855D01*
X80293584Y-111000855D01*
X81100166Y-111000855D01*
X81100166Y-110194273D01*
X80293584Y-110194273D01*
X80293584Y-111000855D01*
X80132268Y-111000855D01*
X80132268Y-110032957D01*
X81261482Y-110032957D01*
X81261482Y-111162172D01*
X80132268Y-111162172D01*
G37*
G36*
X82068064Y-112936652D02*
G01*
X81906748Y-112936652D01*
X81906748Y-112775336D01*
X82068064Y-112775336D01*
X82068064Y-112936652D01*
G37*
G36*
X80293584Y-113904550D02*
G01*
X80132268Y-113904550D01*
X80132268Y-113743234D01*
X80293584Y-113743234D01*
X80293584Y-113904550D01*
G37*
G36*
X82713330Y-111000855D02*
G01*
X82552014Y-111000855D01*
X82552014Y-110839539D01*
X82713330Y-110839539D01*
X82713330Y-111000855D01*
G37*
G36*
X82874646Y-112130070D02*
G01*
X82874646Y-112614019D01*
X82713330Y-112614019D01*
X82713330Y-112291386D01*
X82552014Y-112291386D01*
X82552014Y-112130070D01*
X82874646Y-112130070D01*
G37*
G36*
X82390697Y-111968754D02*
G01*
X82552014Y-111968754D01*
X82552014Y-112130070D01*
X82390697Y-112130070D01*
X82390697Y-112291386D01*
X82552014Y-112291386D01*
X82552014Y-112614019D01*
X82068064Y-112614019D01*
X82068064Y-112452703D01*
X82390697Y-112452703D01*
X82390697Y-112291386D01*
X81906748Y-112291386D01*
X81906748Y-111968754D01*
X82068064Y-111968754D01*
X82068064Y-111807437D01*
X82390697Y-111807437D01*
X82390697Y-111968754D01*
G37*
%TO.C,kibuzzard-632D4DBD*%
G36*
X57734597Y-96472772D02*
G01*
X57734597Y-100123228D01*
X55651003Y-100123228D01*
X55651003Y-99652931D01*
X55799831Y-99652931D01*
X55812928Y-99822595D01*
X55852219Y-99974400D01*
X56390381Y-99974400D01*
X56390381Y-99719606D01*
X56018906Y-99719606D01*
X56009381Y-99664838D01*
X56027704Y-99559335D01*
X56082671Y-99473015D01*
X56174283Y-99405877D01*
X56302540Y-99357921D01*
X56467441Y-99329147D01*
X56668987Y-99319556D01*
X56886541Y-99330140D01*
X57064540Y-99361890D01*
X57202983Y-99414806D01*
X57301871Y-99488890D01*
X57361204Y-99584140D01*
X57380981Y-99700556D01*
X57362527Y-99826763D01*
X57307163Y-99962494D01*
X57526238Y-99962494D01*
X57570886Y-99819023D01*
X57585769Y-99660075D01*
X57571444Y-99518874D01*
X57528470Y-99396500D01*
X57456846Y-99292953D01*
X57356573Y-99208233D01*
X57227651Y-99142339D01*
X57070079Y-99095272D01*
X56883858Y-99067032D01*
X56668987Y-99057619D01*
X56465279Y-99066921D01*
X56288732Y-99094826D01*
X56139345Y-99141335D01*
X56017120Y-99206447D01*
X55922056Y-99290163D01*
X55854154Y-99392482D01*
X55813412Y-99513405D01*
X55799831Y-99652931D01*
X55651003Y-99652931D01*
X55651003Y-98462306D01*
X55799831Y-98462306D01*
X55812928Y-98631970D01*
X55852219Y-98783775D01*
X56390381Y-98783775D01*
X56390381Y-98528981D01*
X56018906Y-98528981D01*
X56009381Y-98474213D01*
X56027704Y-98368710D01*
X56082671Y-98282390D01*
X56174283Y-98215252D01*
X56302540Y-98167296D01*
X56467441Y-98138522D01*
X56668987Y-98128931D01*
X56886541Y-98139515D01*
X57064540Y-98171265D01*
X57202983Y-98224181D01*
X57301871Y-98298265D01*
X57361204Y-98393515D01*
X57380981Y-98509931D01*
X57362527Y-98636138D01*
X57307163Y-98771869D01*
X57526238Y-98771869D01*
X57570886Y-98628398D01*
X57585769Y-98469450D01*
X57571444Y-98328249D01*
X57528470Y-98205875D01*
X57456846Y-98102328D01*
X57356573Y-98017608D01*
X57227651Y-97951714D01*
X57070079Y-97904647D01*
X56883858Y-97876407D01*
X56668987Y-97866994D01*
X56465279Y-97876296D01*
X56288732Y-97904201D01*
X56139345Y-97950710D01*
X56017120Y-98015822D01*
X55922056Y-98099538D01*
X55854154Y-98201857D01*
X55813412Y-98322780D01*
X55799831Y-98462306D01*
X55651003Y-98462306D01*
X55651003Y-96895444D01*
X55823644Y-96895444D01*
X57323831Y-97166906D01*
X57323831Y-97169287D01*
X55823644Y-97440750D01*
X55823644Y-97705069D01*
X57561956Y-97316925D01*
X57561956Y-97007362D01*
X55823644Y-96621600D01*
X55823644Y-96895444D01*
X55651003Y-96895444D01*
X55651003Y-96472772D01*
X57734597Y-96472772D01*
G37*
%TO.C,kibuzzard-632D4DD2*%
G36*
X52563712Y-106095403D02*
G01*
X57469088Y-106095403D01*
X57469088Y-108178997D01*
X52563712Y-108178997D01*
X52563712Y-108006356D01*
X52712541Y-108006356D01*
X52988766Y-108006356D01*
X53079253Y-107549156D01*
X53486447Y-107549156D01*
X53576934Y-108006356D01*
X53843634Y-108006356D01*
X53482871Y-106475212D01*
X53979366Y-106475212D01*
X54334172Y-106475212D01*
X54334172Y-108006356D01*
X54600872Y-108006356D01*
X55093791Y-108006356D01*
X55370016Y-108006356D01*
X55460503Y-107549156D01*
X55867697Y-107549156D01*
X55958184Y-108006356D01*
X56224884Y-108006356D01*
X56014486Y-107113387D01*
X56320134Y-107113387D01*
X56327940Y-107329023D01*
X56351355Y-107512379D01*
X56390381Y-107663456D01*
X56476404Y-107835799D01*
X56593978Y-107948016D01*
X56748759Y-108009630D01*
X56946403Y-108030169D01*
X57141070Y-108018263D01*
X57320259Y-107982544D01*
X57320259Y-106291856D01*
X57133927Y-106256137D01*
X56946403Y-106244231D01*
X56744923Y-106265795D01*
X56584982Y-106330485D01*
X56466581Y-106438303D01*
X56402511Y-106553273D01*
X56356746Y-106704110D01*
X56329287Y-106890815D01*
X56320134Y-107113387D01*
X56014486Y-107113387D01*
X55815309Y-106268044D01*
X55505747Y-106268044D01*
X55093791Y-108006356D01*
X54600872Y-108006356D01*
X54600872Y-106475212D01*
X54955678Y-106475212D01*
X54955678Y-106268044D01*
X53979366Y-106268044D01*
X53979366Y-106475212D01*
X53482871Y-106475212D01*
X53434059Y-106268044D01*
X53124497Y-106268044D01*
X52712541Y-108006356D01*
X52563712Y-108006356D01*
X52563712Y-106095403D01*
G37*
G36*
X53445966Y-107346750D02*
G01*
X53119734Y-107346750D01*
X53281659Y-106529981D01*
X53284041Y-106529981D01*
X53445966Y-107346750D01*
G37*
G36*
X57053559Y-106472831D02*
G01*
X57053559Y-107803950D01*
X56946403Y-107825381D01*
X56780013Y-107787281D01*
X56666606Y-107672981D01*
X56618320Y-107543071D01*
X56589348Y-107356540D01*
X56579691Y-107113387D01*
X56589480Y-106893254D01*
X56618849Y-106721804D01*
X56667797Y-106599037D01*
X56781502Y-106488309D01*
X56946403Y-106451400D01*
X57053559Y-106472831D01*
G37*
G36*
X55827216Y-107346750D02*
G01*
X55500984Y-107346750D01*
X55662909Y-106529981D01*
X55665291Y-106529981D01*
X55827216Y-107346750D01*
G37*
%TO.C,kibuzzard-632D4D9D*%
G36*
X55701803Y-104323356D02*
G01*
X55701803Y-103548259D01*
X55850631Y-103548259D01*
X55872195Y-103749740D01*
X55936885Y-103909680D01*
X56044703Y-104028081D01*
X56159673Y-104092152D01*
X56310510Y-104137916D01*
X56497215Y-104165375D01*
X56719787Y-104174528D01*
X56935423Y-104166723D01*
X57118779Y-104143307D01*
X57269856Y-104104281D01*
X57442199Y-104018259D01*
X57554416Y-103900684D01*
X57616030Y-103745903D01*
X57636569Y-103548259D01*
X57624663Y-103353592D01*
X57588944Y-103174403D01*
X55898256Y-103174403D01*
X55862537Y-103360736D01*
X55850631Y-103548259D01*
X55701803Y-103548259D01*
X55701803Y-102907703D01*
X55874444Y-102907703D01*
X57612756Y-102907703D01*
X57612756Y-102641003D01*
X56350694Y-102269528D01*
X56350694Y-102264766D01*
X57612756Y-102264766D01*
X57612756Y-102002828D01*
X55874444Y-102002828D01*
X55874444Y-102279053D01*
X57136506Y-102650528D01*
X57136506Y-102657672D01*
X55874444Y-102657672D01*
X55874444Y-102907703D01*
X55701803Y-102907703D01*
X55701803Y-101395609D01*
X55850631Y-101395609D01*
X55863728Y-101547414D01*
X55903019Y-101693266D01*
X56117331Y-101693266D01*
X56074469Y-101541461D01*
X56060181Y-101395609D01*
X56097984Y-101225945D01*
X56211391Y-101107478D01*
X56336406Y-101055884D01*
X56509841Y-101024928D01*
X56731694Y-101014609D01*
X56958706Y-101024399D01*
X57138094Y-101053768D01*
X57269856Y-101102716D01*
X57391300Y-101209872D01*
X57431781Y-101355128D01*
X57403206Y-101498003D01*
X56779319Y-101498003D01*
X56779319Y-101197966D01*
X56576912Y-101197966D01*
X56576912Y-101752797D01*
X57553225Y-101752797D01*
X57599527Y-101625268D01*
X57627308Y-101490330D01*
X57636569Y-101347984D01*
X57622430Y-101208458D01*
X57580014Y-101087535D01*
X57509321Y-100985216D01*
X57410350Y-100901500D01*
X57283102Y-100836388D01*
X57127577Y-100789879D01*
X56943774Y-100761974D01*
X56731694Y-100752672D01*
X56518423Y-100762718D01*
X56335811Y-100792855D01*
X56183857Y-100843085D01*
X56062562Y-100913406D01*
X55944823Y-101038422D01*
X55874179Y-101199156D01*
X55850631Y-101395609D01*
X55701803Y-101395609D01*
X55701803Y-100603844D01*
X57785397Y-100603844D01*
X57785397Y-104323356D01*
X55701803Y-104323356D01*
G37*
G36*
X57431781Y-103548259D02*
G01*
X57393681Y-103714649D01*
X57279381Y-103828056D01*
X57149471Y-103876343D01*
X56962940Y-103905315D01*
X56719787Y-103914972D01*
X56499654Y-103905182D01*
X56328204Y-103875814D01*
X56205437Y-103826866D01*
X56094709Y-103713161D01*
X56057800Y-103548259D01*
X56079231Y-103441103D01*
X57410350Y-103441103D01*
X57431781Y-103548259D01*
G37*
%TD*%
%LPC*%
D11*
%TO.C,CP1*%
X64556000Y-108458000D03*
X69556000Y-108458000D03*
%TD*%
D12*
%TO.C,RP1*%
X61976000Y-102616000D03*
D13*
X67056000Y-102616000D03*
%TD*%
D12*
%TO.C,R1*%
X58420000Y-114808000D03*
D13*
X63500000Y-114808000D03*
%TD*%
D11*
%TO.C,C2*%
X77938000Y-103124000D03*
X72938000Y-103124000D03*
%TD*%
D14*
%TO.C,J2*%
X83312000Y-105923000D03*
D15*
X83312000Y-103383000D03*
%TD*%
D16*
%TO.C,Y1*%
X75602000Y-114808000D03*
X70722000Y-114808000D03*
%TD*%
D12*
%TO.C,L1*%
X58674000Y-98806000D03*
D13*
X66294000Y-98806000D03*
%TD*%
D11*
%TO.C,L2*%
X70358000Y-98806000D03*
D17*
X80518000Y-98806000D03*
%TD*%
D18*
%TO.C,Q1*%
X74422000Y-108564000D03*
D19*
X75692000Y-108564000D03*
X76962000Y-108564000D03*
%TD*%
D11*
%TO.C,C1*%
X59182000Y-107910000D03*
X59182000Y-102910000D03*
%TD*%
D20*
%TO.C,J1*%
X54356000Y-99060000D03*
D14*
X54356000Y-101600000D03*
D15*
X54356000Y-104140000D03*
%TD*%
M02*
