%TF.GenerationSoftware,KiCad,Pcbnew,(6.0.4)*%
%TF.CreationDate,2022-07-11T19:15:08+03:00*%
%TF.ProjectId,Basic-150-MHz-Telemetry-Transmitter-THT,42617369-632d-4313-9530-2d4d487a2d54,rev?*%
%TF.SameCoordinates,Original*%
%TF.FileFunction,Copper,L1,Top*%
%TF.FilePolarity,Positive*%
%FSLAX46Y46*%
G04 Gerber Fmt 4.6, Leading zero omitted, Abs format (unit mm)*
G04 Created by KiCad (PCBNEW (6.0.4)) date 2022-07-11 19:15:08*
%MOMM*%
%LPD*%
G01*
G04 APERTURE LIST*
%TA.AperFunction,ComponentPad*%
%ADD10R,1.700000X1.700000*%
%TD*%
%TA.AperFunction,ComponentPad*%
%ADD11O,1.700000X1.700000*%
%TD*%
%TA.AperFunction,ComponentPad*%
%ADD12C,1.500000*%
%TD*%
%TA.AperFunction,ComponentPad*%
%ADD13C,1.400000*%
%TD*%
%TA.AperFunction,ComponentPad*%
%ADD14O,1.400000X1.400000*%
%TD*%
%TA.AperFunction,ComponentPad*%
%ADD15R,1.050000X1.500000*%
%TD*%
%TA.AperFunction,ComponentPad*%
%ADD16O,1.050000X1.500000*%
%TD*%
%TA.AperFunction,ComponentPad*%
%ADD17O,1.600000X1.600000*%
%TD*%
%TA.AperFunction,ComponentPad*%
%ADD18C,1.600000*%
%TD*%
%TA.AperFunction,Conductor*%
%ADD19C,0.500000*%
%TD*%
G04 APERTURE END LIST*
D10*
%TO.P,J1,1,Pin_1*%
%TO.N,Net-(C1-Pad2)*%
X54356000Y-99060000D03*
D11*
%TO.P,J1,2,Pin_2*%
%TO.N,GND*%
X54356000Y-101600000D03*
%TO.P,J1,3,Pin_3*%
%TO.N,data*%
X54356000Y-104140000D03*
%TD*%
D12*
%TO.P,Y1,1,1*%
%TO.N,Net-(C2-Pad1)*%
X75602000Y-114808000D03*
%TO.P,Y1,2,2*%
%TO.N,Net-(Q1-Pad2)*%
X70722000Y-114808000D03*
%TD*%
D13*
%TO.P,RP1,1*%
%TO.N,Net-(C1-Pad2)*%
X61976000Y-102616000D03*
D14*
%TO.P,RP1,2*%
%TO.N,Net-(CP1-Pad1)*%
X67056000Y-102616000D03*
%TD*%
%TO.P,R1,2*%
%TO.N,Net-(Q1-Pad2)*%
X63500000Y-114808000D03*
D13*
%TO.P,R1,1*%
%TO.N,data*%
X58420000Y-114808000D03*
%TD*%
D15*
%TO.P,Q1,1,E*%
%TO.N,GND*%
X74422000Y-108564000D03*
D16*
%TO.P,Q1,2,B*%
%TO.N,Net-(Q1-Pad2)*%
X75692000Y-108564000D03*
%TO.P,Q1,3,C*%
%TO.N,Net-(C2-Pad1)*%
X76962000Y-108564000D03*
%TD*%
D17*
%TO.P,L2,2,2*%
%TO.N,Net-(C2-Pad1)*%
X80518000Y-98806000D03*
D18*
%TO.P,L2,1,1*%
%TO.N,Net-(C2-Pad2)*%
X70358000Y-98806000D03*
%TD*%
D14*
%TO.P,L1,2,2*%
%TO.N,Net-(C2-Pad2)*%
X66294000Y-98806000D03*
D13*
%TO.P,L1,1,1*%
%TO.N,Net-(C1-Pad2)*%
X58674000Y-98806000D03*
%TD*%
D11*
%TO.P,J2,2,Pin_2*%
%TO.N,Net-(C2-Pad1)*%
X83312000Y-103383000D03*
D10*
%TO.P,J2,1,Pin_1*%
%TO.N,GND*%
X83312000Y-105923000D03*
%TD*%
D18*
%TO.P,CP1,1*%
%TO.N,Net-(CP1-Pad1)*%
X64556000Y-108458000D03*
%TO.P,CP1,2*%
%TO.N,GND*%
X69556000Y-108458000D03*
%TD*%
%TO.P,C2,1*%
%TO.N,Net-(C2-Pad1)*%
X77938000Y-103124000D03*
%TO.P,C2,2*%
%TO.N,Net-(C2-Pad2)*%
X72938000Y-103124000D03*
%TD*%
%TO.P,C1,1*%
%TO.N,GND*%
X59182000Y-107910000D03*
%TO.P,C1,2*%
%TO.N,Net-(C1-Pad2)*%
X59182000Y-102910000D03*
%TD*%
D19*
%TO.N,Net-(C2-Pad1)*%
X77938000Y-107588000D02*
X77938000Y-103124000D01*
X76962000Y-108564000D02*
X77938000Y-107588000D01*
%TO.N,data*%
X54355968Y-108071146D02*
G75*
G03*
X55527573Y-110899573I4000032J46D01*
G01*
%TO.N,Net-(Q1-Pad2)*%
X71429000Y-114808000D02*
X70722000Y-114808000D01*
X75692000Y-110545000D02*
X71429000Y-114808000D01*
X75692000Y-108564000D02*
X75692000Y-110545000D01*
%TO.N,Net-(C2-Pad1)*%
X76962032Y-111791146D02*
G75*
G02*
X75790427Y-114619573I-4000032J46D01*
G01*
X80518032Y-98887146D02*
G75*
G02*
X79346427Y-101715573I-4000032J46D01*
G01*
%TO.N,Net-(C2-Pad2)*%
X71529596Y-101715550D02*
G75*
G02*
X70358000Y-98887146I2828404J2828450D01*
G01*
%TO.N,Net-(CP1-Pad1)*%
X64555968Y-106772854D02*
G75*
G02*
X65727573Y-103944427I4000032J-46D01*
G01*
X65727573Y-103944427D02*
X67056000Y-102616000D01*
X64556000Y-108458000D02*
X64556000Y-106772854D01*
%TO.N,data*%
X54356000Y-108071146D02*
X54356000Y-104140000D01*
X58420000Y-113792000D02*
X55527573Y-110899573D01*
X58420000Y-114808000D02*
X58420000Y-113792000D01*
%TO.N,Net-(Q1-Pad2)*%
X70722000Y-114808000D02*
X63500000Y-114808000D01*
%TO.N,Net-(C2-Pad1)*%
X76962000Y-111791146D02*
X76962000Y-108564000D01*
X75602000Y-114808000D02*
X75790427Y-114619573D01*
X83053000Y-103124000D02*
X83312000Y-103383000D01*
X77938000Y-103124000D02*
X83053000Y-103124000D01*
X79346427Y-101715573D02*
X77938000Y-103124000D01*
X80518000Y-98806000D02*
X80518000Y-98887146D01*
%TO.N,Net-(C2-Pad2)*%
X71529573Y-101715573D02*
X72938000Y-103124000D01*
X70358000Y-98806000D02*
X70358000Y-98887146D01*
X66294000Y-98806000D02*
X70358000Y-98806000D01*
%TO.N,Net-(C1-Pad2)*%
X61682000Y-102910000D02*
X61976000Y-102616000D01*
X59182000Y-102910000D02*
X61682000Y-102910000D01*
X58674000Y-102402000D02*
X59182000Y-102910000D01*
X58674000Y-98806000D02*
X58674000Y-102402000D01*
X58420000Y-99060000D02*
X58674000Y-98806000D01*
X54356000Y-99060000D02*
X58420000Y-99060000D01*
%TD*%
%TA.AperFunction,Conductor*%
%TO.N,Net-(C2-Pad1)*%
G36*
X78738000Y-103124000D02*
G01*
X78730992Y-103316357D01*
X78711274Y-103483133D01*
X78680800Y-103628263D01*
X78641525Y-103755682D01*
X78619895Y-103808983D01*
X78619894Y-103808984D01*
X78595568Y-103868929D01*
X78595228Y-103869690D01*
X78544522Y-103972883D01*
X78544269Y-103973369D01*
X78490500Y-104070958D01*
X78490406Y-104071125D01*
X78435540Y-104166966D01*
X78381600Y-104264868D01*
X78330592Y-104368673D01*
X78284474Y-104482317D01*
X78245200Y-104609736D01*
X78214725Y-104754866D01*
X78195007Y-104921642D01*
X78194999Y-104921872D01*
X78188411Y-105102726D01*
X78184686Y-105110869D01*
X78176719Y-105114000D01*
X77699281Y-105114000D01*
X77691008Y-105110573D01*
X77687589Y-105102726D01*
X77681000Y-104921872D01*
X77680992Y-104921642D01*
X77661274Y-104754866D01*
X77630800Y-104609736D01*
X77591525Y-104482317D01*
X77545407Y-104368673D01*
X77494400Y-104264868D01*
X77440459Y-104166966D01*
X77385593Y-104071125D01*
X77385499Y-104070958D01*
X77331731Y-103973369D01*
X77331478Y-103972883D01*
X77280773Y-103869695D01*
X77280433Y-103868935D01*
X77256105Y-103808984D01*
X77234664Y-103756150D01*
X77234325Y-103755199D01*
X77195354Y-103628764D01*
X77195088Y-103627732D01*
X77165403Y-103486360D01*
X77164832Y-103483645D01*
X77164664Y-103482618D01*
X77145063Y-103316827D01*
X77144990Y-103315879D01*
X77138274Y-103131524D01*
X77141397Y-103123132D01*
X77144734Y-103120633D01*
X77938000Y-102724000D01*
X78738000Y-103124000D01*
G37*
%TD.AperFunction*%
%TD*%
%TA.AperFunction,Conductor*%
%TO.N,Net-(C2-Pad1)*%
G36*
X77717808Y-107470726D02*
G01*
X78055274Y-107808192D01*
X78058701Y-107816465D01*
X78055503Y-107824502D01*
X77977594Y-107906914D01*
X77977490Y-107907039D01*
X77977488Y-107907041D01*
X77953692Y-107935588D01*
X77907750Y-107990701D01*
X77907644Y-107990847D01*
X77907635Y-107990859D01*
X77873918Y-108037458D01*
X77851342Y-108068658D01*
X77805926Y-108141844D01*
X77769061Y-108211320D01*
X77738303Y-108278145D01*
X77711210Y-108343380D01*
X77711182Y-108343450D01*
X77711173Y-108343472D01*
X77685359Y-108408034D01*
X77685300Y-108408178D01*
X77658327Y-108473122D01*
X77658150Y-108473526D01*
X77627625Y-108539846D01*
X77627332Y-108540438D01*
X77590805Y-108609276D01*
X77590411Y-108609961D01*
X77545430Y-108682446D01*
X77544968Y-108683136D01*
X77514591Y-108725118D01*
X77489025Y-108760451D01*
X77488549Y-108761064D01*
X77482424Y-108768412D01*
X77477935Y-108773797D01*
X77418954Y-108844552D01*
X77333231Y-108935231D01*
X76776385Y-108749615D01*
X76615211Y-108266094D01*
X76614675Y-108263618D01*
X76606346Y-108184367D01*
X76608889Y-108175781D01*
X76609944Y-108174642D01*
X76681180Y-108107298D01*
X76681726Y-108106813D01*
X76727689Y-108068498D01*
X76764935Y-108037450D01*
X76765548Y-108036974D01*
X76829280Y-107990859D01*
X76842863Y-107981031D01*
X76843553Y-107980569D01*
X76916038Y-107935588D01*
X76916723Y-107935194D01*
X76985561Y-107898667D01*
X76986153Y-107898374D01*
X76998207Y-107892826D01*
X77052489Y-107867842D01*
X77052862Y-107867679D01*
X77117859Y-107840684D01*
X77117944Y-107840649D01*
X77182619Y-107814789D01*
X77247854Y-107787696D01*
X77282975Y-107771531D01*
X77314521Y-107757011D01*
X77314529Y-107757007D01*
X77314679Y-107756938D01*
X77384155Y-107720073D01*
X77457341Y-107674657D01*
X77477078Y-107660376D01*
X77535140Y-107618364D01*
X77535152Y-107618355D01*
X77535298Y-107618249D01*
X77619085Y-107548405D01*
X77701497Y-107470497D01*
X77709864Y-107467304D01*
X77717808Y-107470726D01*
G37*
%TD.AperFunction*%
%TD*%
%TA.AperFunction,Conductor*%
%TO.N,Net-(Q1-Pad2)*%
G36*
X72098151Y-113801310D02*
G01*
X72435424Y-114138583D01*
X72438851Y-114146856D01*
X72435424Y-114155129D01*
X72332145Y-114258408D01*
X72234362Y-114356195D01*
X72148230Y-114442333D01*
X72071630Y-114518941D01*
X72002443Y-114588136D01*
X72002442Y-114588137D01*
X71938553Y-114652037D01*
X71877840Y-114712760D01*
X71818186Y-114772425D01*
X71757473Y-114833148D01*
X71693582Y-114897049D01*
X71624396Y-114966244D01*
X71547796Y-115042852D01*
X71461664Y-115128990D01*
X71363881Y-115226777D01*
X71258607Y-115332053D01*
X71250334Y-115335481D01*
X71244595Y-115333977D01*
X70926200Y-115154801D01*
X70347600Y-114829195D01*
X70679548Y-114059343D01*
X70680245Y-114059180D01*
X70815808Y-114055068D01*
X70816398Y-114055065D01*
X70939723Y-114057543D01*
X70940227Y-114057564D01*
X71052579Y-114064677D01*
X71052948Y-114064707D01*
X71077092Y-114067003D01*
X71155866Y-114074496D01*
X71155938Y-114074503D01*
X71250992Y-114085008D01*
X71339391Y-114094222D01*
X71339402Y-114094223D01*
X71339508Y-114094234D01*
X71339629Y-114094243D01*
X71339633Y-114094243D01*
X71366538Y-114096167D01*
X71422967Y-114100202D01*
X71423124Y-114100203D01*
X71423137Y-114100204D01*
X71502622Y-114100930D01*
X71502630Y-114100930D01*
X71502883Y-114100932D01*
X71580767Y-114094448D01*
X71658133Y-114078772D01*
X71736494Y-114051927D01*
X71817363Y-114011935D01*
X71817642Y-114011754D01*
X71817647Y-114011751D01*
X71902004Y-113956979D01*
X71902252Y-113956818D01*
X71992675Y-113884600D01*
X72081879Y-113801044D01*
X72090260Y-113797889D01*
X72098151Y-113801310D01*
G37*
%TD.AperFunction*%
%TD*%
%TA.AperFunction,Conductor*%
%TO.N,Net-(Q1-Pad2)*%
G36*
X75697232Y-108304116D02*
G01*
X76030032Y-108470516D01*
X76035900Y-108477281D01*
X76036500Y-108480981D01*
X76036500Y-108837504D01*
X76051738Y-108982482D01*
X76051929Y-108983070D01*
X76105637Y-109148367D01*
X76105324Y-109156449D01*
X76093237Y-109185706D01*
X76093176Y-109185849D01*
X76065770Y-109249773D01*
X76038800Y-109315060D01*
X76013296Y-109384062D01*
X75990237Y-109459256D01*
X75970600Y-109543120D01*
X75970568Y-109543322D01*
X75970567Y-109543325D01*
X75955396Y-109637919D01*
X75955362Y-109638131D01*
X75945503Y-109746765D01*
X75945498Y-109746960D01*
X75945497Y-109746969D01*
X75942319Y-109860128D01*
X75938662Y-109868302D01*
X75930624Y-109871500D01*
X75453376Y-109871500D01*
X75445103Y-109868073D01*
X75441681Y-109860129D01*
X75438502Y-109746969D01*
X75438501Y-109746960D01*
X75438496Y-109746765D01*
X75428637Y-109638131D01*
X75413400Y-109543120D01*
X75399874Y-109485359D01*
X75393808Y-109459452D01*
X75393807Y-109459449D01*
X75393762Y-109459256D01*
X75370703Y-109384062D01*
X75348226Y-109323247D01*
X75347500Y-109319191D01*
X75347500Y-108981870D01*
X75347499Y-108480980D01*
X75350926Y-108472708D01*
X75353965Y-108470518D01*
X75686768Y-108304116D01*
X75695700Y-108303481D01*
X75697232Y-108304116D01*
G37*
%TD.AperFunction*%
%TD*%
%TA.AperFunction,Conductor*%
%TO.N,Net-(C2-Pad1)*%
G36*
X76452590Y-113192007D02*
G01*
X76555292Y-113233225D01*
X76895435Y-113369738D01*
X76901835Y-113375999D01*
X76901958Y-113384893D01*
X76843709Y-113532376D01*
X76790605Y-113671787D01*
X76790599Y-113671803D01*
X76745470Y-113795210D01*
X76745437Y-113795303D01*
X76733969Y-113828074D01*
X76706856Y-113905552D01*
X76673312Y-114005721D01*
X76673296Y-114005771D01*
X76643392Y-114098623D01*
X76615644Y-114187164D01*
X76588631Y-114274220D01*
X76588608Y-114274248D01*
X76588621Y-114274252D01*
X76574947Y-114317888D01*
X76560902Y-114362705D01*
X76560874Y-114362793D01*
X76530953Y-114455695D01*
X76530910Y-114455823D01*
X76497443Y-114555764D01*
X76497392Y-114555914D01*
X76458816Y-114666146D01*
X76458761Y-114666299D01*
X76413714Y-114789482D01*
X76413660Y-114789629D01*
X76360571Y-114929001D01*
X76360519Y-114929134D01*
X76300954Y-115079955D01*
X76294728Y-115086391D01*
X76290090Y-115087357D01*
X76043726Y-115087728D01*
X75361336Y-115088757D01*
X75353057Y-115085343D01*
X75350463Y-115081424D01*
X75289160Y-114929039D01*
X75043298Y-114317887D01*
X75043390Y-114308933D01*
X75045753Y-114305378D01*
X75094513Y-114255093D01*
X75157480Y-114190159D01*
X75158302Y-114189389D01*
X75265089Y-114098623D01*
X75271540Y-114093140D01*
X75272433Y-114092453D01*
X75382291Y-114016160D01*
X75383194Y-114015592D01*
X75489736Y-113955182D01*
X75490528Y-113954772D01*
X75593855Y-113906184D01*
X75594422Y-113905936D01*
X75694587Y-113865151D01*
X75694830Y-113865055D01*
X75747038Y-113845145D01*
X75791865Y-113828050D01*
X75818009Y-113817675D01*
X75885394Y-113790936D01*
X75885410Y-113790929D01*
X75885549Y-113790874D01*
X75885684Y-113790812D01*
X75885696Y-113790807D01*
X75975511Y-113749638D01*
X75975522Y-113749632D01*
X75975743Y-113749531D01*
X76062421Y-113699984D01*
X76145560Y-113638194D01*
X76145837Y-113637923D01*
X76145842Y-113637918D01*
X76187069Y-113597468D01*
X76225133Y-113560123D01*
X76301115Y-113461732D01*
X76373483Y-113338984D01*
X76437581Y-113198022D01*
X76444125Y-113191909D01*
X76452590Y-113192007D01*
G37*
%TD.AperFunction*%
%TD*%
%TA.AperFunction,Conductor*%
%TO.N,Net-(C2-Pad1)*%
G36*
X80555213Y-98410785D02*
G01*
X80559327Y-98413792D01*
X81222290Y-99169384D01*
X81225169Y-99177860D01*
X81223849Y-99182544D01*
X81143899Y-99334517D01*
X81079088Y-99454931D01*
X81069279Y-99473155D01*
X81069221Y-99473262D01*
X81002204Y-99594734D01*
X81002142Y-99594845D01*
X80941383Y-99702203D01*
X80941322Y-99702309D01*
X80885412Y-99798727D01*
X80846350Y-99864717D01*
X80832964Y-99887330D01*
X80832927Y-99887392D01*
X80782535Y-99971341D01*
X80782522Y-99971363D01*
X80732811Y-100053768D01*
X80682407Y-100137739D01*
X80629922Y-100226404D01*
X80629911Y-100226423D01*
X80573988Y-100322861D01*
X80573969Y-100322894D01*
X80513162Y-100430339D01*
X80446113Y-100551869D01*
X80446096Y-100551900D01*
X80371435Y-100690614D01*
X80293165Y-100839393D01*
X80286280Y-100845120D01*
X80277407Y-100844324D01*
X79854159Y-100623972D01*
X79848403Y-100617112D01*
X79848947Y-100608673D01*
X79917466Y-100460861D01*
X79917470Y-100460852D01*
X79917598Y-100460575D01*
X79965366Y-100319052D01*
X79990767Y-100191459D01*
X79990790Y-100191039D01*
X79996993Y-100075434D01*
X79996993Y-100075427D01*
X79997015Y-100075015D01*
X79987326Y-99966937D01*
X79964914Y-99864443D01*
X79964833Y-99864189D01*
X79964830Y-99864179D01*
X79943845Y-99798636D01*
X79932996Y-99764751D01*
X79894786Y-99665078D01*
X79853532Y-99562720D01*
X79853451Y-99562512D01*
X79812456Y-99454931D01*
X79812262Y-99454381D01*
X79774695Y-99338767D01*
X79774458Y-99337936D01*
X79743460Y-99211440D01*
X79743256Y-99210410D01*
X79739029Y-99182545D01*
X79721979Y-99070167D01*
X79721864Y-99069040D01*
X79713486Y-98912202D01*
X79713480Y-98911066D01*
X79720898Y-98741786D01*
X79724684Y-98733671D01*
X79728315Y-98731406D01*
X80546260Y-98410616D01*
X80555213Y-98410785D01*
G37*
%TD.AperFunction*%
%TD*%
%TA.AperFunction,Conductor*%
%TO.N,Net-(C2-Pad2)*%
G36*
X70618569Y-98523891D02*
G01*
X71147685Y-98731405D01*
X71154136Y-98737616D01*
X71155102Y-98741785D01*
X71162519Y-98911065D01*
X71162513Y-98912201D01*
X71154137Y-99069039D01*
X71154022Y-99070166D01*
X71136299Y-99186999D01*
X71132747Y-99210410D01*
X71132543Y-99211440D01*
X71101546Y-99337939D01*
X71101309Y-99338769D01*
X71063747Y-99454374D01*
X71063553Y-99454925D01*
X71022553Y-99562530D01*
X71022475Y-99562729D01*
X70981228Y-99665077D01*
X70943021Y-99764750D01*
X70911107Y-99864443D01*
X70888698Y-99966937D01*
X70879012Y-100075014D01*
X70885263Y-100191458D01*
X70910665Y-100319051D01*
X70923747Y-100357807D01*
X70948210Y-100430280D01*
X70958435Y-100460573D01*
X70958563Y-100460850D01*
X70958567Y-100460859D01*
X71027088Y-100608671D01*
X71027458Y-100617618D01*
X71021876Y-100623970D01*
X70598628Y-100844324D01*
X70589707Y-100845105D01*
X70582871Y-100839393D01*
X70504662Y-100690732D01*
X70504609Y-100690634D01*
X70504598Y-100690613D01*
X70429935Y-100551899D01*
X70429918Y-100551868D01*
X70362867Y-100430338D01*
X70302057Y-100322893D01*
X70246102Y-100226404D01*
X70193615Y-100137739D01*
X70143208Y-100053769D01*
X70093494Y-99971364D01*
X70090837Y-99966937D01*
X70043087Y-99887395D01*
X70043050Y-99887333D01*
X70029658Y-99864709D01*
X69990600Y-99798730D01*
X69934686Y-99702312D01*
X69934625Y-99702206D01*
X69873865Y-99594848D01*
X69873803Y-99594737D01*
X69848475Y-99548830D01*
X69806784Y-99473265D01*
X69732104Y-99334520D01*
X69648409Y-99175431D01*
X70322092Y-98407616D01*
X70618569Y-98523891D01*
G37*
%TD.AperFunction*%
%TD*%
%TA.AperFunction,Conductor*%
%TO.N,Net-(CP1-Pad1)*%
G36*
X66568150Y-102123401D02*
G01*
X67297937Y-102366663D01*
X67304702Y-102372531D01*
X67305337Y-102374063D01*
X67548599Y-103103850D01*
X67547964Y-103112782D01*
X67545484Y-103116101D01*
X67428781Y-103225080D01*
X67428107Y-103225664D01*
X67314564Y-103316534D01*
X67313774Y-103317113D01*
X67207345Y-103388556D01*
X67206482Y-103389083D01*
X67105800Y-103444706D01*
X67104947Y-103445133D01*
X67008645Y-103488506D01*
X67007935Y-103488798D01*
X66914608Y-103523472D01*
X66914115Y-103523642D01*
X66822494Y-103553108D01*
X66822320Y-103553163D01*
X66731009Y-103580968D01*
X66639006Y-103610557D01*
X66638878Y-103610605D01*
X66638868Y-103610608D01*
X66545292Y-103645375D01*
X66545096Y-103645448D01*
X66544923Y-103645526D01*
X66544913Y-103645530D01*
X66448209Y-103689083D01*
X66448005Y-103689175D01*
X66447814Y-103689280D01*
X66447807Y-103689284D01*
X66400264Y-103715550D01*
X66346464Y-103745273D01*
X66239199Y-103817277D01*
X66239015Y-103817424D01*
X66239014Y-103817425D01*
X66125107Y-103908587D01*
X66125099Y-103908594D01*
X66124939Y-103908722D01*
X66124775Y-103908875D01*
X66124774Y-103908876D01*
X66010675Y-104015424D01*
X66002290Y-104018566D01*
X65994417Y-104015146D01*
X65656854Y-103677583D01*
X65653427Y-103669310D01*
X65656576Y-103661325D01*
X65763123Y-103547225D01*
X65763124Y-103547224D01*
X65763277Y-103547060D01*
X65763405Y-103546900D01*
X65763412Y-103546892D01*
X65854574Y-103432985D01*
X65854575Y-103432984D01*
X65854722Y-103432800D01*
X65926726Y-103325535D01*
X65956449Y-103271735D01*
X65982715Y-103224192D01*
X65982719Y-103224185D01*
X65982824Y-103223994D01*
X66026551Y-103126903D01*
X66026624Y-103126707D01*
X66061391Y-103033131D01*
X66061394Y-103033121D01*
X66061442Y-103032993D01*
X66091031Y-102940990D01*
X66118836Y-102849679D01*
X66118891Y-102849505D01*
X66148357Y-102757884D01*
X66148527Y-102757391D01*
X66183197Y-102664074D01*
X66183497Y-102663344D01*
X66226866Y-102567052D01*
X66227293Y-102566199D01*
X66282916Y-102465517D01*
X66283443Y-102464654D01*
X66354886Y-102358225D01*
X66355465Y-102357435D01*
X66446335Y-102243892D01*
X66446919Y-102243218D01*
X66555899Y-102126516D01*
X66564050Y-102122808D01*
X66568150Y-102123401D01*
G37*
%TD.AperFunction*%
%TD*%
%TA.AperFunction,Conductor*%
%TO.N,Net-(CP1-Pad1)*%
G36*
X64962708Y-105661328D02*
G01*
X64969599Y-105667046D01*
X64970551Y-105675533D01*
X64945931Y-105767412D01*
X64905757Y-105917334D01*
X64866886Y-106139852D01*
X64853271Y-106336980D01*
X64861330Y-106513486D01*
X64861382Y-106513806D01*
X64861383Y-106513815D01*
X64877859Y-106615026D01*
X64887481Y-106674139D01*
X64928142Y-106823709D01*
X64979731Y-106966965D01*
X64979771Y-106967062D01*
X64979779Y-106967082D01*
X65038639Y-107108611D01*
X65038666Y-107108675D01*
X65088396Y-107223632D01*
X65101315Y-107253497D01*
X65101398Y-107253693D01*
X65164142Y-107406290D01*
X65164333Y-107406786D01*
X65223596Y-107571872D01*
X65223831Y-107572602D01*
X65276094Y-107755007D01*
X65276311Y-107755891D01*
X65318060Y-107960508D01*
X65318213Y-107961459D01*
X65345884Y-108193086D01*
X65345958Y-108194019D01*
X65351732Y-108345814D01*
X65355713Y-108450463D01*
X65352603Y-108458861D01*
X65349253Y-108461373D01*
X64562841Y-108854579D01*
X64553909Y-108855214D01*
X64550122Y-108853105D01*
X64066597Y-108450463D01*
X63797690Y-108226537D01*
X63793525Y-108218610D01*
X63793978Y-108214158D01*
X63867513Y-107971144D01*
X63867532Y-107971079D01*
X63930932Y-107750764D01*
X63983872Y-107555886D01*
X63983879Y-107555857D01*
X63983892Y-107555811D01*
X64028294Y-107381663D01*
X64066041Y-107223697D01*
X64091960Y-107108675D01*
X64099032Y-107077288D01*
X64099036Y-107077269D01*
X64129172Y-106937815D01*
X64153407Y-106823928D01*
X64158360Y-106800653D01*
X64188499Y-106661180D01*
X64221491Y-106514771D01*
X64259237Y-106356805D01*
X64303640Y-106182657D01*
X64356600Y-105987704D01*
X64419994Y-105767412D01*
X64420039Y-105767259D01*
X64451086Y-105664656D01*
X64492391Y-105528158D01*
X64498067Y-105521233D01*
X64507046Y-105520371D01*
X64962708Y-105661328D01*
G37*
%TD.AperFunction*%
%TD*%
%TA.AperFunction,Conductor*%
%TO.N,data*%
G36*
X54361232Y-103717616D02*
G01*
X55199260Y-104136630D01*
X55205127Y-104143394D01*
X55205719Y-104147531D01*
X55198373Y-104344291D01*
X55198296Y-104345262D01*
X55176909Y-104521685D01*
X55176732Y-104522741D01*
X55143716Y-104676000D01*
X55143433Y-104677066D01*
X55100910Y-104811441D01*
X55100554Y-104812413D01*
X55050607Y-104932215D01*
X55050251Y-104932988D01*
X54994935Y-105042503D01*
X54994926Y-105042520D01*
X54994662Y-105043013D01*
X54936004Y-105146537D01*
X54935921Y-105146680D01*
X54876044Y-105248376D01*
X54817264Y-105352116D01*
X54817255Y-105352132D01*
X54817200Y-105352230D01*
X54761555Y-105462393D01*
X54711244Y-105583068D01*
X54668400Y-105718461D01*
X54635155Y-105872778D01*
X54613644Y-106050222D01*
X54613636Y-106050444D01*
X54613635Y-106050453D01*
X54606420Y-106243736D01*
X54602687Y-106251876D01*
X54594728Y-106255000D01*
X54117271Y-106255000D01*
X54108998Y-106251573D01*
X54105579Y-106243736D01*
X54098364Y-106050453D01*
X54098363Y-106050444D01*
X54098355Y-106050222D01*
X54076844Y-105872778D01*
X54043600Y-105718461D01*
X54000755Y-105583068D01*
X53950444Y-105462393D01*
X53894800Y-105352230D01*
X53835955Y-105248376D01*
X53776119Y-105146750D01*
X53776021Y-105146582D01*
X53717329Y-105042996D01*
X53717066Y-105042503D01*
X53661748Y-104932988D01*
X53661392Y-104932215D01*
X53611445Y-104812413D01*
X53611089Y-104811441D01*
X53568567Y-104677066D01*
X53568284Y-104676000D01*
X53535267Y-104522741D01*
X53535090Y-104521685D01*
X53513703Y-104345262D01*
X53513626Y-104344290D01*
X53506281Y-104147530D01*
X53509397Y-104139135D01*
X53512739Y-104136631D01*
X54350768Y-103717616D01*
X54359700Y-103716981D01*
X54361232Y-103717616D01*
G37*
%TD.AperFunction*%
%TD*%
%TA.AperFunction,Conductor*%
%TO.N,data*%
G36*
X58086029Y-113104895D02*
G01*
X58172699Y-113195971D01*
X58173129Y-113196450D01*
X58250965Y-113287816D01*
X58251407Y-113288367D01*
X58315006Y-113372859D01*
X58315428Y-113373458D01*
X58367386Y-113452316D01*
X58367754Y-113452912D01*
X58410721Y-113527482D01*
X58411001Y-113527999D01*
X58447560Y-113599535D01*
X58447734Y-113599889D01*
X58480522Y-113669773D01*
X58480581Y-113669900D01*
X58512172Y-113739373D01*
X58545038Y-113809424D01*
X58545050Y-113809447D01*
X58545078Y-113809508D01*
X58581873Y-113881509D01*
X58625153Y-113956619D01*
X58677509Y-114036082D01*
X58677619Y-114036228D01*
X58720701Y-114093462D01*
X58741536Y-114121142D01*
X58819826Y-114213041D01*
X58819924Y-114213144D01*
X58908903Y-114306646D01*
X58912123Y-114315002D01*
X58910522Y-114320626D01*
X58425534Y-115148553D01*
X58418396Y-115153959D01*
X58410208Y-115153104D01*
X58068508Y-114982254D01*
X57726809Y-114811404D01*
X57720941Y-114804639D01*
X57720354Y-114800396D01*
X57726004Y-114678886D01*
X57726102Y-114677824D01*
X57742333Y-114560641D01*
X57742503Y-114559696D01*
X57766453Y-114452435D01*
X57766651Y-114451673D01*
X57795785Y-114352976D01*
X57795954Y-114352449D01*
X57827761Y-114260868D01*
X57827848Y-114260626D01*
X57859769Y-114174855D01*
X57859782Y-114174819D01*
X57889220Y-114093577D01*
X57913544Y-114015663D01*
X57930177Y-113939725D01*
X57936543Y-113864408D01*
X57930067Y-113788359D01*
X57908170Y-113710223D01*
X57868279Y-113628647D01*
X57807817Y-113542278D01*
X57731665Y-113458013D01*
X57728660Y-113449578D01*
X57732072Y-113441896D01*
X58069280Y-113104688D01*
X58077553Y-113101261D01*
X58086029Y-113104895D01*
G37*
%TD.AperFunction*%
%TD*%
%TA.AperFunction,Conductor*%
%TO.N,Net-(Q1-Pad2)*%
G36*
X71097000Y-114808000D02*
G01*
X70924171Y-115153659D01*
X70725364Y-115551273D01*
X70718599Y-115557141D01*
X70714485Y-115557734D01*
X70689219Y-115556839D01*
X70542516Y-115551645D01*
X70541595Y-115551576D01*
X70448855Y-115540927D01*
X70386428Y-115533759D01*
X70385440Y-115533601D01*
X70250509Y-115506105D01*
X70249504Y-115505853D01*
X70131017Y-115470435D01*
X70130088Y-115470114D01*
X70024323Y-115428520D01*
X70023578Y-115428197D01*
X69995718Y-115414940D01*
X69926709Y-115382101D01*
X69926276Y-115381882D01*
X69834644Y-115333010D01*
X69834480Y-115332921D01*
X69744507Y-115283071D01*
X69744482Y-115283057D01*
X69744445Y-115283037D01*
X69652502Y-115234000D01*
X69652392Y-115233948D01*
X69652373Y-115233938D01*
X69555254Y-115187722D01*
X69555248Y-115187719D01*
X69555058Y-115187629D01*
X69448448Y-115145703D01*
X69381163Y-115125591D01*
X69329253Y-115110074D01*
X69329244Y-115110072D01*
X69329004Y-115110000D01*
X69280001Y-115100014D01*
X69193306Y-115082346D01*
X69193298Y-115082345D01*
X69193059Y-115082296D01*
X69192825Y-115082269D01*
X69192818Y-115082268D01*
X69037158Y-115064394D01*
X69037149Y-115064393D01*
X69036946Y-115064370D01*
X69036743Y-115064363D01*
X69036732Y-115064362D01*
X68957776Y-115061567D01*
X68868285Y-115058399D01*
X68860139Y-115054682D01*
X68857000Y-115046707D01*
X68857000Y-114569293D01*
X68860427Y-114561020D01*
X68868285Y-114557600D01*
X68952020Y-114554636D01*
X69036732Y-114551637D01*
X69036743Y-114551636D01*
X69036946Y-114551629D01*
X69037149Y-114551606D01*
X69037158Y-114551605D01*
X69192818Y-114533731D01*
X69192825Y-114533730D01*
X69193059Y-114533703D01*
X69193298Y-114533654D01*
X69193306Y-114533653D01*
X69280150Y-114515955D01*
X69329004Y-114506000D01*
X69329244Y-114505928D01*
X69329253Y-114505926D01*
X69381205Y-114490396D01*
X69448448Y-114470296D01*
X69555058Y-114428370D01*
X69555248Y-114428280D01*
X69555254Y-114428277D01*
X69652373Y-114382062D01*
X69652392Y-114382052D01*
X69652502Y-114382000D01*
X69744445Y-114332962D01*
X69744482Y-114332942D01*
X69744507Y-114332928D01*
X69834480Y-114283078D01*
X69834644Y-114282989D01*
X69834742Y-114282937D01*
X69926276Y-114234118D01*
X69926709Y-114233899D01*
X69995928Y-114200959D01*
X70023578Y-114187802D01*
X70024323Y-114187479D01*
X70130088Y-114145885D01*
X70131019Y-114145563D01*
X70249504Y-114110147D01*
X70250509Y-114109895D01*
X70385437Y-114082399D01*
X70386431Y-114082240D01*
X70430167Y-114077218D01*
X70541595Y-114064423D01*
X70542516Y-114064354D01*
X70612022Y-114061893D01*
X70722000Y-114058000D01*
X71097000Y-114808000D01*
G37*
%TD.AperFunction*%
%TD*%
%TA.AperFunction,Conductor*%
%TO.N,Net-(Q1-Pad2)*%
G36*
X63667093Y-114113718D02*
G01*
X63667983Y-114113782D01*
X63747940Y-114122650D01*
X63812528Y-114129814D01*
X63813477Y-114129960D01*
X63879089Y-114142866D01*
X63939268Y-114154703D01*
X63940251Y-114154941D01*
X64050769Y-114186800D01*
X64051674Y-114187101D01*
X64122448Y-114213920D01*
X64150449Y-114224531D01*
X64151172Y-114224834D01*
X64241632Y-114266286D01*
X64242101Y-114266513D01*
X64327860Y-114310533D01*
X64412139Y-114355466D01*
X64498118Y-114399600D01*
X64589194Y-114441333D01*
X64644456Y-114462274D01*
X64688544Y-114478982D01*
X64688555Y-114478986D01*
X64688767Y-114479066D01*
X64800236Y-114511200D01*
X64926998Y-114536133D01*
X64927236Y-114536159D01*
X64927240Y-114536160D01*
X65072233Y-114552242D01*
X65072243Y-114552243D01*
X65072453Y-114552266D01*
X65072674Y-114552274D01*
X65072680Y-114552274D01*
X65143615Y-114554701D01*
X65228701Y-114557613D01*
X65236851Y-114561321D01*
X65240000Y-114569306D01*
X65240000Y-115046694D01*
X65236573Y-115054967D01*
X65228701Y-115058387D01*
X65135532Y-115061575D01*
X65072680Y-115063725D01*
X65072674Y-115063725D01*
X65072453Y-115063733D01*
X65072243Y-115063756D01*
X65072233Y-115063757D01*
X64927240Y-115079839D01*
X64927236Y-115079840D01*
X64926998Y-115079866D01*
X64800236Y-115104800D01*
X64688767Y-115136933D01*
X64688555Y-115137013D01*
X64688544Y-115137017D01*
X64636233Y-115156841D01*
X64589194Y-115174666D01*
X64498118Y-115216400D01*
X64498028Y-115216446D01*
X64498018Y-115216451D01*
X64412195Y-115260504D01*
X64412139Y-115260533D01*
X64327860Y-115305466D01*
X64242119Y-115349478D01*
X64241650Y-115349706D01*
X64151160Y-115391170D01*
X64150432Y-115391474D01*
X64051674Y-115428898D01*
X64050769Y-115429199D01*
X63940251Y-115461059D01*
X63939268Y-115461297D01*
X63879124Y-115473127D01*
X63813477Y-115486039D01*
X63812528Y-115486185D01*
X63747940Y-115493349D01*
X63667983Y-115502217D01*
X63667093Y-115502281D01*
X63507506Y-115507743D01*
X63499121Y-115504601D01*
X63496641Y-115501282D01*
X63152616Y-114813232D01*
X63151981Y-114804300D01*
X63152616Y-114802768D01*
X63496641Y-114114718D01*
X63503406Y-114108850D01*
X63507506Y-114108257D01*
X63667093Y-114113718D01*
G37*
%TD.AperFunction*%
%TD*%
%TA.AperFunction,Conductor*%
%TO.N,Net-(C2-Pad1)*%
G36*
X77487000Y-108564000D02*
G01*
X77483496Y-108688734D01*
X77475351Y-108778478D01*
X77475351Y-108778479D01*
X77473673Y-108796971D01*
X77473573Y-108797767D01*
X77458467Y-108891961D01*
X77458307Y-108892776D01*
X77438851Y-108975861D01*
X77438645Y-108976623D01*
X77415797Y-109051129D01*
X77415585Y-109051755D01*
X77390283Y-109120214D01*
X77390123Y-109120625D01*
X77363237Y-109185706D01*
X77363176Y-109185849D01*
X77335770Y-109249773D01*
X77308800Y-109315060D01*
X77283296Y-109384062D01*
X77260237Y-109459256D01*
X77240600Y-109543120D01*
X77240568Y-109543322D01*
X77240567Y-109543325D01*
X77225396Y-109637919D01*
X77225362Y-109638131D01*
X77215503Y-109746765D01*
X77215498Y-109746960D01*
X77215497Y-109746969D01*
X77212319Y-109860128D01*
X77208662Y-109868302D01*
X77200624Y-109871500D01*
X76723376Y-109871500D01*
X76715103Y-109868073D01*
X76711681Y-109860129D01*
X76708502Y-109746969D01*
X76708501Y-109746960D01*
X76708496Y-109746765D01*
X76698637Y-109638131D01*
X76683400Y-109543120D01*
X76669874Y-109485359D01*
X76663808Y-109459452D01*
X76663807Y-109459449D01*
X76663762Y-109459256D01*
X76640703Y-109384062D01*
X76615200Y-109315060D01*
X76588229Y-109249773D01*
X76588221Y-109249754D01*
X76560823Y-109185849D01*
X76560762Y-109185706D01*
X76548676Y-109156449D01*
X76548363Y-109148367D01*
X76557511Y-109120214D01*
X76602262Y-108982482D01*
X76617500Y-108837504D01*
X76617500Y-108480981D01*
X76620927Y-108472708D01*
X76623968Y-108470516D01*
X76962000Y-108301500D01*
X77487000Y-108564000D01*
G37*
%TD.AperFunction*%
%TD*%
%TA.AperFunction,Conductor*%
%TO.N,Net-(C2-Pad1)*%
G36*
X83312344Y-102536420D02*
G01*
X83315063Y-102540394D01*
X83361707Y-102652987D01*
X83714278Y-103504044D01*
X83714279Y-103512998D01*
X83711869Y-103516665D01*
X83060941Y-104188041D01*
X83052722Y-104191596D01*
X83048622Y-104190921D01*
X83040522Y-104188041D01*
X82878096Y-104130293D01*
X82877304Y-104129977D01*
X82725117Y-104062660D01*
X82724319Y-104062270D01*
X82593186Y-103991929D01*
X82592466Y-103991509D01*
X82478357Y-103919380D01*
X82477778Y-103918989D01*
X82376702Y-103846312D01*
X82376323Y-103846028D01*
X82284246Y-103773995D01*
X82284114Y-103773890D01*
X82246547Y-103743619D01*
X82197169Y-103703830D01*
X82111499Y-103637108D01*
X82023231Y-103575078D01*
X82023026Y-103574957D01*
X82023017Y-103574951D01*
X81928676Y-103519189D01*
X81928675Y-103519188D01*
X81928417Y-103519036D01*
X81928154Y-103518914D01*
X81928146Y-103518910D01*
X81823400Y-103470412D01*
X81823396Y-103470410D01*
X81823110Y-103470278D01*
X81822812Y-103470178D01*
X81822807Y-103470176D01*
X81762056Y-103449793D01*
X81703362Y-103430100D01*
X81703043Y-103430030D01*
X81565510Y-103399859D01*
X81565504Y-103399858D01*
X81565226Y-103399797D01*
X81564948Y-103399764D01*
X81564943Y-103399763D01*
X81478506Y-103389458D01*
X81404755Y-103380665D01*
X81229282Y-103374403D01*
X81221137Y-103370683D01*
X81218000Y-103362710D01*
X81218000Y-102885446D01*
X81221427Y-102877173D01*
X81229443Y-102873749D01*
X81416291Y-102869655D01*
X81589429Y-102857429D01*
X81741284Y-102838536D01*
X81875724Y-102814186D01*
X81875865Y-102814153D01*
X81875873Y-102814151D01*
X81996478Y-102785626D01*
X81996495Y-102785622D01*
X81996620Y-102785592D01*
X81996761Y-102785552D01*
X82107766Y-102753990D01*
X82107786Y-102753984D01*
X82107842Y-102753968D01*
X82117337Y-102750956D01*
X82213237Y-102720531D01*
X82213258Y-102720524D01*
X82316720Y-102686482D01*
X82316839Y-102686444D01*
X82421978Y-102653089D01*
X82422316Y-102652987D01*
X82533126Y-102621479D01*
X82533633Y-102621347D01*
X82576195Y-102611280D01*
X82653975Y-102592884D01*
X82654574Y-102592759D01*
X82788423Y-102568517D01*
X82789033Y-102568424D01*
X82878074Y-102557346D01*
X82940251Y-102549610D01*
X82940872Y-102549549D01*
X83113430Y-102537364D01*
X83113998Y-102537338D01*
X83216636Y-102535089D01*
X83303999Y-102533175D01*
X83312344Y-102536420D01*
G37*
%TD.AperFunction*%
%TD*%
%TA.AperFunction,Conductor*%
%TO.N,Net-(C2-Pad1)*%
G36*
X78130357Y-102331007D02*
G01*
X78297133Y-102350725D01*
X78442263Y-102381200D01*
X78569682Y-102420474D01*
X78683326Y-102466592D01*
X78787131Y-102517600D01*
X78885033Y-102571540D01*
X78980966Y-102626459D01*
X79078868Y-102680400D01*
X79108458Y-102694940D01*
X79110128Y-102695760D01*
X79110128Y-102695761D01*
X79139969Y-102710424D01*
X79182673Y-102731407D01*
X79296317Y-102777525D01*
X79385198Y-102804921D01*
X79423466Y-102816717D01*
X79423470Y-102816718D01*
X79423736Y-102816800D01*
X79424012Y-102816858D01*
X79424016Y-102816859D01*
X79568598Y-102847218D01*
X79568604Y-102847219D01*
X79568866Y-102847274D01*
X79569131Y-102847305D01*
X79569135Y-102847306D01*
X79660252Y-102858079D01*
X79735642Y-102866992D01*
X79916727Y-102873589D01*
X79924869Y-102877315D01*
X79928000Y-102885281D01*
X79928000Y-103362719D01*
X79924573Y-103370992D01*
X79916727Y-103374411D01*
X79735642Y-103381007D01*
X79660252Y-103389920D01*
X79569135Y-103400693D01*
X79569131Y-103400694D01*
X79568866Y-103400725D01*
X79568604Y-103400780D01*
X79568598Y-103400781D01*
X79424016Y-103431141D01*
X79424012Y-103431142D01*
X79423736Y-103431200D01*
X79423470Y-103431282D01*
X79423466Y-103431283D01*
X79385353Y-103443031D01*
X79296317Y-103470474D01*
X79182673Y-103516592D01*
X79182498Y-103516678D01*
X79182489Y-103516682D01*
X79078988Y-103567541D01*
X79078868Y-103567600D01*
X79078764Y-103567657D01*
X79078753Y-103567663D01*
X78980995Y-103621524D01*
X78980966Y-103621540D01*
X78929157Y-103651199D01*
X78885125Y-103676406D01*
X78884958Y-103676500D01*
X78787369Y-103730269D01*
X78786883Y-103730522D01*
X78683690Y-103781228D01*
X78682929Y-103781568D01*
X78620786Y-103806786D01*
X78620786Y-103806787D01*
X78569682Y-103827525D01*
X78442263Y-103866800D01*
X78297133Y-103897274D01*
X78130357Y-103916992D01*
X77938000Y-103924000D01*
X77538000Y-103124000D01*
X77938000Y-102324000D01*
X78130357Y-102331007D01*
G37*
%TD.AperFunction*%
%TD*%
%TA.AperFunction,Conductor*%
%TO.N,Net-(C2-Pad1)*%
G36*
X79844821Y-100642015D02*
G01*
X80075697Y-100763803D01*
X80266638Y-100864525D01*
X80272356Y-100871416D01*
X80271475Y-100880431D01*
X80139634Y-101124674D01*
X80139514Y-101124890D01*
X80014453Y-101345293D01*
X80014334Y-101345497D01*
X79919704Y-101503616D01*
X79899708Y-101537027D01*
X79899574Y-101537246D01*
X79865080Y-101591840D01*
X79793465Y-101705188D01*
X79793316Y-101705418D01*
X79693849Y-101854991D01*
X79693718Y-101855184D01*
X79598972Y-101991668D01*
X79598881Y-101991798D01*
X79506877Y-102120559D01*
X79506862Y-102120548D01*
X79506844Y-102120604D01*
X79415794Y-102246732D01*
X79323763Y-102375529D01*
X79228890Y-102512197D01*
X79129281Y-102661983D01*
X79023040Y-102830135D01*
X78908274Y-103021899D01*
X78783088Y-103242523D01*
X78645587Y-103497255D01*
X77655158Y-103406842D01*
X77374695Y-102565455D01*
X77375330Y-102556523D01*
X77377827Y-102553188D01*
X77421802Y-102512289D01*
X77586692Y-102358929D01*
X77587374Y-102358342D01*
X77789720Y-102197290D01*
X77790455Y-102196749D01*
X77982174Y-102067258D01*
X77982904Y-102066803D01*
X78165062Y-101962433D01*
X78165703Y-101962092D01*
X78339418Y-101876392D01*
X78339868Y-101876182D01*
X78409859Y-101845280D01*
X78506339Y-101802683D01*
X78666503Y-101735025D01*
X78821148Y-101666885D01*
X78971295Y-101591840D01*
X79117963Y-101503464D01*
X79118187Y-101503296D01*
X79118193Y-101503292D01*
X79261912Y-101395528D01*
X79261915Y-101395525D01*
X79262173Y-101395332D01*
X79404946Y-101261019D01*
X79547302Y-101094102D01*
X79690261Y-100888154D01*
X79829221Y-100646530D01*
X79836316Y-100641067D01*
X79844821Y-100642015D01*
G37*
%TD.AperFunction*%
%TD*%
%TA.AperFunction,Conductor*%
%TO.N,Net-(C2-Pad2)*%
G36*
X71046803Y-100646508D02*
G01*
X71185760Y-100888132D01*
X71328718Y-101094081D01*
X71471072Y-101261000D01*
X71613843Y-101395314D01*
X71758051Y-101503447D01*
X71758296Y-101503595D01*
X71758301Y-101503598D01*
X71841899Y-101553972D01*
X71904718Y-101591826D01*
X71904929Y-101591931D01*
X71904939Y-101591937D01*
X71980616Y-101629763D01*
X72054862Y-101666874D01*
X72141703Y-101705139D01*
X72209505Y-101735015D01*
X72369594Y-101802645D01*
X72369748Y-101802712D01*
X72536153Y-101876183D01*
X72536557Y-101876372D01*
X72646257Y-101930492D01*
X72710307Y-101962092D01*
X72710947Y-101962433D01*
X72893097Y-102066801D01*
X72893827Y-102067255D01*
X72972724Y-102120545D01*
X73085545Y-102196748D01*
X73086282Y-102197290D01*
X73288626Y-102358342D01*
X73289308Y-102358929D01*
X73498173Y-102553188D01*
X73501897Y-102561331D01*
X73501305Y-102565455D01*
X73223261Y-103399585D01*
X73217393Y-103406350D01*
X73213225Y-103407537D01*
X72573254Y-103465957D01*
X72238104Y-103496552D01*
X72229553Y-103493891D01*
X72226744Y-103490458D01*
X72092941Y-103242577D01*
X72092911Y-103242521D01*
X71967725Y-103021896D01*
X71852960Y-102830130D01*
X71746722Y-102661977D01*
X71647114Y-102512189D01*
X71552243Y-102375519D01*
X71460215Y-102246720D01*
X71369133Y-102120545D01*
X71330886Y-102067016D01*
X71277132Y-101991783D01*
X71277041Y-101991653D01*
X71182321Y-101855201D01*
X71182189Y-101855008D01*
X71082681Y-101705369D01*
X71082533Y-101705139D01*
X70976459Y-101537248D01*
X70976311Y-101537007D01*
X70956123Y-101503273D01*
X70861686Y-101345475D01*
X70861567Y-101345271D01*
X70813607Y-101260746D01*
X70736507Y-101124867D01*
X70736387Y-101124651D01*
X70604548Y-100880407D01*
X70603634Y-100871499D01*
X70609385Y-100864501D01*
X71022642Y-100646508D01*
X71031202Y-100641993D01*
X71040118Y-100641164D01*
X71046803Y-100646508D01*
G37*
%TD.AperFunction*%
%TD*%
%TA.AperFunction,Conductor*%
%TO.N,Net-(C2-Pad2)*%
G36*
X70358868Y-98009397D02*
G01*
X70361367Y-98012734D01*
X70758000Y-98806000D01*
X70358000Y-99606000D01*
X70165642Y-99598992D01*
X69998866Y-99579274D01*
X69853736Y-99548800D01*
X69845206Y-99546171D01*
X69845205Y-99546170D01*
X69726800Y-99509674D01*
X69725846Y-99509334D01*
X69613056Y-99463562D01*
X69612311Y-99463229D01*
X69509111Y-99412520D01*
X69508630Y-99412269D01*
X69411041Y-99358500D01*
X69410874Y-99358406D01*
X69366842Y-99333199D01*
X69315033Y-99303540D01*
X69315004Y-99303524D01*
X69217246Y-99249663D01*
X69217235Y-99249657D01*
X69217131Y-99249600D01*
X69217011Y-99249541D01*
X69113510Y-99198682D01*
X69113501Y-99198678D01*
X69113326Y-99198592D01*
X68999682Y-99152474D01*
X68910646Y-99125031D01*
X68872533Y-99113283D01*
X68872529Y-99113282D01*
X68872263Y-99113200D01*
X68871987Y-99113142D01*
X68871983Y-99113141D01*
X68727401Y-99082781D01*
X68727395Y-99082780D01*
X68727133Y-99082725D01*
X68726868Y-99082694D01*
X68726864Y-99082693D01*
X68635747Y-99071920D01*
X68560357Y-99063007D01*
X68379273Y-99056411D01*
X68371131Y-99052686D01*
X68368000Y-99044719D01*
X68368000Y-98567281D01*
X68371427Y-98559008D01*
X68379273Y-98555589D01*
X68560357Y-98548992D01*
X68635747Y-98540079D01*
X68726864Y-98529306D01*
X68726868Y-98529305D01*
X68727133Y-98529274D01*
X68727395Y-98529219D01*
X68727401Y-98529218D01*
X68871983Y-98498859D01*
X68871987Y-98498858D01*
X68872263Y-98498800D01*
X68872529Y-98498718D01*
X68872533Y-98498717D01*
X68910801Y-98486921D01*
X68999682Y-98459525D01*
X69113326Y-98413407D01*
X69217131Y-98362400D01*
X69217235Y-98362343D01*
X69217246Y-98362337D01*
X69315004Y-98308475D01*
X69315005Y-98308474D01*
X69315033Y-98308459D01*
X69366842Y-98278800D01*
X69410874Y-98253593D01*
X69411041Y-98253499D01*
X69508630Y-98199731D01*
X69509116Y-98199478D01*
X69612311Y-98148770D01*
X69613056Y-98148437D01*
X69725849Y-98102664D01*
X69726800Y-98102325D01*
X69853235Y-98063354D01*
X69854257Y-98063091D01*
X69998354Y-98032832D01*
X69999379Y-98032664D01*
X70033370Y-98028646D01*
X70165172Y-98013063D01*
X70166120Y-98012990D01*
X70321839Y-98007317D01*
X70350476Y-98006274D01*
X70358868Y-98009397D01*
G37*
%TD.AperFunction*%
%TD*%
%TA.AperFunction,Conductor*%
%TO.N,Net-(C2-Pad2)*%
G36*
X66461093Y-98111718D02*
G01*
X66461983Y-98111782D01*
X66541940Y-98120650D01*
X66606528Y-98127814D01*
X66607477Y-98127960D01*
X66673089Y-98140866D01*
X66733268Y-98152703D01*
X66734251Y-98152941D01*
X66844769Y-98184800D01*
X66845674Y-98185101D01*
X66916448Y-98211920D01*
X66944449Y-98222531D01*
X66945172Y-98222834D01*
X67035632Y-98264286D01*
X67036101Y-98264513D01*
X67121860Y-98308533D01*
X67206139Y-98353466D01*
X67292118Y-98397600D01*
X67383194Y-98439333D01*
X67438456Y-98460274D01*
X67482544Y-98476982D01*
X67482555Y-98476986D01*
X67482767Y-98477066D01*
X67594236Y-98509200D01*
X67720998Y-98534133D01*
X67721236Y-98534159D01*
X67721240Y-98534160D01*
X67866233Y-98550242D01*
X67866243Y-98550243D01*
X67866453Y-98550266D01*
X67866674Y-98550274D01*
X67866680Y-98550274D01*
X67937615Y-98552701D01*
X68022701Y-98555613D01*
X68030851Y-98559321D01*
X68034000Y-98567306D01*
X68034000Y-99044694D01*
X68030573Y-99052967D01*
X68022701Y-99056387D01*
X67929532Y-99059575D01*
X67866680Y-99061725D01*
X67866674Y-99061725D01*
X67866453Y-99061733D01*
X67866243Y-99061756D01*
X67866233Y-99061757D01*
X67721240Y-99077839D01*
X67721236Y-99077840D01*
X67720998Y-99077866D01*
X67594236Y-99102800D01*
X67482767Y-99134933D01*
X67482555Y-99135013D01*
X67482544Y-99135017D01*
X67430233Y-99154841D01*
X67383194Y-99172666D01*
X67292118Y-99214400D01*
X67292028Y-99214446D01*
X67292018Y-99214451D01*
X67206195Y-99258504D01*
X67206139Y-99258533D01*
X67121860Y-99303466D01*
X67036119Y-99347478D01*
X67035650Y-99347706D01*
X66945160Y-99389170D01*
X66944432Y-99389474D01*
X66845674Y-99426898D01*
X66844769Y-99427199D01*
X66734251Y-99459059D01*
X66733268Y-99459297D01*
X66673124Y-99471127D01*
X66607477Y-99484039D01*
X66606528Y-99484185D01*
X66541940Y-99491349D01*
X66461983Y-99500217D01*
X66461093Y-99500281D01*
X66301506Y-99505743D01*
X66293121Y-99502601D01*
X66290641Y-99499282D01*
X65946616Y-98811232D01*
X65945981Y-98802300D01*
X65946616Y-98800768D01*
X66290641Y-98112718D01*
X66297406Y-98106850D01*
X66301506Y-98106257D01*
X66461093Y-98111718D01*
G37*
%TD.AperFunction*%
%TD*%
%TA.AperFunction,Conductor*%
%TO.N,Net-(C1-Pad2)*%
G36*
X61691117Y-101983915D02*
G01*
X62082384Y-102299597D01*
X62287806Y-102465336D01*
X62292093Y-102473198D01*
X62291408Y-102478565D01*
X61978891Y-103308324D01*
X61972769Y-103314857D01*
X61967799Y-103315898D01*
X61871216Y-103314691D01*
X61816991Y-103314014D01*
X61816668Y-103314006D01*
X61766208Y-103311981D01*
X61677581Y-103308424D01*
X61677288Y-103308408D01*
X61555006Y-103299787D01*
X61554694Y-103299760D01*
X61495100Y-103293661D01*
X61446187Y-103288656D01*
X61445833Y-103288615D01*
X61391686Y-103281402D01*
X61347922Y-103275572D01*
X61347675Y-103275536D01*
X61283699Y-103265316D01*
X61257297Y-103261099D01*
X61257094Y-103261064D01*
X61216096Y-103253770D01*
X61171234Y-103245788D01*
X61126490Y-103237537D01*
X61086821Y-103230221D01*
X61086794Y-103230216D01*
X61086765Y-103230211D01*
X61000772Y-103214912D01*
X60910203Y-103200444D01*
X60898431Y-103198876D01*
X60812082Y-103187372D01*
X60812060Y-103187370D01*
X60812011Y-103187363D01*
X60811874Y-103187349D01*
X60811447Y-103187305D01*
X60811445Y-103187305D01*
X60703144Y-103176224D01*
X60580553Y-103167580D01*
X60441188Y-103161987D01*
X60282000Y-103160000D01*
X60282000Y-102660000D01*
X60426918Y-102655356D01*
X60551702Y-102641888D01*
X60659302Y-102620290D01*
X60697703Y-102608348D01*
X60752369Y-102591348D01*
X60752371Y-102591347D01*
X60752674Y-102591253D01*
X60834770Y-102555471D01*
X60908543Y-102513638D01*
X60926680Y-102501126D01*
X60976804Y-102466546D01*
X60976811Y-102466541D01*
X60976947Y-102466447D01*
X61042936Y-102414592D01*
X61043004Y-102414535D01*
X61109426Y-102358795D01*
X61109462Y-102358764D01*
X61179355Y-102299763D01*
X61179555Y-102299597D01*
X61255765Y-102238110D01*
X61256149Y-102237814D01*
X61261631Y-102233754D01*
X61341549Y-102174571D01*
X61342045Y-102174223D01*
X61439723Y-102109793D01*
X61440326Y-102109422D01*
X61553199Y-102044504D01*
X61553850Y-102044156D01*
X61675788Y-101983916D01*
X61678590Y-101982532D01*
X61687524Y-101981940D01*
X61691117Y-101983915D01*
G37*
%TD.AperFunction*%
%TD*%
%TA.AperFunction,Conductor*%
%TO.N,Net-(C1-Pad2)*%
G36*
X59374357Y-102117007D02*
G01*
X59541133Y-102136725D01*
X59685742Y-102167091D01*
X59686764Y-102167354D01*
X59813199Y-102206325D01*
X59814150Y-102206664D01*
X59926943Y-102252437D01*
X59927688Y-102252770D01*
X60030883Y-102303478D01*
X60031369Y-102303731D01*
X60128958Y-102357499D01*
X60129125Y-102357593D01*
X60173157Y-102382800D01*
X60224966Y-102412459D01*
X60224994Y-102412474D01*
X60224995Y-102412475D01*
X60322753Y-102466337D01*
X60322764Y-102466343D01*
X60322868Y-102466400D01*
X60426673Y-102517407D01*
X60540317Y-102563525D01*
X60629198Y-102590921D01*
X60667466Y-102602717D01*
X60667470Y-102602718D01*
X60667736Y-102602800D01*
X60668012Y-102602858D01*
X60668016Y-102602859D01*
X60674021Y-102604120D01*
X60812866Y-102633274D01*
X60979642Y-102652992D01*
X61172000Y-102660000D01*
X61172000Y-103160000D01*
X60979642Y-103167007D01*
X60812866Y-103186725D01*
X60705439Y-103209283D01*
X60668016Y-103217141D01*
X60668012Y-103217142D01*
X60667736Y-103217200D01*
X60667470Y-103217282D01*
X60667466Y-103217283D01*
X60629353Y-103229031D01*
X60540317Y-103256474D01*
X60426673Y-103302592D01*
X60426498Y-103302678D01*
X60426489Y-103302682D01*
X60322988Y-103353541D01*
X60322868Y-103353600D01*
X60322764Y-103353657D01*
X60322753Y-103353663D01*
X60224995Y-103407524D01*
X60224966Y-103407540D01*
X60173157Y-103437199D01*
X60129125Y-103462406D01*
X60128958Y-103462500D01*
X60031369Y-103516269D01*
X60030888Y-103516520D01*
X59927688Y-103567229D01*
X59926943Y-103567562D01*
X59814153Y-103613334D01*
X59813202Y-103613673D01*
X59686764Y-103652646D01*
X59685742Y-103652909D01*
X59541645Y-103683166D01*
X59540620Y-103683335D01*
X59506629Y-103687353D01*
X59374827Y-103702936D01*
X59373879Y-103703009D01*
X59229912Y-103708254D01*
X59189524Y-103709726D01*
X59181132Y-103706603D01*
X59178633Y-103703266D01*
X58782000Y-102910000D01*
X59182000Y-102110000D01*
X59374357Y-102117007D01*
G37*
%TD.AperFunction*%
%TD*%
%TA.AperFunction,Conductor*%
%TO.N,Net-(C1-Pad2)*%
G36*
X59367282Y-98802641D02*
G01*
X59373150Y-98809406D01*
X59373743Y-98813506D01*
X59368281Y-98973093D01*
X59368217Y-98973983D01*
X59352187Y-99118518D01*
X59352039Y-99119477D01*
X59351217Y-99123659D01*
X59327297Y-99245268D01*
X59327059Y-99246251D01*
X59295199Y-99356769D01*
X59294898Y-99357674D01*
X59257474Y-99456432D01*
X59257170Y-99457160D01*
X59215706Y-99547650D01*
X59215487Y-99548101D01*
X59171466Y-99633860D01*
X59126533Y-99718139D01*
X59082400Y-99804118D01*
X59040666Y-99895194D01*
X59040599Y-99895372D01*
X59003017Y-99994544D01*
X59003013Y-99994555D01*
X59002933Y-99994767D01*
X58970800Y-100106236D01*
X58945866Y-100232998D01*
X58929733Y-100378453D01*
X58929725Y-100378674D01*
X58929725Y-100378680D01*
X58924387Y-100534700D01*
X58920679Y-100542851D01*
X58912694Y-100546000D01*
X58435306Y-100546000D01*
X58427033Y-100542573D01*
X58423613Y-100534700D01*
X58418274Y-100378680D01*
X58418274Y-100378674D01*
X58418266Y-100378453D01*
X58402133Y-100232998D01*
X58377200Y-100106236D01*
X58345066Y-99994767D01*
X58344986Y-99994555D01*
X58344982Y-99994544D01*
X58307400Y-99895372D01*
X58307333Y-99895194D01*
X58265600Y-99804118D01*
X58221466Y-99718139D01*
X58176533Y-99633860D01*
X58132513Y-99548101D01*
X58132286Y-99547632D01*
X58094884Y-99466008D01*
X58094883Y-99466007D01*
X58093914Y-99463892D01*
X58093913Y-99463892D01*
X58090666Y-99456805D01*
X58052933Y-99357232D01*
X58020800Y-99245763D01*
X57995866Y-99119001D01*
X57979733Y-98973546D01*
X57974000Y-98806000D01*
X58674000Y-98456000D01*
X59367282Y-98802641D01*
G37*
%TD.AperFunction*%
%TD*%
%TA.AperFunction,Conductor*%
%TO.N,Net-(C1-Pad2)*%
G36*
X58920962Y-101085427D02*
G01*
X58924382Y-101093304D01*
X58928987Y-101229734D01*
X58943643Y-101356726D01*
X58967504Y-101465804D01*
X59000111Y-101559796D01*
X59041001Y-101641530D01*
X59089713Y-101713834D01*
X59145785Y-101779536D01*
X59208757Y-101841464D01*
X59278167Y-101902448D01*
X59278216Y-101902489D01*
X59278237Y-101902507D01*
X59353545Y-101965308D01*
X59353553Y-101965314D01*
X59434375Y-102032824D01*
X59434573Y-102032994D01*
X59520233Y-102107852D01*
X59520566Y-102108154D01*
X59548944Y-102134945D01*
X59610955Y-102193489D01*
X59705633Y-102292168D01*
X59803980Y-102406870D01*
X59433565Y-103220990D01*
X58390409Y-102912487D01*
X58383447Y-102906854D01*
X58382027Y-102901230D01*
X58382535Y-102738806D01*
X58382536Y-102738726D01*
X58384039Y-102588841D01*
X58384040Y-102588752D01*
X58386366Y-102456678D01*
X58386368Y-102456586D01*
X58389365Y-102339146D01*
X58389367Y-102339056D01*
X58390922Y-102292168D01*
X58392888Y-102232909D01*
X58396784Y-102134893D01*
X58400903Y-102041755D01*
X58405096Y-101950244D01*
X58409216Y-101857106D01*
X58413111Y-101759090D01*
X58416632Y-101652943D01*
X58419632Y-101535413D01*
X58421959Y-101403247D01*
X58423464Y-101253193D01*
X58423963Y-101093662D01*
X58427416Y-101085401D01*
X58435663Y-101082000D01*
X58912689Y-101082000D01*
X58920962Y-101085427D01*
G37*
%TD.AperFunction*%
%TD*%
%TA.AperFunction,Conductor*%
%TO.N,Net-(C1-Pad2)*%
G36*
X54425844Y-98212607D02*
G01*
X54560290Y-98217626D01*
X54561262Y-98217703D01*
X54737685Y-98239090D01*
X54738741Y-98239267D01*
X54892000Y-98272284D01*
X54893066Y-98272567D01*
X55027441Y-98315089D01*
X55028413Y-98315445D01*
X55148215Y-98365392D01*
X55148988Y-98365748D01*
X55258503Y-98421066D01*
X55258996Y-98421329D01*
X55362582Y-98480021D01*
X55362750Y-98480119D01*
X55464376Y-98539955D01*
X55568230Y-98598800D01*
X55678393Y-98654444D01*
X55678583Y-98654523D01*
X55678589Y-98654526D01*
X55798832Y-98704657D01*
X55798840Y-98704660D01*
X55799068Y-98704755D01*
X55934461Y-98747600D01*
X56088778Y-98780844D01*
X56089035Y-98780875D01*
X56089040Y-98780876D01*
X56207495Y-98795236D01*
X56266222Y-98802355D01*
X56266444Y-98802363D01*
X56266453Y-98802364D01*
X56351377Y-98805534D01*
X56459737Y-98809580D01*
X56467876Y-98813312D01*
X56471000Y-98821271D01*
X56471000Y-99298728D01*
X56467573Y-99307001D01*
X56459736Y-99310420D01*
X56266453Y-99317635D01*
X56266444Y-99317636D01*
X56266222Y-99317644D01*
X56207495Y-99324763D01*
X56089040Y-99339123D01*
X56089035Y-99339124D01*
X56088778Y-99339155D01*
X55934461Y-99372400D01*
X55878992Y-99389953D01*
X55799307Y-99415168D01*
X55799300Y-99415171D01*
X55799068Y-99415244D01*
X55798840Y-99415339D01*
X55798832Y-99415342D01*
X55678589Y-99465473D01*
X55678583Y-99465476D01*
X55678393Y-99465555D01*
X55568230Y-99521200D01*
X55568132Y-99521255D01*
X55568116Y-99521264D01*
X55464376Y-99580044D01*
X55464335Y-99580068D01*
X55362705Y-99639907D01*
X55362537Y-99640004D01*
X55259013Y-99698662D01*
X55258520Y-99698926D01*
X55148988Y-99754251D01*
X55148215Y-99754607D01*
X55028413Y-99804554D01*
X55027441Y-99804910D01*
X54893066Y-99847433D01*
X54892000Y-99847716D01*
X54738741Y-99880732D01*
X54737685Y-99880909D01*
X54561262Y-99902296D01*
X54560291Y-99902373D01*
X54466179Y-99905887D01*
X54363531Y-99909719D01*
X54355135Y-99906603D01*
X54352629Y-99903259D01*
X53933616Y-99065232D01*
X53932981Y-99056300D01*
X53933616Y-99054768D01*
X54352630Y-98216740D01*
X54359394Y-98210873D01*
X54363530Y-98210281D01*
X54425844Y-98212607D01*
G37*
%TD.AperFunction*%
%TD*%
%TA.AperFunction,Conductor*%
%TO.N,Net-(C1-Pad2)*%
G36*
X58426122Y-98158515D02*
G01*
X58749561Y-98451893D01*
X59000257Y-98679289D01*
X58674000Y-99506000D01*
X58513546Y-99503502D01*
X58373172Y-99496475D01*
X58249790Y-99485616D01*
X58140309Y-99471620D01*
X58093914Y-99463892D01*
X58092319Y-99463626D01*
X58060019Y-99458246D01*
X58041814Y-99455214D01*
X58041465Y-99455150D01*
X58013055Y-99449472D01*
X57950812Y-99437031D01*
X57950562Y-99436978D01*
X57864450Y-99417800D01*
X57864361Y-99417780D01*
X57779616Y-99398214D01*
X57693421Y-99379018D01*
X57693415Y-99379017D01*
X57693304Y-99378992D01*
X57693221Y-99378975D01*
X57693205Y-99378972D01*
X57602436Y-99360829D01*
X57602413Y-99360825D01*
X57602359Y-99360814D01*
X57602304Y-99360805D01*
X57602283Y-99360801D01*
X57503777Y-99344393D01*
X57503753Y-99344389D01*
X57503690Y-99344379D01*
X57503621Y-99344370D01*
X57503613Y-99344369D01*
X57394326Y-99330399D01*
X57394328Y-99330399D01*
X57394209Y-99330384D01*
X57270827Y-99319524D01*
X57130453Y-99312497D01*
X57034235Y-99311000D01*
X56981518Y-99310179D01*
X56973299Y-99306623D01*
X56970000Y-99298480D01*
X56970000Y-98821328D01*
X56973427Y-98813055D01*
X56981321Y-98809634D01*
X57076143Y-98806572D01*
X57117734Y-98805229D01*
X57117738Y-98805229D01*
X57117946Y-98805222D01*
X57245373Y-98791420D01*
X57355325Y-98769391D01*
X57450848Y-98739932D01*
X57451118Y-98739816D01*
X57451124Y-98739814D01*
X57534734Y-98703951D01*
X57534737Y-98703949D01*
X57534990Y-98703841D01*
X57610796Y-98661913D01*
X57647384Y-98637544D01*
X57681171Y-98615042D01*
X57681181Y-98615035D01*
X57681313Y-98614947D01*
X57749587Y-98563740D01*
X57749659Y-98563683D01*
X57749676Y-98563670D01*
X57818631Y-98509113D01*
X57818663Y-98509088D01*
X57891458Y-98451893D01*
X57891720Y-98451693D01*
X57902517Y-98443692D01*
X57971198Y-98392797D01*
X57971622Y-98392499D01*
X58012167Y-98365306D01*
X58060890Y-98332629D01*
X58061474Y-98332262D01*
X58163603Y-98272170D01*
X58164267Y-98271808D01*
X58282369Y-98212235D01*
X58283063Y-98211913D01*
X58413686Y-98156413D01*
X58422640Y-98156331D01*
X58426122Y-98158515D01*
G37*
%TD.AperFunction*%
%TD*%
M02*
