%TF.GenerationSoftware,KiCad,Pcbnew,(6.0.7)*%
%TF.CreationDate,2022-10-05T07:51:38+03:00*%
%TF.ProjectId,Basic-150-MHz-Telemetry-Transmitter-THT,42617369-632d-4313-9530-2d4d487a2d54,rev?*%
%TF.SameCoordinates,Original*%
%TF.FileFunction,Copper,L1,Top*%
%TF.FilePolarity,Positive*%
%FSLAX46Y46*%
G04 Gerber Fmt 4.6, Leading zero omitted, Abs format (unit mm)*
G04 Created by KiCad (PCBNEW (6.0.7)) date 2022-10-05 07:51:38*
%MOMM*%
%LPD*%
G01*
G04 APERTURE LIST*
%TA.AperFunction,ComponentPad*%
%ADD10C,1.600000*%
%TD*%
%TA.AperFunction,ComponentPad*%
%ADD11C,1.400000*%
%TD*%
%TA.AperFunction,ComponentPad*%
%ADD12O,1.400000X1.400000*%
%TD*%
%TA.AperFunction,ComponentPad*%
%ADD13R,1.700000X1.700000*%
%TD*%
%TA.AperFunction,ComponentPad*%
%ADD14O,1.700000X1.700000*%
%TD*%
%TA.AperFunction,ComponentPad*%
%ADD15C,1.500000*%
%TD*%
%TA.AperFunction,ComponentPad*%
%ADD16O,1.600000X1.600000*%
%TD*%
%TA.AperFunction,ComponentPad*%
%ADD17R,1.050000X1.500000*%
%TD*%
%TA.AperFunction,ComponentPad*%
%ADD18O,1.050000X1.500000*%
%TD*%
%TA.AperFunction,ComponentPad*%
%ADD19C,1.700000*%
%TD*%
%TA.AperFunction,Conductor*%
%ADD20C,0.500000*%
%TD*%
G04 APERTURE END LIST*
D10*
%TO.P,CP1,1*%
%TO.N,Net-(CP1-Pad1)*%
X64556000Y-108458000D03*
%TO.P,CP1,2*%
%TO.N,GND*%
X69556000Y-108458000D03*
%TD*%
D11*
%TO.P,RP1,1*%
%TO.N,Net-(C1-Pad2)*%
X61976000Y-102616000D03*
D12*
%TO.P,RP1,2*%
%TO.N,Net-(CP1-Pad1)*%
X67056000Y-102616000D03*
%TD*%
D11*
%TO.P,R1,1*%
%TO.N,data*%
X58420000Y-114808000D03*
D12*
%TO.P,R1,2*%
%TO.N,Net-(Q1-Pad2)*%
X63500000Y-114808000D03*
%TD*%
D10*
%TO.P,C2,1*%
%TO.N,Net-(C2-Pad1)*%
X77938000Y-103124000D03*
%TO.P,C2,2*%
%TO.N,Net-(C2-Pad2)*%
X72938000Y-103124000D03*
%TD*%
D13*
%TO.P,J2,1,Pin_1*%
%TO.N,GND*%
X83312000Y-105923000D03*
D14*
%TO.P,J2,2,Pin_2*%
%TO.N,Net-(C2-Pad1)*%
X83312000Y-103383000D03*
%TD*%
D15*
%TO.P,Y1,1,1*%
%TO.N,Net-(C2-Pad1)*%
X75602000Y-114808000D03*
%TO.P,Y1,2,2*%
%TO.N,Net-(Q1-Pad2)*%
X70722000Y-114808000D03*
%TD*%
D11*
%TO.P,L1,1,1*%
%TO.N,Net-(C1-Pad2)*%
X58674000Y-98806000D03*
D12*
%TO.P,L1,2,2*%
%TO.N,Net-(C2-Pad2)*%
X66294000Y-98806000D03*
%TD*%
D10*
%TO.P,L2,1,1*%
%TO.N,Net-(C2-Pad2)*%
X70358000Y-98806000D03*
D16*
%TO.P,L2,2,2*%
%TO.N,Net-(C2-Pad1)*%
X80518000Y-98806000D03*
%TD*%
D17*
%TO.P,Q1,1,E*%
%TO.N,GND*%
X74422000Y-108564000D03*
D18*
%TO.P,Q1,2,B*%
%TO.N,Net-(Q1-Pad2)*%
X75692000Y-108564000D03*
%TO.P,Q1,3,C*%
%TO.N,Net-(C2-Pad1)*%
X76962000Y-108564000D03*
%TD*%
D10*
%TO.P,C1,1*%
%TO.N,GND*%
X59182000Y-107910000D03*
%TO.P,C1,2*%
%TO.N,Net-(C1-Pad2)*%
X59182000Y-102910000D03*
%TD*%
D19*
%TO.P,J1,1,Pin_1*%
%TO.N,Net-(C1-Pad2)*%
X54356000Y-99060000D03*
D13*
%TO.P,J1,2,Pin_2*%
%TO.N,GND*%
X54356000Y-101600000D03*
D14*
%TO.P,J1,3,Pin_3*%
%TO.N,data*%
X54356000Y-104140000D03*
%TD*%
D20*
%TO.N,Net-(C1-Pad2)*%
X58674000Y-98806000D02*
X58674000Y-102402000D01*
X54356000Y-99060000D02*
X58420000Y-99060000D01*
X58674000Y-102402000D02*
X59182000Y-102910000D01*
X58420000Y-99060000D02*
X58674000Y-98806000D01*
X61682000Y-102910000D02*
X61976000Y-102616000D01*
X59182000Y-102910000D02*
X61682000Y-102910000D01*
%TO.N,Net-(C2-Pad1)*%
X83053000Y-103124000D02*
X83312000Y-103383000D01*
X80518000Y-98806000D02*
X80518000Y-98887146D01*
X75602000Y-114808000D02*
X75790427Y-114619573D01*
X77938000Y-107588000D02*
X77938000Y-103124000D01*
X79346427Y-101715573D02*
X77938000Y-103124000D01*
X77938000Y-103124000D02*
X83053000Y-103124000D01*
X76962000Y-108564000D02*
X77938000Y-107588000D01*
X76962000Y-111791146D02*
X76962000Y-108564000D01*
X80518032Y-98887146D02*
G75*
G02*
X79346427Y-101715573I-4000032J46D01*
G01*
X76962032Y-111791146D02*
G75*
G02*
X75790427Y-114619573I-4000032J46D01*
G01*
%TO.N,Net-(C2-Pad2)*%
X71529573Y-101715573D02*
X72938000Y-103124000D01*
X70358000Y-98806000D02*
X70358000Y-98887146D01*
X66294000Y-98806000D02*
X70358000Y-98806000D01*
X71529596Y-101715550D02*
G75*
G02*
X70358000Y-98887146I2828404J2828450D01*
G01*
%TO.N,Net-(CP1-Pad1)*%
X64556000Y-108458000D02*
X64556000Y-106772854D01*
X65727573Y-103944427D02*
X67056000Y-102616000D01*
X64555968Y-106772854D02*
G75*
G02*
X65727573Y-103944427I4000032J-46D01*
G01*
%TO.N,Net-(Q1-Pad2)*%
X75692000Y-108564000D02*
X75692000Y-108888146D01*
X70722000Y-114808000D02*
X63500000Y-114808000D01*
X74520427Y-111716573D02*
X71429000Y-114808000D01*
X71429000Y-114808000D02*
X70722000Y-114808000D01*
X74520404Y-111716550D02*
G75*
G03*
X75692000Y-108888146I-2828404J2828450D01*
G01*
%TO.N,data*%
X54356000Y-106601864D02*
X54356000Y-104140000D01*
X58420000Y-114808000D02*
X57284932Y-113672932D01*
X54356026Y-106601864D02*
G75*
G03*
X57284933Y-113672931I9999974J-36D01*
G01*
%TD*%
%TA.AperFunction,Conductor*%
%TO.N,Net-(Q1-Pad2)*%
G36*
X71832801Y-114066290D02*
G01*
X72170259Y-114403748D01*
X72173686Y-114412021D01*
X72170259Y-114420294D01*
X72050687Y-114539868D01*
X71942157Y-114648406D01*
X71848634Y-114741941D01*
X71765811Y-114824779D01*
X71765810Y-114824780D01*
X71689380Y-114901226D01*
X71615032Y-114975589D01*
X71538461Y-115052174D01*
X71455359Y-115135289D01*
X71361419Y-115229237D01*
X71258607Y-115332053D01*
X71250334Y-115335481D01*
X71244595Y-115333977D01*
X70891527Y-115135289D01*
X70806447Y-115087410D01*
X70347600Y-114829195D01*
X70711516Y-114437298D01*
X70713135Y-114435554D01*
X70713136Y-114435554D01*
X71004700Y-114121572D01*
X71012841Y-114117841D01*
X71017765Y-114118729D01*
X71103129Y-114154215D01*
X71190308Y-114188608D01*
X71272970Y-114216667D01*
X71352303Y-114236284D01*
X71392418Y-114240993D01*
X71429016Y-114245290D01*
X71429020Y-114245290D01*
X71429496Y-114245346D01*
X71505738Y-114241743D01*
X71506273Y-114241614D01*
X71506276Y-114241614D01*
X71541540Y-114233140D01*
X71582218Y-114223365D01*
X71659119Y-114188556D01*
X71659676Y-114188304D01*
X71659679Y-114188302D01*
X71660126Y-114188100D01*
X71740649Y-114133838D01*
X71816732Y-114065839D01*
X71825183Y-114062881D01*
X71832801Y-114066290D01*
G37*
%TD.AperFunction*%
%TD*%
%TA.AperFunction,Conductor*%
%TO.N,Net-(C1-Pad2)*%
G36*
X61444577Y-102172342D02*
G01*
X61651533Y-102244989D01*
X62282910Y-102466618D01*
X62289581Y-102472592D01*
X62289915Y-102481961D01*
X61963147Y-103308035D01*
X61956917Y-103314467D01*
X61951709Y-103315418D01*
X61804060Y-103308346D01*
X61803475Y-103308301D01*
X61669667Y-103294706D01*
X61669105Y-103294635D01*
X61606637Y-103285068D01*
X61550887Y-103276530D01*
X61550444Y-103276454D01*
X61441393Y-103255435D01*
X61441200Y-103255396D01*
X61335149Y-103233102D01*
X61335127Y-103233098D01*
X61335090Y-103233090D01*
X61225751Y-103211147D01*
X61225697Y-103211138D01*
X61225676Y-103211134D01*
X61144083Y-103197445D01*
X61107031Y-103191228D01*
X61106905Y-103191213D01*
X61106886Y-103191210D01*
X61032606Y-103182223D01*
X60972670Y-103174971D01*
X60972516Y-103174960D01*
X60972514Y-103174960D01*
X60816587Y-103164027D01*
X60816579Y-103164027D01*
X60816413Y-103164015D01*
X60816255Y-103164012D01*
X60816243Y-103164011D01*
X60747637Y-103162518D01*
X60718858Y-103161891D01*
X60718857Y-103161891D01*
X60632000Y-103160000D01*
X60632000Y-102660000D01*
X60696287Y-102657306D01*
X60696293Y-102657306D01*
X60696507Y-102657297D01*
X60696513Y-102657297D01*
X60716835Y-102656445D01*
X60762188Y-102654544D01*
X60762482Y-102654501D01*
X60871918Y-102638478D01*
X60871920Y-102638478D01*
X60872286Y-102638424D01*
X60965684Y-102612006D01*
X61045775Y-102575658D01*
X61047111Y-102574784D01*
X61115613Y-102529968D01*
X61115618Y-102529964D01*
X61115950Y-102529747D01*
X61116250Y-102529487D01*
X61116257Y-102529482D01*
X61171143Y-102481962D01*
X61179600Y-102474640D01*
X61179802Y-102474426D01*
X61179811Y-102474418D01*
X61239993Y-102410840D01*
X61240006Y-102410825D01*
X61240119Y-102410706D01*
X61300897Y-102338312D01*
X61365327Y-102257824D01*
X61431611Y-102176016D01*
X61439482Y-102171746D01*
X61444577Y-102172342D01*
G37*
%TD.AperFunction*%
%TD*%
%TA.AperFunction,Conductor*%
%TO.N,Net-(C2-Pad2)*%
G36*
X66606552Y-98179810D02*
G01*
X66719918Y-98237942D01*
X66720315Y-98238155D01*
X66824483Y-98296743D01*
X66824582Y-98296800D01*
X66917461Y-98351376D01*
X67004173Y-98401152D01*
X67004289Y-98401212D01*
X67004304Y-98401220D01*
X67072478Y-98436382D01*
X67089833Y-98445333D01*
X67090048Y-98445424D01*
X67090051Y-98445425D01*
X67179374Y-98483060D01*
X67179379Y-98483062D01*
X67179631Y-98483168D01*
X67179899Y-98483251D01*
X67278476Y-98513817D01*
X67278484Y-98513819D01*
X67278758Y-98513904D01*
X67392401Y-98536789D01*
X67441005Y-98541995D01*
X67525524Y-98551048D01*
X67525535Y-98551049D01*
X67525752Y-98551072D01*
X67647475Y-98554863D01*
X67672664Y-98555647D01*
X67680827Y-98559329D01*
X67684000Y-98567341D01*
X67684000Y-99044659D01*
X67680573Y-99052932D01*
X67672664Y-99056353D01*
X67525752Y-99060927D01*
X67525535Y-99060950D01*
X67525524Y-99060951D01*
X67441005Y-99070004D01*
X67392401Y-99075210D01*
X67278758Y-99098095D01*
X67278484Y-99098180D01*
X67278476Y-99098182D01*
X67197882Y-99123172D01*
X67179631Y-99128831D01*
X67179379Y-99128937D01*
X67179374Y-99128939D01*
X67090051Y-99166574D01*
X67089833Y-99166666D01*
X67089618Y-99166777D01*
X67004304Y-99210779D01*
X67004289Y-99210787D01*
X67004173Y-99210847D01*
X66917461Y-99260623D01*
X66824582Y-99315199D01*
X66824483Y-99315256D01*
X66744981Y-99359971D01*
X66720315Y-99373844D01*
X66719918Y-99374057D01*
X66606552Y-99432190D01*
X66597626Y-99432916D01*
X66593103Y-99430212D01*
X66473578Y-99315270D01*
X65952769Y-98814433D01*
X65949181Y-98806229D01*
X65952769Y-98797567D01*
X66209094Y-98551072D01*
X66593103Y-98181788D01*
X66601442Y-98178523D01*
X66606552Y-98179810D01*
G37*
%TD.AperFunction*%
%TD*%
%TA.AperFunction,Conductor*%
%TO.N,Net-(Q1-Pad2)*%
G36*
X75706976Y-108310572D02*
G01*
X76033440Y-108668073D01*
X76036500Y-108675963D01*
X76036500Y-108837504D01*
X76051738Y-108982482D01*
X76051929Y-108983069D01*
X76057461Y-109000097D01*
X76056943Y-109008646D01*
X76037691Y-109050036D01*
X76037681Y-109050059D01*
X76037646Y-109050134D01*
X76008195Y-109120000D01*
X75982375Y-109189889D01*
X75959120Y-109263374D01*
X75937364Y-109344025D01*
X75937336Y-109344146D01*
X75937334Y-109344153D01*
X75916043Y-109435414D01*
X75894091Y-109541115D01*
X75894072Y-109541211D01*
X75872629Y-109653267D01*
X75867709Y-109660749D01*
X75859000Y-109662571D01*
X75390008Y-109575405D01*
X75382500Y-109570524D01*
X75380581Y-109562129D01*
X75395866Y-109462463D01*
X75397902Y-109435414D01*
X75403054Y-109366943D01*
X75403074Y-109366677D01*
X75402610Y-109343891D01*
X75401373Y-109283263D01*
X75401367Y-109282950D01*
X75391625Y-109208261D01*
X75374729Y-109139585D01*
X75351559Y-109073898D01*
X75351475Y-109073704D01*
X75348470Y-109066788D01*
X75347500Y-109062125D01*
X75347500Y-108653382D01*
X75350979Y-108645057D01*
X75690115Y-108310137D01*
X75698409Y-108306762D01*
X75706976Y-108310572D01*
G37*
%TD.AperFunction*%
%TD*%
%TA.AperFunction,Conductor*%
%TO.N,Net-(C1-Pad2)*%
G36*
X59538162Y-102193874D02*
G01*
X59670520Y-102262680D01*
X59671324Y-102263098D01*
X59671838Y-102263383D01*
X59791945Y-102333719D01*
X59792220Y-102333885D01*
X59898488Y-102400534D01*
X59997009Y-102462229D01*
X59997071Y-102462264D01*
X59997090Y-102462276D01*
X60059424Y-102497965D01*
X60093889Y-102517699D01*
X60135526Y-102537416D01*
X60195083Y-102565619D01*
X60195091Y-102565622D01*
X60195367Y-102565753D01*
X60195652Y-102565853D01*
X60195659Y-102565856D01*
X60307371Y-102605092D01*
X60307379Y-102605094D01*
X60307680Y-102605200D01*
X60307994Y-102605272D01*
X60308001Y-102605274D01*
X60436775Y-102634785D01*
X60436783Y-102634786D01*
X60437065Y-102634851D01*
X60589759Y-102653514D01*
X60589999Y-102653523D01*
X60590005Y-102653523D01*
X60647644Y-102655574D01*
X60696293Y-102657306D01*
X60696299Y-102657306D01*
X60772000Y-102660000D01*
X60772000Y-103160000D01*
X60718859Y-103161891D01*
X60718858Y-103161891D01*
X60694388Y-103162762D01*
X60590005Y-103166476D01*
X60589999Y-103166476D01*
X60589759Y-103166485D01*
X60437065Y-103185148D01*
X60436783Y-103185213D01*
X60436775Y-103185214D01*
X60308001Y-103214725D01*
X60307994Y-103214727D01*
X60307680Y-103214799D01*
X60307379Y-103214905D01*
X60307371Y-103214907D01*
X60195659Y-103254143D01*
X60195652Y-103254146D01*
X60195367Y-103254246D01*
X60195091Y-103254377D01*
X60195083Y-103254380D01*
X60135526Y-103282583D01*
X60093889Y-103302300D01*
X60059424Y-103322034D01*
X59997090Y-103357723D01*
X59997071Y-103357735D01*
X59997009Y-103357770D01*
X59898488Y-103419465D01*
X59792234Y-103486105D01*
X59791945Y-103486280D01*
X59671839Y-103556616D01*
X59671324Y-103556901D01*
X59538163Y-103626126D01*
X59529243Y-103626902D01*
X59524657Y-103624178D01*
X59068120Y-103185148D01*
X58782000Y-102910000D01*
X59521362Y-102198990D01*
X59521362Y-102198991D01*
X59524657Y-102195822D01*
X59532995Y-102192557D01*
X59538162Y-102193874D01*
G37*
%TD.AperFunction*%
%TD*%
%TA.AperFunction,Conductor*%
%TO.N,Net-(CP1-Pad1)*%
G36*
X67299661Y-102372016D02*
G01*
X67303249Y-102380678D01*
X67285885Y-103268883D01*
X67282297Y-103277087D01*
X67277775Y-103279790D01*
X67156488Y-103318852D01*
X67156079Y-103318976D01*
X67056698Y-103346807D01*
X67041043Y-103351191D01*
X67040830Y-103351248D01*
X66936612Y-103378320D01*
X66840101Y-103404437D01*
X66839968Y-103404479D01*
X66759703Y-103430121D01*
X66748290Y-103433767D01*
X66658040Y-103470511D01*
X66657783Y-103470646D01*
X66657773Y-103470651D01*
X66577806Y-103512766D01*
X66566213Y-103518871D01*
X66565969Y-103519033D01*
X66565966Y-103519035D01*
X66469898Y-103582897D01*
X66469673Y-103583047D01*
X66365281Y-103667240D01*
X66365138Y-103667374D01*
X66365128Y-103667383D01*
X66258164Y-103767888D01*
X66249788Y-103771055D01*
X66241879Y-103767634D01*
X65904366Y-103430121D01*
X65900939Y-103421848D01*
X65904112Y-103413836D01*
X65962951Y-103351214D01*
X66004759Y-103306718D01*
X66088952Y-103202326D01*
X66153128Y-103105786D01*
X66159233Y-103094193D01*
X66201348Y-103014226D01*
X66201353Y-103014216D01*
X66201488Y-103013959D01*
X66238232Y-102923709D01*
X66267562Y-102831898D01*
X66293679Y-102735387D01*
X66320751Y-102631169D01*
X66320808Y-102630956D01*
X66353020Y-102515931D01*
X66353150Y-102515499D01*
X66392209Y-102394226D01*
X66398007Y-102387402D01*
X66403117Y-102386115D01*
X67291322Y-102368751D01*
X67299661Y-102372016D01*
G37*
%TD.AperFunction*%
%TD*%
%TA.AperFunction,Conductor*%
%TO.N,Net-(C1-Pad2)*%
G36*
X54733967Y-98298900D02*
G01*
X54876997Y-98373663D01*
X54877560Y-98373978D01*
X55005645Y-98450199D01*
X55005993Y-98450414D01*
X55118933Y-98523092D01*
X55223347Y-98590747D01*
X55325833Y-98651864D01*
X55326024Y-98651958D01*
X55326032Y-98651963D01*
X55392782Y-98685031D01*
X55433152Y-98705031D01*
X55433432Y-98705134D01*
X55433434Y-98705135D01*
X55551753Y-98748724D01*
X55551758Y-98748725D01*
X55552066Y-98748839D01*
X55689338Y-98781877D01*
X55689645Y-98781916D01*
X55689648Y-98781917D01*
X55851478Y-98802702D01*
X55851480Y-98802702D01*
X55851728Y-98802734D01*
X55970716Y-98807184D01*
X56034737Y-98809579D01*
X56042877Y-98813313D01*
X56046000Y-98821271D01*
X56046000Y-99298729D01*
X56042573Y-99307002D01*
X56034737Y-99310421D01*
X55981137Y-99312426D01*
X55851728Y-99317265D01*
X55851480Y-99317297D01*
X55851478Y-99317297D01*
X55689648Y-99338082D01*
X55689645Y-99338083D01*
X55689338Y-99338122D01*
X55552066Y-99371160D01*
X55551758Y-99371274D01*
X55551753Y-99371275D01*
X55433434Y-99414864D01*
X55433152Y-99414968D01*
X55392782Y-99434968D01*
X55326032Y-99468036D01*
X55326024Y-99468041D01*
X55325833Y-99468135D01*
X55223347Y-99529252D01*
X55223260Y-99529308D01*
X55223259Y-99529309D01*
X55118964Y-99596887D01*
X55118933Y-99596907D01*
X55005993Y-99669585D01*
X55005645Y-99669800D01*
X54877560Y-99746021D01*
X54876997Y-99746336D01*
X54733967Y-99821100D01*
X54725048Y-99821895D01*
X54720437Y-99819164D01*
X54644554Y-99746191D01*
X53939769Y-99068433D01*
X53936181Y-99060229D01*
X53939769Y-99051567D01*
X54198516Y-98802743D01*
X54720437Y-98300836D01*
X54728776Y-98297571D01*
X54733967Y-98298900D01*
G37*
%TD.AperFunction*%
%TD*%
%TA.AperFunction,Conductor*%
%TO.N,Net-(C1-Pad2)*%
G36*
X58921207Y-101485427D02*
G01*
X58924616Y-101493048D01*
X58931088Y-101609060D01*
X58931110Y-101609449D01*
X58951941Y-101716510D01*
X58985743Y-101806074D01*
X59031764Y-101881034D01*
X59089255Y-101944282D01*
X59089615Y-101944569D01*
X59089620Y-101944574D01*
X59145383Y-101989070D01*
X59157463Y-101998709D01*
X59157751Y-101998888D01*
X59157760Y-101998894D01*
X59219661Y-102037297D01*
X59235640Y-102047210D01*
X59323034Y-102092674D01*
X59323143Y-102092726D01*
X59323148Y-102092728D01*
X59418895Y-102137996D01*
X59515040Y-102182619D01*
X59521101Y-102189211D01*
X59521771Y-102194232D01*
X59433565Y-103220990D01*
X58958298Y-103080434D01*
X58958297Y-103080434D01*
X58390443Y-102912497D01*
X58383481Y-102906864D01*
X58382061Y-102901196D01*
X58383176Y-102741030D01*
X58383179Y-102740854D01*
X58386366Y-102595753D01*
X58386371Y-102595581D01*
X58391070Y-102467419D01*
X58391076Y-102467282D01*
X58396781Y-102349437D01*
X58396784Y-102349368D01*
X58403000Y-102234962D01*
X58403003Y-102234910D01*
X58403004Y-102234893D01*
X58409216Y-102117439D01*
X58414926Y-101990120D01*
X58414927Y-101990090D01*
X58416416Y-101944574D01*
X58419632Y-101846207D01*
X58422824Y-101679079D01*
X58422824Y-101679067D01*
X58423931Y-101493630D01*
X58427407Y-101485378D01*
X58435631Y-101482000D01*
X58912934Y-101482000D01*
X58921207Y-101485427D01*
G37*
%TD.AperFunction*%
%TD*%
%TA.AperFunction,Conductor*%
%TO.N,Net-(C1-Pad2)*%
G36*
X58682433Y-98464769D02*
G01*
X58813944Y-98601525D01*
X58813945Y-98601525D01*
X58964808Y-98758404D01*
X59298212Y-99105103D01*
X59301477Y-99113442D01*
X59300190Y-99118552D01*
X59242057Y-99231918D01*
X59241844Y-99232315D01*
X59183242Y-99336508D01*
X59128623Y-99429461D01*
X59128589Y-99429520D01*
X59128585Y-99429527D01*
X59121278Y-99442257D01*
X59078847Y-99516173D01*
X59034666Y-99601833D01*
X58996831Y-99691631D01*
X58966095Y-99790758D01*
X58943210Y-99904401D01*
X58928927Y-100037752D01*
X58928920Y-100037979D01*
X58924353Y-100184664D01*
X58920671Y-100192827D01*
X58912659Y-100196000D01*
X58435341Y-100196000D01*
X58427068Y-100192573D01*
X58423647Y-100184664D01*
X58419079Y-100037979D01*
X58419072Y-100037752D01*
X58404789Y-99904401D01*
X58381904Y-99790758D01*
X58351168Y-99691631D01*
X58313333Y-99601833D01*
X58269152Y-99516173D01*
X58269085Y-99516056D01*
X58229156Y-99446497D01*
X58229155Y-99446496D01*
X58219376Y-99429461D01*
X58164757Y-99336508D01*
X58106048Y-99232125D01*
X58044000Y-99111122D01*
X58614221Y-98518163D01*
X58615075Y-98517275D01*
X58665567Y-98464769D01*
X58673771Y-98461181D01*
X58682433Y-98464769D01*
G37*
%TD.AperFunction*%
%TD*%
%TA.AperFunction,Conductor*%
%TO.N,Net-(C2-Pad1)*%
G36*
X77383085Y-108739376D02*
G01*
X77383085Y-108739377D01*
X77428811Y-108786926D01*
X77432076Y-108795265D01*
X77430875Y-108800204D01*
X77392021Y-108879118D01*
X77391999Y-108879161D01*
X77372728Y-108917900D01*
X77354078Y-108955389D01*
X77320655Y-109025018D01*
X77291738Y-109091369D01*
X77291677Y-109091536D01*
X77291675Y-109091540D01*
X77267387Y-109157595D01*
X77267383Y-109157609D01*
X77267310Y-109157806D01*
X77247358Y-109227692D01*
X77231866Y-109304391D01*
X77220819Y-109391266D01*
X77214202Y-109491681D01*
X77214200Y-109491811D01*
X77214199Y-109491824D01*
X77212215Y-109597520D01*
X77208633Y-109605727D01*
X77200517Y-109609000D01*
X76723482Y-109609000D01*
X76715209Y-109605573D01*
X76711784Y-109597520D01*
X76709800Y-109491824D01*
X76709799Y-109491811D01*
X76709797Y-109491681D01*
X76703180Y-109391266D01*
X76692133Y-109304391D01*
X76676641Y-109227692D01*
X76656689Y-109157806D01*
X76656616Y-109157609D01*
X76656612Y-109157595D01*
X76632324Y-109091540D01*
X76632322Y-109091536D01*
X76632261Y-109091369D01*
X76603344Y-109025018D01*
X76596484Y-109010726D01*
X76595905Y-109002048D01*
X76602071Y-108983070D01*
X76602262Y-108982482D01*
X76617500Y-108837504D01*
X76617500Y-108664451D01*
X76620767Y-108656341D01*
X76779944Y-108490816D01*
X76962000Y-108301500D01*
X77383085Y-108739376D01*
G37*
%TD.AperFunction*%
%TD*%
%TA.AperFunction,Conductor*%
%TO.N,Net-(Q1-Pad2)*%
G36*
X63812552Y-114181810D02*
G01*
X63925918Y-114239942D01*
X63926315Y-114240155D01*
X64030483Y-114298743D01*
X64030582Y-114298800D01*
X64123461Y-114353376D01*
X64210173Y-114403152D01*
X64210289Y-114403212D01*
X64210304Y-114403220D01*
X64278478Y-114438382D01*
X64295833Y-114447333D01*
X64296048Y-114447424D01*
X64296051Y-114447425D01*
X64385374Y-114485060D01*
X64385379Y-114485062D01*
X64385631Y-114485168D01*
X64385899Y-114485251D01*
X64484476Y-114515817D01*
X64484484Y-114515819D01*
X64484758Y-114515904D01*
X64598401Y-114538789D01*
X64647005Y-114543995D01*
X64731524Y-114553048D01*
X64731535Y-114553049D01*
X64731752Y-114553072D01*
X64853475Y-114556863D01*
X64878664Y-114557647D01*
X64886827Y-114561329D01*
X64890000Y-114569341D01*
X64890000Y-115046659D01*
X64886573Y-115054932D01*
X64878664Y-115058353D01*
X64731752Y-115062927D01*
X64731535Y-115062950D01*
X64731524Y-115062951D01*
X64647005Y-115072004D01*
X64598401Y-115077210D01*
X64484758Y-115100095D01*
X64484484Y-115100180D01*
X64484476Y-115100182D01*
X64403882Y-115125172D01*
X64385631Y-115130831D01*
X64385379Y-115130937D01*
X64385374Y-115130939D01*
X64296051Y-115168574D01*
X64295833Y-115168666D01*
X64295618Y-115168777D01*
X64210304Y-115212779D01*
X64210289Y-115212787D01*
X64210173Y-115212847D01*
X64123461Y-115262623D01*
X64030582Y-115317199D01*
X64030483Y-115317256D01*
X63950981Y-115361971D01*
X63926315Y-115375844D01*
X63925918Y-115376057D01*
X63812552Y-115434190D01*
X63803626Y-115434916D01*
X63799103Y-115432212D01*
X63679578Y-115317270D01*
X63158769Y-114816433D01*
X63155181Y-114808229D01*
X63158769Y-114799567D01*
X63415094Y-114553072D01*
X63799103Y-114183788D01*
X63807442Y-114180523D01*
X63812552Y-114181810D01*
G37*
%TD.AperFunction*%
%TD*%
%TA.AperFunction,Conductor*%
%TO.N,Net-(C2-Pad1)*%
G36*
X83189849Y-102545290D02*
G01*
X83193435Y-102549294D01*
X83711402Y-103500462D01*
X83712349Y-103509365D01*
X83706317Y-103516542D01*
X82735560Y-103996975D01*
X82726625Y-103997573D01*
X82722139Y-103994805D01*
X82619770Y-103893483D01*
X82619502Y-103893208D01*
X82525311Y-103793644D01*
X82525274Y-103793605D01*
X82439821Y-103702449D01*
X82439817Y-103702445D01*
X82439774Y-103702399D01*
X82357747Y-103620495D01*
X82273938Y-103548804D01*
X82183057Y-103488195D01*
X82079813Y-103439540D01*
X82079401Y-103439418D01*
X82079396Y-103439416D01*
X82022165Y-103422455D01*
X81958916Y-103403709D01*
X81815075Y-103381572D01*
X81814777Y-103381559D01*
X81814768Y-103381558D01*
X81654186Y-103374492D01*
X81646071Y-103370704D01*
X81643000Y-103362803D01*
X81643000Y-102885348D01*
X81646427Y-102877075D01*
X81654342Y-102873653D01*
X81797358Y-102869273D01*
X81860335Y-102867344D01*
X81860528Y-102867324D01*
X81860535Y-102867324D01*
X82042796Y-102848882D01*
X82042802Y-102848881D01*
X82043021Y-102848859D01*
X82043254Y-102848817D01*
X82198608Y-102820807D01*
X82198616Y-102820805D01*
X82198828Y-102820767D01*
X82335523Y-102785293D01*
X82460875Y-102744658D01*
X82535306Y-102718027D01*
X82582620Y-102701098D01*
X82582682Y-102701076D01*
X82708418Y-102656873D01*
X82708832Y-102656736D01*
X82846259Y-102614117D01*
X82846879Y-102613945D01*
X83003861Y-102575070D01*
X83004595Y-102574913D01*
X83181103Y-102543371D01*
X83189849Y-102545290D01*
G37*
%TD.AperFunction*%
%TD*%
%TA.AperFunction,Conductor*%
%TO.N,Net-(C2-Pad1)*%
G36*
X78893506Y-101830908D02*
G01*
X79231092Y-102168494D01*
X79234519Y-102176767D01*
X79231381Y-102184741D01*
X79114798Y-102309927D01*
X79020024Y-102431095D01*
X78949501Y-102543549D01*
X78897978Y-102650860D01*
X78897877Y-102651142D01*
X78897876Y-102651145D01*
X78867099Y-102737285D01*
X78867099Y-102737287D01*
X78860201Y-102756594D01*
X78830919Y-102864322D01*
X78804879Y-102977612D01*
X78776830Y-103100032D01*
X78741518Y-103235152D01*
X78693693Y-103386540D01*
X77655158Y-103406842D01*
X77665575Y-102874000D01*
X77675296Y-102376705D01*
X77678884Y-102368501D01*
X77683469Y-102365777D01*
X77826575Y-102320567D01*
X77827142Y-102320404D01*
X77867928Y-102309745D01*
X77961827Y-102285206D01*
X77962141Y-102285129D01*
X78084387Y-102257120D01*
X78197677Y-102231080D01*
X78305405Y-102201798D01*
X78305620Y-102201721D01*
X78305627Y-102201719D01*
X78410854Y-102164123D01*
X78410857Y-102164122D01*
X78411139Y-102164021D01*
X78518450Y-102112498D01*
X78630904Y-102041975D01*
X78752072Y-101947201D01*
X78877259Y-101830619D01*
X78885649Y-101827488D01*
X78893506Y-101830908D01*
G37*
%TD.AperFunction*%
%TD*%
%TA.AperFunction,Conductor*%
%TO.N,data*%
G36*
X57622164Y-113656112D02*
G01*
X57729128Y-113756616D01*
X57729138Y-113756625D01*
X57729281Y-113756759D01*
X57833673Y-113840952D01*
X57833898Y-113841102D01*
X57929966Y-113904964D01*
X57930213Y-113905128D01*
X57930479Y-113905268D01*
X58021773Y-113953348D01*
X58021783Y-113953353D01*
X58022040Y-113953488D01*
X58112290Y-113990232D01*
X58112510Y-113990302D01*
X58112512Y-113990303D01*
X58203968Y-114019520D01*
X58204101Y-114019562D01*
X58300612Y-114045679D01*
X58396904Y-114070692D01*
X58404830Y-114072751D01*
X58405043Y-114072808D01*
X58520079Y-114105023D01*
X58520488Y-114105147D01*
X58641774Y-114144209D01*
X58648598Y-114150007D01*
X58649885Y-114155117D01*
X58667249Y-115043322D01*
X58663984Y-115051661D01*
X58655322Y-115055249D01*
X57767117Y-115037885D01*
X57758913Y-115034297D01*
X57756209Y-115029774D01*
X57717150Y-114908500D01*
X57717020Y-114908068D01*
X57684808Y-114793043D01*
X57684751Y-114792830D01*
X57657679Y-114688612D01*
X57631596Y-114592227D01*
X57631562Y-114592101D01*
X57602232Y-114500290D01*
X57565488Y-114410040D01*
X57565353Y-114409783D01*
X57565348Y-114409773D01*
X57517268Y-114318479D01*
X57517128Y-114318213D01*
X57452952Y-114221673D01*
X57368759Y-114117281D01*
X57368625Y-114117138D01*
X57368616Y-114117128D01*
X57268112Y-114010164D01*
X57264945Y-114001788D01*
X57268366Y-113993879D01*
X57605879Y-113656366D01*
X57614152Y-113652939D01*
X57622164Y-113656112D01*
G37*
%TD.AperFunction*%
%TD*%
%TA.AperFunction,Conductor*%
%TO.N,Net-(CP1-Pad1)*%
G36*
X64802982Y-106871427D02*
G01*
X64806401Y-106879283D01*
X64812485Y-107050240D01*
X64831148Y-107202934D01*
X64860799Y-107332319D01*
X64860905Y-107332620D01*
X64860907Y-107332628D01*
X64900143Y-107444340D01*
X64900246Y-107444632D01*
X64948300Y-107546110D01*
X64948416Y-107546312D01*
X65003723Y-107642909D01*
X65003735Y-107642928D01*
X65003770Y-107642990D01*
X65003818Y-107643066D01*
X65065465Y-107741511D01*
X65132105Y-107847765D01*
X65132289Y-107848069D01*
X65202616Y-107968160D01*
X65202901Y-107968675D01*
X65272126Y-108101836D01*
X65272902Y-108110757D01*
X65270178Y-108115343D01*
X64564433Y-108849231D01*
X64556229Y-108852819D01*
X64547567Y-108849231D01*
X63841822Y-108115343D01*
X63838557Y-108107004D01*
X63839874Y-108101836D01*
X63909098Y-107968675D01*
X63909383Y-107968160D01*
X63979710Y-107848069D01*
X63979894Y-107847765D01*
X64046534Y-107741511D01*
X64108181Y-107643066D01*
X64108229Y-107642990D01*
X64108264Y-107642928D01*
X64108276Y-107642909D01*
X64163583Y-107546312D01*
X64163699Y-107546110D01*
X64211753Y-107444632D01*
X64211856Y-107444340D01*
X64251092Y-107332628D01*
X64251094Y-107332620D01*
X64251200Y-107332319D01*
X64280851Y-107202934D01*
X64299514Y-107050240D01*
X64305598Y-106879283D01*
X64309317Y-106871138D01*
X64317291Y-106868000D01*
X64794709Y-106868000D01*
X64802982Y-106871427D01*
G37*
%TD.AperFunction*%
%TD*%
%TA.AperFunction,Conductor*%
%TO.N,Net-(C2-Pad1)*%
G36*
X80561520Y-98417107D02*
G01*
X81198596Y-99211465D01*
X81201099Y-99220063D01*
X81199395Y-99224979D01*
X81113016Y-99363407D01*
X81112806Y-99363731D01*
X81030444Y-99486506D01*
X81030275Y-99486751D01*
X80954419Y-99593831D01*
X80883382Y-99691884D01*
X80815550Y-99787491D01*
X80749219Y-99887358D01*
X80749142Y-99887487D01*
X80682770Y-99998052D01*
X80682760Y-99998070D01*
X80682686Y-99998193D01*
X80614247Y-100126700D01*
X80614189Y-100126823D01*
X80614185Y-100126831D01*
X80542254Y-100279471D01*
X80542200Y-100279586D01*
X80542149Y-100279707D01*
X80542142Y-100279723D01*
X80469295Y-100452965D01*
X80462930Y-100459263D01*
X80454171Y-100459295D01*
X80010806Y-100282205D01*
X80004394Y-100275954D01*
X80004063Y-100267592D01*
X80051713Y-100126700D01*
X80053589Y-100121154D01*
X80080347Y-99984848D01*
X80084305Y-99864605D01*
X80073444Y-99787491D01*
X80069052Y-99756304D01*
X80069051Y-99756300D01*
X80068988Y-99755852D01*
X80049478Y-99691905D01*
X80038018Y-99654343D01*
X80038015Y-99654336D01*
X80037919Y-99654020D01*
X79994621Y-99554536D01*
X79942618Y-99452830D01*
X79895568Y-99363564D01*
X79885522Y-99344503D01*
X79885369Y-99344204D01*
X79826737Y-99224776D01*
X79826451Y-99224147D01*
X79772879Y-99096476D01*
X79772838Y-99087521D01*
X79775996Y-99083117D01*
X80544721Y-98415593D01*
X80553215Y-98412756D01*
X80561520Y-98417107D01*
G37*
%TD.AperFunction*%
%TD*%
%TA.AperFunction,Conductor*%
%TO.N,Net-(C2-Pad1)*%
G36*
X78427576Y-102477229D02*
G01*
X78548090Y-102547804D01*
X78654488Y-102614534D01*
X78753009Y-102676229D01*
X78849889Y-102731699D01*
X78866316Y-102739478D01*
X78868149Y-102740346D01*
X78951083Y-102779619D01*
X78951091Y-102779622D01*
X78951367Y-102779753D01*
X78951652Y-102779853D01*
X78951659Y-102779856D01*
X79063371Y-102819092D01*
X79063379Y-102819094D01*
X79063680Y-102819200D01*
X79063994Y-102819272D01*
X79064001Y-102819274D01*
X79192775Y-102848785D01*
X79192783Y-102848786D01*
X79193065Y-102848851D01*
X79345759Y-102867514D01*
X79345999Y-102867523D01*
X79346005Y-102867523D01*
X79410837Y-102869830D01*
X79516717Y-102873598D01*
X79524862Y-102877317D01*
X79528000Y-102885291D01*
X79528000Y-103362709D01*
X79524573Y-103370982D01*
X79516717Y-103374401D01*
X79405368Y-103378364D01*
X79346005Y-103380476D01*
X79345999Y-103380476D01*
X79345759Y-103380485D01*
X79193065Y-103399148D01*
X79192783Y-103399213D01*
X79192775Y-103399214D01*
X79064001Y-103428725D01*
X79063994Y-103428727D01*
X79063680Y-103428799D01*
X79063379Y-103428905D01*
X79063371Y-103428907D01*
X78951659Y-103468143D01*
X78951652Y-103468146D01*
X78951367Y-103468246D01*
X78951091Y-103468377D01*
X78951083Y-103468380D01*
X78891526Y-103496583D01*
X78849889Y-103516300D01*
X78815424Y-103536034D01*
X78753090Y-103571723D01*
X78753071Y-103571735D01*
X78753009Y-103571770D01*
X78654488Y-103633465D01*
X78548234Y-103700105D01*
X78547946Y-103700280D01*
X78526713Y-103712713D01*
X78526712Y-103712714D01*
X78427576Y-103770770D01*
X78286711Y-103844000D01*
X77544291Y-103130050D01*
X77543833Y-103129002D01*
X77543658Y-103120049D01*
X77546443Y-103115881D01*
X77582350Y-103081351D01*
X78286711Y-102404000D01*
X78427576Y-102477229D01*
G37*
%TD.AperFunction*%
%TD*%
%TA.AperFunction,Conductor*%
%TO.N,Net-(C2-Pad2)*%
G36*
X71068777Y-99056000D02*
G01*
X71100004Y-99083115D01*
X71104003Y-99091126D01*
X71103121Y-99096475D01*
X71049549Y-99224146D01*
X71049263Y-99224775D01*
X70990634Y-99344202D01*
X70990481Y-99344501D01*
X70933389Y-99452829D01*
X70881390Y-99554535D01*
X70838097Y-99654019D01*
X70807033Y-99755852D01*
X70791720Y-99864605D01*
X70791736Y-99865099D01*
X70791736Y-99865104D01*
X70792474Y-99887471D01*
X70795683Y-99984848D01*
X70822442Y-100121153D01*
X70822563Y-100121512D01*
X70822565Y-100121518D01*
X70871971Y-100267590D01*
X70871376Y-100276525D01*
X70865228Y-100282204D01*
X70421863Y-100459294D01*
X70412910Y-100459181D01*
X70406739Y-100452964D01*
X70333889Y-100279720D01*
X70333882Y-100279704D01*
X70333831Y-100279583D01*
X70333777Y-100279468D01*
X70261843Y-100126828D01*
X70261839Y-100126820D01*
X70261781Y-100126697D01*
X70193339Y-99998190D01*
X70185329Y-99984848D01*
X70126870Y-99887471D01*
X70126859Y-99887453D01*
X70126801Y-99887357D01*
X70111689Y-99864605D01*
X70098346Y-99844518D01*
X70060466Y-99787490D01*
X69992629Y-99691885D01*
X69921588Y-99593833D01*
X69845723Y-99486745D01*
X69845559Y-99486507D01*
X69822924Y-99452767D01*
X69793486Y-99408885D01*
X69793485Y-99408884D01*
X69763083Y-99363567D01*
X69672212Y-99217940D01*
X70322092Y-98407616D01*
X71068777Y-99056000D01*
G37*
%TD.AperFunction*%
%TD*%
%TA.AperFunction,Conductor*%
%TO.N,data*%
G36*
X54364433Y-103723769D02*
G01*
X55115164Y-104504437D01*
X55118429Y-104512776D01*
X55117100Y-104517967D01*
X55042336Y-104660997D01*
X55042021Y-104661560D01*
X54965800Y-104789645D01*
X54965585Y-104789993D01*
X54892907Y-104902933D01*
X54825252Y-105007347D01*
X54764135Y-105109833D01*
X54710968Y-105217152D01*
X54667160Y-105336066D01*
X54634122Y-105473338D01*
X54613265Y-105635728D01*
X54613256Y-105635981D01*
X54606421Y-105818737D01*
X54602687Y-105826877D01*
X54594729Y-105830000D01*
X54117271Y-105830000D01*
X54108998Y-105826573D01*
X54105579Y-105818737D01*
X54098743Y-105635981D01*
X54098734Y-105635728D01*
X54077877Y-105473338D01*
X54044839Y-105336066D01*
X54001031Y-105217152D01*
X53947864Y-105109833D01*
X53886747Y-105007347D01*
X53819092Y-104902933D01*
X53746414Y-104789993D01*
X53746199Y-104789645D01*
X53669978Y-104661560D01*
X53669663Y-104660997D01*
X53594900Y-104517967D01*
X53594105Y-104509048D01*
X53596836Y-104504437D01*
X54347567Y-103723769D01*
X54355771Y-103720181D01*
X54364433Y-103723769D01*
G37*
%TD.AperFunction*%
%TD*%
%TA.AperFunction,Conductor*%
%TO.N,Net-(C2-Pad1)*%
G36*
X77532268Y-107656417D02*
G01*
X77869583Y-107993732D01*
X77873010Y-108002005D01*
X77869738Y-108010120D01*
X77796302Y-108086364D01*
X77729977Y-108162048D01*
X77729861Y-108162198D01*
X77729860Y-108162199D01*
X77676497Y-108231110D01*
X77676490Y-108231120D01*
X77676359Y-108231289D01*
X77633079Y-108296478D01*
X77597771Y-108360003D01*
X77597690Y-108360178D01*
X77597684Y-108360190D01*
X77575353Y-108408490D01*
X77568065Y-108424253D01*
X77541596Y-108491618D01*
X77541579Y-108491665D01*
X77541575Y-108491677D01*
X77515994Y-108564487D01*
X77515980Y-108564529D01*
X77488907Y-108645202D01*
X77488892Y-108645248D01*
X77460566Y-108728522D01*
X77454657Y-108735251D01*
X77449718Y-108736452D01*
X77383881Y-108737739D01*
X77383880Y-108737739D01*
X76776385Y-108749615D01*
X76786514Y-108231484D01*
X76789548Y-108076282D01*
X76793136Y-108068078D01*
X76797478Y-108065434D01*
X76880751Y-108037107D01*
X76880797Y-108037092D01*
X76961470Y-108010019D01*
X76961512Y-108010005D01*
X76984282Y-108002005D01*
X77034322Y-107984424D01*
X77034334Y-107984420D01*
X77034381Y-107984403D01*
X77101746Y-107957934D01*
X77117509Y-107950646D01*
X77165809Y-107928315D01*
X77165821Y-107928309D01*
X77165996Y-107928228D01*
X77166165Y-107928134D01*
X77166173Y-107928130D01*
X77229321Y-107893031D01*
X77229521Y-107892920D01*
X77229714Y-107892792D01*
X77229722Y-107892787D01*
X77261531Y-107871668D01*
X77294710Y-107849640D01*
X77294879Y-107849509D01*
X77294889Y-107849502D01*
X77363800Y-107796139D01*
X77363801Y-107796138D01*
X77363951Y-107796022D01*
X77439635Y-107729697D01*
X77439745Y-107729591D01*
X77439756Y-107729581D01*
X77515879Y-107656263D01*
X77524215Y-107652992D01*
X77532268Y-107656417D01*
G37*
%TD.AperFunction*%
%TD*%
%TA.AperFunction,Conductor*%
%TO.N,Net-(C2-Pad1)*%
G36*
X78658000Y-103472711D02*
G01*
X78584770Y-103613576D01*
X78526714Y-103712712D01*
X78526713Y-103712713D01*
X78525953Y-103714011D01*
X78514289Y-103733930D01*
X78514114Y-103734220D01*
X78447465Y-103840488D01*
X78385770Y-103939009D01*
X78385735Y-103939071D01*
X78385723Y-103939090D01*
X78350034Y-104001424D01*
X78330300Y-104035889D01*
X78282246Y-104137367D01*
X78282146Y-104137652D01*
X78282143Y-104137659D01*
X78242907Y-104249371D01*
X78242905Y-104249379D01*
X78242799Y-104249680D01*
X78213148Y-104379065D01*
X78194485Y-104531759D01*
X78194476Y-104531999D01*
X78194476Y-104532005D01*
X78188402Y-104702716D01*
X78184683Y-104710862D01*
X78176709Y-104714000D01*
X77699291Y-104714000D01*
X77691018Y-104710573D01*
X77687598Y-104702716D01*
X77681523Y-104532005D01*
X77681523Y-104531999D01*
X77681514Y-104531759D01*
X77662851Y-104379065D01*
X77633200Y-104249680D01*
X77633094Y-104249379D01*
X77633092Y-104249371D01*
X77593856Y-104137659D01*
X77593853Y-104137652D01*
X77593753Y-104137367D01*
X77545699Y-104035889D01*
X77525965Y-104001424D01*
X77490276Y-103939090D01*
X77490264Y-103939071D01*
X77490229Y-103939009D01*
X77428534Y-103840488D01*
X77361885Y-103734220D01*
X77361710Y-103733930D01*
X77349285Y-103712712D01*
X77291383Y-103613838D01*
X77291098Y-103613324D01*
X77224001Y-103484255D01*
X77221874Y-103480163D01*
X77221098Y-103471242D01*
X77223822Y-103466657D01*
X77544355Y-103133342D01*
X77938000Y-102724000D01*
X78658000Y-103472711D01*
G37*
%TD.AperFunction*%
%TD*%
%TA.AperFunction,Conductor*%
%TO.N,Net-(C2-Pad2)*%
G36*
X70015343Y-98091822D02*
G01*
X70758000Y-98806000D01*
X70009289Y-99526000D01*
X69868423Y-99452770D01*
X69793487Y-99408886D01*
X69793486Y-99408885D01*
X69748054Y-99382280D01*
X69747765Y-99382105D01*
X69641511Y-99315465D01*
X69542990Y-99253770D01*
X69542928Y-99253735D01*
X69542909Y-99253723D01*
X69480575Y-99218034D01*
X69446110Y-99198300D01*
X69404473Y-99178583D01*
X69344916Y-99150380D01*
X69344908Y-99150377D01*
X69344632Y-99150246D01*
X69344347Y-99150146D01*
X69344340Y-99150143D01*
X69232628Y-99110907D01*
X69232620Y-99110905D01*
X69232319Y-99110799D01*
X69232005Y-99110727D01*
X69231998Y-99110725D01*
X69103224Y-99081214D01*
X69103216Y-99081213D01*
X69102934Y-99081148D01*
X68950240Y-99062485D01*
X68950000Y-99062476D01*
X68949994Y-99062476D01*
X68890453Y-99060357D01*
X68779283Y-99056402D01*
X68771138Y-99052683D01*
X68768000Y-99044709D01*
X68768000Y-98567291D01*
X68771427Y-98559018D01*
X68779283Y-98555598D01*
X68884947Y-98551838D01*
X68949994Y-98549523D01*
X68950000Y-98549523D01*
X68950240Y-98549514D01*
X69102934Y-98530851D01*
X69103216Y-98530786D01*
X69103224Y-98530785D01*
X69231998Y-98501274D01*
X69232005Y-98501272D01*
X69232319Y-98501200D01*
X69232620Y-98501094D01*
X69232628Y-98501092D01*
X69344340Y-98461856D01*
X69344347Y-98461853D01*
X69344632Y-98461753D01*
X69344908Y-98461622D01*
X69344916Y-98461619D01*
X69404473Y-98433416D01*
X69446110Y-98413699D01*
X69480575Y-98393965D01*
X69542909Y-98358276D01*
X69542928Y-98358264D01*
X69542990Y-98358229D01*
X69641511Y-98296534D01*
X69747779Y-98229885D01*
X69748054Y-98229719D01*
X69868161Y-98159383D01*
X69868675Y-98159098D01*
X69869246Y-98158801D01*
X70001837Y-98089874D01*
X70010758Y-98089098D01*
X70015343Y-98091822D01*
G37*
%TD.AperFunction*%
%TD*%
%TA.AperFunction,Conductor*%
%TO.N,Net-(C2-Pad1)*%
G36*
X76306056Y-113512584D02*
G01*
X76730484Y-113731074D01*
X76736271Y-113737908D01*
X76735614Y-113746670D01*
X76658701Y-113901964D01*
X76658690Y-113901986D01*
X76658660Y-113902048D01*
X76594359Y-114045082D01*
X76585797Y-114066677D01*
X76562975Y-114124236D01*
X76544528Y-114170760D01*
X76505871Y-114284394D01*
X76475095Y-114391294D01*
X76448904Y-114496771D01*
X76448887Y-114496845D01*
X76448879Y-114496879D01*
X76424003Y-114606138D01*
X76397120Y-114724608D01*
X76397082Y-114724771D01*
X76364917Y-114857683D01*
X76364849Y-114857947D01*
X76326224Y-115002697D01*
X76320780Y-115009807D01*
X76315860Y-115011342D01*
X75827406Y-115050638D01*
X75365545Y-115087793D01*
X75357024Y-115085041D01*
X75352917Y-115076613D01*
X75313673Y-114124235D01*
X75316756Y-114115828D01*
X75321243Y-114112804D01*
X75394078Y-114085408D01*
X75443564Y-114066795D01*
X75444209Y-114066574D01*
X75564077Y-114029297D01*
X75564401Y-114029201D01*
X75675526Y-113998137D01*
X75675545Y-113998132D01*
X75675572Y-113998124D01*
X75675634Y-113998106D01*
X75778819Y-113968014D01*
X75778830Y-113968010D01*
X75778972Y-113967969D01*
X75875577Y-113933425D01*
X75875861Y-113933287D01*
X75875865Y-113933285D01*
X75940005Y-113902048D01*
X75966516Y-113889137D01*
X75966877Y-113888889D01*
X76052516Y-113830030D01*
X76052519Y-113830027D01*
X76052917Y-113829754D01*
X76053264Y-113829421D01*
X76053268Y-113829417D01*
X76135591Y-113750227D01*
X76135592Y-113750226D01*
X76135909Y-113749921D01*
X76216618Y-113644286D01*
X76290587Y-113517105D01*
X76297709Y-113511676D01*
X76306056Y-113512584D01*
G37*
%TD.AperFunction*%
%TD*%
%TA.AperFunction,Conductor*%
%TO.N,Net-(C1-Pad2)*%
G36*
X58169120Y-98332384D02*
G01*
X58556927Y-98494249D01*
X58813943Y-98601524D01*
X58813944Y-98601525D01*
X58815050Y-98601987D01*
X58815052Y-98601988D01*
X58989030Y-98674603D01*
X58995344Y-98680952D01*
X58995136Y-98690324D01*
X58617657Y-99503728D01*
X58464856Y-99487468D01*
X58333643Y-99466458D01*
X58227909Y-99444325D01*
X58218011Y-99442253D01*
X58217673Y-99442177D01*
X58168438Y-99430190D01*
X58111302Y-99416279D01*
X58111206Y-99416255D01*
X58007818Y-99390155D01*
X58007809Y-99390153D01*
X58007770Y-99390143D01*
X57901149Y-99365350D01*
X57785237Y-99343417D01*
X57742761Y-99337743D01*
X57654034Y-99325890D01*
X57654017Y-99325888D01*
X57653858Y-99325867D01*
X57653681Y-99325854D01*
X57653676Y-99325853D01*
X57608878Y-99322443D01*
X57500838Y-99314220D01*
X57331426Y-99310267D01*
X57323236Y-99306648D01*
X57320000Y-99298570D01*
X57320000Y-98821240D01*
X57323427Y-98812967D01*
X57331230Y-98809549D01*
X57352033Y-98808713D01*
X57453789Y-98804626D01*
X57566837Y-98788758D01*
X57567192Y-98788662D01*
X57567196Y-98788661D01*
X57662374Y-98762882D01*
X57662373Y-98762882D01*
X57662784Y-98762771D01*
X57688278Y-98751729D01*
X57744876Y-98727215D01*
X57744881Y-98727212D01*
X57745272Y-98727043D01*
X57817943Y-98681949D01*
X57884438Y-98627868D01*
X57948399Y-98565176D01*
X57948503Y-98565063D01*
X58013440Y-98494280D01*
X58013525Y-98494185D01*
X58083197Y-98415564D01*
X58083285Y-98415465D01*
X58155945Y-98335322D01*
X58164041Y-98331495D01*
X58169120Y-98332384D01*
G37*
%TD.AperFunction*%
%TD*%
%TA.AperFunction,Conductor*%
%TO.N,Net-(Q1-Pad2)*%
G36*
X70401120Y-114138805D02*
G01*
X71097000Y-114808000D01*
X70806448Y-115087410D01*
X70806447Y-115087410D01*
X70465425Y-115415356D01*
X70401121Y-115477194D01*
X70392782Y-115480459D01*
X70387642Y-115479156D01*
X70264359Y-115415471D01*
X70263898Y-115415219D01*
X70151809Y-115350785D01*
X70151557Y-115350636D01*
X70051996Y-115290035D01*
X69959466Y-115234353D01*
X69959376Y-115234299D01*
X69868104Y-115184475D01*
X69867897Y-115184382D01*
X69772736Y-115141654D01*
X69772732Y-115141652D01*
X69772466Y-115141533D01*
X69666751Y-115106443D01*
X69666444Y-115106377D01*
X69666438Y-115106375D01*
X69545525Y-115080238D01*
X69545526Y-115080238D01*
X69545243Y-115080177D01*
X69457770Y-115070103D01*
X69402467Y-115063733D01*
X69402463Y-115063733D01*
X69402231Y-115063706D01*
X69292069Y-115060013D01*
X69243308Y-115058379D01*
X69235154Y-115054677D01*
X69232000Y-115046686D01*
X69232000Y-114569314D01*
X69235427Y-114561041D01*
X69243308Y-114557621D01*
X69332114Y-114554644D01*
X69402231Y-114552293D01*
X69402463Y-114552266D01*
X69402467Y-114552266D01*
X69457770Y-114545896D01*
X69545243Y-114535822D01*
X69558531Y-114532950D01*
X69666438Y-114509624D01*
X69666444Y-114509622D01*
X69666751Y-114509556D01*
X69772466Y-114474466D01*
X69772732Y-114474347D01*
X69772736Y-114474345D01*
X69867897Y-114431617D01*
X69867898Y-114431616D01*
X69868104Y-114431524D01*
X69959376Y-114381700D01*
X70051996Y-114325964D01*
X70151572Y-114265354D01*
X70151809Y-114265214D01*
X70263898Y-114200780D01*
X70264359Y-114200528D01*
X70383843Y-114138806D01*
X70387642Y-114136844D01*
X70396564Y-114136092D01*
X70401120Y-114138805D01*
G37*
%TD.AperFunction*%
%TD*%
%TA.AperFunction,Conductor*%
%TO.N,Net-(C2-Pad2)*%
G36*
X71998741Y-101830619D02*
G01*
X72123927Y-101947201D01*
X72245095Y-102041975D01*
X72357549Y-102112498D01*
X72464860Y-102164021D01*
X72465142Y-102164122D01*
X72465145Y-102164123D01*
X72570372Y-102201719D01*
X72570379Y-102201721D01*
X72570594Y-102201798D01*
X72678322Y-102231080D01*
X72791612Y-102257120D01*
X72913858Y-102285129D01*
X72914172Y-102285206D01*
X73008071Y-102309745D01*
X73048857Y-102320404D01*
X73049424Y-102320567D01*
X73192531Y-102365777D01*
X73199387Y-102371537D01*
X73200704Y-102376705D01*
X73220604Y-103394677D01*
X73217339Y-103403016D01*
X73208677Y-103406604D01*
X72190705Y-103386704D01*
X72182501Y-103383116D01*
X72179777Y-103378531D01*
X72134567Y-103235424D01*
X72134404Y-103234857D01*
X72099209Y-103100186D01*
X72099125Y-103099841D01*
X72071120Y-102977612D01*
X72045106Y-102864435D01*
X72045106Y-102864434D01*
X72045080Y-102864322D01*
X72015798Y-102756594D01*
X71978021Y-102650860D01*
X71926498Y-102543549D01*
X71855975Y-102431095D01*
X71761201Y-102309927D01*
X71644619Y-102184741D01*
X71641488Y-102176351D01*
X71644908Y-102168494D01*
X71982494Y-101830908D01*
X71990767Y-101827481D01*
X71998741Y-101830619D01*
G37*
%TD.AperFunction*%
%TD*%
M02*
