%TF.GenerationSoftware,KiCad,Pcbnew,(6.0.4)*%
%TF.CreationDate,2022-07-11T19:15:08+03:00*%
%TF.ProjectId,Basic-150-MHz-Telemetry-Transmitter-THT,42617369-632d-4313-9530-2d4d487a2d54,rev?*%
%TF.SameCoordinates,Original*%
%TF.FileFunction,Legend,Top*%
%TF.FilePolarity,Positive*%
%FSLAX46Y46*%
G04 Gerber Fmt 4.6, Leading zero omitted, Abs format (unit mm)*
G04 Created by KiCad (PCBNEW (6.0.4)) date 2022-07-11 19:15:08*
%MOMM*%
%LPD*%
G01*
G04 APERTURE LIST*
%ADD10C,0.150000*%
%ADD11C,0.120000*%
%ADD12R,1.700000X1.700000*%
%ADD13O,1.700000X1.700000*%
%ADD14C,1.500000*%
%ADD15C,1.400000*%
%ADD16O,1.400000X1.400000*%
%ADD17R,1.050000X1.500000*%
%ADD18O,1.050000X1.500000*%
%ADD19O,1.600000X1.600000*%
%ADD20C,1.600000*%
G04 APERTURE END LIST*
D10*
%TO.C,J1*%
X53514666Y-106386380D02*
X53514666Y-107100666D01*
X53467047Y-107243523D01*
X53371809Y-107338761D01*
X53228952Y-107386380D01*
X53133714Y-107386380D01*
X54514666Y-107386380D02*
X53943238Y-107386380D01*
X54228952Y-107386380D02*
X54228952Y-106386380D01*
X54133714Y-106529238D01*
X54038476Y-106624476D01*
X53943238Y-106672095D01*
%TO.C,Y1*%
X79787809Y-115292190D02*
X79787809Y-115768380D01*
X79454476Y-114768380D02*
X79787809Y-115292190D01*
X80121142Y-114768380D01*
X80978285Y-115768380D02*
X80406857Y-115768380D01*
X80692571Y-115768380D02*
X80692571Y-114768380D01*
X80597333Y-114911238D01*
X80502095Y-115006476D01*
X80406857Y-115054095D01*
%TO.C,RP1*%
X63849333Y-105100380D02*
X63516000Y-104624190D01*
X63277904Y-105100380D02*
X63277904Y-104100380D01*
X63658857Y-104100380D01*
X63754095Y-104148000D01*
X63801714Y-104195619D01*
X63849333Y-104290857D01*
X63849333Y-104433714D01*
X63801714Y-104528952D01*
X63754095Y-104576571D01*
X63658857Y-104624190D01*
X63277904Y-104624190D01*
X64277904Y-105100380D02*
X64277904Y-104100380D01*
X64658857Y-104100380D01*
X64754095Y-104148000D01*
X64801714Y-104195619D01*
X64849333Y-104290857D01*
X64849333Y-104433714D01*
X64801714Y-104528952D01*
X64754095Y-104576571D01*
X64658857Y-104624190D01*
X64277904Y-104624190D01*
X65801714Y-105100380D02*
X65230285Y-105100380D01*
X65516000Y-105100380D02*
X65516000Y-104100380D01*
X65420761Y-104243238D01*
X65325523Y-104338476D01*
X65230285Y-104386095D01*
%TO.C,R1*%
X55967333Y-115260380D02*
X55634000Y-114784190D01*
X55395904Y-115260380D02*
X55395904Y-114260380D01*
X55776857Y-114260380D01*
X55872095Y-114308000D01*
X55919714Y-114355619D01*
X55967333Y-114450857D01*
X55967333Y-114593714D01*
X55919714Y-114688952D01*
X55872095Y-114736571D01*
X55776857Y-114784190D01*
X55395904Y-114784190D01*
X56919714Y-115260380D02*
X56348285Y-115260380D01*
X56634000Y-115260380D02*
X56634000Y-114260380D01*
X56538761Y-114403238D01*
X56443523Y-114498476D01*
X56348285Y-114546095D01*
%TO.C,Q1*%
X79406761Y-109513619D02*
X79311523Y-109466000D01*
X79216285Y-109370761D01*
X79073428Y-109227904D01*
X78978190Y-109180285D01*
X78882952Y-109180285D01*
X78930571Y-109418380D02*
X78835333Y-109370761D01*
X78740095Y-109275523D01*
X78692476Y-109085047D01*
X78692476Y-108751714D01*
X78740095Y-108561238D01*
X78835333Y-108466000D01*
X78930571Y-108418380D01*
X79121047Y-108418380D01*
X79216285Y-108466000D01*
X79311523Y-108561238D01*
X79359142Y-108751714D01*
X79359142Y-109085047D01*
X79311523Y-109275523D01*
X79216285Y-109370761D01*
X79121047Y-109418380D01*
X78930571Y-109418380D01*
X80311523Y-109418380D02*
X79740095Y-109418380D01*
X80025809Y-109418380D02*
X80025809Y-108418380D01*
X79930571Y-108561238D01*
X79835333Y-108656476D01*
X79740095Y-108704095D01*
%TO.C,L2*%
X75271333Y-99258380D02*
X74795142Y-99258380D01*
X74795142Y-98258380D01*
X75557047Y-98353619D02*
X75604666Y-98306000D01*
X75699904Y-98258380D01*
X75938000Y-98258380D01*
X76033238Y-98306000D01*
X76080857Y-98353619D01*
X76128476Y-98448857D01*
X76128476Y-98544095D01*
X76080857Y-98686952D01*
X75509428Y-99258380D01*
X76128476Y-99258380D01*
%TO.C,L1*%
X62571333Y-99258380D02*
X62095142Y-99258380D01*
X62095142Y-98258380D01*
X63428476Y-99258380D02*
X62857047Y-99258380D01*
X63142761Y-99258380D02*
X63142761Y-98258380D01*
X63047523Y-98401238D01*
X62952285Y-98496476D01*
X62857047Y-98544095D01*
%TO.C,J2*%
X82978666Y-107705380D02*
X82978666Y-108419666D01*
X82931047Y-108562523D01*
X82835809Y-108657761D01*
X82692952Y-108705380D01*
X82597714Y-108705380D01*
X83407238Y-107800619D02*
X83454857Y-107753000D01*
X83550095Y-107705380D01*
X83788190Y-107705380D01*
X83883428Y-107753000D01*
X83931047Y-107800619D01*
X83978666Y-107895857D01*
X83978666Y-107991095D01*
X83931047Y-108133952D01*
X83359619Y-108705380D01*
X83978666Y-108705380D01*
%TO.C,CP1*%
X63595333Y-111355142D02*
X63547714Y-111402761D01*
X63404857Y-111450380D01*
X63309619Y-111450380D01*
X63166761Y-111402761D01*
X63071523Y-111307523D01*
X63023904Y-111212285D01*
X62976285Y-111021809D01*
X62976285Y-110878952D01*
X63023904Y-110688476D01*
X63071523Y-110593238D01*
X63166761Y-110498000D01*
X63309619Y-110450380D01*
X63404857Y-110450380D01*
X63547714Y-110498000D01*
X63595333Y-110545619D01*
X64023904Y-111450380D02*
X64023904Y-110450380D01*
X64404857Y-110450380D01*
X64500095Y-110498000D01*
X64547714Y-110545619D01*
X64595333Y-110640857D01*
X64595333Y-110783714D01*
X64547714Y-110878952D01*
X64500095Y-110926571D01*
X64404857Y-110974190D01*
X64023904Y-110974190D01*
X65547714Y-111450380D02*
X64976285Y-111450380D01*
X65262000Y-111450380D02*
X65262000Y-110450380D01*
X65166761Y-110593238D01*
X65071523Y-110688476D01*
X64976285Y-110736095D01*
%TO.C,C2*%
X75271333Y-103481142D02*
X75223714Y-103528761D01*
X75080857Y-103576380D01*
X74985619Y-103576380D01*
X74842761Y-103528761D01*
X74747523Y-103433523D01*
X74699904Y-103338285D01*
X74652285Y-103147809D01*
X74652285Y-103004952D01*
X74699904Y-102814476D01*
X74747523Y-102719238D01*
X74842761Y-102624000D01*
X74985619Y-102576380D01*
X75080857Y-102576380D01*
X75223714Y-102624000D01*
X75271333Y-102671619D01*
X75652285Y-102671619D02*
X75699904Y-102624000D01*
X75795142Y-102576380D01*
X76033238Y-102576380D01*
X76128476Y-102624000D01*
X76176095Y-102671619D01*
X76223714Y-102766857D01*
X76223714Y-102862095D01*
X76176095Y-103004952D01*
X75604666Y-103576380D01*
X76223714Y-103576380D01*
%TO.C,C1*%
X56221333Y-109577142D02*
X56173714Y-109624761D01*
X56030857Y-109672380D01*
X55935619Y-109672380D01*
X55792761Y-109624761D01*
X55697523Y-109529523D01*
X55649904Y-109434285D01*
X55602285Y-109243809D01*
X55602285Y-109100952D01*
X55649904Y-108910476D01*
X55697523Y-108815238D01*
X55792761Y-108720000D01*
X55935619Y-108672380D01*
X56030857Y-108672380D01*
X56173714Y-108720000D01*
X56221333Y-108767619D01*
X57173714Y-109672380D02*
X56602285Y-109672380D01*
X56888000Y-109672380D02*
X56888000Y-108672380D01*
X56792761Y-108815238D01*
X56697523Y-108910476D01*
X56602285Y-108958095D01*
D11*
%TO.C,J1*%
X53026000Y-105470000D02*
X55686000Y-105470000D01*
X53026000Y-100330000D02*
X53026000Y-105470000D01*
X53026000Y-99060000D02*
X53026000Y-97730000D01*
X55686000Y-100330000D02*
X55686000Y-105470000D01*
X53026000Y-97730000D02*
X54356000Y-97730000D01*
X53026000Y-100330000D02*
X55686000Y-100330000D01*
%TO.C,Y1*%
X76362000Y-117333000D02*
X69962000Y-117333000D01*
X76362000Y-112283000D02*
X69962000Y-112283000D01*
X76362000Y-117333000D02*
G75*
G03*
X76362000Y-112283000I0J2525000D01*
G01*
X69962000Y-112283000D02*
G75*
G03*
X69962000Y-117333000I0J-2525000D01*
G01*
%TO.C,RP1*%
X62596000Y-103536000D02*
X66436000Y-103536000D01*
X62596000Y-101696000D02*
X66436000Y-101696000D01*
%TO.C,R1*%
X59040000Y-113888000D02*
X62880000Y-113888000D01*
X59040000Y-115728000D02*
X62880000Y-115728000D01*
%TO.C,Q1*%
X73892000Y-110414000D02*
X77492000Y-110414000D01*
X77530478Y-110402478D02*
G75*
G03*
X75692000Y-105964000I-1838478J1838478D01*
G01*
X75692000Y-105963999D02*
G75*
G03*
X73853522Y-110402478I0J-2600001D01*
G01*
%TO.C,L2*%
X78708000Y-97436000D02*
X72168000Y-97436000D01*
X72168000Y-100176000D02*
X78708000Y-100176000D01*
X78708000Y-100176000D02*
X78708000Y-97436000D01*
X72168000Y-97436000D02*
X72168000Y-100176000D01*
X71398000Y-98806000D02*
X72168000Y-98806000D01*
X79478000Y-98806000D02*
X78708000Y-98806000D01*
%TO.C,L1*%
X59614000Y-98806000D02*
X60564000Y-98806000D01*
X60564000Y-97886000D02*
X60564000Y-99726000D01*
X65354000Y-98806000D02*
X64404000Y-98806000D01*
X60564000Y-99726000D02*
X64404000Y-99726000D01*
X64404000Y-97886000D02*
X60564000Y-97886000D01*
X64404000Y-99726000D02*
X64404000Y-97886000D01*
%TO.C,J2*%
X81982000Y-104653000D02*
X81982000Y-102053000D01*
X84642000Y-107253000D02*
X83312000Y-107253000D01*
X84642000Y-104653000D02*
X81982000Y-104653000D01*
X84642000Y-104653000D02*
X84642000Y-102053000D01*
X84642000Y-102053000D02*
X81982000Y-102053000D01*
X84642000Y-105923000D02*
X84642000Y-107253000D01*
%TO.C,CP1*%
X72176000Y-107088000D02*
X72176000Y-109828000D01*
X61936000Y-109828000D02*
X72176000Y-109828000D01*
X61936000Y-107088000D02*
X72176000Y-107088000D01*
X61936000Y-107088000D02*
X61936000Y-109828000D01*
%TO.C,C2*%
X70318000Y-104494000D02*
X70318000Y-101754000D01*
X80558000Y-101754000D02*
X70318000Y-101754000D01*
X80558000Y-104494000D02*
X70318000Y-104494000D01*
X80558000Y-104494000D02*
X80558000Y-101754000D01*
%TO.C,C1*%
X57812000Y-100290000D02*
X60552000Y-100290000D01*
X60552000Y-110530000D02*
X60552000Y-100290000D01*
X57812000Y-110530000D02*
X57812000Y-100290000D01*
X57812000Y-110530000D02*
X60552000Y-110530000D01*
%TD*%
%LPC*%
D12*
%TO.C,J1*%
X54356000Y-99060000D03*
D13*
X54356000Y-101600000D03*
X54356000Y-104140000D03*
%TD*%
D14*
%TO.C,Y1*%
X75602000Y-114808000D03*
X70722000Y-114808000D03*
%TD*%
D15*
%TO.C,RP1*%
X61976000Y-102616000D03*
D16*
X67056000Y-102616000D03*
%TD*%
%TO.C,R1*%
X63500000Y-114808000D03*
D15*
X58420000Y-114808000D03*
%TD*%
D17*
%TO.C,Q1*%
X74422000Y-108564000D03*
D18*
X75692000Y-108564000D03*
X76962000Y-108564000D03*
%TD*%
D19*
%TO.C,L2*%
X80518000Y-98806000D03*
D20*
X70358000Y-98806000D03*
%TD*%
D16*
%TO.C,L1*%
X66294000Y-98806000D03*
D15*
X58674000Y-98806000D03*
%TD*%
D13*
%TO.C,J2*%
X83312000Y-103383000D03*
D12*
X83312000Y-105923000D03*
%TD*%
D20*
%TO.C,CP1*%
X64556000Y-108458000D03*
X69556000Y-108458000D03*
%TD*%
%TO.C,C2*%
X77938000Y-103124000D03*
X72938000Y-103124000D03*
%TD*%
%TO.C,C1*%
X59182000Y-107910000D03*
X59182000Y-102910000D03*
%TD*%
M02*
