%TF.GenerationSoftware,KiCad,Pcbnew,(6.0.4)*%
%TF.CreationDate,2022-07-11T19:15:08+03:00*%
%TF.ProjectId,Basic-150-MHz-Telemetry-Transmitter-THT,42617369-632d-4313-9530-2d4d487a2d54,rev?*%
%TF.SameCoordinates,Original*%
%TF.FileFunction,Copper,L2,Bot*%
%TF.FilePolarity,Positive*%
%FSLAX46Y46*%
G04 Gerber Fmt 4.6, Leading zero omitted, Abs format (unit mm)*
G04 Created by KiCad (PCBNEW (6.0.4)) date 2022-07-11 19:15:08*
%MOMM*%
%LPD*%
G01*
G04 APERTURE LIST*
%TA.AperFunction,ComponentPad*%
%ADD10R,1.700000X1.700000*%
%TD*%
%TA.AperFunction,ComponentPad*%
%ADD11O,1.700000X1.700000*%
%TD*%
%TA.AperFunction,ComponentPad*%
%ADD12C,1.500000*%
%TD*%
%TA.AperFunction,ComponentPad*%
%ADD13C,1.400000*%
%TD*%
%TA.AperFunction,ComponentPad*%
%ADD14O,1.400000X1.400000*%
%TD*%
%TA.AperFunction,ComponentPad*%
%ADD15R,1.050000X1.500000*%
%TD*%
%TA.AperFunction,ComponentPad*%
%ADD16O,1.050000X1.500000*%
%TD*%
%TA.AperFunction,ComponentPad*%
%ADD17O,1.600000X1.600000*%
%TD*%
%TA.AperFunction,ComponentPad*%
%ADD18C,1.600000*%
%TD*%
G04 APERTURE END LIST*
D10*
%TO.P,J1,1,Pin_1*%
%TO.N,Net-(C1-Pad2)*%
X54356000Y-99060000D03*
D11*
%TO.P,J1,2,Pin_2*%
%TO.N,GND*%
X54356000Y-101600000D03*
%TO.P,J1,3,Pin_3*%
%TO.N,data*%
X54356000Y-104140000D03*
%TD*%
D12*
%TO.P,Y1,1,1*%
%TO.N,Net-(C2-Pad1)*%
X75602000Y-114808000D03*
%TO.P,Y1,2,2*%
%TO.N,Net-(Q1-Pad2)*%
X70722000Y-114808000D03*
%TD*%
D13*
%TO.P,RP1,1*%
%TO.N,Net-(C1-Pad2)*%
X61976000Y-102616000D03*
D14*
%TO.P,RP1,2*%
%TO.N,Net-(CP1-Pad1)*%
X67056000Y-102616000D03*
%TD*%
%TO.P,R1,2*%
%TO.N,Net-(Q1-Pad2)*%
X63500000Y-114808000D03*
D13*
%TO.P,R1,1*%
%TO.N,data*%
X58420000Y-114808000D03*
%TD*%
D15*
%TO.P,Q1,1,E*%
%TO.N,GND*%
X74422000Y-108564000D03*
D16*
%TO.P,Q1,2,B*%
%TO.N,Net-(Q1-Pad2)*%
X75692000Y-108564000D03*
%TO.P,Q1,3,C*%
%TO.N,Net-(C2-Pad1)*%
X76962000Y-108564000D03*
%TD*%
D17*
%TO.P,L2,2,2*%
%TO.N,Net-(C2-Pad1)*%
X80518000Y-98806000D03*
D18*
%TO.P,L2,1,1*%
%TO.N,Net-(C2-Pad2)*%
X70358000Y-98806000D03*
%TD*%
D14*
%TO.P,L1,2,2*%
%TO.N,Net-(C2-Pad2)*%
X66294000Y-98806000D03*
D13*
%TO.P,L1,1,1*%
%TO.N,Net-(C1-Pad2)*%
X58674000Y-98806000D03*
%TD*%
D11*
%TO.P,J2,2,Pin_2*%
%TO.N,Net-(C2-Pad1)*%
X83312000Y-103383000D03*
D10*
%TO.P,J2,1,Pin_1*%
%TO.N,GND*%
X83312000Y-105923000D03*
%TD*%
D18*
%TO.P,CP1,1*%
%TO.N,Net-(CP1-Pad1)*%
X64556000Y-108458000D03*
%TO.P,CP1,2*%
%TO.N,GND*%
X69556000Y-108458000D03*
%TD*%
%TO.P,C2,1*%
%TO.N,Net-(C2-Pad1)*%
X77938000Y-103124000D03*
%TO.P,C2,2*%
%TO.N,Net-(C2-Pad2)*%
X72938000Y-103124000D03*
%TD*%
%TO.P,C1,1*%
%TO.N,GND*%
X59182000Y-107910000D03*
%TO.P,C1,2*%
%TO.N,Net-(C1-Pad2)*%
X59182000Y-102910000D03*
%TD*%
%TA.AperFunction,Conductor*%
%TO.N,GND*%
G36*
X85319539Y-96761185D02*
G01*
X85365294Y-96813989D01*
X85376500Y-96865500D01*
X85376500Y-117510500D01*
X85356815Y-117577539D01*
X85304011Y-117623294D01*
X85252500Y-117634500D01*
X52669500Y-117634500D01*
X52602461Y-117614815D01*
X52556706Y-117562011D01*
X52545500Y-117510500D01*
X52545500Y-114779069D01*
X57315164Y-114779069D01*
X57315535Y-114784731D01*
X57315535Y-114784735D01*
X57321088Y-114869458D01*
X57328392Y-114980894D01*
X57378178Y-115176928D01*
X57380554Y-115182082D01*
X57424753Y-115277955D01*
X57462856Y-115360607D01*
X57579588Y-115525780D01*
X57724466Y-115666913D01*
X57892637Y-115779282D01*
X58078470Y-115859122D01*
X58106069Y-115865367D01*
X58270193Y-115902505D01*
X58270195Y-115902505D01*
X58275740Y-115903760D01*
X58387049Y-115908133D01*
X58472161Y-115911477D01*
X58472163Y-115911477D01*
X58477842Y-115911700D01*
X58483462Y-115910885D01*
X58483465Y-115910885D01*
X58672387Y-115883493D01*
X58672389Y-115883493D01*
X58678007Y-115882678D01*
X58683384Y-115880853D01*
X58683387Y-115880852D01*
X58768090Y-115852099D01*
X58869531Y-115817664D01*
X59046001Y-115718837D01*
X59061512Y-115705937D01*
X59197138Y-115593137D01*
X59201505Y-115589505D01*
X59258364Y-115521140D01*
X59327206Y-115438367D01*
X59327207Y-115438366D01*
X59330837Y-115434001D01*
X59429664Y-115257531D01*
X59494678Y-115066007D01*
X59507840Y-114975228D01*
X59523176Y-114869458D01*
X59523176Y-114869453D01*
X59523700Y-114865842D01*
X59525215Y-114808000D01*
X59522557Y-114779069D01*
X62395164Y-114779069D01*
X62395535Y-114784731D01*
X62395535Y-114784735D01*
X62401088Y-114869458D01*
X62408392Y-114980894D01*
X62458178Y-115176928D01*
X62460554Y-115182082D01*
X62504753Y-115277955D01*
X62542856Y-115360607D01*
X62659588Y-115525780D01*
X62804466Y-115666913D01*
X62972637Y-115779282D01*
X63158470Y-115859122D01*
X63186069Y-115865367D01*
X63350193Y-115902505D01*
X63350195Y-115902505D01*
X63355740Y-115903760D01*
X63467049Y-115908133D01*
X63552161Y-115911477D01*
X63552163Y-115911477D01*
X63557842Y-115911700D01*
X63563462Y-115910885D01*
X63563465Y-115910885D01*
X63752387Y-115883493D01*
X63752389Y-115883493D01*
X63758007Y-115882678D01*
X63763384Y-115880853D01*
X63763387Y-115880852D01*
X63848090Y-115852099D01*
X63949531Y-115817664D01*
X64126001Y-115718837D01*
X64141512Y-115705937D01*
X64277138Y-115593137D01*
X64281505Y-115589505D01*
X64338364Y-115521140D01*
X64407206Y-115438367D01*
X64407207Y-115438366D01*
X64410837Y-115434001D01*
X64509664Y-115257531D01*
X64574678Y-115066007D01*
X64587840Y-114975228D01*
X64603176Y-114869458D01*
X64603176Y-114869453D01*
X64603700Y-114865842D01*
X64605215Y-114808000D01*
X64602436Y-114777754D01*
X69566967Y-114777754D01*
X69567338Y-114783416D01*
X69567338Y-114783420D01*
X69568949Y-114808000D01*
X69580796Y-114988749D01*
X69632845Y-115193690D01*
X69635219Y-115198841D01*
X69635221Y-115198845D01*
X69711933Y-115365245D01*
X69721369Y-115385714D01*
X69724647Y-115390352D01*
X69820358Y-115525780D01*
X69843405Y-115558391D01*
X69847476Y-115562357D01*
X69847477Y-115562358D01*
X69875344Y-115589505D01*
X69994865Y-115705937D01*
X69999588Y-115709093D01*
X69999592Y-115709096D01*
X70070663Y-115756584D01*
X70170677Y-115823411D01*
X70364953Y-115906878D01*
X70428283Y-115921208D01*
X70565638Y-115952289D01*
X70565642Y-115952290D01*
X70571186Y-115953544D01*
X70697651Y-115958513D01*
X70776789Y-115961623D01*
X70776791Y-115961623D01*
X70782470Y-115961846D01*
X70788090Y-115961031D01*
X70788092Y-115961031D01*
X70986103Y-115932320D01*
X70986104Y-115932320D01*
X70991730Y-115931504D01*
X71072805Y-115903983D01*
X71186565Y-115865367D01*
X71186568Y-115865366D01*
X71191955Y-115863537D01*
X71196916Y-115860759D01*
X71196922Y-115860756D01*
X71338392Y-115781528D01*
X71376442Y-115760219D01*
X71422864Y-115721611D01*
X71534645Y-115628644D01*
X71539012Y-115625012D01*
X71572175Y-115585138D01*
X71670584Y-115466813D01*
X71670585Y-115466811D01*
X71674219Y-115462442D01*
X71734138Y-115355449D01*
X71774756Y-115282922D01*
X71774759Y-115282916D01*
X71777537Y-115277955D01*
X71782787Y-115262491D01*
X71843675Y-115083118D01*
X71845504Y-115077730D01*
X71875846Y-114868470D01*
X71877429Y-114808000D01*
X71874650Y-114777754D01*
X74446967Y-114777754D01*
X74447338Y-114783416D01*
X74447338Y-114783420D01*
X74448949Y-114808000D01*
X74460796Y-114988749D01*
X74512845Y-115193690D01*
X74515219Y-115198841D01*
X74515221Y-115198845D01*
X74591933Y-115365245D01*
X74601369Y-115385714D01*
X74604647Y-115390352D01*
X74700358Y-115525780D01*
X74723405Y-115558391D01*
X74727476Y-115562357D01*
X74727477Y-115562358D01*
X74755344Y-115589505D01*
X74874865Y-115705937D01*
X74879588Y-115709093D01*
X74879592Y-115709096D01*
X74950663Y-115756584D01*
X75050677Y-115823411D01*
X75244953Y-115906878D01*
X75308283Y-115921208D01*
X75445638Y-115952289D01*
X75445642Y-115952290D01*
X75451186Y-115953544D01*
X75577651Y-115958513D01*
X75656789Y-115961623D01*
X75656791Y-115961623D01*
X75662470Y-115961846D01*
X75668090Y-115961031D01*
X75668092Y-115961031D01*
X75866103Y-115932320D01*
X75866104Y-115932320D01*
X75871730Y-115931504D01*
X75952805Y-115903983D01*
X76066565Y-115865367D01*
X76066568Y-115865366D01*
X76071955Y-115863537D01*
X76076916Y-115860759D01*
X76076922Y-115860756D01*
X76218392Y-115781528D01*
X76256442Y-115760219D01*
X76302864Y-115721611D01*
X76414645Y-115628644D01*
X76419012Y-115625012D01*
X76452175Y-115585138D01*
X76550584Y-115466813D01*
X76550585Y-115466811D01*
X76554219Y-115462442D01*
X76614138Y-115355449D01*
X76654756Y-115282922D01*
X76654759Y-115282916D01*
X76657537Y-115277955D01*
X76662787Y-115262491D01*
X76723675Y-115083118D01*
X76725504Y-115077730D01*
X76755846Y-114868470D01*
X76757429Y-114808000D01*
X76738081Y-114597440D01*
X76680686Y-114393931D01*
X76587165Y-114204290D01*
X76460651Y-114034867D01*
X76456481Y-114031012D01*
X76456478Y-114031009D01*
X76326600Y-113910952D01*
X76305381Y-113891337D01*
X76272090Y-113870332D01*
X76131363Y-113781539D01*
X76131361Y-113781538D01*
X76126554Y-113778505D01*
X75930160Y-113700152D01*
X75924579Y-113699042D01*
X75924576Y-113699041D01*
X75826467Y-113679526D01*
X75722775Y-113658901D01*
X75717088Y-113658827D01*
X75717083Y-113658826D01*
X75517034Y-113656207D01*
X75517029Y-113656207D01*
X75511346Y-113656133D01*
X75505742Y-113657096D01*
X75505741Y-113657096D01*
X75308550Y-113690979D01*
X75308547Y-113690980D01*
X75302953Y-113691941D01*
X75104575Y-113765127D01*
X75099697Y-113768029D01*
X75099695Y-113768030D01*
X74927740Y-113870332D01*
X74927737Y-113870334D01*
X74922856Y-113873238D01*
X74763881Y-114012655D01*
X74760362Y-114017119D01*
X74760359Y-114017122D01*
X74701731Y-114091492D01*
X74632976Y-114178708D01*
X74534523Y-114365836D01*
X74532837Y-114371267D01*
X74532835Y-114371271D01*
X74518511Y-114417403D01*
X74471820Y-114567773D01*
X74471152Y-114573418D01*
X74471151Y-114573422D01*
X74466555Y-114612254D01*
X74446967Y-114777754D01*
X71874650Y-114777754D01*
X71858081Y-114597440D01*
X71800686Y-114393931D01*
X71707165Y-114204290D01*
X71580651Y-114034867D01*
X71576481Y-114031012D01*
X71576478Y-114031009D01*
X71446600Y-113910952D01*
X71425381Y-113891337D01*
X71392090Y-113870332D01*
X71251363Y-113781539D01*
X71251361Y-113781538D01*
X71246554Y-113778505D01*
X71050160Y-113700152D01*
X71044579Y-113699042D01*
X71044576Y-113699041D01*
X70946467Y-113679526D01*
X70842775Y-113658901D01*
X70837088Y-113658827D01*
X70837083Y-113658826D01*
X70637034Y-113656207D01*
X70637029Y-113656207D01*
X70631346Y-113656133D01*
X70625742Y-113657096D01*
X70625741Y-113657096D01*
X70428550Y-113690979D01*
X70428547Y-113690980D01*
X70422953Y-113691941D01*
X70224575Y-113765127D01*
X70219697Y-113768029D01*
X70219695Y-113768030D01*
X70047740Y-113870332D01*
X70047737Y-113870334D01*
X70042856Y-113873238D01*
X69883881Y-114012655D01*
X69880362Y-114017119D01*
X69880359Y-114017122D01*
X69821731Y-114091492D01*
X69752976Y-114178708D01*
X69654523Y-114365836D01*
X69652837Y-114371267D01*
X69652835Y-114371271D01*
X69638511Y-114417403D01*
X69591820Y-114567773D01*
X69591152Y-114573418D01*
X69591151Y-114573422D01*
X69586555Y-114612254D01*
X69566967Y-114777754D01*
X64602436Y-114777754D01*
X64586708Y-114606591D01*
X64531807Y-114411926D01*
X64442351Y-114230527D01*
X64321335Y-114068467D01*
X64172812Y-113931174D01*
X64115792Y-113895197D01*
X64006566Y-113826280D01*
X64006564Y-113826279D01*
X64001757Y-113823246D01*
X63813898Y-113748298D01*
X63808317Y-113747188D01*
X63808314Y-113747187D01*
X63740373Y-113733673D01*
X63615526Y-113708839D01*
X63609839Y-113708765D01*
X63609834Y-113708764D01*
X63418975Y-113706266D01*
X63418970Y-113706266D01*
X63413286Y-113706192D01*
X63407682Y-113707155D01*
X63407681Y-113707155D01*
X63219546Y-113739482D01*
X63219543Y-113739483D01*
X63213949Y-113740444D01*
X63192660Y-113748298D01*
X63029521Y-113808483D01*
X63029517Y-113808485D01*
X63024193Y-113810449D01*
X63019310Y-113813354D01*
X63019308Y-113813355D01*
X62888232Y-113891337D01*
X62850371Y-113913862D01*
X62698305Y-114047220D01*
X62573089Y-114206057D01*
X62478914Y-114385053D01*
X62477229Y-114390479D01*
X62477228Y-114390482D01*
X62470570Y-114411926D01*
X62418937Y-114578213D01*
X62395164Y-114779069D01*
X59522557Y-114779069D01*
X59506708Y-114606591D01*
X59451807Y-114411926D01*
X59362351Y-114230527D01*
X59241335Y-114068467D01*
X59092812Y-113931174D01*
X59035792Y-113895197D01*
X58926566Y-113826280D01*
X58926564Y-113826279D01*
X58921757Y-113823246D01*
X58733898Y-113748298D01*
X58728317Y-113747188D01*
X58728314Y-113747187D01*
X58660373Y-113733673D01*
X58535526Y-113708839D01*
X58529839Y-113708765D01*
X58529834Y-113708764D01*
X58338975Y-113706266D01*
X58338970Y-113706266D01*
X58333286Y-113706192D01*
X58327682Y-113707155D01*
X58327681Y-113707155D01*
X58139546Y-113739482D01*
X58139543Y-113739483D01*
X58133949Y-113740444D01*
X58112660Y-113748298D01*
X57949521Y-113808483D01*
X57949517Y-113808485D01*
X57944193Y-113810449D01*
X57939310Y-113813354D01*
X57939308Y-113813355D01*
X57808232Y-113891337D01*
X57770371Y-113913862D01*
X57618305Y-114047220D01*
X57493089Y-114206057D01*
X57398914Y-114385053D01*
X57397229Y-114390479D01*
X57397228Y-114390482D01*
X57390570Y-114411926D01*
X57338937Y-114578213D01*
X57315164Y-114779069D01*
X52545500Y-114779069D01*
X52545500Y-108887062D01*
X58492850Y-108887062D01*
X58502575Y-108899353D01*
X58602226Y-108965939D01*
X58612184Y-108971345D01*
X58804366Y-109053912D01*
X58815138Y-109057412D01*
X59019151Y-109103576D01*
X59030381Y-109105054D01*
X59239391Y-109113266D01*
X59250695Y-109112674D01*
X59457715Y-109082658D01*
X59468715Y-109080017D01*
X59666789Y-109012779D01*
X59677140Y-109008171D01*
X59859634Y-108905968D01*
X59866569Y-108901203D01*
X59874358Y-108889605D01*
X59868284Y-108879127D01*
X59194607Y-108205450D01*
X59180887Y-108197958D01*
X59179081Y-108198087D01*
X59172574Y-108202269D01*
X58498946Y-108875897D01*
X58492850Y-108887062D01*
X52545500Y-108887062D01*
X52545500Y-107884126D01*
X57977644Y-107884126D01*
X57991325Y-108092860D01*
X57993094Y-108104030D01*
X58044587Y-108306783D01*
X58048360Y-108317439D01*
X58135939Y-108507412D01*
X58141595Y-108517208D01*
X58193564Y-108590743D01*
X58203986Y-108598999D01*
X58217074Y-108592083D01*
X58886550Y-107922607D01*
X58892826Y-107911113D01*
X59469958Y-107911113D01*
X59470087Y-107912919D01*
X59474269Y-107919426D01*
X60149983Y-108595140D01*
X60163078Y-108602290D01*
X60172481Y-108595620D01*
X60177968Y-108587634D01*
X60268242Y-108426440D01*
X63350770Y-108426440D01*
X63351141Y-108432102D01*
X63351141Y-108432106D01*
X63356974Y-108521098D01*
X63365200Y-108646604D01*
X63419511Y-108860452D01*
X63421887Y-108865606D01*
X63468142Y-108965939D01*
X63511883Y-109060821D01*
X63515161Y-109065459D01*
X63582916Y-109161330D01*
X63639222Y-109241002D01*
X63643293Y-109244968D01*
X63643294Y-109244969D01*
X63793190Y-109390993D01*
X63793195Y-109390997D01*
X63797264Y-109394961D01*
X63801987Y-109398117D01*
X63801991Y-109398120D01*
X63885574Y-109453968D01*
X63980717Y-109517540D01*
X64183436Y-109604635D01*
X64286769Y-109628017D01*
X64393085Y-109652074D01*
X64393087Y-109652074D01*
X64398632Y-109653329D01*
X64536457Y-109658744D01*
X64613418Y-109661768D01*
X64613420Y-109661768D01*
X64619098Y-109661991D01*
X64624718Y-109661176D01*
X64624721Y-109661176D01*
X64831826Y-109631147D01*
X64831829Y-109631146D01*
X64837452Y-109630331D01*
X64953020Y-109591101D01*
X65040989Y-109561240D01*
X65040992Y-109561239D01*
X65046379Y-109559410D01*
X65187160Y-109480569D01*
X65233931Y-109454376D01*
X65233932Y-109454375D01*
X65238884Y-109451602D01*
X65243408Y-109447840D01*
X65258772Y-109435062D01*
X68866850Y-109435062D01*
X68876575Y-109447353D01*
X68976226Y-109513939D01*
X68986184Y-109519345D01*
X69178366Y-109601912D01*
X69189138Y-109605412D01*
X69393151Y-109651576D01*
X69404381Y-109653054D01*
X69613391Y-109661266D01*
X69624695Y-109660674D01*
X69831715Y-109630658D01*
X69842715Y-109628017D01*
X70040789Y-109560779D01*
X70051140Y-109556171D01*
X70233634Y-109453968D01*
X70240569Y-109449203D01*
X70248358Y-109437605D01*
X70242284Y-109427127D01*
X70155766Y-109340609D01*
X73497001Y-109340609D01*
X73497763Y-109350289D01*
X73510309Y-109429513D01*
X73516264Y-109447840D01*
X73564929Y-109543350D01*
X73576261Y-109558947D01*
X73652053Y-109634739D01*
X73667650Y-109646071D01*
X73763155Y-109694734D01*
X73781495Y-109700692D01*
X73860697Y-109713236D01*
X73870399Y-109714000D01*
X74204170Y-109714000D01*
X74219169Y-109709596D01*
X74220356Y-109708226D01*
X74222000Y-109700668D01*
X74222000Y-109696169D01*
X74622000Y-109696169D01*
X74626404Y-109711168D01*
X74627774Y-109712355D01*
X74635332Y-109713999D01*
X74973609Y-109713999D01*
X74983289Y-109713237D01*
X75062513Y-109700691D01*
X75080840Y-109694736D01*
X75176349Y-109646072D01*
X75181213Y-109642538D01*
X75247020Y-109619058D01*
X75304533Y-109629576D01*
X75398486Y-109671406D01*
X75398494Y-109671409D01*
X75404429Y-109674051D01*
X75410791Y-109675403D01*
X75410790Y-109675403D01*
X75588363Y-109713148D01*
X75588368Y-109713148D01*
X75594726Y-109714500D01*
X75789274Y-109714500D01*
X75795632Y-109713148D01*
X75795637Y-109713148D01*
X75973210Y-109675403D01*
X75973209Y-109675403D01*
X75979571Y-109674051D01*
X76006659Y-109661991D01*
X76151363Y-109597565D01*
X76151364Y-109597564D01*
X76157299Y-109594922D01*
X76254115Y-109524581D01*
X76319921Y-109501101D01*
X76387975Y-109516926D01*
X76399885Y-109524581D01*
X76496701Y-109594922D01*
X76502636Y-109597564D01*
X76502637Y-109597565D01*
X76647342Y-109661991D01*
X76674429Y-109674051D01*
X76680791Y-109675403D01*
X76680790Y-109675403D01*
X76858363Y-109713148D01*
X76858368Y-109713148D01*
X76864726Y-109714500D01*
X77059274Y-109714500D01*
X77065632Y-109713148D01*
X77065637Y-109713148D01*
X77243210Y-109675403D01*
X77243209Y-109675403D01*
X77249571Y-109674051D01*
X77276659Y-109661991D01*
X77421363Y-109597565D01*
X77421364Y-109597564D01*
X77427299Y-109594922D01*
X77584692Y-109480569D01*
X77630663Y-109429513D01*
X77710523Y-109340820D01*
X77710524Y-109340819D01*
X77714870Y-109335992D01*
X77812144Y-109167508D01*
X77872262Y-108982482D01*
X77887500Y-108837504D01*
X77887500Y-108290496D01*
X77872262Y-108145518D01*
X77812144Y-107960492D01*
X77714870Y-107792008D01*
X77600582Y-107665078D01*
X77589041Y-107652261D01*
X77584692Y-107647431D01*
X77558072Y-107628090D01*
X77432558Y-107536899D01*
X77432559Y-107536899D01*
X77427299Y-107533078D01*
X77349554Y-107498464D01*
X77255510Y-107456593D01*
X77255508Y-107456592D01*
X77249571Y-107453949D01*
X77201749Y-107443784D01*
X77065637Y-107414852D01*
X77065632Y-107414852D01*
X77059274Y-107413500D01*
X76864726Y-107413500D01*
X76858368Y-107414852D01*
X76858363Y-107414852D01*
X76722251Y-107443784D01*
X76674429Y-107453949D01*
X76668492Y-107456592D01*
X76668490Y-107456593D01*
X76574446Y-107498464D01*
X76496701Y-107533078D01*
X76491441Y-107536899D01*
X76491442Y-107536899D01*
X76399885Y-107603419D01*
X76334079Y-107626899D01*
X76266025Y-107611074D01*
X76254115Y-107603419D01*
X76162558Y-107536899D01*
X76162559Y-107536899D01*
X76157299Y-107533078D01*
X76079554Y-107498464D01*
X75985510Y-107456593D01*
X75985508Y-107456592D01*
X75979571Y-107453949D01*
X75931749Y-107443784D01*
X75795637Y-107414852D01*
X75795632Y-107414852D01*
X75789274Y-107413500D01*
X75594726Y-107413500D01*
X75588368Y-107414852D01*
X75588363Y-107414852D01*
X75452251Y-107443784D01*
X75404429Y-107453949D01*
X75398494Y-107456591D01*
X75398486Y-107456594D01*
X75304533Y-107498424D01*
X75235283Y-107507708D01*
X75181213Y-107485462D01*
X75176349Y-107481928D01*
X75080845Y-107433266D01*
X75062505Y-107427308D01*
X74983303Y-107414764D01*
X74973601Y-107414000D01*
X74639830Y-107414000D01*
X74624831Y-107418404D01*
X74623644Y-107419774D01*
X74622000Y-107427332D01*
X74622000Y-109696169D01*
X74222000Y-109696169D01*
X74222000Y-108781830D01*
X74217596Y-108766831D01*
X74216226Y-108765644D01*
X74208668Y-108764000D01*
X73514831Y-108764000D01*
X73499832Y-108768404D01*
X73498645Y-108769774D01*
X73497001Y-108777332D01*
X73497001Y-109340609D01*
X70155766Y-109340609D01*
X69568607Y-108753450D01*
X69554887Y-108745958D01*
X69553081Y-108746087D01*
X69546574Y-108750269D01*
X68872946Y-109423897D01*
X68866850Y-109435062D01*
X65258772Y-109435062D01*
X65404151Y-109314150D01*
X65408518Y-109310518D01*
X65466334Y-109241002D01*
X65545971Y-109145250D01*
X65545972Y-109145249D01*
X65549602Y-109140884D01*
X65565401Y-109112674D01*
X65654631Y-108953341D01*
X65657410Y-108948379D01*
X65689182Y-108854783D01*
X65696147Y-108834262D01*
X65728331Y-108739452D01*
X65759991Y-108521098D01*
X65761643Y-108458000D01*
X65759265Y-108432126D01*
X68351644Y-108432126D01*
X68365325Y-108640860D01*
X68367094Y-108652030D01*
X68418587Y-108854783D01*
X68422360Y-108865439D01*
X68509939Y-109055412D01*
X68515595Y-109065208D01*
X68567564Y-109138743D01*
X68577986Y-109146999D01*
X68591074Y-109140083D01*
X69260550Y-108470607D01*
X69266826Y-108459113D01*
X69843958Y-108459113D01*
X69844087Y-108460919D01*
X69848269Y-108467426D01*
X70523983Y-109143140D01*
X70537078Y-109150290D01*
X70546481Y-109143620D01*
X70551968Y-109135634D01*
X70654171Y-108953140D01*
X70658779Y-108942789D01*
X70726017Y-108744715D01*
X70728658Y-108733715D01*
X70758965Y-108524688D01*
X70759585Y-108517414D01*
X70761045Y-108461661D01*
X70760806Y-108454359D01*
X70750865Y-108346170D01*
X73497000Y-108346170D01*
X73501404Y-108361169D01*
X73502774Y-108362356D01*
X73510332Y-108364000D01*
X74204170Y-108364000D01*
X74219169Y-108359596D01*
X74220356Y-108358226D01*
X74222000Y-108350668D01*
X74222000Y-107431831D01*
X74217596Y-107416832D01*
X74216226Y-107415645D01*
X74208668Y-107414001D01*
X73870391Y-107414001D01*
X73860711Y-107414763D01*
X73781487Y-107427309D01*
X73763160Y-107433264D01*
X73667650Y-107481929D01*
X73652053Y-107493261D01*
X73576261Y-107569053D01*
X73564929Y-107584650D01*
X73516266Y-107680155D01*
X73510308Y-107698495D01*
X73497764Y-107777697D01*
X73497000Y-107787399D01*
X73497000Y-108346170D01*
X70750865Y-108346170D01*
X70741481Y-108244040D01*
X70739417Y-108232907D01*
X70682639Y-108031588D01*
X70678582Y-108021017D01*
X70586067Y-107833416D01*
X70580150Y-107823760D01*
X70545046Y-107776751D01*
X70533965Y-107768435D01*
X70521744Y-107775099D01*
X69851450Y-108445393D01*
X69843958Y-108459113D01*
X69266826Y-108459113D01*
X69268042Y-108456887D01*
X69267913Y-108455081D01*
X69263731Y-108448574D01*
X68589412Y-107774255D01*
X68576777Y-107767356D01*
X68566258Y-107775027D01*
X68548804Y-107797168D01*
X68542637Y-107806664D01*
X68445241Y-107991784D01*
X68440908Y-108002245D01*
X68378880Y-108202007D01*
X68376526Y-108213078D01*
X68351940Y-108420807D01*
X68351644Y-108432126D01*
X65759265Y-108432126D01*
X65741454Y-108238289D01*
X65681565Y-108025936D01*
X65583980Y-107828053D01*
X65451967Y-107651267D01*
X65289949Y-107501499D01*
X65285139Y-107498464D01*
X65252739Y-107478021D01*
X68863687Y-107478021D01*
X68867117Y-107486274D01*
X69543393Y-108162550D01*
X69557113Y-108170042D01*
X69558919Y-108169913D01*
X69565426Y-108165731D01*
X70240013Y-107491144D01*
X70246664Y-107478963D01*
X70240729Y-107471034D01*
X70107932Y-107387246D01*
X70097841Y-107382105D01*
X69903567Y-107304597D01*
X69892695Y-107301376D01*
X69687556Y-107260572D01*
X69676280Y-107259386D01*
X69467135Y-107256648D01*
X69455841Y-107257537D01*
X69249690Y-107292960D01*
X69238754Y-107295891D01*
X69042505Y-107368290D01*
X69032287Y-107373164D01*
X68873133Y-107467851D01*
X68863687Y-107478021D01*
X65252739Y-107478021D01*
X65108159Y-107386798D01*
X65108157Y-107386797D01*
X65103350Y-107383764D01*
X64898421Y-107302006D01*
X64892840Y-107300896D01*
X64892837Y-107300895D01*
X64766473Y-107275760D01*
X64682024Y-107258962D01*
X64676337Y-107258888D01*
X64676332Y-107258887D01*
X64467095Y-107256148D01*
X64467090Y-107256148D01*
X64461406Y-107256074D01*
X64455802Y-107257037D01*
X64455801Y-107257037D01*
X64249560Y-107292475D01*
X64249557Y-107292476D01*
X64243957Y-107293438D01*
X64036957Y-107369804D01*
X64008393Y-107386798D01*
X63891077Y-107456594D01*
X63847341Y-107482614D01*
X63681457Y-107628090D01*
X63544863Y-107801360D01*
X63542216Y-107806391D01*
X63486169Y-107912919D01*
X63442131Y-107996620D01*
X63440443Y-108002055D01*
X63440443Y-108002056D01*
X63433028Y-108025936D01*
X63376703Y-108207333D01*
X63376035Y-108212978D01*
X63376034Y-108212982D01*
X63358495Y-108361169D01*
X63350770Y-108426440D01*
X60268242Y-108426440D01*
X60280171Y-108405140D01*
X60284779Y-108394789D01*
X60352017Y-108196715D01*
X60354658Y-108185715D01*
X60384965Y-107976688D01*
X60385585Y-107969414D01*
X60387045Y-107913661D01*
X60386806Y-107906359D01*
X60367481Y-107696040D01*
X60365417Y-107684907D01*
X60308639Y-107483588D01*
X60304582Y-107473017D01*
X60212067Y-107285416D01*
X60206150Y-107275760D01*
X60171046Y-107228751D01*
X60159965Y-107220435D01*
X60147744Y-107227099D01*
X59477450Y-107897393D01*
X59469958Y-107911113D01*
X58892826Y-107911113D01*
X58894042Y-107908887D01*
X58893913Y-107907081D01*
X58889731Y-107900574D01*
X58215412Y-107226255D01*
X58202777Y-107219356D01*
X58192258Y-107227027D01*
X58174804Y-107249168D01*
X58168637Y-107258664D01*
X58071241Y-107443784D01*
X58066908Y-107454245D01*
X58004880Y-107654007D01*
X58002526Y-107665078D01*
X57977940Y-107872807D01*
X57977644Y-107884126D01*
X52545500Y-107884126D01*
X52545500Y-106930021D01*
X58489687Y-106930021D01*
X58493117Y-106938274D01*
X59169393Y-107614550D01*
X59183113Y-107622042D01*
X59184919Y-107621913D01*
X59191426Y-107617731D01*
X59866013Y-106943144D01*
X59872664Y-106930963D01*
X59866729Y-106923034D01*
X59733932Y-106839246D01*
X59723841Y-106834105D01*
X59637377Y-106799609D01*
X82062001Y-106799609D01*
X82062763Y-106809289D01*
X82075309Y-106888513D01*
X82081264Y-106906840D01*
X82129929Y-107002350D01*
X82141261Y-107017947D01*
X82217053Y-107093739D01*
X82232650Y-107105071D01*
X82328155Y-107153734D01*
X82346495Y-107159692D01*
X82425697Y-107172236D01*
X82435399Y-107173000D01*
X83094170Y-107173000D01*
X83109169Y-107168596D01*
X83110356Y-107167226D01*
X83112000Y-107159668D01*
X83112000Y-107155169D01*
X83512000Y-107155169D01*
X83516404Y-107170168D01*
X83517774Y-107171355D01*
X83525332Y-107172999D01*
X84188609Y-107172999D01*
X84198289Y-107172237D01*
X84277513Y-107159691D01*
X84295840Y-107153736D01*
X84391350Y-107105071D01*
X84406947Y-107093739D01*
X84482739Y-107017947D01*
X84494071Y-107002350D01*
X84542734Y-106906845D01*
X84548692Y-106888505D01*
X84561236Y-106809303D01*
X84562000Y-106799601D01*
X84562000Y-106140830D01*
X84557596Y-106125831D01*
X84556226Y-106124644D01*
X84548668Y-106123000D01*
X83529830Y-106123000D01*
X83514831Y-106127404D01*
X83513644Y-106128774D01*
X83512000Y-106136332D01*
X83512000Y-107155169D01*
X83112000Y-107155169D01*
X83112000Y-106140830D01*
X83107596Y-106125831D01*
X83106226Y-106124644D01*
X83098668Y-106123000D01*
X82079831Y-106123000D01*
X82064832Y-106127404D01*
X82063645Y-106128774D01*
X82062001Y-106136332D01*
X82062001Y-106799609D01*
X59637377Y-106799609D01*
X59529567Y-106756597D01*
X59518695Y-106753376D01*
X59313556Y-106712572D01*
X59302280Y-106711386D01*
X59093135Y-106708648D01*
X59081841Y-106709537D01*
X58875690Y-106744960D01*
X58864754Y-106747891D01*
X58668505Y-106820290D01*
X58658287Y-106825164D01*
X58499133Y-106919851D01*
X58489687Y-106930021D01*
X52545500Y-106930021D01*
X52545500Y-104140000D01*
X53100723Y-104140000D01*
X53119793Y-104357977D01*
X53121195Y-104363209D01*
X53158385Y-104502003D01*
X53176425Y-104569330D01*
X53268898Y-104767638D01*
X53272005Y-104772075D01*
X53272006Y-104772077D01*
X53391296Y-104942442D01*
X53391300Y-104942446D01*
X53394402Y-104946877D01*
X53549123Y-105101598D01*
X53728361Y-105227102D01*
X53926670Y-105319575D01*
X53931893Y-105320974D01*
X53931897Y-105320976D01*
X54098901Y-105365724D01*
X54138023Y-105376207D01*
X54356000Y-105395277D01*
X54573977Y-105376207D01*
X54613099Y-105365724D01*
X54780103Y-105320976D01*
X54780107Y-105320974D01*
X54785330Y-105319575D01*
X54983639Y-105227102D01*
X55162877Y-105101598D01*
X55317598Y-104946877D01*
X55320700Y-104942446D01*
X55320704Y-104942442D01*
X55439994Y-104772077D01*
X55439995Y-104772075D01*
X55443102Y-104767638D01*
X55535575Y-104569330D01*
X55553616Y-104502003D01*
X55590805Y-104363209D01*
X55592207Y-104357977D01*
X55611277Y-104140000D01*
X55592207Y-103922023D01*
X55571031Y-103842993D01*
X55536976Y-103715897D01*
X55536974Y-103715893D01*
X55535575Y-103710670D01*
X55443102Y-103512362D01*
X55414102Y-103470945D01*
X55320704Y-103337558D01*
X55320700Y-103337554D01*
X55317598Y-103333123D01*
X55162877Y-103178402D01*
X54983639Y-103052898D01*
X54831825Y-102982106D01*
X54779386Y-102935934D01*
X54762999Y-102878440D01*
X57976770Y-102878440D01*
X57977141Y-102884102D01*
X57977141Y-102884106D01*
X57982974Y-102973098D01*
X57991200Y-103098604D01*
X58045511Y-103312452D01*
X58047887Y-103317606D01*
X58055041Y-103333123D01*
X58137883Y-103512821D01*
X58147789Y-103526837D01*
X58247819Y-103668377D01*
X58265222Y-103693002D01*
X58269293Y-103696968D01*
X58269294Y-103696969D01*
X58419190Y-103842993D01*
X58419195Y-103842997D01*
X58423264Y-103846961D01*
X58427987Y-103850117D01*
X58427991Y-103850120D01*
X58512185Y-103906376D01*
X58606717Y-103969540D01*
X58809436Y-104056635D01*
X58842515Y-104064120D01*
X59019085Y-104104074D01*
X59019087Y-104104074D01*
X59024632Y-104105329D01*
X59162457Y-104110744D01*
X59239418Y-104113768D01*
X59239420Y-104113768D01*
X59245098Y-104113991D01*
X59250718Y-104113176D01*
X59250721Y-104113176D01*
X59457826Y-104083147D01*
X59457829Y-104083146D01*
X59463452Y-104082331D01*
X59570477Y-104046001D01*
X59666989Y-104013240D01*
X59666992Y-104013239D01*
X59672379Y-104011410D01*
X59757576Y-103963698D01*
X59859931Y-103906376D01*
X59859932Y-103906375D01*
X59864884Y-103903602D01*
X60034518Y-103762518D01*
X60095786Y-103688852D01*
X60171971Y-103597250D01*
X60171972Y-103597249D01*
X60175602Y-103592884D01*
X60220697Y-103512362D01*
X60280631Y-103405341D01*
X60283410Y-103400379D01*
X60289310Y-103383000D01*
X60352502Y-103196839D01*
X60354331Y-103191452D01*
X60356674Y-103175297D01*
X60374752Y-103050612D01*
X60385991Y-102973098D01*
X60387643Y-102910000D01*
X60367454Y-102690289D01*
X60338343Y-102587069D01*
X60871164Y-102587069D01*
X60871535Y-102592731D01*
X60871535Y-102592735D01*
X60876851Y-102673842D01*
X60884392Y-102788894D01*
X60934178Y-102984928D01*
X61018856Y-103168607D01*
X61135588Y-103333780D01*
X61280466Y-103474913D01*
X61448637Y-103587282D01*
X61634470Y-103667122D01*
X61728341Y-103688363D01*
X61826193Y-103710505D01*
X61826195Y-103710505D01*
X61831740Y-103711760D01*
X61937042Y-103715897D01*
X62028161Y-103719477D01*
X62028163Y-103719477D01*
X62033842Y-103719700D01*
X62039462Y-103718885D01*
X62039465Y-103718885D01*
X62228387Y-103691493D01*
X62228389Y-103691493D01*
X62234007Y-103690678D01*
X62239384Y-103688853D01*
X62239387Y-103688852D01*
X62324090Y-103660099D01*
X62425531Y-103625664D01*
X62526897Y-103568897D01*
X62597048Y-103529611D01*
X62597050Y-103529610D01*
X62602001Y-103526837D01*
X62613501Y-103517273D01*
X62753138Y-103401137D01*
X62757505Y-103397505D01*
X62886837Y-103242001D01*
X62920310Y-103182231D01*
X62982886Y-103070491D01*
X62985664Y-103065531D01*
X63029095Y-102937589D01*
X63048852Y-102879387D01*
X63048853Y-102879384D01*
X63050678Y-102874007D01*
X63051493Y-102868387D01*
X63079176Y-102677458D01*
X63079176Y-102677453D01*
X63079700Y-102673842D01*
X63081215Y-102616000D01*
X63078557Y-102587069D01*
X65951164Y-102587069D01*
X65951535Y-102592731D01*
X65951535Y-102592735D01*
X65956851Y-102673842D01*
X65964392Y-102788894D01*
X66014178Y-102984928D01*
X66098856Y-103168607D01*
X66215588Y-103333780D01*
X66360466Y-103474913D01*
X66528637Y-103587282D01*
X66714470Y-103667122D01*
X66808341Y-103688363D01*
X66906193Y-103710505D01*
X66906195Y-103710505D01*
X66911740Y-103711760D01*
X67017042Y-103715897D01*
X67108161Y-103719477D01*
X67108163Y-103719477D01*
X67113842Y-103719700D01*
X67119462Y-103718885D01*
X67119465Y-103718885D01*
X67308387Y-103691493D01*
X67308389Y-103691493D01*
X67314007Y-103690678D01*
X67319384Y-103688853D01*
X67319387Y-103688852D01*
X67404090Y-103660099D01*
X67505531Y-103625664D01*
X67606897Y-103568897D01*
X67677048Y-103529611D01*
X67677050Y-103529610D01*
X67682001Y-103526837D01*
X67693501Y-103517273D01*
X67833138Y-103401137D01*
X67837505Y-103397505D01*
X67966837Y-103242001D01*
X68000310Y-103182231D01*
X68050594Y-103092440D01*
X71732770Y-103092440D01*
X71733141Y-103098102D01*
X71733141Y-103098106D01*
X71738891Y-103185826D01*
X71747200Y-103312604D01*
X71801511Y-103526452D01*
X71803887Y-103531606D01*
X71887043Y-103711983D01*
X71893883Y-103726821D01*
X71897161Y-103731459D01*
X71954315Y-103812330D01*
X72021222Y-103907002D01*
X72025293Y-103910968D01*
X72025294Y-103910969D01*
X72175190Y-104056993D01*
X72175195Y-104056997D01*
X72179264Y-104060961D01*
X72183987Y-104064117D01*
X72183991Y-104064120D01*
X72268185Y-104120376D01*
X72362717Y-104183540D01*
X72565436Y-104270635D01*
X72670913Y-104294502D01*
X72775085Y-104318074D01*
X72775087Y-104318074D01*
X72780632Y-104319329D01*
X72918457Y-104324744D01*
X72995418Y-104327768D01*
X72995420Y-104327768D01*
X73001098Y-104327991D01*
X73006718Y-104327176D01*
X73006721Y-104327176D01*
X73213826Y-104297147D01*
X73213829Y-104297146D01*
X73219452Y-104296331D01*
X73326477Y-104260001D01*
X73422989Y-104227240D01*
X73422992Y-104227239D01*
X73428379Y-104225410D01*
X73620884Y-104117602D01*
X73635373Y-104105552D01*
X73786151Y-103980150D01*
X73790518Y-103976518D01*
X73851162Y-103903602D01*
X73927971Y-103811250D01*
X73927972Y-103811249D01*
X73931602Y-103806884D01*
X74039410Y-103614379D01*
X74042184Y-103606209D01*
X74075635Y-103507663D01*
X74110331Y-103405452D01*
X74111484Y-103397505D01*
X74134030Y-103242001D01*
X74141991Y-103187098D01*
X74143643Y-103124000D01*
X74140743Y-103092440D01*
X76732770Y-103092440D01*
X76733141Y-103098102D01*
X76733141Y-103098106D01*
X76738891Y-103185826D01*
X76747200Y-103312604D01*
X76801511Y-103526452D01*
X76803887Y-103531606D01*
X76887043Y-103711983D01*
X76893883Y-103726821D01*
X76897161Y-103731459D01*
X76954315Y-103812330D01*
X77021222Y-103907002D01*
X77025293Y-103910968D01*
X77025294Y-103910969D01*
X77175190Y-104056993D01*
X77175195Y-104056997D01*
X77179264Y-104060961D01*
X77183987Y-104064117D01*
X77183991Y-104064120D01*
X77268185Y-104120376D01*
X77362717Y-104183540D01*
X77565436Y-104270635D01*
X77670913Y-104294502D01*
X77775085Y-104318074D01*
X77775087Y-104318074D01*
X77780632Y-104319329D01*
X77918457Y-104324744D01*
X77995418Y-104327768D01*
X77995420Y-104327768D01*
X78001098Y-104327991D01*
X78006718Y-104327176D01*
X78006721Y-104327176D01*
X78213826Y-104297147D01*
X78213829Y-104297146D01*
X78219452Y-104296331D01*
X78326477Y-104260001D01*
X78422989Y-104227240D01*
X78422992Y-104227239D01*
X78428379Y-104225410D01*
X78620884Y-104117602D01*
X78635373Y-104105552D01*
X78786151Y-103980150D01*
X78790518Y-103976518D01*
X78851162Y-103903602D01*
X78927971Y-103811250D01*
X78927972Y-103811249D01*
X78931602Y-103806884D01*
X79039410Y-103614379D01*
X79042184Y-103606209D01*
X79075635Y-103507663D01*
X79110331Y-103405452D01*
X79111484Y-103397505D01*
X79113587Y-103383000D01*
X82056723Y-103383000D01*
X82075793Y-103600977D01*
X82077195Y-103606209D01*
X82130966Y-103806884D01*
X82132425Y-103812330D01*
X82224898Y-104010638D01*
X82228005Y-104015075D01*
X82228006Y-104015077D01*
X82347296Y-104185442D01*
X82347300Y-104185446D01*
X82350402Y-104189877D01*
X82505123Y-104344598D01*
X82598277Y-104409825D01*
X82651976Y-104447426D01*
X82695600Y-104502003D01*
X82702793Y-104571502D01*
X82671271Y-104633856D01*
X82611041Y-104669270D01*
X82580852Y-104673001D01*
X82435391Y-104673001D01*
X82425711Y-104673763D01*
X82346487Y-104686309D01*
X82328160Y-104692264D01*
X82232650Y-104740929D01*
X82217053Y-104752261D01*
X82141261Y-104828053D01*
X82129929Y-104843650D01*
X82081266Y-104939155D01*
X82075308Y-104957495D01*
X82062764Y-105036697D01*
X82062000Y-105046399D01*
X82062000Y-105705170D01*
X82066404Y-105720169D01*
X82067774Y-105721356D01*
X82075332Y-105723000D01*
X84544169Y-105723000D01*
X84559168Y-105718596D01*
X84560355Y-105717226D01*
X84561999Y-105709668D01*
X84561999Y-105046391D01*
X84561237Y-105036711D01*
X84548691Y-104957487D01*
X84542736Y-104939160D01*
X84494071Y-104843650D01*
X84482739Y-104828053D01*
X84406947Y-104752261D01*
X84391350Y-104740929D01*
X84295845Y-104692266D01*
X84277505Y-104686308D01*
X84198303Y-104673764D01*
X84188601Y-104673000D01*
X84043149Y-104673000D01*
X83976110Y-104653315D01*
X83930355Y-104600511D01*
X83920411Y-104531353D01*
X83949436Y-104467797D01*
X83972025Y-104447425D01*
X84118877Y-104344598D01*
X84273598Y-104189877D01*
X84276700Y-104185446D01*
X84276704Y-104185442D01*
X84395994Y-104015077D01*
X84395995Y-104015075D01*
X84399102Y-104010638D01*
X84491575Y-103812330D01*
X84493035Y-103806884D01*
X84546805Y-103606209D01*
X84548207Y-103600977D01*
X84567277Y-103383000D01*
X84548207Y-103165023D01*
X84499951Y-102984928D01*
X84492976Y-102958897D01*
X84492974Y-102958893D01*
X84491575Y-102953670D01*
X84399102Y-102755362D01*
X84395994Y-102750923D01*
X84276704Y-102580558D01*
X84276700Y-102580554D01*
X84273598Y-102576123D01*
X84118877Y-102421402D01*
X83939639Y-102295898D01*
X83741330Y-102203425D01*
X83736107Y-102202026D01*
X83736103Y-102202024D01*
X83535209Y-102148195D01*
X83535210Y-102148195D01*
X83529977Y-102146793D01*
X83312000Y-102127723D01*
X83094023Y-102146793D01*
X83088790Y-102148195D01*
X83088791Y-102148195D01*
X82887897Y-102202024D01*
X82887893Y-102202026D01*
X82882670Y-102203425D01*
X82684362Y-102295898D01*
X82679925Y-102299005D01*
X82679923Y-102299006D01*
X82509558Y-102418296D01*
X82509557Y-102418297D01*
X82505123Y-102421402D01*
X82350402Y-102576123D01*
X82347300Y-102580554D01*
X82347296Y-102580558D01*
X82228006Y-102750923D01*
X82224898Y-102755362D01*
X82132425Y-102953670D01*
X82131026Y-102958893D01*
X82131024Y-102958897D01*
X82124049Y-102984928D01*
X82075793Y-103165023D01*
X82056723Y-103383000D01*
X79113587Y-103383000D01*
X79134030Y-103242001D01*
X79141991Y-103187098D01*
X79143643Y-103124000D01*
X79123454Y-102904289D01*
X79063565Y-102691936D01*
X78965980Y-102494053D01*
X78833967Y-102317267D01*
X78671949Y-102167499D01*
X78577373Y-102107826D01*
X78490159Y-102052798D01*
X78490157Y-102052797D01*
X78485350Y-102049764D01*
X78280421Y-101968006D01*
X78274840Y-101966896D01*
X78274837Y-101966895D01*
X78131405Y-101938365D01*
X78064024Y-101924962D01*
X78058337Y-101924888D01*
X78058332Y-101924887D01*
X77849095Y-101922148D01*
X77849090Y-101922148D01*
X77843406Y-101922074D01*
X77837802Y-101923037D01*
X77837801Y-101923037D01*
X77631560Y-101958475D01*
X77631557Y-101958476D01*
X77625957Y-101959438D01*
X77418957Y-102035804D01*
X77390393Y-102052798D01*
X77264456Y-102127723D01*
X77229341Y-102148614D01*
X77063457Y-102294090D01*
X76926863Y-102467360D01*
X76924216Y-102472391D01*
X76860900Y-102592735D01*
X76824131Y-102662620D01*
X76822443Y-102668055D01*
X76822443Y-102668056D01*
X76815028Y-102691936D01*
X76758703Y-102873333D01*
X76758035Y-102878978D01*
X76758034Y-102878982D01*
X76751098Y-102937589D01*
X76732770Y-103092440D01*
X74140743Y-103092440D01*
X74123454Y-102904289D01*
X74063565Y-102691936D01*
X73965980Y-102494053D01*
X73833967Y-102317267D01*
X73671949Y-102167499D01*
X73577373Y-102107826D01*
X73490159Y-102052798D01*
X73490157Y-102052797D01*
X73485350Y-102049764D01*
X73280421Y-101968006D01*
X73274840Y-101966896D01*
X73274837Y-101966895D01*
X73131405Y-101938365D01*
X73064024Y-101924962D01*
X73058337Y-101924888D01*
X73058332Y-101924887D01*
X72849095Y-101922148D01*
X72849090Y-101922148D01*
X72843406Y-101922074D01*
X72837802Y-101923037D01*
X72837801Y-101923037D01*
X72631560Y-101958475D01*
X72631557Y-101958476D01*
X72625957Y-101959438D01*
X72418957Y-102035804D01*
X72390393Y-102052798D01*
X72264456Y-102127723D01*
X72229341Y-102148614D01*
X72063457Y-102294090D01*
X71926863Y-102467360D01*
X71924216Y-102472391D01*
X71860900Y-102592735D01*
X71824131Y-102662620D01*
X71822443Y-102668055D01*
X71822443Y-102668056D01*
X71815028Y-102691936D01*
X71758703Y-102873333D01*
X71758035Y-102878978D01*
X71758034Y-102878982D01*
X71751098Y-102937589D01*
X71732770Y-103092440D01*
X68050594Y-103092440D01*
X68062886Y-103070491D01*
X68065664Y-103065531D01*
X68109095Y-102937589D01*
X68128852Y-102879387D01*
X68128853Y-102879384D01*
X68130678Y-102874007D01*
X68131493Y-102868387D01*
X68159176Y-102677458D01*
X68159176Y-102677453D01*
X68159700Y-102673842D01*
X68161215Y-102616000D01*
X68142708Y-102414591D01*
X68098655Y-102258391D01*
X68089352Y-102225403D01*
X68089351Y-102225400D01*
X68087807Y-102219926D01*
X67998351Y-102038527D01*
X67877335Y-101876467D01*
X67744857Y-101754006D01*
X67732988Y-101743034D01*
X67732986Y-101743033D01*
X67728812Y-101739174D01*
X67557757Y-101631246D01*
X67369898Y-101556298D01*
X67364317Y-101555188D01*
X67364314Y-101555187D01*
X67296373Y-101541673D01*
X67171526Y-101516839D01*
X67165839Y-101516765D01*
X67165834Y-101516764D01*
X66974975Y-101514266D01*
X66974970Y-101514266D01*
X66969286Y-101514192D01*
X66963682Y-101515155D01*
X66963681Y-101515155D01*
X66775546Y-101547482D01*
X66775543Y-101547483D01*
X66769949Y-101548444D01*
X66748660Y-101556298D01*
X66585521Y-101616483D01*
X66585517Y-101616485D01*
X66580193Y-101618449D01*
X66575310Y-101621354D01*
X66575308Y-101621355D01*
X66429422Y-101708148D01*
X66406371Y-101721862D01*
X66254305Y-101855220D01*
X66129089Y-102014057D01*
X66126442Y-102019088D01*
X66048359Y-102167499D01*
X66034914Y-102193053D01*
X66033229Y-102198479D01*
X66033228Y-102198482D01*
X66004705Y-102290344D01*
X65974937Y-102386213D01*
X65951164Y-102587069D01*
X63078557Y-102587069D01*
X63062708Y-102414591D01*
X63018655Y-102258391D01*
X63009352Y-102225403D01*
X63009351Y-102225400D01*
X63007807Y-102219926D01*
X62918351Y-102038527D01*
X62797335Y-101876467D01*
X62664857Y-101754006D01*
X62652988Y-101743034D01*
X62652986Y-101743033D01*
X62648812Y-101739174D01*
X62477757Y-101631246D01*
X62289898Y-101556298D01*
X62284317Y-101555188D01*
X62284314Y-101555187D01*
X62216373Y-101541673D01*
X62091526Y-101516839D01*
X62085839Y-101516765D01*
X62085834Y-101516764D01*
X61894975Y-101514266D01*
X61894970Y-101514266D01*
X61889286Y-101514192D01*
X61883682Y-101515155D01*
X61883681Y-101515155D01*
X61695546Y-101547482D01*
X61695543Y-101547483D01*
X61689949Y-101548444D01*
X61668660Y-101556298D01*
X61505521Y-101616483D01*
X61505517Y-101616485D01*
X61500193Y-101618449D01*
X61495310Y-101621354D01*
X61495308Y-101621355D01*
X61349422Y-101708148D01*
X61326371Y-101721862D01*
X61174305Y-101855220D01*
X61049089Y-102014057D01*
X61046442Y-102019088D01*
X60968359Y-102167499D01*
X60954914Y-102193053D01*
X60953229Y-102198479D01*
X60953228Y-102198482D01*
X60924705Y-102290344D01*
X60894937Y-102386213D01*
X60871164Y-102587069D01*
X60338343Y-102587069D01*
X60307565Y-102477936D01*
X60302350Y-102467360D01*
X60212495Y-102285153D01*
X60209980Y-102280053D01*
X60077967Y-102103267D01*
X59915949Y-101953499D01*
X59881406Y-101931704D01*
X59734159Y-101838798D01*
X59734157Y-101838797D01*
X59729350Y-101835764D01*
X59524421Y-101754006D01*
X59518840Y-101752896D01*
X59518837Y-101752895D01*
X59416223Y-101732484D01*
X59308024Y-101710962D01*
X59302337Y-101710888D01*
X59302332Y-101710887D01*
X59093095Y-101708148D01*
X59093090Y-101708148D01*
X59087406Y-101708074D01*
X59081802Y-101709037D01*
X59081801Y-101709037D01*
X58875560Y-101744475D01*
X58875557Y-101744476D01*
X58869957Y-101745438D01*
X58662957Y-101821804D01*
X58634393Y-101838798D01*
X58489565Y-101924962D01*
X58473341Y-101934614D01*
X58307457Y-102080090D01*
X58170863Y-102253360D01*
X58168216Y-102258391D01*
X58092597Y-102402119D01*
X58068131Y-102448620D01*
X58002703Y-102659333D01*
X58002035Y-102664978D01*
X58002034Y-102664982D01*
X57991337Y-102755362D01*
X57976770Y-102878440D01*
X54762999Y-102878440D01*
X54760234Y-102868740D01*
X54780450Y-102801859D01*
X54831825Y-102757342D01*
X54978485Y-102688953D01*
X54987817Y-102683565D01*
X55158119Y-102564318D01*
X55166385Y-102557382D01*
X55313384Y-102410383D01*
X55320319Y-102402119D01*
X55439559Y-102231826D01*
X55444957Y-102222476D01*
X55532813Y-102034068D01*
X55536505Y-102023925D01*
X55590312Y-101823114D01*
X55591474Y-101816522D01*
X55588766Y-101803049D01*
X55577203Y-101800000D01*
X53136553Y-101800000D01*
X53122154Y-101804228D01*
X53120278Y-101815117D01*
X53121688Y-101823114D01*
X53175495Y-102023925D01*
X53179187Y-102034068D01*
X53267043Y-102222476D01*
X53272441Y-102231826D01*
X53391681Y-102402119D01*
X53398616Y-102410383D01*
X53545615Y-102557382D01*
X53553881Y-102564318D01*
X53724183Y-102683565D01*
X53733515Y-102688953D01*
X53880175Y-102757342D01*
X53932614Y-102803514D01*
X53951766Y-102870708D01*
X53931550Y-102937589D01*
X53880175Y-102982106D01*
X53728362Y-103052898D01*
X53723925Y-103056005D01*
X53723923Y-103056006D01*
X53553558Y-103175296D01*
X53553557Y-103175297D01*
X53549123Y-103178402D01*
X53394402Y-103333123D01*
X53391300Y-103337554D01*
X53391296Y-103337558D01*
X53297898Y-103470945D01*
X53268898Y-103512362D01*
X53176425Y-103710670D01*
X53175026Y-103715893D01*
X53175024Y-103715897D01*
X53140969Y-103842993D01*
X53119793Y-103922023D01*
X53100723Y-104140000D01*
X52545500Y-104140000D01*
X52545500Y-98178481D01*
X53105500Y-98178481D01*
X53105501Y-99941518D01*
X53120354Y-100035304D01*
X53177950Y-100148342D01*
X53267658Y-100238050D01*
X53380696Y-100295646D01*
X53409933Y-100300277D01*
X53469661Y-100309737D01*
X53469666Y-100309737D01*
X53474481Y-100310500D01*
X53625011Y-100310500D01*
X53692050Y-100330185D01*
X53737805Y-100382989D01*
X53747749Y-100452147D01*
X53718724Y-100515703D01*
X53696134Y-100536075D01*
X53553881Y-100635681D01*
X53545617Y-100642616D01*
X53398616Y-100789617D01*
X53391681Y-100797881D01*
X53272441Y-100968174D01*
X53267043Y-100977524D01*
X53179187Y-101165932D01*
X53175495Y-101176075D01*
X53121688Y-101376886D01*
X53120526Y-101383478D01*
X53123234Y-101396951D01*
X53134797Y-101400000D01*
X55575447Y-101400000D01*
X55589846Y-101395772D01*
X55591722Y-101384883D01*
X55590312Y-101376886D01*
X55536505Y-101176075D01*
X55532813Y-101165932D01*
X55444957Y-100977524D01*
X55439559Y-100968174D01*
X55320319Y-100797881D01*
X55313384Y-100789617D01*
X55166385Y-100642618D01*
X55158119Y-100635682D01*
X55015865Y-100536074D01*
X54972241Y-100481497D01*
X54965048Y-100411998D01*
X54996570Y-100349644D01*
X55056800Y-100314230D01*
X55086988Y-100310499D01*
X55237518Y-100310499D01*
X55310151Y-100298996D01*
X55321669Y-100297172D01*
X55321670Y-100297172D01*
X55331304Y-100295646D01*
X55444342Y-100238050D01*
X55534050Y-100148342D01*
X55591646Y-100035304D01*
X55597226Y-100000074D01*
X55605737Y-99946339D01*
X55605737Y-99946334D01*
X55606500Y-99941519D01*
X55606499Y-98777069D01*
X57569164Y-98777069D01*
X57569535Y-98782731D01*
X57569535Y-98782735D01*
X57574851Y-98863842D01*
X57582392Y-98978894D01*
X57632178Y-99174928D01*
X57716856Y-99358607D01*
X57833588Y-99523780D01*
X57978466Y-99664913D01*
X58146637Y-99777282D01*
X58332470Y-99857122D01*
X58369672Y-99865540D01*
X58524193Y-99900505D01*
X58524195Y-99900505D01*
X58529740Y-99901760D01*
X58647135Y-99906372D01*
X58726161Y-99909477D01*
X58726163Y-99909477D01*
X58731842Y-99909700D01*
X58737462Y-99908885D01*
X58737465Y-99908885D01*
X58926387Y-99881493D01*
X58926389Y-99881493D01*
X58932007Y-99880678D01*
X58937384Y-99878853D01*
X58937387Y-99878852D01*
X59022090Y-99850099D01*
X59123531Y-99815664D01*
X59300001Y-99716837D01*
X59362433Y-99664913D01*
X59451138Y-99591137D01*
X59455505Y-99587505D01*
X59512364Y-99519140D01*
X59581206Y-99436367D01*
X59581207Y-99436366D01*
X59584837Y-99432001D01*
X59683664Y-99255531D01*
X59738891Y-99092839D01*
X59746852Y-99069387D01*
X59746853Y-99069384D01*
X59748678Y-99064007D01*
X59761840Y-98973228D01*
X59777176Y-98867458D01*
X59777176Y-98867453D01*
X59777700Y-98863842D01*
X59779215Y-98806000D01*
X59776557Y-98777069D01*
X65189164Y-98777069D01*
X65189535Y-98782731D01*
X65189535Y-98782735D01*
X65194851Y-98863842D01*
X65202392Y-98978894D01*
X65252178Y-99174928D01*
X65336856Y-99358607D01*
X65453588Y-99523780D01*
X65598466Y-99664913D01*
X65766637Y-99777282D01*
X65952470Y-99857122D01*
X65989672Y-99865540D01*
X66144193Y-99900505D01*
X66144195Y-99900505D01*
X66149740Y-99901760D01*
X66267135Y-99906372D01*
X66346161Y-99909477D01*
X66346163Y-99909477D01*
X66351842Y-99909700D01*
X66357462Y-99908885D01*
X66357465Y-99908885D01*
X66546387Y-99881493D01*
X66546389Y-99881493D01*
X66552007Y-99880678D01*
X66557384Y-99878853D01*
X66557387Y-99878852D01*
X66642090Y-99850099D01*
X66743531Y-99815664D01*
X66920001Y-99716837D01*
X66982433Y-99664913D01*
X67071138Y-99591137D01*
X67075505Y-99587505D01*
X67132364Y-99519140D01*
X67201206Y-99436367D01*
X67201207Y-99436366D01*
X67204837Y-99432001D01*
X67303664Y-99255531D01*
X67358891Y-99092839D01*
X67366852Y-99069387D01*
X67366853Y-99069384D01*
X67368678Y-99064007D01*
X67381840Y-98973228D01*
X67397176Y-98867458D01*
X67397176Y-98867453D01*
X67397700Y-98863842D01*
X67399215Y-98806000D01*
X67396315Y-98774440D01*
X69152770Y-98774440D01*
X69153141Y-98780102D01*
X69153141Y-98780106D01*
X69158867Y-98867458D01*
X69167200Y-98994604D01*
X69221511Y-99208452D01*
X69313883Y-99408821D01*
X69317161Y-99413459D01*
X69437078Y-99583138D01*
X69441222Y-99589002D01*
X69445293Y-99592968D01*
X69445294Y-99592969D01*
X69595190Y-99738993D01*
X69595195Y-99738997D01*
X69599264Y-99742961D01*
X69603987Y-99746117D01*
X69603991Y-99746120D01*
X69688185Y-99802376D01*
X69782717Y-99865540D01*
X69985436Y-99952635D01*
X70090913Y-99976502D01*
X70195085Y-100000074D01*
X70195087Y-100000074D01*
X70200632Y-100001329D01*
X70338457Y-100006744D01*
X70415418Y-100009768D01*
X70415420Y-100009768D01*
X70421098Y-100009991D01*
X70426718Y-100009176D01*
X70426721Y-100009176D01*
X70633826Y-99979147D01*
X70633829Y-99979146D01*
X70639452Y-99978331D01*
X70747900Y-99941518D01*
X70842989Y-99909240D01*
X70842992Y-99909239D01*
X70848379Y-99907410D01*
X71040884Y-99799602D01*
X71071522Y-99774121D01*
X71206151Y-99662150D01*
X71210518Y-99658518D01*
X71269579Y-99587505D01*
X71347971Y-99493250D01*
X71347972Y-99493249D01*
X71351602Y-99488884D01*
X71459410Y-99296379D01*
X71471593Y-99260491D01*
X71528502Y-99092839D01*
X71530331Y-99087452D01*
X71532951Y-99069387D01*
X71561468Y-98872703D01*
X71561991Y-98869098D01*
X71563643Y-98806000D01*
X71560743Y-98774440D01*
X79312770Y-98774440D01*
X79313141Y-98780102D01*
X79313141Y-98780106D01*
X79318867Y-98867458D01*
X79327200Y-98994604D01*
X79381511Y-99208452D01*
X79473883Y-99408821D01*
X79477161Y-99413459D01*
X79597078Y-99583138D01*
X79601222Y-99589002D01*
X79605293Y-99592968D01*
X79605294Y-99592969D01*
X79755190Y-99738993D01*
X79755195Y-99738997D01*
X79759264Y-99742961D01*
X79763987Y-99746117D01*
X79763991Y-99746120D01*
X79848185Y-99802376D01*
X79942717Y-99865540D01*
X80145436Y-99952635D01*
X80250913Y-99976502D01*
X80355085Y-100000074D01*
X80355087Y-100000074D01*
X80360632Y-100001329D01*
X80498457Y-100006744D01*
X80575418Y-100009768D01*
X80575420Y-100009768D01*
X80581098Y-100009991D01*
X80586718Y-100009176D01*
X80586721Y-100009176D01*
X80793826Y-99979147D01*
X80793829Y-99979146D01*
X80799452Y-99978331D01*
X80907900Y-99941518D01*
X81002989Y-99909240D01*
X81002992Y-99909239D01*
X81008379Y-99907410D01*
X81200884Y-99799602D01*
X81231522Y-99774121D01*
X81366151Y-99662150D01*
X81370518Y-99658518D01*
X81429579Y-99587505D01*
X81507971Y-99493250D01*
X81507972Y-99493249D01*
X81511602Y-99488884D01*
X81619410Y-99296379D01*
X81631593Y-99260491D01*
X81688502Y-99092839D01*
X81690331Y-99087452D01*
X81692951Y-99069387D01*
X81721468Y-98872703D01*
X81721991Y-98869098D01*
X81723643Y-98806000D01*
X81703454Y-98586289D01*
X81643565Y-98373936D01*
X81545980Y-98176053D01*
X81413967Y-97999267D01*
X81251949Y-97849499D01*
X81209678Y-97822828D01*
X81070159Y-97734798D01*
X81070157Y-97734797D01*
X81065350Y-97731764D01*
X80860421Y-97650006D01*
X80854840Y-97648896D01*
X80854837Y-97648895D01*
X80752222Y-97628484D01*
X80644024Y-97606962D01*
X80638337Y-97606888D01*
X80638332Y-97606887D01*
X80429095Y-97604148D01*
X80429090Y-97604148D01*
X80423406Y-97604074D01*
X80417802Y-97605037D01*
X80417801Y-97605037D01*
X80211560Y-97640475D01*
X80211557Y-97640476D01*
X80205957Y-97641438D01*
X79998957Y-97717804D01*
X79912307Y-97769356D01*
X79822430Y-97822827D01*
X79809341Y-97830614D01*
X79643457Y-97976090D01*
X79506863Y-98149360D01*
X79504216Y-98154391D01*
X79494078Y-98173661D01*
X79404131Y-98344620D01*
X79402443Y-98350055D01*
X79402443Y-98350056D01*
X79385437Y-98404825D01*
X79338703Y-98555333D01*
X79338035Y-98560978D01*
X79338034Y-98560982D01*
X79313438Y-98768796D01*
X79312770Y-98774440D01*
X71560743Y-98774440D01*
X71543454Y-98586289D01*
X71483565Y-98373936D01*
X71385980Y-98176053D01*
X71253967Y-97999267D01*
X71091949Y-97849499D01*
X71049678Y-97822828D01*
X70910159Y-97734798D01*
X70910157Y-97734797D01*
X70905350Y-97731764D01*
X70700421Y-97650006D01*
X70694840Y-97648896D01*
X70694837Y-97648895D01*
X70592222Y-97628484D01*
X70484024Y-97606962D01*
X70478337Y-97606888D01*
X70478332Y-97606887D01*
X70269095Y-97604148D01*
X70269090Y-97604148D01*
X70263406Y-97604074D01*
X70257802Y-97605037D01*
X70257801Y-97605037D01*
X70051560Y-97640475D01*
X70051557Y-97640476D01*
X70045957Y-97641438D01*
X69838957Y-97717804D01*
X69752307Y-97769356D01*
X69662430Y-97822827D01*
X69649341Y-97830614D01*
X69483457Y-97976090D01*
X69346863Y-98149360D01*
X69344216Y-98154391D01*
X69334078Y-98173661D01*
X69244131Y-98344620D01*
X69242443Y-98350055D01*
X69242443Y-98350056D01*
X69225437Y-98404825D01*
X69178703Y-98555333D01*
X69178035Y-98560978D01*
X69178034Y-98560982D01*
X69153438Y-98768796D01*
X69152770Y-98774440D01*
X67396315Y-98774440D01*
X67380708Y-98604591D01*
X67325807Y-98409926D01*
X67236351Y-98228527D01*
X67115335Y-98066467D01*
X67012771Y-97971658D01*
X66970988Y-97933034D01*
X66970986Y-97933033D01*
X66966812Y-97929174D01*
X66846653Y-97853359D01*
X66800566Y-97824280D01*
X66800564Y-97824279D01*
X66795757Y-97821246D01*
X66607898Y-97746298D01*
X66602317Y-97745188D01*
X66602314Y-97745187D01*
X66524239Y-97729657D01*
X66409526Y-97706839D01*
X66403839Y-97706765D01*
X66403834Y-97706764D01*
X66212975Y-97704266D01*
X66212970Y-97704266D01*
X66207286Y-97704192D01*
X66201682Y-97705155D01*
X66201681Y-97705155D01*
X66013546Y-97737482D01*
X66013543Y-97737483D01*
X66007949Y-97738444D01*
X65986660Y-97746298D01*
X65823521Y-97806483D01*
X65823517Y-97806485D01*
X65818193Y-97808449D01*
X65813310Y-97811354D01*
X65813308Y-97811355D01*
X65683047Y-97888852D01*
X65644371Y-97911862D01*
X65492305Y-98045220D01*
X65367089Y-98204057D01*
X65272914Y-98383053D01*
X65271229Y-98388479D01*
X65271228Y-98388482D01*
X65264570Y-98409926D01*
X65212937Y-98576213D01*
X65189164Y-98777069D01*
X59776557Y-98777069D01*
X59760708Y-98604591D01*
X59705807Y-98409926D01*
X59616351Y-98228527D01*
X59495335Y-98066467D01*
X59392771Y-97971658D01*
X59350988Y-97933034D01*
X59350986Y-97933033D01*
X59346812Y-97929174D01*
X59226653Y-97853359D01*
X59180566Y-97824280D01*
X59180564Y-97824279D01*
X59175757Y-97821246D01*
X58987898Y-97746298D01*
X58982317Y-97745188D01*
X58982314Y-97745187D01*
X58904239Y-97729657D01*
X58789526Y-97706839D01*
X58783839Y-97706765D01*
X58783834Y-97706764D01*
X58592975Y-97704266D01*
X58592970Y-97704266D01*
X58587286Y-97704192D01*
X58581682Y-97705155D01*
X58581681Y-97705155D01*
X58393546Y-97737482D01*
X58393543Y-97737483D01*
X58387949Y-97738444D01*
X58366660Y-97746298D01*
X58203521Y-97806483D01*
X58203517Y-97806485D01*
X58198193Y-97808449D01*
X58193310Y-97811354D01*
X58193308Y-97811355D01*
X58063047Y-97888852D01*
X58024371Y-97911862D01*
X57872305Y-98045220D01*
X57747089Y-98204057D01*
X57652914Y-98383053D01*
X57651229Y-98388479D01*
X57651228Y-98388482D01*
X57644570Y-98409926D01*
X57592937Y-98576213D01*
X57569164Y-98777069D01*
X55606499Y-98777069D01*
X55606499Y-98178482D01*
X55591646Y-98084696D01*
X55534050Y-97971658D01*
X55444342Y-97881950D01*
X55331304Y-97824354D01*
X55298378Y-97819139D01*
X55242339Y-97810263D01*
X55242334Y-97810263D01*
X55237519Y-97809500D01*
X55232641Y-97809500D01*
X54355368Y-97809501D01*
X53474482Y-97809501D01*
X53401849Y-97821004D01*
X53390331Y-97822828D01*
X53390330Y-97822828D01*
X53380696Y-97824354D01*
X53267658Y-97881950D01*
X53177950Y-97971658D01*
X53120354Y-98084696D01*
X53105500Y-98178481D01*
X52545500Y-98178481D01*
X52545500Y-96865500D01*
X52565185Y-96798461D01*
X52617989Y-96752706D01*
X52669500Y-96741500D01*
X85252500Y-96741500D01*
X85319539Y-96761185D01*
G37*
%TD.AperFunction*%
%TD*%
M02*
