%TF.GenerationSoftware,KiCad,Pcbnew,(6.0.4)*%
%TF.CreationDate,2022-07-15T22:22:15+03:00*%
%TF.ProjectId,panelized,70616e65-6c69-47a6-9564-2e6b69636164,rev?*%
%TF.SameCoordinates,Original*%
%TF.FileFunction,Other,User*%
%FSLAX46Y46*%
G04 Gerber Fmt 4.6, Leading zero omitted, Abs format (unit mm)*
G04 Created by KiCad (PCBNEW (6.0.4)) date 2022-07-15 22:22:15*
%MOMM*%
%LPD*%
G01*
G04 APERTURE LIST*
%ADD10C,0.150000*%
%ADD11C,0.100000*%
%ADD12C,0.120000*%
G04 APERTURE END LIST*
D10*
X103223200Y-98298000D02*
X103225600Y-76276200D01*
D11*
X66184400Y-122707400D02*
X51866800Y-122565494D01*
D10*
X88239600Y-125247400D02*
X97197800Y-125207400D01*
X88188800Y-137033000D02*
X88239600Y-125247400D01*
X88138000Y-122555000D02*
X88151800Y-118524400D01*
X97197800Y-122707400D02*
X88138000Y-122555000D01*
X88239600Y-100736400D02*
X88166400Y-112522000D01*
X97223200Y-100798000D02*
X88239600Y-100736400D01*
X88214200Y-98171000D02*
X97223200Y-98298000D01*
X88202600Y-94140400D02*
X88214200Y-98171000D01*
X88214200Y-76276200D02*
X88217200Y-88138000D01*
X103225600Y-76276200D02*
X88214200Y-76276200D01*
X103200200Y-147040600D02*
X103223200Y-98298000D01*
X88163400Y-147066000D02*
X103200200Y-147040600D01*
X88174200Y-143035400D02*
X88163400Y-147066000D01*
D11*
X66162000Y-98196400D02*
X51917600Y-98181494D01*
X85702600Y-94140400D02*
X85699600Y-98181494D01*
X72240600Y-76352400D02*
X85699600Y-76337494D01*
D10*
X85702600Y-88140400D02*
X88217200Y-88138000D01*
D11*
X51917600Y-76337494D02*
X72240600Y-76352400D01*
X51917600Y-98181494D02*
X51917600Y-76337494D01*
X85699600Y-98181494D02*
X72162000Y-98196400D01*
X85699600Y-76337494D02*
X85702600Y-88140400D01*
X85651800Y-118524400D02*
X85648800Y-122565494D01*
X72189800Y-100736400D02*
X85648800Y-100721494D01*
D10*
X72162000Y-98196400D02*
X72189800Y-100736400D01*
X85651800Y-112524400D02*
X88166400Y-112522000D01*
D11*
X51866800Y-100721494D02*
X66162000Y-100696400D01*
X51866800Y-122565494D02*
X51866800Y-100721494D01*
X85648800Y-122565494D02*
X72184400Y-122707400D01*
X85648800Y-100721494D02*
X85651800Y-112524400D01*
X85674200Y-143035400D02*
X85671200Y-147076494D01*
D10*
X85674200Y-137035400D02*
X88188800Y-137033000D01*
X72184400Y-122707400D02*
X72212200Y-125247400D01*
D11*
X72212200Y-125247400D02*
X85671200Y-125232494D01*
X85671200Y-147076494D02*
X51889200Y-147076494D01*
X51889200Y-125232494D02*
X66184400Y-125207400D01*
X51889200Y-147076494D02*
X51889200Y-125232494D01*
X85671200Y-125232494D02*
X85674200Y-137035400D01*
D12*
%TO.C,REF\u002A\u002A*%
X103197800Y-122707400D02*
X103197800Y-122707400D01*
X97197800Y-122707400D02*
X97197800Y-125207400D01*
X103223200Y-98298000D02*
X103223200Y-98298000D01*
X97223200Y-98298000D02*
X97223200Y-100798000D01*
X85702600Y-88140400D02*
X85702600Y-88140400D01*
X85702600Y-94140400D02*
X88202600Y-94140400D01*
X85651800Y-112524400D02*
X85651800Y-112524400D01*
X85651800Y-118524400D02*
X88151800Y-118524400D01*
X72162000Y-98196400D02*
X72162000Y-98196400D01*
X66162000Y-98196400D02*
X66162000Y-100696400D01*
X85674200Y-137035400D02*
X85674200Y-137035400D01*
X85674200Y-143035400D02*
X88174200Y-143035400D01*
X72184400Y-122707400D02*
X72184400Y-122707400D01*
X66184400Y-122707400D02*
X66184400Y-125207400D01*
%TD*%
M02*
