%TF.GenerationSoftware,KiCad,Pcbnew,(6.0.4)*%
%TF.CreationDate,2022-07-15T22:22:15+03:00*%
%TF.ProjectId,panelized,70616e65-6c69-47a6-9564-2e6b69636164,rev?*%
%TF.SameCoordinates,Original*%
%TF.FileFunction,Copper,L2,Bot*%
%TF.FilePolarity,Positive*%
%FSLAX46Y46*%
G04 Gerber Fmt 4.6, Leading zero omitted, Abs format (unit mm)*
G04 Created by KiCad (PCBNEW (6.0.4)) date 2022-07-15 22:22:15*
%MOMM*%
%LPD*%
G01*
G04 APERTURE LIST*
%TA.AperFunction,ComponentPad*%
%ADD10R,1.700000X1.700000*%
%TD*%
%TA.AperFunction,ComponentPad*%
%ADD11O,1.700000X1.700000*%
%TD*%
%TA.AperFunction,ComponentPad*%
%ADD12C,1.400000*%
%TD*%
%TA.AperFunction,ComponentPad*%
%ADD13O,1.400000X1.400000*%
%TD*%
%TA.AperFunction,ComponentPad*%
%ADD14C,1.500000*%
%TD*%
%TA.AperFunction,ComponentPad*%
%ADD15C,1.600000*%
%TD*%
%TA.AperFunction,ComponentPad*%
%ADD16O,1.600000X1.600000*%
%TD*%
%TA.AperFunction,ComponentPad*%
%ADD17R,1.050000X1.500000*%
%TD*%
%TA.AperFunction,ComponentPad*%
%ADD18O,1.050000X1.500000*%
%TD*%
%TA.AperFunction,ViaPad*%
%ADD19C,0.620000*%
%TD*%
G04 APERTURE END LIST*
D10*
%TO.P,J2,1,Pin_1*%
%TO.N,N/C*%
X93094900Y-78508100D03*
D11*
%TO.P,J2,2,Pin_2*%
X90554900Y-78508100D03*
%TD*%
D10*
%TO.P,J1,1,Pin_1*%
%TO.N,N/C*%
X90569900Y-96034100D03*
D11*
%TO.P,J1,2,Pin_2*%
X93109900Y-96034100D03*
%TO.P,J1,3,Pin_3*%
X95649900Y-96034100D03*
%TD*%
D10*
%TO.P,J1,1,Pin_1*%
%TO.N,N/C*%
X90563045Y-120488376D03*
D11*
%TO.P,J1,2,Pin_2*%
X93103045Y-120488376D03*
%TO.P,J1,3,Pin_3*%
X95643045Y-120488376D03*
%TD*%
D10*
%TO.P,J2,1,Pin_1*%
%TO.N,N/C*%
X93088045Y-102962376D03*
D11*
%TO.P,J2,2,Pin_2*%
X90548045Y-102962376D03*
%TD*%
D12*
%TO.P,L1,1,1*%
%TO.N,N/C*%
X58521600Y-78877494D03*
D13*
%TO.P,L1,2,2*%
X66141600Y-78877494D03*
%TD*%
D10*
%TO.P,J2,1,Pin_1*%
%TO.N,N/C*%
X83159600Y-85994494D03*
D11*
%TO.P,J2,2,Pin_2*%
X83159600Y-83454494D03*
%TD*%
D14*
%TO.P,Y1,1,1*%
%TO.N,N/C*%
X75449600Y-94879494D03*
%TO.P,Y1,2,2*%
X70569600Y-94879494D03*
%TD*%
D15*
%TO.P,C2,1*%
%TO.N,N/C*%
X77785600Y-83195494D03*
%TO.P,C2,2*%
X72785600Y-83195494D03*
%TD*%
%TO.P,L2,1,1*%
%TO.N,N/C*%
X70205600Y-78877494D03*
D16*
%TO.P,L2,2,2*%
X80365600Y-78877494D03*
%TD*%
D10*
%TO.P,J1,1,Pin_1*%
%TO.N,N/C*%
X54203600Y-79131494D03*
D11*
%TO.P,J1,2,Pin_2*%
X54203600Y-81671494D03*
%TO.P,J1,3,Pin_3*%
X54203600Y-84211494D03*
%TD*%
D12*
%TO.P,R1,1*%
%TO.N,N/C*%
X58267600Y-94879494D03*
D13*
%TO.P,R1,2*%
X63347600Y-94879494D03*
%TD*%
D12*
%TO.P,RP1,1*%
%TO.N,N/C*%
X61823600Y-82687494D03*
D13*
%TO.P,RP1,2*%
X66903600Y-82687494D03*
%TD*%
D15*
%TO.P,C1,1*%
%TO.N,N/C*%
X59029600Y-87981494D03*
%TO.P,C1,2*%
X59029600Y-82981494D03*
%TD*%
%TO.P,CP1,1*%
%TO.N,N/C*%
X64403600Y-88529494D03*
%TO.P,CP1,2*%
X69403600Y-88529494D03*
%TD*%
D17*
%TO.P,Q1,1,E*%
%TO.N,N/C*%
X74269600Y-88635494D03*
D18*
%TO.P,Q1,2,B*%
X75539600Y-88635494D03*
%TO.P,Q1,3,C*%
X76809600Y-88635494D03*
%TD*%
D12*
%TO.P,L1,1,1*%
%TO.N,N/C*%
X58470800Y-103261494D03*
D13*
%TO.P,L1,2,2*%
X66090800Y-103261494D03*
%TD*%
D10*
%TO.P,J2,1,Pin_1*%
%TO.N,N/C*%
X83108800Y-110378494D03*
D11*
%TO.P,J2,2,Pin_2*%
X83108800Y-107838494D03*
%TD*%
D14*
%TO.P,Y1,1,1*%
%TO.N,N/C*%
X75398800Y-119263494D03*
%TO.P,Y1,2,2*%
X70518800Y-119263494D03*
%TD*%
D15*
%TO.P,C2,1*%
%TO.N,N/C*%
X77734800Y-107579494D03*
%TO.P,C2,2*%
X72734800Y-107579494D03*
%TD*%
%TO.P,L2,1,1*%
%TO.N,N/C*%
X70154800Y-103261494D03*
D16*
%TO.P,L2,2,2*%
X80314800Y-103261494D03*
%TD*%
D10*
%TO.P,J1,1,Pin_1*%
%TO.N,N/C*%
X54152800Y-103515494D03*
D11*
%TO.P,J1,2,Pin_2*%
X54152800Y-106055494D03*
%TO.P,J1,3,Pin_3*%
X54152800Y-108595494D03*
%TD*%
D12*
%TO.P,R1,1*%
%TO.N,N/C*%
X58216800Y-119263494D03*
D13*
%TO.P,R1,2*%
X63296800Y-119263494D03*
%TD*%
D12*
%TO.P,RP1,1*%
%TO.N,N/C*%
X61772800Y-107071494D03*
D13*
%TO.P,RP1,2*%
X66852800Y-107071494D03*
%TD*%
D15*
%TO.P,C1,1*%
%TO.N,N/C*%
X58978800Y-112365494D03*
%TO.P,C1,2*%
X58978800Y-107365494D03*
%TD*%
%TO.P,CP1,1*%
%TO.N,N/C*%
X64352800Y-112913494D03*
%TO.P,CP1,2*%
X69352800Y-112913494D03*
%TD*%
D17*
%TO.P,Q1,1,E*%
%TO.N,N/C*%
X74218800Y-113019494D03*
D18*
%TO.P,Q1,2,B*%
X75488800Y-113019494D03*
%TO.P,Q1,3,C*%
X76758800Y-113019494D03*
%TD*%
D10*
%TO.P,J1,1,Pin_1*%
%TO.N,N/C*%
X54175200Y-128026494D03*
D11*
%TO.P,J1,2,Pin_2*%
X54175200Y-130566494D03*
%TO.P,J1,3,Pin_3*%
X54175200Y-133106494D03*
%TD*%
D15*
%TO.P,L2,1,1*%
%TO.N,N/C*%
X70177200Y-127772494D03*
D16*
%TO.P,L2,2,2*%
X80337200Y-127772494D03*
%TD*%
D14*
%TO.P,Y1,1,1*%
%TO.N,N/C*%
X75421200Y-143774494D03*
%TO.P,Y1,2,2*%
X70541200Y-143774494D03*
%TD*%
D12*
%TO.P,L1,1,1*%
%TO.N,N/C*%
X58493200Y-127772494D03*
D13*
%TO.P,L1,2,2*%
X66113200Y-127772494D03*
%TD*%
D15*
%TO.P,C2,1*%
%TO.N,N/C*%
X77757200Y-132090494D03*
%TO.P,C2,2*%
X72757200Y-132090494D03*
%TD*%
D10*
%TO.P,J2,1,Pin_1*%
%TO.N,N/C*%
X83131200Y-134889494D03*
D11*
%TO.P,J2,2,Pin_2*%
X83131200Y-132349494D03*
%TD*%
D15*
%TO.P,C1,1*%
%TO.N,N/C*%
X59001200Y-136876494D03*
%TO.P,C1,2*%
X59001200Y-131876494D03*
%TD*%
D12*
%TO.P,R1,1*%
%TO.N,N/C*%
X58239200Y-143774494D03*
D13*
%TO.P,R1,2*%
X63319200Y-143774494D03*
%TD*%
D17*
%TO.P,Q1,1,E*%
%TO.N,N/C*%
X74241200Y-137530494D03*
D18*
%TO.P,Q1,2,B*%
X75511200Y-137530494D03*
%TO.P,Q1,3,C*%
X76781200Y-137530494D03*
%TD*%
D15*
%TO.P,CP1,1*%
%TO.N,N/C*%
X64375200Y-137424494D03*
%TO.P,CP1,2*%
X69375200Y-137424494D03*
%TD*%
D12*
%TO.P,RP1,1*%
%TO.N,N/C*%
X61795200Y-131582494D03*
D13*
%TO.P,RP1,2*%
X66875200Y-131582494D03*
%TD*%
D10*
%TO.P,J2,1,Pin_1*%
%TO.N,N/C*%
X93093300Y-127272950D03*
D11*
%TO.P,J2,2,Pin_2*%
X90553300Y-127272950D03*
%TD*%
D10*
%TO.P,J1,1,Pin_1*%
%TO.N,N/C*%
X90568300Y-144798950D03*
D11*
%TO.P,J1,2,Pin_2*%
X93108300Y-144798950D03*
%TO.P,J1,3,Pin_3*%
X95648300Y-144798950D03*
%TD*%
D19*
%TO.N,*%
X101400700Y-90471500D03*
X96396900Y-93011500D03*
X94390300Y-93113100D03*
X96549300Y-83562700D03*
X96390045Y-117465776D03*
X101393845Y-114925776D03*
X96542445Y-108016976D03*
X94383445Y-117567376D03*
X101399100Y-139236350D03*
X96547700Y-132327550D03*
X94388700Y-141877950D03*
X96395300Y-141776350D03*
%TD*%
%TA.AperFunction,NonConductor*%
G36*
X88787702Y-125631579D02*
G01*
X88841358Y-125585086D01*
X88893700Y-125573700D01*
X102524700Y-125573700D01*
X102592821Y-125593702D01*
X102639314Y-125647358D01*
X102650700Y-125699700D01*
X102650700Y-146330700D01*
X102630698Y-146398821D01*
X102577042Y-146445314D01*
X102524700Y-146456700D01*
X95614995Y-146456700D01*
X95614995Y-146161699D01*
X95620148Y-146161402D01*
X95620151Y-146161402D01*
X95714890Y-146155939D01*
X95838015Y-146148840D01*
X95843061Y-146147703D01*
X95843067Y-146147702D01*
X95931239Y-146127831D01*
X96055939Y-146099728D01*
X96262916Y-146015684D01*
X96453388Y-145898963D01*
X96622238Y-145752700D01*
X96764932Y-145580824D01*
X96877638Y-145387950D01*
X96957330Y-145179258D01*
X96958361Y-145174190D01*
X96958362Y-145174187D01*
X96980183Y-145066933D01*
X97001867Y-144960353D01*
X97002057Y-144955178D01*
X97002057Y-144955176D01*
X97009864Y-144742277D01*
X97009864Y-144742273D01*
X97010053Y-144737113D01*
X97009397Y-144731993D01*
X97009397Y-144731991D01*
X96982325Y-144520662D01*
X96982325Y-144520661D01*
X96981668Y-144515534D01*
X96980183Y-144510584D01*
X96918961Y-144306521D01*
X96918959Y-144306516D01*
X96917474Y-144301566D01*
X96819196Y-144100956D01*
X96689473Y-143919090D01*
X96531789Y-143760854D01*
X96448989Y-143701356D01*
X96354577Y-143633515D01*
X96350377Y-143630497D01*
X96150111Y-143531520D01*
X95936369Y-143466580D01*
X95714890Y-143437421D01*
X95648300Y-143435794D01*
X95425661Y-143454098D01*
X95209002Y-143508519D01*
X95004140Y-143597596D01*
X94816577Y-143718936D01*
X94651351Y-143869280D01*
X94648152Y-143873331D01*
X94648148Y-143873335D01*
X94516100Y-144040536D01*
X94516098Y-144040540D01*
X94512898Y-144044591D01*
X94489829Y-144086381D01*
X94439397Y-144136352D01*
X94369954Y-144151124D01*
X94303548Y-144126008D01*
X94276941Y-144098656D01*
X94152092Y-143923622D01*
X94145439Y-143915750D01*
X93995112Y-143764898D01*
X93987969Y-143758819D01*
X93987969Y-128630949D01*
X93994790Y-128630579D01*
X94045652Y-128625055D01*
X94060904Y-128621429D01*
X94181354Y-128576274D01*
X94196949Y-128567736D01*
X94299024Y-128491235D01*
X94311585Y-128478674D01*
X94388086Y-128376599D01*
X94396624Y-128361004D01*
X94441778Y-128240556D01*
X94445405Y-128225301D01*
X94450931Y-128174436D01*
X94451300Y-128167622D01*
X94451300Y-127545065D01*
X94446825Y-127529826D01*
X94445435Y-127528621D01*
X94437752Y-127526950D01*
X94433184Y-127526950D01*
X94433184Y-127018950D01*
X94448423Y-127014475D01*
X94449628Y-127013085D01*
X94451299Y-127005402D01*
X94451299Y-126378281D01*
X94450929Y-126371460D01*
X94445405Y-126320598D01*
X94441779Y-126305346D01*
X94396624Y-126184896D01*
X94388086Y-126169301D01*
X94311585Y-126067226D01*
X94299024Y-126054665D01*
X94196949Y-125978164D01*
X94181354Y-125969626D01*
X94060906Y-125924472D01*
X94045651Y-125920845D01*
X93994786Y-125915319D01*
X93987972Y-125914950D01*
X93365415Y-125914950D01*
X93350176Y-125919425D01*
X93348971Y-125920815D01*
X93347300Y-125928498D01*
X93347300Y-127000835D01*
X93351775Y-127016074D01*
X93353165Y-127017279D01*
X93360848Y-127018950D01*
X94433184Y-127018950D01*
X94433184Y-127526950D01*
X93365415Y-127526950D01*
X93350176Y-127531425D01*
X93348971Y-127532815D01*
X93347300Y-127540498D01*
X93347300Y-128612834D01*
X93351775Y-128628073D01*
X93353165Y-128629278D01*
X93360848Y-128630949D01*
X93987969Y-128630949D01*
X93987969Y-143758819D01*
X93987265Y-143758220D01*
X93814320Y-143633947D01*
X93805483Y-143628637D01*
X93614567Y-143534280D01*
X93604972Y-143530481D01*
X93401210Y-143468573D01*
X93391137Y-143466395D01*
X93380262Y-143464964D01*
X93366078Y-143467175D01*
X93362300Y-143480333D01*
X93362300Y-146115725D01*
X93366273Y-146129256D01*
X93376266Y-146130693D01*
X93510746Y-146100385D01*
X93520575Y-146097305D01*
X93717903Y-146017180D01*
X93727094Y-146012537D01*
X93908688Y-145901256D01*
X93916999Y-145895173D01*
X94077967Y-145755737D01*
X94085183Y-145748370D01*
X94221216Y-145584516D01*
X94227131Y-145576069D01*
X94267503Y-145506981D01*
X94319142Y-145458257D01*
X94388925Y-145445186D01*
X94454696Y-145471917D01*
X94488052Y-145512366D01*
X94494807Y-145525343D01*
X94497910Y-145529476D01*
X94497912Y-145529479D01*
X94516100Y-145553703D01*
X94628935Y-145703985D01*
X94790438Y-145858321D01*
X94974980Y-145984207D01*
X95177605Y-146078262D01*
X95392870Y-146137961D01*
X95614995Y-146161699D01*
X95614995Y-146456700D01*
X91466434Y-146456700D01*
X91466434Y-146157450D01*
X91528616Y-146150695D01*
X91665005Y-146099565D01*
X91781561Y-146012211D01*
X91868915Y-145895655D01*
X91872067Y-145887246D01*
X91872068Y-145887245D01*
X91913026Y-145777990D01*
X91955667Y-145721225D01*
X92022229Y-145696525D01*
X92091578Y-145711732D01*
X92118059Y-145731125D01*
X92247017Y-145854360D01*
X92255027Y-145860846D01*
X92430949Y-145980852D01*
X92439923Y-145985950D01*
X92633083Y-146075612D01*
X92642770Y-146079175D01*
X92842483Y-146134561D01*
X92850907Y-146133038D01*
X92854300Y-146120658D01*
X92854300Y-143480606D01*
X92850327Y-143467075D01*
X92841247Y-143465770D01*
X92674175Y-143507736D01*
X92664424Y-143511056D01*
X92469114Y-143595978D01*
X92460039Y-143600845D01*
X92281226Y-143716524D01*
X92273057Y-143722814D01*
X92114977Y-143866657D01*
X92051131Y-143897709D01*
X91980633Y-143889315D01*
X91925864Y-143844138D01*
X91912195Y-143817694D01*
X91872067Y-143710653D01*
X91868915Y-143702245D01*
X91781561Y-143585689D01*
X91665005Y-143498335D01*
X91528616Y-143447205D01*
X91466434Y-143440450D01*
X90519995Y-143440450D01*
X90519995Y-128635699D01*
X90525148Y-128635402D01*
X90525151Y-128635402D01*
X90619890Y-128629939D01*
X90743015Y-128622840D01*
X90748061Y-128621703D01*
X90748067Y-128621702D01*
X90836239Y-128601831D01*
X90960939Y-128573728D01*
X91167916Y-128489684D01*
X91358388Y-128372963D01*
X91527238Y-128226700D01*
X91530538Y-128222725D01*
X91530544Y-128222719D01*
X91534856Y-128217525D01*
X91593760Y-128177891D01*
X91664741Y-128176395D01*
X91725262Y-128213511D01*
X91749780Y-128253782D01*
X91789976Y-128361004D01*
X91798514Y-128376599D01*
X91875015Y-128478674D01*
X91887576Y-128491235D01*
X91989651Y-128567736D01*
X92005246Y-128576274D01*
X92125694Y-128621428D01*
X92140949Y-128625055D01*
X92191814Y-128630581D01*
X92198628Y-128630950D01*
X92821185Y-128630950D01*
X92836424Y-128626475D01*
X92837629Y-128625085D01*
X92839300Y-128617402D01*
X92839300Y-125933066D01*
X92834825Y-125917827D01*
X92833435Y-125916622D01*
X92825752Y-125914951D01*
X92198631Y-125914951D01*
X92191810Y-125915321D01*
X92140948Y-125920845D01*
X92125696Y-125924471D01*
X92005246Y-125969626D01*
X91989651Y-125978164D01*
X91887576Y-126054665D01*
X91875015Y-126067226D01*
X91798514Y-126169301D01*
X91789976Y-126184896D01*
X91748648Y-126295137D01*
X91706006Y-126351901D01*
X91639445Y-126376601D01*
X91570096Y-126361393D01*
X91541415Y-126339846D01*
X91440444Y-126238520D01*
X91440432Y-126238510D01*
X91436789Y-126234854D01*
X91353989Y-126175356D01*
X91259577Y-126107515D01*
X91255377Y-126104497D01*
X91055111Y-126005520D01*
X90841369Y-125940580D01*
X90619890Y-125911421D01*
X90553300Y-125909794D01*
X90330661Y-125928098D01*
X90114002Y-125982519D01*
X89909140Y-126071596D01*
X89721577Y-126192936D01*
X89556351Y-126343280D01*
X89553152Y-126347331D01*
X89553148Y-126347335D01*
X89421100Y-126514536D01*
X89421098Y-126514540D01*
X89417898Y-126518591D01*
X89309938Y-126714161D01*
X89308214Y-126719030D01*
X89308212Y-126719034D01*
X89237095Y-126919863D01*
X89237094Y-126919867D01*
X89235369Y-126924738D01*
X89234462Y-126929831D01*
X89234461Y-126929834D01*
X89197100Y-127139577D01*
X89197099Y-127139583D01*
X89196194Y-127144666D01*
X89195292Y-127218498D01*
X89193528Y-127362869D01*
X89193528Y-127362871D01*
X89193465Y-127368039D01*
X89227255Y-127588859D01*
X89296657Y-127801194D01*
X89399807Y-127999343D01*
X89402910Y-128003476D01*
X89402912Y-128003479D01*
X89530830Y-128173850D01*
X89533935Y-128177985D01*
X89537673Y-128181557D01*
X89670166Y-128308170D01*
X89695438Y-128332321D01*
X89879980Y-128458207D01*
X90082605Y-128552262D01*
X90297870Y-128611961D01*
X90519995Y-128635699D01*
X90519995Y-143440450D01*
X89670166Y-143440450D01*
X89607984Y-143447205D01*
X89471595Y-143498335D01*
X89355039Y-143585689D01*
X89267685Y-143702245D01*
X89216555Y-143838634D01*
X89209800Y-143900816D01*
X89209800Y-145697084D01*
X89216555Y-145759266D01*
X89267685Y-145895655D01*
X89355039Y-146012211D01*
X89471595Y-146099565D01*
X89607984Y-146150695D01*
X89670166Y-146157450D01*
X91466434Y-146157450D01*
X91466434Y-146456700D01*
X88893700Y-146456700D01*
X88825579Y-146436698D01*
X88779086Y-146383042D01*
X88767700Y-146330700D01*
X88767700Y-125699700D01*
X88787702Y-125631579D01*
G37*
%TD.AperFunction*%
%TA.AperFunction,NonConductor*%
G36*
X85163739Y-125702679D02*
G01*
X85209494Y-125755483D01*
X85220700Y-125806994D01*
X85220700Y-146501994D01*
X85201015Y-146569033D01*
X85148211Y-146614788D01*
X85096700Y-146625994D01*
X52463700Y-146625994D01*
X52396661Y-146606309D01*
X52350906Y-146553505D01*
X52339700Y-146501994D01*
X52339700Y-143745563D01*
X57134364Y-143745563D01*
X57134735Y-143751225D01*
X57134735Y-143751229D01*
X57140288Y-143835952D01*
X57147592Y-143947388D01*
X57197378Y-144143422D01*
X57199754Y-144148576D01*
X57243953Y-144244449D01*
X57282056Y-144327101D01*
X57398788Y-144492274D01*
X57543666Y-144633407D01*
X57711837Y-144745776D01*
X57897670Y-144825616D01*
X57925269Y-144831861D01*
X58089393Y-144868999D01*
X58089395Y-144868999D01*
X58094940Y-144870254D01*
X58206249Y-144874627D01*
X58291361Y-144877971D01*
X58291363Y-144877971D01*
X58297042Y-144878194D01*
X58302662Y-144877379D01*
X58302665Y-144877379D01*
X58491587Y-144849987D01*
X58491589Y-144849987D01*
X58497207Y-144849172D01*
X58502584Y-144847347D01*
X58502587Y-144847346D01*
X58587290Y-144818593D01*
X58688731Y-144784158D01*
X58865201Y-144685331D01*
X58880712Y-144672431D01*
X59016338Y-144559631D01*
X59020705Y-144555999D01*
X59077564Y-144487634D01*
X59146406Y-144404861D01*
X59146407Y-144404860D01*
X59150037Y-144400495D01*
X59248864Y-144224025D01*
X59313878Y-144032501D01*
X59327040Y-143941722D01*
X59342376Y-143835952D01*
X59342376Y-143835947D01*
X59342900Y-143832336D01*
X59344415Y-143774494D01*
X59341757Y-143745563D01*
X62214364Y-143745563D01*
X62214735Y-143751225D01*
X62214735Y-143751229D01*
X62220288Y-143835952D01*
X62227592Y-143947388D01*
X62277378Y-144143422D01*
X62279754Y-144148576D01*
X62323953Y-144244449D01*
X62362056Y-144327101D01*
X62478788Y-144492274D01*
X62623666Y-144633407D01*
X62791837Y-144745776D01*
X62977670Y-144825616D01*
X63005269Y-144831861D01*
X63169393Y-144868999D01*
X63169395Y-144868999D01*
X63174940Y-144870254D01*
X63286249Y-144874627D01*
X63371361Y-144877971D01*
X63371363Y-144877971D01*
X63377042Y-144878194D01*
X63382662Y-144877379D01*
X63382665Y-144877379D01*
X63571587Y-144849987D01*
X63571589Y-144849987D01*
X63577207Y-144849172D01*
X63582584Y-144847347D01*
X63582587Y-144847346D01*
X63667290Y-144818593D01*
X63768731Y-144784158D01*
X63945201Y-144685331D01*
X63960712Y-144672431D01*
X64096338Y-144559631D01*
X64100705Y-144555999D01*
X64157564Y-144487634D01*
X64226406Y-144404861D01*
X64226407Y-144404860D01*
X64230037Y-144400495D01*
X64328864Y-144224025D01*
X64393878Y-144032501D01*
X64407040Y-143941722D01*
X64422376Y-143835952D01*
X64422376Y-143835947D01*
X64422900Y-143832336D01*
X64424415Y-143774494D01*
X64421636Y-143744248D01*
X69386167Y-143744248D01*
X69386538Y-143749910D01*
X69386538Y-143749914D01*
X69388149Y-143774494D01*
X69399996Y-143955243D01*
X69452045Y-144160184D01*
X69454419Y-144165335D01*
X69454421Y-144165339D01*
X69531133Y-144331739D01*
X69540569Y-144352208D01*
X69543847Y-144356846D01*
X69639558Y-144492274D01*
X69662605Y-144524885D01*
X69666676Y-144528851D01*
X69666677Y-144528852D01*
X69694544Y-144555999D01*
X69814065Y-144672431D01*
X69818788Y-144675587D01*
X69818792Y-144675590D01*
X69889863Y-144723078D01*
X69989877Y-144789905D01*
X70184153Y-144873372D01*
X70247483Y-144887702D01*
X70384838Y-144918783D01*
X70384842Y-144918784D01*
X70390386Y-144920038D01*
X70516851Y-144925007D01*
X70595989Y-144928117D01*
X70595991Y-144928117D01*
X70601670Y-144928340D01*
X70607290Y-144927525D01*
X70607292Y-144927525D01*
X70805303Y-144898814D01*
X70805304Y-144898814D01*
X70810930Y-144897998D01*
X70892005Y-144870477D01*
X71005765Y-144831861D01*
X71005768Y-144831860D01*
X71011155Y-144830031D01*
X71016116Y-144827253D01*
X71016122Y-144827250D01*
X71157592Y-144748022D01*
X71195642Y-144726713D01*
X71242064Y-144688105D01*
X71353845Y-144595138D01*
X71358212Y-144591506D01*
X71391375Y-144551632D01*
X71489784Y-144433307D01*
X71489785Y-144433305D01*
X71493419Y-144428936D01*
X71553338Y-144321943D01*
X71593956Y-144249416D01*
X71593959Y-144249410D01*
X71596737Y-144244449D01*
X71601987Y-144228985D01*
X71662875Y-144049612D01*
X71664704Y-144044224D01*
X71695046Y-143834964D01*
X71696629Y-143774494D01*
X71693850Y-143744248D01*
X74266167Y-143744248D01*
X74266538Y-143749910D01*
X74266538Y-143749914D01*
X74268149Y-143774494D01*
X74279996Y-143955243D01*
X74332045Y-144160184D01*
X74334419Y-144165335D01*
X74334421Y-144165339D01*
X74411133Y-144331739D01*
X74420569Y-144352208D01*
X74423847Y-144356846D01*
X74519558Y-144492274D01*
X74542605Y-144524885D01*
X74546676Y-144528851D01*
X74546677Y-144528852D01*
X74574544Y-144555999D01*
X74694065Y-144672431D01*
X74698788Y-144675587D01*
X74698792Y-144675590D01*
X74769863Y-144723078D01*
X74869877Y-144789905D01*
X75064153Y-144873372D01*
X75127483Y-144887702D01*
X75264838Y-144918783D01*
X75264842Y-144918784D01*
X75270386Y-144920038D01*
X75396851Y-144925007D01*
X75475989Y-144928117D01*
X75475991Y-144928117D01*
X75481670Y-144928340D01*
X75487290Y-144927525D01*
X75487292Y-144927525D01*
X75685303Y-144898814D01*
X75685304Y-144898814D01*
X75690930Y-144897998D01*
X75772005Y-144870477D01*
X75885765Y-144831861D01*
X75885768Y-144831860D01*
X75891155Y-144830031D01*
X75896116Y-144827253D01*
X75896122Y-144827250D01*
X76037592Y-144748022D01*
X76075642Y-144726713D01*
X76122064Y-144688105D01*
X76233845Y-144595138D01*
X76238212Y-144591506D01*
X76271375Y-144551632D01*
X76369784Y-144433307D01*
X76369785Y-144433305D01*
X76373419Y-144428936D01*
X76433338Y-144321943D01*
X76473956Y-144249416D01*
X76473959Y-144249410D01*
X76476737Y-144244449D01*
X76481987Y-144228985D01*
X76542875Y-144049612D01*
X76544704Y-144044224D01*
X76575046Y-143834964D01*
X76576629Y-143774494D01*
X76557281Y-143563934D01*
X76499886Y-143360425D01*
X76406365Y-143170784D01*
X76279851Y-143001361D01*
X76275681Y-142997506D01*
X76275678Y-142997503D01*
X76145800Y-142877446D01*
X76124581Y-142857831D01*
X76091290Y-142836826D01*
X75950563Y-142748033D01*
X75950561Y-142748032D01*
X75945754Y-142744999D01*
X75749360Y-142666646D01*
X75743779Y-142665536D01*
X75743776Y-142665535D01*
X75645667Y-142646020D01*
X75541975Y-142625395D01*
X75536288Y-142625321D01*
X75536283Y-142625320D01*
X75336234Y-142622701D01*
X75336229Y-142622701D01*
X75330546Y-142622627D01*
X75324942Y-142623590D01*
X75324941Y-142623590D01*
X75127750Y-142657473D01*
X75127747Y-142657474D01*
X75122153Y-142658435D01*
X74923775Y-142731621D01*
X74918897Y-142734523D01*
X74918895Y-142734524D01*
X74746940Y-142836826D01*
X74746937Y-142836828D01*
X74742056Y-142839732D01*
X74583081Y-142979149D01*
X74579562Y-142983613D01*
X74579559Y-142983616D01*
X74520931Y-143057986D01*
X74452176Y-143145202D01*
X74353723Y-143332330D01*
X74352037Y-143337761D01*
X74352035Y-143337765D01*
X74337711Y-143383897D01*
X74291020Y-143534267D01*
X74290352Y-143539912D01*
X74290351Y-143539916D01*
X74285755Y-143578748D01*
X74266167Y-143744248D01*
X71693850Y-143744248D01*
X71677281Y-143563934D01*
X71619886Y-143360425D01*
X71526365Y-143170784D01*
X71399851Y-143001361D01*
X71395681Y-142997506D01*
X71395678Y-142997503D01*
X71265800Y-142877446D01*
X71244581Y-142857831D01*
X71211290Y-142836826D01*
X71070563Y-142748033D01*
X71070561Y-142748032D01*
X71065754Y-142744999D01*
X70869360Y-142666646D01*
X70863779Y-142665536D01*
X70863776Y-142665535D01*
X70765667Y-142646020D01*
X70661975Y-142625395D01*
X70656288Y-142625321D01*
X70656283Y-142625320D01*
X70456234Y-142622701D01*
X70456229Y-142622701D01*
X70450546Y-142622627D01*
X70444942Y-142623590D01*
X70444941Y-142623590D01*
X70247750Y-142657473D01*
X70247747Y-142657474D01*
X70242153Y-142658435D01*
X70043775Y-142731621D01*
X70038897Y-142734523D01*
X70038895Y-142734524D01*
X69866940Y-142836826D01*
X69866937Y-142836828D01*
X69862056Y-142839732D01*
X69703081Y-142979149D01*
X69699562Y-142983613D01*
X69699559Y-142983616D01*
X69640931Y-143057986D01*
X69572176Y-143145202D01*
X69473723Y-143332330D01*
X69472037Y-143337761D01*
X69472035Y-143337765D01*
X69457711Y-143383897D01*
X69411020Y-143534267D01*
X69410352Y-143539912D01*
X69410351Y-143539916D01*
X69405755Y-143578748D01*
X69386167Y-143744248D01*
X64421636Y-143744248D01*
X64405908Y-143573085D01*
X64351007Y-143378420D01*
X64261551Y-143197021D01*
X64140535Y-143034961D01*
X63992012Y-142897668D01*
X63934992Y-142861691D01*
X63825766Y-142792774D01*
X63825764Y-142792773D01*
X63820957Y-142789740D01*
X63633098Y-142714792D01*
X63627517Y-142713682D01*
X63627514Y-142713681D01*
X63559573Y-142700167D01*
X63434726Y-142675333D01*
X63429039Y-142675259D01*
X63429034Y-142675258D01*
X63238175Y-142672760D01*
X63238170Y-142672760D01*
X63232486Y-142672686D01*
X63226882Y-142673649D01*
X63226881Y-142673649D01*
X63038746Y-142705976D01*
X63038743Y-142705977D01*
X63033149Y-142706938D01*
X63011860Y-142714792D01*
X62848721Y-142774977D01*
X62848717Y-142774979D01*
X62843393Y-142776943D01*
X62838510Y-142779848D01*
X62838508Y-142779849D01*
X62707432Y-142857831D01*
X62669571Y-142880356D01*
X62517505Y-143013714D01*
X62392289Y-143172551D01*
X62298114Y-143351547D01*
X62296429Y-143356973D01*
X62296428Y-143356976D01*
X62289770Y-143378420D01*
X62238137Y-143544707D01*
X62214364Y-143745563D01*
X59341757Y-143745563D01*
X59325908Y-143573085D01*
X59271007Y-143378420D01*
X59181551Y-143197021D01*
X59060535Y-143034961D01*
X58912012Y-142897668D01*
X58854992Y-142861691D01*
X58745766Y-142792774D01*
X58745764Y-142792773D01*
X58740957Y-142789740D01*
X58553098Y-142714792D01*
X58547517Y-142713682D01*
X58547514Y-142713681D01*
X58479573Y-142700167D01*
X58354726Y-142675333D01*
X58349039Y-142675259D01*
X58349034Y-142675258D01*
X58158175Y-142672760D01*
X58158170Y-142672760D01*
X58152486Y-142672686D01*
X58146882Y-142673649D01*
X58146881Y-142673649D01*
X57958746Y-142705976D01*
X57958743Y-142705977D01*
X57953149Y-142706938D01*
X57931860Y-142714792D01*
X57768721Y-142774977D01*
X57768717Y-142774979D01*
X57763393Y-142776943D01*
X57758510Y-142779848D01*
X57758508Y-142779849D01*
X57627432Y-142857831D01*
X57589571Y-142880356D01*
X57437505Y-143013714D01*
X57312289Y-143172551D01*
X57218114Y-143351547D01*
X57216429Y-143356973D01*
X57216428Y-143356976D01*
X57209770Y-143378420D01*
X57158137Y-143544707D01*
X57134364Y-143745563D01*
X52339700Y-143745563D01*
X52339700Y-137853556D01*
X58312050Y-137853556D01*
X58321775Y-137865847D01*
X58421426Y-137932433D01*
X58431384Y-137937839D01*
X58623566Y-138020406D01*
X58634338Y-138023906D01*
X58838351Y-138070070D01*
X58849581Y-138071548D01*
X59058591Y-138079760D01*
X59069895Y-138079168D01*
X59276915Y-138049152D01*
X59287915Y-138046511D01*
X59485989Y-137979273D01*
X59496340Y-137974665D01*
X59678834Y-137872462D01*
X59685769Y-137867697D01*
X59693558Y-137856099D01*
X59687484Y-137845621D01*
X59013807Y-137171944D01*
X59000087Y-137164452D01*
X58998281Y-137164581D01*
X58991774Y-137168763D01*
X58318146Y-137842391D01*
X58312050Y-137853556D01*
X52339700Y-137853556D01*
X52339700Y-136850620D01*
X57796844Y-136850620D01*
X57810525Y-137059354D01*
X57812294Y-137070524D01*
X57863787Y-137273277D01*
X57867560Y-137283933D01*
X57955139Y-137473906D01*
X57960795Y-137483702D01*
X58012764Y-137557237D01*
X58023186Y-137565493D01*
X58036274Y-137558577D01*
X58705750Y-136889101D01*
X58712026Y-136877607D01*
X59289158Y-136877607D01*
X59289287Y-136879413D01*
X59293469Y-136885920D01*
X59969183Y-137561634D01*
X59982278Y-137568784D01*
X59991681Y-137562114D01*
X59997168Y-137554128D01*
X60087442Y-137392934D01*
X63169970Y-137392934D01*
X63170341Y-137398596D01*
X63170341Y-137398600D01*
X63176174Y-137487592D01*
X63184400Y-137613098D01*
X63238711Y-137826946D01*
X63241087Y-137832100D01*
X63287342Y-137932433D01*
X63331083Y-138027315D01*
X63334361Y-138031953D01*
X63402116Y-138127824D01*
X63458422Y-138207496D01*
X63462493Y-138211462D01*
X63462494Y-138211463D01*
X63612390Y-138357487D01*
X63612395Y-138357491D01*
X63616464Y-138361455D01*
X63621187Y-138364611D01*
X63621191Y-138364614D01*
X63704774Y-138420462D01*
X63799917Y-138484034D01*
X64002636Y-138571129D01*
X64105969Y-138594511D01*
X64212285Y-138618568D01*
X64212287Y-138618568D01*
X64217832Y-138619823D01*
X64355657Y-138625238D01*
X64432618Y-138628262D01*
X64432620Y-138628262D01*
X64438298Y-138628485D01*
X64443918Y-138627670D01*
X64443921Y-138627670D01*
X64651026Y-138597641D01*
X64651029Y-138597640D01*
X64656652Y-138596825D01*
X64772220Y-138557595D01*
X64860189Y-138527734D01*
X64860192Y-138527733D01*
X64865579Y-138525904D01*
X65006360Y-138447063D01*
X65053131Y-138420870D01*
X65053132Y-138420869D01*
X65058084Y-138418096D01*
X65062608Y-138414334D01*
X65077972Y-138401556D01*
X68686050Y-138401556D01*
X68695775Y-138413847D01*
X68795426Y-138480433D01*
X68805384Y-138485839D01*
X68997566Y-138568406D01*
X69008338Y-138571906D01*
X69212351Y-138618070D01*
X69223581Y-138619548D01*
X69432591Y-138627760D01*
X69443895Y-138627168D01*
X69650915Y-138597152D01*
X69661915Y-138594511D01*
X69859989Y-138527273D01*
X69870340Y-138522665D01*
X70052834Y-138420462D01*
X70059769Y-138415697D01*
X70067558Y-138404099D01*
X70061484Y-138393621D01*
X69974966Y-138307103D01*
X73316201Y-138307103D01*
X73316963Y-138316783D01*
X73329509Y-138396007D01*
X73335464Y-138414334D01*
X73384129Y-138509844D01*
X73395461Y-138525441D01*
X73471253Y-138601233D01*
X73486850Y-138612565D01*
X73582355Y-138661228D01*
X73600695Y-138667186D01*
X73679897Y-138679730D01*
X73689599Y-138680494D01*
X74023370Y-138680494D01*
X74038369Y-138676090D01*
X74039556Y-138674720D01*
X74041200Y-138667162D01*
X74041200Y-138662663D01*
X74441200Y-138662663D01*
X74445604Y-138677662D01*
X74446974Y-138678849D01*
X74454532Y-138680493D01*
X74792809Y-138680493D01*
X74802489Y-138679731D01*
X74881713Y-138667185D01*
X74900040Y-138661230D01*
X74995549Y-138612566D01*
X75000413Y-138609032D01*
X75066220Y-138585552D01*
X75123733Y-138596070D01*
X75217686Y-138637900D01*
X75217694Y-138637903D01*
X75223629Y-138640545D01*
X75229991Y-138641897D01*
X75229990Y-138641897D01*
X75407563Y-138679642D01*
X75407568Y-138679642D01*
X75413926Y-138680994D01*
X75608474Y-138680994D01*
X75614832Y-138679642D01*
X75614837Y-138679642D01*
X75792410Y-138641897D01*
X75792409Y-138641897D01*
X75798771Y-138640545D01*
X75825859Y-138628485D01*
X75970563Y-138564059D01*
X75970564Y-138564058D01*
X75976499Y-138561416D01*
X76073315Y-138491075D01*
X76139121Y-138467595D01*
X76207175Y-138483420D01*
X76219085Y-138491075D01*
X76315901Y-138561416D01*
X76321836Y-138564058D01*
X76321837Y-138564059D01*
X76466542Y-138628485D01*
X76493629Y-138640545D01*
X76499991Y-138641897D01*
X76499990Y-138641897D01*
X76677563Y-138679642D01*
X76677568Y-138679642D01*
X76683926Y-138680994D01*
X76878474Y-138680994D01*
X76884832Y-138679642D01*
X76884837Y-138679642D01*
X77062410Y-138641897D01*
X77062409Y-138641897D01*
X77068771Y-138640545D01*
X77095859Y-138628485D01*
X77240563Y-138564059D01*
X77240564Y-138564058D01*
X77246499Y-138561416D01*
X77403892Y-138447063D01*
X77449863Y-138396007D01*
X77529723Y-138307314D01*
X77529724Y-138307313D01*
X77534070Y-138302486D01*
X77631344Y-138134002D01*
X77691462Y-137948976D01*
X77706700Y-137803998D01*
X77706700Y-137256990D01*
X77691462Y-137112012D01*
X77631344Y-136926986D01*
X77534070Y-136758502D01*
X77419782Y-136631572D01*
X77408241Y-136618755D01*
X77403892Y-136613925D01*
X77377272Y-136594584D01*
X77251758Y-136503393D01*
X77251759Y-136503393D01*
X77246499Y-136499572D01*
X77168754Y-136464958D01*
X77074710Y-136423087D01*
X77074708Y-136423086D01*
X77068771Y-136420443D01*
X77020949Y-136410278D01*
X76884837Y-136381346D01*
X76884832Y-136381346D01*
X76878474Y-136379994D01*
X76683926Y-136379994D01*
X76677568Y-136381346D01*
X76677563Y-136381346D01*
X76541451Y-136410278D01*
X76493629Y-136420443D01*
X76487692Y-136423086D01*
X76487690Y-136423087D01*
X76393646Y-136464958D01*
X76315901Y-136499572D01*
X76310641Y-136503393D01*
X76310642Y-136503393D01*
X76219085Y-136569913D01*
X76153279Y-136593393D01*
X76085225Y-136577568D01*
X76073315Y-136569913D01*
X75981758Y-136503393D01*
X75981759Y-136503393D01*
X75976499Y-136499572D01*
X75898754Y-136464958D01*
X75804710Y-136423087D01*
X75804708Y-136423086D01*
X75798771Y-136420443D01*
X75750949Y-136410278D01*
X75614837Y-136381346D01*
X75614832Y-136381346D01*
X75608474Y-136379994D01*
X75413926Y-136379994D01*
X75407568Y-136381346D01*
X75407563Y-136381346D01*
X75271451Y-136410278D01*
X75223629Y-136420443D01*
X75217694Y-136423085D01*
X75217686Y-136423088D01*
X75123733Y-136464918D01*
X75054483Y-136474202D01*
X75000413Y-136451956D01*
X74995549Y-136448422D01*
X74900045Y-136399760D01*
X74881705Y-136393802D01*
X74802503Y-136381258D01*
X74792801Y-136380494D01*
X74459030Y-136380494D01*
X74444031Y-136384898D01*
X74442844Y-136386268D01*
X74441200Y-136393826D01*
X74441200Y-138662663D01*
X74041200Y-138662663D01*
X74041200Y-137748324D01*
X74036796Y-137733325D01*
X74035426Y-137732138D01*
X74027868Y-137730494D01*
X73334031Y-137730494D01*
X73319032Y-137734898D01*
X73317845Y-137736268D01*
X73316201Y-137743826D01*
X73316201Y-138307103D01*
X69974966Y-138307103D01*
X69387807Y-137719944D01*
X69374087Y-137712452D01*
X69372281Y-137712581D01*
X69365774Y-137716763D01*
X68692146Y-138390391D01*
X68686050Y-138401556D01*
X65077972Y-138401556D01*
X65223351Y-138280644D01*
X65227718Y-138277012D01*
X65285534Y-138207496D01*
X65365171Y-138111744D01*
X65365172Y-138111743D01*
X65368802Y-138107378D01*
X65384601Y-138079168D01*
X65473831Y-137919835D01*
X65476610Y-137914873D01*
X65508382Y-137821277D01*
X65515347Y-137800756D01*
X65547531Y-137705946D01*
X65579191Y-137487592D01*
X65580843Y-137424494D01*
X65578465Y-137398620D01*
X68170844Y-137398620D01*
X68184525Y-137607354D01*
X68186294Y-137618524D01*
X68237787Y-137821277D01*
X68241560Y-137831933D01*
X68329139Y-138021906D01*
X68334795Y-138031702D01*
X68386764Y-138105237D01*
X68397186Y-138113493D01*
X68410274Y-138106577D01*
X69079750Y-137437101D01*
X69086026Y-137425607D01*
X69663158Y-137425607D01*
X69663287Y-137427413D01*
X69667469Y-137433920D01*
X70343183Y-138109634D01*
X70356278Y-138116784D01*
X70365681Y-138110114D01*
X70371168Y-138102128D01*
X70473371Y-137919634D01*
X70477979Y-137909283D01*
X70545217Y-137711209D01*
X70547858Y-137700209D01*
X70578165Y-137491182D01*
X70578785Y-137483908D01*
X70580245Y-137428155D01*
X70580006Y-137420853D01*
X70570065Y-137312664D01*
X73316200Y-137312664D01*
X73320604Y-137327663D01*
X73321974Y-137328850D01*
X73329532Y-137330494D01*
X74023370Y-137330494D01*
X74038369Y-137326090D01*
X74039556Y-137324720D01*
X74041200Y-137317162D01*
X74041200Y-136398325D01*
X74036796Y-136383326D01*
X74035426Y-136382139D01*
X74027868Y-136380495D01*
X73689591Y-136380495D01*
X73679911Y-136381257D01*
X73600687Y-136393803D01*
X73582360Y-136399758D01*
X73486850Y-136448423D01*
X73471253Y-136459755D01*
X73395461Y-136535547D01*
X73384129Y-136551144D01*
X73335466Y-136646649D01*
X73329508Y-136664989D01*
X73316964Y-136744191D01*
X73316200Y-136753893D01*
X73316200Y-137312664D01*
X70570065Y-137312664D01*
X70560681Y-137210534D01*
X70558617Y-137199401D01*
X70501839Y-136998082D01*
X70497782Y-136987511D01*
X70405267Y-136799910D01*
X70399350Y-136790254D01*
X70364246Y-136743245D01*
X70353165Y-136734929D01*
X70340944Y-136741593D01*
X69670650Y-137411887D01*
X69663158Y-137425607D01*
X69086026Y-137425607D01*
X69087242Y-137423381D01*
X69087113Y-137421575D01*
X69082931Y-137415068D01*
X68408612Y-136740749D01*
X68395977Y-136733850D01*
X68385458Y-136741521D01*
X68368004Y-136763662D01*
X68361837Y-136773158D01*
X68264441Y-136958278D01*
X68260108Y-136968739D01*
X68198080Y-137168501D01*
X68195726Y-137179572D01*
X68171140Y-137387301D01*
X68170844Y-137398620D01*
X65578465Y-137398620D01*
X65560654Y-137204783D01*
X65500765Y-136992430D01*
X65403180Y-136794547D01*
X65271167Y-136617761D01*
X65109149Y-136467993D01*
X65104339Y-136464958D01*
X65071939Y-136444515D01*
X68682887Y-136444515D01*
X68686317Y-136452768D01*
X69362593Y-137129044D01*
X69376313Y-137136536D01*
X69378119Y-137136407D01*
X69384626Y-137132225D01*
X70059213Y-136457638D01*
X70065864Y-136445457D01*
X70059929Y-136437528D01*
X69927132Y-136353740D01*
X69917041Y-136348599D01*
X69722767Y-136271091D01*
X69711895Y-136267870D01*
X69506756Y-136227066D01*
X69495480Y-136225880D01*
X69286335Y-136223142D01*
X69275041Y-136224031D01*
X69068890Y-136259454D01*
X69057954Y-136262385D01*
X68861705Y-136334784D01*
X68851487Y-136339658D01*
X68692333Y-136434345D01*
X68682887Y-136444515D01*
X65071939Y-136444515D01*
X64927359Y-136353292D01*
X64927357Y-136353291D01*
X64922550Y-136350258D01*
X64717621Y-136268500D01*
X64712040Y-136267390D01*
X64712037Y-136267389D01*
X64585673Y-136242254D01*
X64501224Y-136225456D01*
X64495537Y-136225382D01*
X64495532Y-136225381D01*
X64286295Y-136222642D01*
X64286290Y-136222642D01*
X64280606Y-136222568D01*
X64275002Y-136223531D01*
X64275001Y-136223531D01*
X64068760Y-136258969D01*
X64068757Y-136258970D01*
X64063157Y-136259932D01*
X63856157Y-136336298D01*
X63827593Y-136353292D01*
X63710277Y-136423088D01*
X63666541Y-136449108D01*
X63500657Y-136594584D01*
X63364063Y-136767854D01*
X63361416Y-136772885D01*
X63305369Y-136879413D01*
X63261331Y-136963114D01*
X63259643Y-136968549D01*
X63259643Y-136968550D01*
X63252228Y-136992430D01*
X63195903Y-137173827D01*
X63195235Y-137179472D01*
X63195234Y-137179476D01*
X63177695Y-137327663D01*
X63169970Y-137392934D01*
X60087442Y-137392934D01*
X60099371Y-137371634D01*
X60103979Y-137361283D01*
X60171217Y-137163209D01*
X60173858Y-137152209D01*
X60204165Y-136943182D01*
X60204785Y-136935908D01*
X60206245Y-136880155D01*
X60206006Y-136872853D01*
X60186681Y-136662534D01*
X60184617Y-136651401D01*
X60127839Y-136450082D01*
X60123782Y-136439511D01*
X60031267Y-136251910D01*
X60025350Y-136242254D01*
X59990246Y-136195245D01*
X59979165Y-136186929D01*
X59966944Y-136193593D01*
X59296650Y-136863887D01*
X59289158Y-136877607D01*
X58712026Y-136877607D01*
X58713242Y-136875381D01*
X58713113Y-136873575D01*
X58708931Y-136867068D01*
X58034612Y-136192749D01*
X58021977Y-136185850D01*
X58011458Y-136193521D01*
X57994004Y-136215662D01*
X57987837Y-136225158D01*
X57890441Y-136410278D01*
X57886108Y-136420739D01*
X57824080Y-136620501D01*
X57821726Y-136631572D01*
X57797140Y-136839301D01*
X57796844Y-136850620D01*
X52339700Y-136850620D01*
X52339700Y-135896515D01*
X58308887Y-135896515D01*
X58312317Y-135904768D01*
X58988593Y-136581044D01*
X59002313Y-136588536D01*
X59004119Y-136588407D01*
X59010626Y-136584225D01*
X59685213Y-135909638D01*
X59691864Y-135897457D01*
X59685929Y-135889528D01*
X59553132Y-135805740D01*
X59543041Y-135800599D01*
X59456577Y-135766103D01*
X81881201Y-135766103D01*
X81881963Y-135775783D01*
X81894509Y-135855007D01*
X81900464Y-135873334D01*
X81949129Y-135968844D01*
X81960461Y-135984441D01*
X82036253Y-136060233D01*
X82051850Y-136071565D01*
X82147355Y-136120228D01*
X82165695Y-136126186D01*
X82244897Y-136138730D01*
X82254599Y-136139494D01*
X82913370Y-136139494D01*
X82928369Y-136135090D01*
X82929556Y-136133720D01*
X82931200Y-136126162D01*
X82931200Y-136121663D01*
X83331200Y-136121663D01*
X83335604Y-136136662D01*
X83336974Y-136137849D01*
X83344532Y-136139493D01*
X84007809Y-136139493D01*
X84017489Y-136138731D01*
X84096713Y-136126185D01*
X84115040Y-136120230D01*
X84210550Y-136071565D01*
X84226147Y-136060233D01*
X84301939Y-135984441D01*
X84313271Y-135968844D01*
X84361934Y-135873339D01*
X84367892Y-135854999D01*
X84380436Y-135775797D01*
X84381200Y-135766095D01*
X84381200Y-135107324D01*
X84376796Y-135092325D01*
X84375426Y-135091138D01*
X84367868Y-135089494D01*
X83349030Y-135089494D01*
X83334031Y-135093898D01*
X83332844Y-135095268D01*
X83331200Y-135102826D01*
X83331200Y-136121663D01*
X82931200Y-136121663D01*
X82931200Y-135107324D01*
X82926796Y-135092325D01*
X82925426Y-135091138D01*
X82917868Y-135089494D01*
X81899031Y-135089494D01*
X81884032Y-135093898D01*
X81882845Y-135095268D01*
X81881201Y-135102826D01*
X81881201Y-135766103D01*
X59456577Y-135766103D01*
X59348767Y-135723091D01*
X59337895Y-135719870D01*
X59132756Y-135679066D01*
X59121480Y-135677880D01*
X58912335Y-135675142D01*
X58901041Y-135676031D01*
X58694890Y-135711454D01*
X58683954Y-135714385D01*
X58487705Y-135786784D01*
X58477487Y-135791658D01*
X58318333Y-135886345D01*
X58308887Y-135896515D01*
X52339700Y-135896515D01*
X52339700Y-133106494D01*
X52919923Y-133106494D01*
X52938993Y-133324471D01*
X52940395Y-133329703D01*
X52977585Y-133468497D01*
X52995625Y-133535824D01*
X53088098Y-133734132D01*
X53091205Y-133738569D01*
X53091206Y-133738571D01*
X53210496Y-133908936D01*
X53210500Y-133908940D01*
X53213602Y-133913371D01*
X53368323Y-134068092D01*
X53547561Y-134193596D01*
X53745870Y-134286069D01*
X53751093Y-134287468D01*
X53751097Y-134287470D01*
X53918101Y-134332218D01*
X53957223Y-134342701D01*
X54175200Y-134361771D01*
X54393177Y-134342701D01*
X54432299Y-134332218D01*
X54599303Y-134287470D01*
X54599307Y-134287468D01*
X54604530Y-134286069D01*
X54802839Y-134193596D01*
X54982077Y-134068092D01*
X55136798Y-133913371D01*
X55139900Y-133908940D01*
X55139904Y-133908936D01*
X55259194Y-133738571D01*
X55259195Y-133738569D01*
X55262302Y-133734132D01*
X55354775Y-133535824D01*
X55372816Y-133468497D01*
X55410005Y-133329703D01*
X55411407Y-133324471D01*
X55430477Y-133106494D01*
X55411407Y-132888517D01*
X55390231Y-132809487D01*
X55356176Y-132682391D01*
X55356174Y-132682387D01*
X55354775Y-132677164D01*
X55262302Y-132478856D01*
X55233302Y-132437439D01*
X55139904Y-132304052D01*
X55139900Y-132304048D01*
X55136798Y-132299617D01*
X54982077Y-132144896D01*
X54802839Y-132019392D01*
X54651025Y-131948600D01*
X54598586Y-131902428D01*
X54582199Y-131844934D01*
X57795970Y-131844934D01*
X57796341Y-131850596D01*
X57796341Y-131850600D01*
X57802174Y-131939592D01*
X57810400Y-132065098D01*
X57864711Y-132278946D01*
X57867087Y-132284100D01*
X57874241Y-132299617D01*
X57957083Y-132479315D01*
X57966989Y-132493331D01*
X58067019Y-132634871D01*
X58084422Y-132659496D01*
X58088493Y-132663462D01*
X58088494Y-132663463D01*
X58238390Y-132809487D01*
X58238395Y-132809491D01*
X58242464Y-132813455D01*
X58247187Y-132816611D01*
X58247191Y-132816614D01*
X58331385Y-132872870D01*
X58425917Y-132936034D01*
X58628636Y-133023129D01*
X58661715Y-133030614D01*
X58838285Y-133070568D01*
X58838287Y-133070568D01*
X58843832Y-133071823D01*
X58981657Y-133077238D01*
X59058618Y-133080262D01*
X59058620Y-133080262D01*
X59064298Y-133080485D01*
X59069918Y-133079670D01*
X59069921Y-133079670D01*
X59277026Y-133049641D01*
X59277029Y-133049640D01*
X59282652Y-133048825D01*
X59389677Y-133012495D01*
X59486189Y-132979734D01*
X59486192Y-132979733D01*
X59491579Y-132977904D01*
X59576776Y-132930192D01*
X59679131Y-132872870D01*
X59679132Y-132872869D01*
X59684084Y-132870096D01*
X59853718Y-132729012D01*
X59914986Y-132655346D01*
X59991171Y-132563744D01*
X59991172Y-132563743D01*
X59994802Y-132559378D01*
X60039897Y-132478856D01*
X60099831Y-132371835D01*
X60102610Y-132366873D01*
X60108510Y-132349494D01*
X60171702Y-132163333D01*
X60173531Y-132157946D01*
X60175874Y-132141791D01*
X60193952Y-132017106D01*
X60205191Y-131939592D01*
X60206843Y-131876494D01*
X60186654Y-131656783D01*
X60157543Y-131553563D01*
X60690364Y-131553563D01*
X60690735Y-131559225D01*
X60690735Y-131559229D01*
X60696051Y-131640336D01*
X60703592Y-131755388D01*
X60753378Y-131951422D01*
X60838056Y-132135101D01*
X60954788Y-132300274D01*
X61099666Y-132441407D01*
X61267837Y-132553776D01*
X61453670Y-132633616D01*
X61547541Y-132654857D01*
X61645393Y-132676999D01*
X61645395Y-132676999D01*
X61650940Y-132678254D01*
X61756242Y-132682391D01*
X61847361Y-132685971D01*
X61847363Y-132685971D01*
X61853042Y-132686194D01*
X61858662Y-132685379D01*
X61858665Y-132685379D01*
X62047587Y-132657987D01*
X62047589Y-132657987D01*
X62053207Y-132657172D01*
X62058584Y-132655347D01*
X62058587Y-132655346D01*
X62143290Y-132626593D01*
X62244731Y-132592158D01*
X62346097Y-132535391D01*
X62416248Y-132496105D01*
X62416250Y-132496104D01*
X62421201Y-132493331D01*
X62432701Y-132483767D01*
X62572338Y-132367631D01*
X62576705Y-132363999D01*
X62706037Y-132208495D01*
X62739510Y-132148725D01*
X62802086Y-132036985D01*
X62804864Y-132032025D01*
X62848295Y-131904083D01*
X62868052Y-131845881D01*
X62868053Y-131845878D01*
X62869878Y-131840501D01*
X62870693Y-131834881D01*
X62898376Y-131643952D01*
X62898376Y-131643947D01*
X62898900Y-131640336D01*
X62900415Y-131582494D01*
X62897757Y-131553563D01*
X65770364Y-131553563D01*
X65770735Y-131559225D01*
X65770735Y-131559229D01*
X65776051Y-131640336D01*
X65783592Y-131755388D01*
X65833378Y-131951422D01*
X65918056Y-132135101D01*
X66034788Y-132300274D01*
X66179666Y-132441407D01*
X66347837Y-132553776D01*
X66533670Y-132633616D01*
X66627541Y-132654857D01*
X66725393Y-132676999D01*
X66725395Y-132676999D01*
X66730940Y-132678254D01*
X66836242Y-132682391D01*
X66927361Y-132685971D01*
X66927363Y-132685971D01*
X66933042Y-132686194D01*
X66938662Y-132685379D01*
X66938665Y-132685379D01*
X67127587Y-132657987D01*
X67127589Y-132657987D01*
X67133207Y-132657172D01*
X67138584Y-132655347D01*
X67138587Y-132655346D01*
X67223290Y-132626593D01*
X67324731Y-132592158D01*
X67426097Y-132535391D01*
X67496248Y-132496105D01*
X67496250Y-132496104D01*
X67501201Y-132493331D01*
X67512701Y-132483767D01*
X67652338Y-132367631D01*
X67656705Y-132363999D01*
X67786037Y-132208495D01*
X67819510Y-132148725D01*
X67869794Y-132058934D01*
X71551970Y-132058934D01*
X71552341Y-132064596D01*
X71552341Y-132064600D01*
X71558091Y-132152320D01*
X71566400Y-132279098D01*
X71620711Y-132492946D01*
X71623087Y-132498100D01*
X71706243Y-132678477D01*
X71713083Y-132693315D01*
X71716361Y-132697953D01*
X71773515Y-132778824D01*
X71840422Y-132873496D01*
X71844493Y-132877462D01*
X71844494Y-132877463D01*
X71994390Y-133023487D01*
X71994395Y-133023491D01*
X71998464Y-133027455D01*
X72003187Y-133030611D01*
X72003191Y-133030614D01*
X72087385Y-133086870D01*
X72181917Y-133150034D01*
X72384636Y-133237129D01*
X72490113Y-133260996D01*
X72594285Y-133284568D01*
X72594287Y-133284568D01*
X72599832Y-133285823D01*
X72737657Y-133291238D01*
X72814618Y-133294262D01*
X72814620Y-133294262D01*
X72820298Y-133294485D01*
X72825918Y-133293670D01*
X72825921Y-133293670D01*
X73033026Y-133263641D01*
X73033029Y-133263640D01*
X73038652Y-133262825D01*
X73145677Y-133226495D01*
X73242189Y-133193734D01*
X73242192Y-133193733D01*
X73247579Y-133191904D01*
X73440084Y-133084096D01*
X73454573Y-133072046D01*
X73605351Y-132946644D01*
X73609718Y-132943012D01*
X73670362Y-132870096D01*
X73747171Y-132777744D01*
X73747172Y-132777743D01*
X73750802Y-132773378D01*
X73858610Y-132580873D01*
X73861384Y-132572703D01*
X73894835Y-132474157D01*
X73929531Y-132371946D01*
X73930684Y-132363999D01*
X73953230Y-132208495D01*
X73961191Y-132153592D01*
X73962843Y-132090494D01*
X73959943Y-132058934D01*
X76551970Y-132058934D01*
X76552341Y-132064596D01*
X76552341Y-132064600D01*
X76558091Y-132152320D01*
X76566400Y-132279098D01*
X76620711Y-132492946D01*
X76623087Y-132498100D01*
X76706243Y-132678477D01*
X76713083Y-132693315D01*
X76716361Y-132697953D01*
X76773515Y-132778824D01*
X76840422Y-132873496D01*
X76844493Y-132877462D01*
X76844494Y-132877463D01*
X76994390Y-133023487D01*
X76994395Y-133023491D01*
X76998464Y-133027455D01*
X77003187Y-133030611D01*
X77003191Y-133030614D01*
X77087385Y-133086870D01*
X77181917Y-133150034D01*
X77384636Y-133237129D01*
X77490113Y-133260996D01*
X77594285Y-133284568D01*
X77594287Y-133284568D01*
X77599832Y-133285823D01*
X77737657Y-133291238D01*
X77814618Y-133294262D01*
X77814620Y-133294262D01*
X77820298Y-133294485D01*
X77825918Y-133293670D01*
X77825921Y-133293670D01*
X78033026Y-133263641D01*
X78033029Y-133263640D01*
X78038652Y-133262825D01*
X78145677Y-133226495D01*
X78242189Y-133193734D01*
X78242192Y-133193733D01*
X78247579Y-133191904D01*
X78440084Y-133084096D01*
X78454573Y-133072046D01*
X78605351Y-132946644D01*
X78609718Y-132943012D01*
X78670362Y-132870096D01*
X78747171Y-132777744D01*
X78747172Y-132777743D01*
X78750802Y-132773378D01*
X78858610Y-132580873D01*
X78861384Y-132572703D01*
X78894835Y-132474157D01*
X78929531Y-132371946D01*
X78930684Y-132363999D01*
X78932787Y-132349494D01*
X81875923Y-132349494D01*
X81894993Y-132567471D01*
X81896395Y-132572703D01*
X81950166Y-132773378D01*
X81951625Y-132778824D01*
X82044098Y-132977132D01*
X82047205Y-132981569D01*
X82047206Y-132981571D01*
X82166496Y-133151936D01*
X82166500Y-133151940D01*
X82169602Y-133156371D01*
X82324323Y-133311092D01*
X82417477Y-133376319D01*
X82471176Y-133413920D01*
X82514800Y-133468497D01*
X82521993Y-133537996D01*
X82490471Y-133600350D01*
X82430241Y-133635764D01*
X82400052Y-133639495D01*
X82254591Y-133639495D01*
X82244911Y-133640257D01*
X82165687Y-133652803D01*
X82147360Y-133658758D01*
X82051850Y-133707423D01*
X82036253Y-133718755D01*
X81960461Y-133794547D01*
X81949129Y-133810144D01*
X81900466Y-133905649D01*
X81894508Y-133923989D01*
X81881964Y-134003191D01*
X81881200Y-134012893D01*
X81881200Y-134671664D01*
X81885604Y-134686663D01*
X81886974Y-134687850D01*
X81894532Y-134689494D01*
X84363369Y-134689494D01*
X84378368Y-134685090D01*
X84379555Y-134683720D01*
X84381199Y-134676162D01*
X84381199Y-134012885D01*
X84380437Y-134003205D01*
X84367891Y-133923981D01*
X84361936Y-133905654D01*
X84313271Y-133810144D01*
X84301939Y-133794547D01*
X84226147Y-133718755D01*
X84210550Y-133707423D01*
X84115045Y-133658760D01*
X84096705Y-133652802D01*
X84017503Y-133640258D01*
X84007801Y-133639494D01*
X83862349Y-133639494D01*
X83795310Y-133619809D01*
X83749555Y-133567005D01*
X83739611Y-133497847D01*
X83768636Y-133434291D01*
X83791225Y-133413919D01*
X83938077Y-133311092D01*
X84092798Y-133156371D01*
X84095900Y-133151940D01*
X84095904Y-133151936D01*
X84215194Y-132981571D01*
X84215195Y-132981569D01*
X84218302Y-132977132D01*
X84310775Y-132778824D01*
X84312235Y-132773378D01*
X84366005Y-132572703D01*
X84367407Y-132567471D01*
X84386477Y-132349494D01*
X84367407Y-132131517D01*
X84319151Y-131951422D01*
X84312176Y-131925391D01*
X84312174Y-131925387D01*
X84310775Y-131920164D01*
X84218302Y-131721856D01*
X84215194Y-131717417D01*
X84095904Y-131547052D01*
X84095900Y-131547048D01*
X84092798Y-131542617D01*
X83938077Y-131387896D01*
X83758839Y-131262392D01*
X83560530Y-131169919D01*
X83555307Y-131168520D01*
X83555303Y-131168518D01*
X83354409Y-131114689D01*
X83354410Y-131114689D01*
X83349177Y-131113287D01*
X83131200Y-131094217D01*
X82913223Y-131113287D01*
X82907990Y-131114689D01*
X82907991Y-131114689D01*
X82707097Y-131168518D01*
X82707093Y-131168520D01*
X82701870Y-131169919D01*
X82503562Y-131262392D01*
X82499125Y-131265499D01*
X82499123Y-131265500D01*
X82328758Y-131384790D01*
X82328757Y-131384791D01*
X82324323Y-131387896D01*
X82169602Y-131542617D01*
X82166500Y-131547048D01*
X82166496Y-131547052D01*
X82047206Y-131717417D01*
X82044098Y-131721856D01*
X81951625Y-131920164D01*
X81950226Y-131925387D01*
X81950224Y-131925391D01*
X81943249Y-131951422D01*
X81894993Y-132131517D01*
X81875923Y-132349494D01*
X78932787Y-132349494D01*
X78953230Y-132208495D01*
X78961191Y-132153592D01*
X78962843Y-132090494D01*
X78942654Y-131870783D01*
X78882765Y-131658430D01*
X78785180Y-131460547D01*
X78653167Y-131283761D01*
X78491149Y-131133993D01*
X78396573Y-131074320D01*
X78309359Y-131019292D01*
X78309357Y-131019291D01*
X78304550Y-131016258D01*
X78099621Y-130934500D01*
X78094040Y-130933390D01*
X78094037Y-130933389D01*
X77950605Y-130904859D01*
X77883224Y-130891456D01*
X77877537Y-130891382D01*
X77877532Y-130891381D01*
X77668295Y-130888642D01*
X77668290Y-130888642D01*
X77662606Y-130888568D01*
X77657002Y-130889531D01*
X77657001Y-130889531D01*
X77450760Y-130924969D01*
X77450757Y-130924970D01*
X77445157Y-130925932D01*
X77238157Y-131002298D01*
X77209593Y-131019292D01*
X77083656Y-131094217D01*
X77048541Y-131115108D01*
X76882657Y-131260584D01*
X76746063Y-131433854D01*
X76743416Y-131438885D01*
X76680100Y-131559229D01*
X76643331Y-131629114D01*
X76641643Y-131634549D01*
X76641643Y-131634550D01*
X76634228Y-131658430D01*
X76577903Y-131839827D01*
X76577235Y-131845472D01*
X76577234Y-131845476D01*
X76570298Y-131904083D01*
X76551970Y-132058934D01*
X73959943Y-132058934D01*
X73942654Y-131870783D01*
X73882765Y-131658430D01*
X73785180Y-131460547D01*
X73653167Y-131283761D01*
X73491149Y-131133993D01*
X73396573Y-131074320D01*
X73309359Y-131019292D01*
X73309357Y-131019291D01*
X73304550Y-131016258D01*
X73099621Y-130934500D01*
X73094040Y-130933390D01*
X73094037Y-130933389D01*
X72950605Y-130904859D01*
X72883224Y-130891456D01*
X72877537Y-130891382D01*
X72877532Y-130891381D01*
X72668295Y-130888642D01*
X72668290Y-130888642D01*
X72662606Y-130888568D01*
X72657002Y-130889531D01*
X72657001Y-130889531D01*
X72450760Y-130924969D01*
X72450757Y-130924970D01*
X72445157Y-130925932D01*
X72238157Y-131002298D01*
X72209593Y-131019292D01*
X72083656Y-131094217D01*
X72048541Y-131115108D01*
X71882657Y-131260584D01*
X71746063Y-131433854D01*
X71743416Y-131438885D01*
X71680100Y-131559229D01*
X71643331Y-131629114D01*
X71641643Y-131634549D01*
X71641643Y-131634550D01*
X71634228Y-131658430D01*
X71577903Y-131839827D01*
X71577235Y-131845472D01*
X71577234Y-131845476D01*
X71570298Y-131904083D01*
X71551970Y-132058934D01*
X67869794Y-132058934D01*
X67882086Y-132036985D01*
X67884864Y-132032025D01*
X67928295Y-131904083D01*
X67948052Y-131845881D01*
X67948053Y-131845878D01*
X67949878Y-131840501D01*
X67950693Y-131834881D01*
X67978376Y-131643952D01*
X67978376Y-131643947D01*
X67978900Y-131640336D01*
X67980415Y-131582494D01*
X67961908Y-131381085D01*
X67917855Y-131224885D01*
X67908552Y-131191897D01*
X67908551Y-131191894D01*
X67907007Y-131186420D01*
X67817551Y-131005021D01*
X67696535Y-130842961D01*
X67564057Y-130720500D01*
X67552188Y-130709528D01*
X67552186Y-130709527D01*
X67548012Y-130705668D01*
X67376957Y-130597740D01*
X67189098Y-130522792D01*
X67183517Y-130521682D01*
X67183514Y-130521681D01*
X67115573Y-130508167D01*
X66990726Y-130483333D01*
X66985039Y-130483259D01*
X66985034Y-130483258D01*
X66794175Y-130480760D01*
X66794170Y-130480760D01*
X66788486Y-130480686D01*
X66782882Y-130481649D01*
X66782881Y-130481649D01*
X66594746Y-130513976D01*
X66594743Y-130513977D01*
X66589149Y-130514938D01*
X66567860Y-130522792D01*
X66404721Y-130582977D01*
X66404717Y-130582979D01*
X66399393Y-130584943D01*
X66394510Y-130587848D01*
X66394508Y-130587849D01*
X66248622Y-130674642D01*
X66225571Y-130688356D01*
X66073505Y-130821714D01*
X65948289Y-130980551D01*
X65945642Y-130985582D01*
X65867559Y-131133993D01*
X65854114Y-131159547D01*
X65852429Y-131164973D01*
X65852428Y-131164976D01*
X65823905Y-131256838D01*
X65794137Y-131352707D01*
X65770364Y-131553563D01*
X62897757Y-131553563D01*
X62881908Y-131381085D01*
X62837855Y-131224885D01*
X62828552Y-131191897D01*
X62828551Y-131191894D01*
X62827007Y-131186420D01*
X62737551Y-131005021D01*
X62616535Y-130842961D01*
X62484057Y-130720500D01*
X62472188Y-130709528D01*
X62472186Y-130709527D01*
X62468012Y-130705668D01*
X62296957Y-130597740D01*
X62109098Y-130522792D01*
X62103517Y-130521682D01*
X62103514Y-130521681D01*
X62035573Y-130508167D01*
X61910726Y-130483333D01*
X61905039Y-130483259D01*
X61905034Y-130483258D01*
X61714175Y-130480760D01*
X61714170Y-130480760D01*
X61708486Y-130480686D01*
X61702882Y-130481649D01*
X61702881Y-130481649D01*
X61514746Y-130513976D01*
X61514743Y-130513977D01*
X61509149Y-130514938D01*
X61487860Y-130522792D01*
X61324721Y-130582977D01*
X61324717Y-130582979D01*
X61319393Y-130584943D01*
X61314510Y-130587848D01*
X61314508Y-130587849D01*
X61168622Y-130674642D01*
X61145571Y-130688356D01*
X60993505Y-130821714D01*
X60868289Y-130980551D01*
X60865642Y-130985582D01*
X60787559Y-131133993D01*
X60774114Y-131159547D01*
X60772429Y-131164973D01*
X60772428Y-131164976D01*
X60743905Y-131256838D01*
X60714137Y-131352707D01*
X60690364Y-131553563D01*
X60157543Y-131553563D01*
X60126765Y-131444430D01*
X60121550Y-131433854D01*
X60031695Y-131251647D01*
X60029180Y-131246547D01*
X59897167Y-131069761D01*
X59735149Y-130919993D01*
X59700606Y-130898198D01*
X59553359Y-130805292D01*
X59553357Y-130805291D01*
X59548550Y-130802258D01*
X59343621Y-130720500D01*
X59338040Y-130719390D01*
X59338037Y-130719389D01*
X59235423Y-130698978D01*
X59127224Y-130677456D01*
X59121537Y-130677382D01*
X59121532Y-130677381D01*
X58912295Y-130674642D01*
X58912290Y-130674642D01*
X58906606Y-130674568D01*
X58901002Y-130675531D01*
X58901001Y-130675531D01*
X58694760Y-130710969D01*
X58694757Y-130710970D01*
X58689157Y-130711932D01*
X58482157Y-130788298D01*
X58453593Y-130805292D01*
X58308765Y-130891456D01*
X58292541Y-130901108D01*
X58126657Y-131046584D01*
X57990063Y-131219854D01*
X57987416Y-131224885D01*
X57911797Y-131368613D01*
X57887331Y-131415114D01*
X57821903Y-131625827D01*
X57821235Y-131631472D01*
X57821234Y-131631476D01*
X57810537Y-131721856D01*
X57795970Y-131844934D01*
X54582199Y-131844934D01*
X54579434Y-131835234D01*
X54599650Y-131768353D01*
X54651025Y-131723836D01*
X54797685Y-131655447D01*
X54807017Y-131650059D01*
X54977319Y-131530812D01*
X54985585Y-131523876D01*
X55132584Y-131376877D01*
X55139519Y-131368613D01*
X55258759Y-131198320D01*
X55264157Y-131188970D01*
X55352013Y-131000562D01*
X55355705Y-130990419D01*
X55409512Y-130789608D01*
X55410674Y-130783016D01*
X55407966Y-130769543D01*
X55396403Y-130766494D01*
X52955753Y-130766494D01*
X52941354Y-130770722D01*
X52939478Y-130781611D01*
X52940888Y-130789608D01*
X52994695Y-130990419D01*
X52998387Y-131000562D01*
X53086243Y-131188970D01*
X53091641Y-131198320D01*
X53210881Y-131368613D01*
X53217816Y-131376877D01*
X53364815Y-131523876D01*
X53373081Y-131530812D01*
X53543383Y-131650059D01*
X53552715Y-131655447D01*
X53699375Y-131723836D01*
X53751814Y-131770008D01*
X53770966Y-131837202D01*
X53750750Y-131904083D01*
X53699375Y-131948600D01*
X53547562Y-132019392D01*
X53543125Y-132022499D01*
X53543123Y-132022500D01*
X53372758Y-132141790D01*
X53372757Y-132141791D01*
X53368323Y-132144896D01*
X53213602Y-132299617D01*
X53210500Y-132304048D01*
X53210496Y-132304052D01*
X53117098Y-132437439D01*
X53088098Y-132478856D01*
X52995625Y-132677164D01*
X52994226Y-132682387D01*
X52994224Y-132682391D01*
X52960169Y-132809487D01*
X52938993Y-132888517D01*
X52919923Y-133106494D01*
X52339700Y-133106494D01*
X52339700Y-127144975D01*
X52924700Y-127144975D01*
X52924701Y-128908012D01*
X52939554Y-129001798D01*
X52997150Y-129114836D01*
X53086858Y-129204544D01*
X53199896Y-129262140D01*
X53229133Y-129266771D01*
X53288861Y-129276231D01*
X53288866Y-129276231D01*
X53293681Y-129276994D01*
X53444211Y-129276994D01*
X53511250Y-129296679D01*
X53557005Y-129349483D01*
X53566949Y-129418641D01*
X53537924Y-129482197D01*
X53515334Y-129502569D01*
X53373081Y-129602175D01*
X53364817Y-129609110D01*
X53217816Y-129756111D01*
X53210881Y-129764375D01*
X53091641Y-129934668D01*
X53086243Y-129944018D01*
X52998387Y-130132426D01*
X52994695Y-130142569D01*
X52940888Y-130343380D01*
X52939726Y-130349972D01*
X52942434Y-130363445D01*
X52953997Y-130366494D01*
X55394647Y-130366494D01*
X55409046Y-130362266D01*
X55410922Y-130351377D01*
X55409512Y-130343380D01*
X55355705Y-130142569D01*
X55352013Y-130132426D01*
X55264157Y-129944018D01*
X55258759Y-129934668D01*
X55139519Y-129764375D01*
X55132584Y-129756111D01*
X54985585Y-129609112D01*
X54977319Y-129602176D01*
X54835065Y-129502568D01*
X54791441Y-129447991D01*
X54784248Y-129378492D01*
X54815770Y-129316138D01*
X54876000Y-129280724D01*
X54906188Y-129276993D01*
X55056718Y-129276993D01*
X55129351Y-129265490D01*
X55140869Y-129263666D01*
X55140870Y-129263666D01*
X55150504Y-129262140D01*
X55263542Y-129204544D01*
X55353250Y-129114836D01*
X55410846Y-129001798D01*
X55416426Y-128966568D01*
X55424937Y-128912833D01*
X55424937Y-128912828D01*
X55425700Y-128908013D01*
X55425699Y-127743563D01*
X57388364Y-127743563D01*
X57388735Y-127749225D01*
X57388735Y-127749229D01*
X57394051Y-127830336D01*
X57401592Y-127945388D01*
X57451378Y-128141422D01*
X57536056Y-128325101D01*
X57652788Y-128490274D01*
X57797666Y-128631407D01*
X57965837Y-128743776D01*
X58151670Y-128823616D01*
X58188872Y-128832034D01*
X58343393Y-128866999D01*
X58343395Y-128866999D01*
X58348940Y-128868254D01*
X58466335Y-128872866D01*
X58545361Y-128875971D01*
X58545363Y-128875971D01*
X58551042Y-128876194D01*
X58556662Y-128875379D01*
X58556665Y-128875379D01*
X58745587Y-128847987D01*
X58745589Y-128847987D01*
X58751207Y-128847172D01*
X58756584Y-128845347D01*
X58756587Y-128845346D01*
X58841290Y-128816593D01*
X58942731Y-128782158D01*
X59119201Y-128683331D01*
X59181633Y-128631407D01*
X59270338Y-128557631D01*
X59274705Y-128553999D01*
X59331564Y-128485634D01*
X59400406Y-128402861D01*
X59400407Y-128402860D01*
X59404037Y-128398495D01*
X59502864Y-128222025D01*
X59558091Y-128059333D01*
X59566052Y-128035881D01*
X59566053Y-128035878D01*
X59567878Y-128030501D01*
X59581040Y-127939722D01*
X59596376Y-127833952D01*
X59596376Y-127833947D01*
X59596900Y-127830336D01*
X59598415Y-127772494D01*
X59595757Y-127743563D01*
X65008364Y-127743563D01*
X65008735Y-127749225D01*
X65008735Y-127749229D01*
X65014051Y-127830336D01*
X65021592Y-127945388D01*
X65071378Y-128141422D01*
X65156056Y-128325101D01*
X65272788Y-128490274D01*
X65417666Y-128631407D01*
X65585837Y-128743776D01*
X65771670Y-128823616D01*
X65808872Y-128832034D01*
X65963393Y-128866999D01*
X65963395Y-128866999D01*
X65968940Y-128868254D01*
X66086335Y-128872866D01*
X66165361Y-128875971D01*
X66165363Y-128875971D01*
X66171042Y-128876194D01*
X66176662Y-128875379D01*
X66176665Y-128875379D01*
X66365587Y-128847987D01*
X66365589Y-128847987D01*
X66371207Y-128847172D01*
X66376584Y-128845347D01*
X66376587Y-128845346D01*
X66461290Y-128816593D01*
X66562731Y-128782158D01*
X66739201Y-128683331D01*
X66801633Y-128631407D01*
X66890338Y-128557631D01*
X66894705Y-128553999D01*
X66951564Y-128485634D01*
X67020406Y-128402861D01*
X67020407Y-128402860D01*
X67024037Y-128398495D01*
X67122864Y-128222025D01*
X67178091Y-128059333D01*
X67186052Y-128035881D01*
X67186053Y-128035878D01*
X67187878Y-128030501D01*
X67201040Y-127939722D01*
X67216376Y-127833952D01*
X67216376Y-127833947D01*
X67216900Y-127830336D01*
X67218415Y-127772494D01*
X67215515Y-127740934D01*
X68971970Y-127740934D01*
X68972341Y-127746596D01*
X68972341Y-127746600D01*
X68978067Y-127833952D01*
X68986400Y-127961098D01*
X69040711Y-128174946D01*
X69133083Y-128375315D01*
X69136361Y-128379953D01*
X69256278Y-128549632D01*
X69260422Y-128555496D01*
X69264493Y-128559462D01*
X69264494Y-128559463D01*
X69414390Y-128705487D01*
X69414395Y-128705491D01*
X69418464Y-128709455D01*
X69423187Y-128712611D01*
X69423191Y-128712614D01*
X69507385Y-128768870D01*
X69601917Y-128832034D01*
X69804636Y-128919129D01*
X69910113Y-128942996D01*
X70014285Y-128966568D01*
X70014287Y-128966568D01*
X70019832Y-128967823D01*
X70157657Y-128973238D01*
X70234618Y-128976262D01*
X70234620Y-128976262D01*
X70240298Y-128976485D01*
X70245918Y-128975670D01*
X70245921Y-128975670D01*
X70453026Y-128945641D01*
X70453029Y-128945640D01*
X70458652Y-128944825D01*
X70567100Y-128908012D01*
X70662189Y-128875734D01*
X70662192Y-128875733D01*
X70667579Y-128873904D01*
X70860084Y-128766096D01*
X70890722Y-128740615D01*
X71025351Y-128628644D01*
X71029718Y-128625012D01*
X71088779Y-128553999D01*
X71167171Y-128459744D01*
X71167172Y-128459743D01*
X71170802Y-128455378D01*
X71278610Y-128262873D01*
X71290793Y-128226985D01*
X71347702Y-128059333D01*
X71349531Y-128053946D01*
X71352151Y-128035881D01*
X71380668Y-127839197D01*
X71381191Y-127835592D01*
X71382843Y-127772494D01*
X71379943Y-127740934D01*
X79131970Y-127740934D01*
X79132341Y-127746596D01*
X79132341Y-127746600D01*
X79138067Y-127833952D01*
X79146400Y-127961098D01*
X79200711Y-128174946D01*
X79293083Y-128375315D01*
X79296361Y-128379953D01*
X79416278Y-128549632D01*
X79420422Y-128555496D01*
X79424493Y-128559462D01*
X79424494Y-128559463D01*
X79574390Y-128705487D01*
X79574395Y-128705491D01*
X79578464Y-128709455D01*
X79583187Y-128712611D01*
X79583191Y-128712614D01*
X79667385Y-128768870D01*
X79761917Y-128832034D01*
X79964636Y-128919129D01*
X80070113Y-128942996D01*
X80174285Y-128966568D01*
X80174287Y-128966568D01*
X80179832Y-128967823D01*
X80317657Y-128973238D01*
X80394618Y-128976262D01*
X80394620Y-128976262D01*
X80400298Y-128976485D01*
X80405918Y-128975670D01*
X80405921Y-128975670D01*
X80613026Y-128945641D01*
X80613029Y-128945640D01*
X80618652Y-128944825D01*
X80727100Y-128908012D01*
X80822189Y-128875734D01*
X80822192Y-128875733D01*
X80827579Y-128873904D01*
X81020084Y-128766096D01*
X81050722Y-128740615D01*
X81185351Y-128628644D01*
X81189718Y-128625012D01*
X81248779Y-128553999D01*
X81327171Y-128459744D01*
X81327172Y-128459743D01*
X81330802Y-128455378D01*
X81438610Y-128262873D01*
X81450793Y-128226985D01*
X81507702Y-128059333D01*
X81509531Y-128053946D01*
X81512151Y-128035881D01*
X81540668Y-127839197D01*
X81541191Y-127835592D01*
X81542843Y-127772494D01*
X81522654Y-127552783D01*
X81462765Y-127340430D01*
X81365180Y-127142547D01*
X81233167Y-126965761D01*
X81071149Y-126815993D01*
X81028878Y-126789322D01*
X80889359Y-126701292D01*
X80889357Y-126701291D01*
X80884550Y-126698258D01*
X80679621Y-126616500D01*
X80674040Y-126615390D01*
X80674037Y-126615389D01*
X80571422Y-126594978D01*
X80463224Y-126573456D01*
X80457537Y-126573382D01*
X80457532Y-126573381D01*
X80248295Y-126570642D01*
X80248290Y-126570642D01*
X80242606Y-126570568D01*
X80237002Y-126571531D01*
X80237001Y-126571531D01*
X80030760Y-126606969D01*
X80030757Y-126606970D01*
X80025157Y-126607932D01*
X79818157Y-126684298D01*
X79731507Y-126735850D01*
X79641630Y-126789321D01*
X79628541Y-126797108D01*
X79462657Y-126942584D01*
X79326063Y-127115854D01*
X79323416Y-127120885D01*
X79313278Y-127140155D01*
X79223331Y-127311114D01*
X79221643Y-127316549D01*
X79221643Y-127316550D01*
X79204637Y-127371319D01*
X79157903Y-127521827D01*
X79157235Y-127527472D01*
X79157234Y-127527476D01*
X79132638Y-127735290D01*
X79131970Y-127740934D01*
X71379943Y-127740934D01*
X71362654Y-127552783D01*
X71302765Y-127340430D01*
X71205180Y-127142547D01*
X71073167Y-126965761D01*
X70911149Y-126815993D01*
X70868878Y-126789322D01*
X70729359Y-126701292D01*
X70729357Y-126701291D01*
X70724550Y-126698258D01*
X70519621Y-126616500D01*
X70514040Y-126615390D01*
X70514037Y-126615389D01*
X70411422Y-126594978D01*
X70303224Y-126573456D01*
X70297537Y-126573382D01*
X70297532Y-126573381D01*
X70088295Y-126570642D01*
X70088290Y-126570642D01*
X70082606Y-126570568D01*
X70077002Y-126571531D01*
X70077001Y-126571531D01*
X69870760Y-126606969D01*
X69870757Y-126606970D01*
X69865157Y-126607932D01*
X69658157Y-126684298D01*
X69571507Y-126735850D01*
X69481630Y-126789321D01*
X69468541Y-126797108D01*
X69302657Y-126942584D01*
X69166063Y-127115854D01*
X69163416Y-127120885D01*
X69153278Y-127140155D01*
X69063331Y-127311114D01*
X69061643Y-127316549D01*
X69061643Y-127316550D01*
X69044637Y-127371319D01*
X68997903Y-127521827D01*
X68997235Y-127527472D01*
X68997234Y-127527476D01*
X68972638Y-127735290D01*
X68971970Y-127740934D01*
X67215515Y-127740934D01*
X67199908Y-127571085D01*
X67145007Y-127376420D01*
X67055551Y-127195021D01*
X66934535Y-127032961D01*
X66831971Y-126938152D01*
X66790188Y-126899528D01*
X66790186Y-126899527D01*
X66786012Y-126895668D01*
X66665853Y-126819853D01*
X66619766Y-126790774D01*
X66619764Y-126790773D01*
X66614957Y-126787740D01*
X66427098Y-126712792D01*
X66421517Y-126711682D01*
X66421514Y-126711681D01*
X66343439Y-126696151D01*
X66228726Y-126673333D01*
X66223039Y-126673259D01*
X66223034Y-126673258D01*
X66032175Y-126670760D01*
X66032170Y-126670760D01*
X66026486Y-126670686D01*
X66020882Y-126671649D01*
X66020881Y-126671649D01*
X65832746Y-126703976D01*
X65832743Y-126703977D01*
X65827149Y-126704938D01*
X65805860Y-126712792D01*
X65642721Y-126772977D01*
X65642717Y-126772979D01*
X65637393Y-126774943D01*
X65632510Y-126777848D01*
X65632508Y-126777849D01*
X65502247Y-126855346D01*
X65463571Y-126878356D01*
X65311505Y-127011714D01*
X65186289Y-127170551D01*
X65092114Y-127349547D01*
X65090429Y-127354973D01*
X65090428Y-127354976D01*
X65083770Y-127376420D01*
X65032137Y-127542707D01*
X65008364Y-127743563D01*
X59595757Y-127743563D01*
X59579908Y-127571085D01*
X59525007Y-127376420D01*
X59435551Y-127195021D01*
X59314535Y-127032961D01*
X59211971Y-126938152D01*
X59170188Y-126899528D01*
X59170186Y-126899527D01*
X59166012Y-126895668D01*
X59045853Y-126819853D01*
X58999766Y-126790774D01*
X58999764Y-126790773D01*
X58994957Y-126787740D01*
X58807098Y-126712792D01*
X58801517Y-126711682D01*
X58801514Y-126711681D01*
X58723439Y-126696151D01*
X58608726Y-126673333D01*
X58603039Y-126673259D01*
X58603034Y-126673258D01*
X58412175Y-126670760D01*
X58412170Y-126670760D01*
X58406486Y-126670686D01*
X58400882Y-126671649D01*
X58400881Y-126671649D01*
X58212746Y-126703976D01*
X58212743Y-126703977D01*
X58207149Y-126704938D01*
X58185860Y-126712792D01*
X58022721Y-126772977D01*
X58022717Y-126772979D01*
X58017393Y-126774943D01*
X58012510Y-126777848D01*
X58012508Y-126777849D01*
X57882247Y-126855346D01*
X57843571Y-126878356D01*
X57691505Y-127011714D01*
X57566289Y-127170551D01*
X57472114Y-127349547D01*
X57470429Y-127354973D01*
X57470428Y-127354976D01*
X57463770Y-127376420D01*
X57412137Y-127542707D01*
X57388364Y-127743563D01*
X55425699Y-127743563D01*
X55425699Y-127144976D01*
X55410846Y-127051190D01*
X55353250Y-126938152D01*
X55263542Y-126848444D01*
X55150504Y-126790848D01*
X55117578Y-126785633D01*
X55061539Y-126776757D01*
X55061534Y-126776757D01*
X55056719Y-126775994D01*
X55051841Y-126775994D01*
X54174568Y-126775995D01*
X53293682Y-126775995D01*
X53221049Y-126787498D01*
X53209531Y-126789322D01*
X53209530Y-126789322D01*
X53199896Y-126790848D01*
X53086858Y-126848444D01*
X52997150Y-126938152D01*
X52939554Y-127051190D01*
X52924700Y-127144975D01*
X52339700Y-127144975D01*
X52339700Y-125806994D01*
X52359385Y-125739955D01*
X52412189Y-125694200D01*
X52463700Y-125682994D01*
X85096700Y-125682994D01*
X85163739Y-125702679D01*
G37*
%TD.AperFunction*%
%TA.AperFunction,NonConductor*%
G36*
X85141339Y-101191679D02*
G01*
X85187094Y-101244483D01*
X85198300Y-101295994D01*
X85198300Y-121990994D01*
X85178615Y-122058033D01*
X85125811Y-122103788D01*
X85074300Y-122114994D01*
X52441300Y-122114994D01*
X52374261Y-122095309D01*
X52328506Y-122042505D01*
X52317300Y-121990994D01*
X52317300Y-119234563D01*
X57111964Y-119234563D01*
X57112335Y-119240225D01*
X57112335Y-119240229D01*
X57117888Y-119324952D01*
X57125192Y-119436388D01*
X57174978Y-119632422D01*
X57177354Y-119637576D01*
X57221553Y-119733449D01*
X57259656Y-119816101D01*
X57376388Y-119981274D01*
X57521266Y-120122407D01*
X57689437Y-120234776D01*
X57875270Y-120314616D01*
X57902869Y-120320861D01*
X58066993Y-120357999D01*
X58066995Y-120357999D01*
X58072540Y-120359254D01*
X58183849Y-120363627D01*
X58268961Y-120366971D01*
X58268963Y-120366971D01*
X58274642Y-120367194D01*
X58280262Y-120366379D01*
X58280265Y-120366379D01*
X58469187Y-120338987D01*
X58469189Y-120338987D01*
X58474807Y-120338172D01*
X58480184Y-120336347D01*
X58480187Y-120336346D01*
X58564890Y-120307593D01*
X58666331Y-120273158D01*
X58842801Y-120174331D01*
X58858312Y-120161431D01*
X58993938Y-120048631D01*
X58998305Y-120044999D01*
X59055164Y-119976634D01*
X59124006Y-119893861D01*
X59124007Y-119893860D01*
X59127637Y-119889495D01*
X59226464Y-119713025D01*
X59291478Y-119521501D01*
X59304640Y-119430722D01*
X59319976Y-119324952D01*
X59319976Y-119324947D01*
X59320500Y-119321336D01*
X59322015Y-119263494D01*
X59319357Y-119234563D01*
X62191964Y-119234563D01*
X62192335Y-119240225D01*
X62192335Y-119240229D01*
X62197888Y-119324952D01*
X62205192Y-119436388D01*
X62254978Y-119632422D01*
X62257354Y-119637576D01*
X62301553Y-119733449D01*
X62339656Y-119816101D01*
X62456388Y-119981274D01*
X62601266Y-120122407D01*
X62769437Y-120234776D01*
X62955270Y-120314616D01*
X62982869Y-120320861D01*
X63146993Y-120357999D01*
X63146995Y-120357999D01*
X63152540Y-120359254D01*
X63263849Y-120363627D01*
X63348961Y-120366971D01*
X63348963Y-120366971D01*
X63354642Y-120367194D01*
X63360262Y-120366379D01*
X63360265Y-120366379D01*
X63549187Y-120338987D01*
X63549189Y-120338987D01*
X63554807Y-120338172D01*
X63560184Y-120336347D01*
X63560187Y-120336346D01*
X63644890Y-120307593D01*
X63746331Y-120273158D01*
X63922801Y-120174331D01*
X63938312Y-120161431D01*
X64073938Y-120048631D01*
X64078305Y-120044999D01*
X64135164Y-119976634D01*
X64204006Y-119893861D01*
X64204007Y-119893860D01*
X64207637Y-119889495D01*
X64306464Y-119713025D01*
X64371478Y-119521501D01*
X64384640Y-119430722D01*
X64399976Y-119324952D01*
X64399976Y-119324947D01*
X64400500Y-119321336D01*
X64402015Y-119263494D01*
X64399236Y-119233248D01*
X69363767Y-119233248D01*
X69364138Y-119238910D01*
X69364138Y-119238914D01*
X69365749Y-119263494D01*
X69377596Y-119444243D01*
X69429645Y-119649184D01*
X69432019Y-119654335D01*
X69432021Y-119654339D01*
X69508733Y-119820739D01*
X69518169Y-119841208D01*
X69521447Y-119845846D01*
X69617158Y-119981274D01*
X69640205Y-120013885D01*
X69644276Y-120017851D01*
X69644277Y-120017852D01*
X69672144Y-120044999D01*
X69791665Y-120161431D01*
X69796388Y-120164587D01*
X69796392Y-120164590D01*
X69867463Y-120212078D01*
X69967477Y-120278905D01*
X70161753Y-120362372D01*
X70225083Y-120376702D01*
X70362438Y-120407783D01*
X70362442Y-120407784D01*
X70367986Y-120409038D01*
X70494451Y-120414007D01*
X70573589Y-120417117D01*
X70573591Y-120417117D01*
X70579270Y-120417340D01*
X70584890Y-120416525D01*
X70584892Y-120416525D01*
X70782903Y-120387814D01*
X70782904Y-120387814D01*
X70788530Y-120386998D01*
X70869605Y-120359477D01*
X70983365Y-120320861D01*
X70983368Y-120320860D01*
X70988755Y-120319031D01*
X70993716Y-120316253D01*
X70993722Y-120316250D01*
X71135192Y-120237022D01*
X71173242Y-120215713D01*
X71219664Y-120177105D01*
X71331445Y-120084138D01*
X71335812Y-120080506D01*
X71368975Y-120040632D01*
X71467384Y-119922307D01*
X71467385Y-119922305D01*
X71471019Y-119917936D01*
X71530938Y-119810943D01*
X71571556Y-119738416D01*
X71571559Y-119738410D01*
X71574337Y-119733449D01*
X71579587Y-119717985D01*
X71640475Y-119538612D01*
X71642304Y-119533224D01*
X71672646Y-119323964D01*
X71674229Y-119263494D01*
X71671450Y-119233248D01*
X74243767Y-119233248D01*
X74244138Y-119238910D01*
X74244138Y-119238914D01*
X74245749Y-119263494D01*
X74257596Y-119444243D01*
X74309645Y-119649184D01*
X74312019Y-119654335D01*
X74312021Y-119654339D01*
X74388733Y-119820739D01*
X74398169Y-119841208D01*
X74401447Y-119845846D01*
X74497158Y-119981274D01*
X74520205Y-120013885D01*
X74524276Y-120017851D01*
X74524277Y-120017852D01*
X74552144Y-120044999D01*
X74671665Y-120161431D01*
X74676388Y-120164587D01*
X74676392Y-120164590D01*
X74747463Y-120212078D01*
X74847477Y-120278905D01*
X75041753Y-120362372D01*
X75105083Y-120376702D01*
X75242438Y-120407783D01*
X75242442Y-120407784D01*
X75247986Y-120409038D01*
X75374451Y-120414007D01*
X75453589Y-120417117D01*
X75453591Y-120417117D01*
X75459270Y-120417340D01*
X75464890Y-120416525D01*
X75464892Y-120416525D01*
X75662903Y-120387814D01*
X75662904Y-120387814D01*
X75668530Y-120386998D01*
X75749605Y-120359477D01*
X75863365Y-120320861D01*
X75863368Y-120320860D01*
X75868755Y-120319031D01*
X75873716Y-120316253D01*
X75873722Y-120316250D01*
X76015192Y-120237022D01*
X76053242Y-120215713D01*
X76099664Y-120177105D01*
X76211445Y-120084138D01*
X76215812Y-120080506D01*
X76248975Y-120040632D01*
X76347384Y-119922307D01*
X76347385Y-119922305D01*
X76351019Y-119917936D01*
X76410938Y-119810943D01*
X76451556Y-119738416D01*
X76451559Y-119738410D01*
X76454337Y-119733449D01*
X76459587Y-119717985D01*
X76520475Y-119538612D01*
X76522304Y-119533224D01*
X76552646Y-119323964D01*
X76554229Y-119263494D01*
X76534881Y-119052934D01*
X76477486Y-118849425D01*
X76383965Y-118659784D01*
X76257451Y-118490361D01*
X76253281Y-118486506D01*
X76253278Y-118486503D01*
X76123400Y-118366446D01*
X76102181Y-118346831D01*
X76068890Y-118325826D01*
X75928163Y-118237033D01*
X75928161Y-118237032D01*
X75923354Y-118233999D01*
X75726960Y-118155646D01*
X75721379Y-118154536D01*
X75721376Y-118154535D01*
X75623267Y-118135020D01*
X75519575Y-118114395D01*
X75513888Y-118114321D01*
X75513883Y-118114320D01*
X75313834Y-118111701D01*
X75313829Y-118111701D01*
X75308146Y-118111627D01*
X75302542Y-118112590D01*
X75302541Y-118112590D01*
X75105350Y-118146473D01*
X75105347Y-118146474D01*
X75099753Y-118147435D01*
X74901375Y-118220621D01*
X74896497Y-118223523D01*
X74896495Y-118223524D01*
X74724540Y-118325826D01*
X74724537Y-118325828D01*
X74719656Y-118328732D01*
X74560681Y-118468149D01*
X74557162Y-118472613D01*
X74557159Y-118472616D01*
X74498531Y-118546986D01*
X74429776Y-118634202D01*
X74331323Y-118821330D01*
X74329637Y-118826761D01*
X74329635Y-118826765D01*
X74315311Y-118872897D01*
X74268620Y-119023267D01*
X74267952Y-119028912D01*
X74267951Y-119028916D01*
X74263355Y-119067748D01*
X74243767Y-119233248D01*
X71671450Y-119233248D01*
X71654881Y-119052934D01*
X71597486Y-118849425D01*
X71503965Y-118659784D01*
X71377451Y-118490361D01*
X71373281Y-118486506D01*
X71373278Y-118486503D01*
X71243400Y-118366446D01*
X71222181Y-118346831D01*
X71188890Y-118325826D01*
X71048163Y-118237033D01*
X71048161Y-118237032D01*
X71043354Y-118233999D01*
X70846960Y-118155646D01*
X70841379Y-118154536D01*
X70841376Y-118154535D01*
X70743267Y-118135020D01*
X70639575Y-118114395D01*
X70633888Y-118114321D01*
X70633883Y-118114320D01*
X70433834Y-118111701D01*
X70433829Y-118111701D01*
X70428146Y-118111627D01*
X70422542Y-118112590D01*
X70422541Y-118112590D01*
X70225350Y-118146473D01*
X70225347Y-118146474D01*
X70219753Y-118147435D01*
X70021375Y-118220621D01*
X70016497Y-118223523D01*
X70016495Y-118223524D01*
X69844540Y-118325826D01*
X69844537Y-118325828D01*
X69839656Y-118328732D01*
X69680681Y-118468149D01*
X69677162Y-118472613D01*
X69677159Y-118472616D01*
X69618531Y-118546986D01*
X69549776Y-118634202D01*
X69451323Y-118821330D01*
X69449637Y-118826761D01*
X69449635Y-118826765D01*
X69435311Y-118872897D01*
X69388620Y-119023267D01*
X69387952Y-119028912D01*
X69387951Y-119028916D01*
X69383355Y-119067748D01*
X69363767Y-119233248D01*
X64399236Y-119233248D01*
X64383508Y-119062085D01*
X64328607Y-118867420D01*
X64239151Y-118686021D01*
X64118135Y-118523961D01*
X63969612Y-118386668D01*
X63912592Y-118350691D01*
X63803366Y-118281774D01*
X63803364Y-118281773D01*
X63798557Y-118278740D01*
X63610698Y-118203792D01*
X63605117Y-118202682D01*
X63605114Y-118202681D01*
X63537173Y-118189167D01*
X63412326Y-118164333D01*
X63406639Y-118164259D01*
X63406634Y-118164258D01*
X63215775Y-118161760D01*
X63215770Y-118161760D01*
X63210086Y-118161686D01*
X63204482Y-118162649D01*
X63204481Y-118162649D01*
X63016346Y-118194976D01*
X63016343Y-118194977D01*
X63010749Y-118195938D01*
X62989460Y-118203792D01*
X62826321Y-118263977D01*
X62826317Y-118263979D01*
X62820993Y-118265943D01*
X62816110Y-118268848D01*
X62816108Y-118268849D01*
X62685032Y-118346831D01*
X62647171Y-118369356D01*
X62495105Y-118502714D01*
X62369889Y-118661551D01*
X62275714Y-118840547D01*
X62274029Y-118845973D01*
X62274028Y-118845976D01*
X62267370Y-118867420D01*
X62215737Y-119033707D01*
X62191964Y-119234563D01*
X59319357Y-119234563D01*
X59303508Y-119062085D01*
X59248607Y-118867420D01*
X59159151Y-118686021D01*
X59038135Y-118523961D01*
X58889612Y-118386668D01*
X58832592Y-118350691D01*
X58723366Y-118281774D01*
X58723364Y-118281773D01*
X58718557Y-118278740D01*
X58530698Y-118203792D01*
X58525117Y-118202682D01*
X58525114Y-118202681D01*
X58457173Y-118189167D01*
X58332326Y-118164333D01*
X58326639Y-118164259D01*
X58326634Y-118164258D01*
X58135775Y-118161760D01*
X58135770Y-118161760D01*
X58130086Y-118161686D01*
X58124482Y-118162649D01*
X58124481Y-118162649D01*
X57936346Y-118194976D01*
X57936343Y-118194977D01*
X57930749Y-118195938D01*
X57909460Y-118203792D01*
X57746321Y-118263977D01*
X57746317Y-118263979D01*
X57740993Y-118265943D01*
X57736110Y-118268848D01*
X57736108Y-118268849D01*
X57605032Y-118346831D01*
X57567171Y-118369356D01*
X57415105Y-118502714D01*
X57289889Y-118661551D01*
X57195714Y-118840547D01*
X57194029Y-118845973D01*
X57194028Y-118845976D01*
X57187370Y-118867420D01*
X57135737Y-119033707D01*
X57111964Y-119234563D01*
X52317300Y-119234563D01*
X52317300Y-113342556D01*
X58289650Y-113342556D01*
X58299375Y-113354847D01*
X58399026Y-113421433D01*
X58408984Y-113426839D01*
X58601166Y-113509406D01*
X58611938Y-113512906D01*
X58815951Y-113559070D01*
X58827181Y-113560548D01*
X59036191Y-113568760D01*
X59047495Y-113568168D01*
X59254515Y-113538152D01*
X59265515Y-113535511D01*
X59463589Y-113468273D01*
X59473940Y-113463665D01*
X59656434Y-113361462D01*
X59663369Y-113356697D01*
X59671158Y-113345099D01*
X59665084Y-113334621D01*
X58991407Y-112660944D01*
X58977687Y-112653452D01*
X58975881Y-112653581D01*
X58969374Y-112657763D01*
X58295746Y-113331391D01*
X58289650Y-113342556D01*
X52317300Y-113342556D01*
X52317300Y-112339620D01*
X57774444Y-112339620D01*
X57788125Y-112548354D01*
X57789894Y-112559524D01*
X57841387Y-112762277D01*
X57845160Y-112772933D01*
X57932739Y-112962906D01*
X57938395Y-112972702D01*
X57990364Y-113046237D01*
X58000786Y-113054493D01*
X58013874Y-113047577D01*
X58683350Y-112378101D01*
X58689626Y-112366607D01*
X59266758Y-112366607D01*
X59266887Y-112368413D01*
X59271069Y-112374920D01*
X59946783Y-113050634D01*
X59959878Y-113057784D01*
X59969281Y-113051114D01*
X59974768Y-113043128D01*
X60065042Y-112881934D01*
X63147570Y-112881934D01*
X63147941Y-112887596D01*
X63147941Y-112887600D01*
X63153774Y-112976592D01*
X63162000Y-113102098D01*
X63216311Y-113315946D01*
X63218687Y-113321100D01*
X63264942Y-113421433D01*
X63308683Y-113516315D01*
X63311961Y-113520953D01*
X63379716Y-113616824D01*
X63436022Y-113696496D01*
X63440093Y-113700462D01*
X63440094Y-113700463D01*
X63589990Y-113846487D01*
X63589995Y-113846491D01*
X63594064Y-113850455D01*
X63598787Y-113853611D01*
X63598791Y-113853614D01*
X63682374Y-113909462D01*
X63777517Y-113973034D01*
X63980236Y-114060129D01*
X64083569Y-114083511D01*
X64189885Y-114107568D01*
X64189887Y-114107568D01*
X64195432Y-114108823D01*
X64333257Y-114114238D01*
X64410218Y-114117262D01*
X64410220Y-114117262D01*
X64415898Y-114117485D01*
X64421518Y-114116670D01*
X64421521Y-114116670D01*
X64628626Y-114086641D01*
X64628629Y-114086640D01*
X64634252Y-114085825D01*
X64749820Y-114046595D01*
X64837789Y-114016734D01*
X64837792Y-114016733D01*
X64843179Y-114014904D01*
X64983960Y-113936063D01*
X65030731Y-113909870D01*
X65030732Y-113909869D01*
X65035684Y-113907096D01*
X65040208Y-113903334D01*
X65055572Y-113890556D01*
X68663650Y-113890556D01*
X68673375Y-113902847D01*
X68773026Y-113969433D01*
X68782984Y-113974839D01*
X68975166Y-114057406D01*
X68985938Y-114060906D01*
X69189951Y-114107070D01*
X69201181Y-114108548D01*
X69410191Y-114116760D01*
X69421495Y-114116168D01*
X69628515Y-114086152D01*
X69639515Y-114083511D01*
X69837589Y-114016273D01*
X69847940Y-114011665D01*
X70030434Y-113909462D01*
X70037369Y-113904697D01*
X70045158Y-113893099D01*
X70039084Y-113882621D01*
X69952566Y-113796103D01*
X73293801Y-113796103D01*
X73294563Y-113805783D01*
X73307109Y-113885007D01*
X73313064Y-113903334D01*
X73361729Y-113998844D01*
X73373061Y-114014441D01*
X73448853Y-114090233D01*
X73464450Y-114101565D01*
X73559955Y-114150228D01*
X73578295Y-114156186D01*
X73657497Y-114168730D01*
X73667199Y-114169494D01*
X74000970Y-114169494D01*
X74015969Y-114165090D01*
X74017156Y-114163720D01*
X74018800Y-114156162D01*
X74018800Y-114151663D01*
X74418800Y-114151663D01*
X74423204Y-114166662D01*
X74424574Y-114167849D01*
X74432132Y-114169493D01*
X74770409Y-114169493D01*
X74780089Y-114168731D01*
X74859313Y-114156185D01*
X74877640Y-114150230D01*
X74973149Y-114101566D01*
X74978013Y-114098032D01*
X75043820Y-114074552D01*
X75101333Y-114085070D01*
X75195286Y-114126900D01*
X75195294Y-114126903D01*
X75201229Y-114129545D01*
X75207591Y-114130897D01*
X75207590Y-114130897D01*
X75385163Y-114168642D01*
X75385168Y-114168642D01*
X75391526Y-114169994D01*
X75586074Y-114169994D01*
X75592432Y-114168642D01*
X75592437Y-114168642D01*
X75770010Y-114130897D01*
X75770009Y-114130897D01*
X75776371Y-114129545D01*
X75803459Y-114117485D01*
X75948163Y-114053059D01*
X75948164Y-114053058D01*
X75954099Y-114050416D01*
X76050915Y-113980075D01*
X76116721Y-113956595D01*
X76184775Y-113972420D01*
X76196685Y-113980075D01*
X76293501Y-114050416D01*
X76299436Y-114053058D01*
X76299437Y-114053059D01*
X76444142Y-114117485D01*
X76471229Y-114129545D01*
X76477591Y-114130897D01*
X76477590Y-114130897D01*
X76655163Y-114168642D01*
X76655168Y-114168642D01*
X76661526Y-114169994D01*
X76856074Y-114169994D01*
X76862432Y-114168642D01*
X76862437Y-114168642D01*
X77040010Y-114130897D01*
X77040009Y-114130897D01*
X77046371Y-114129545D01*
X77073459Y-114117485D01*
X77218163Y-114053059D01*
X77218164Y-114053058D01*
X77224099Y-114050416D01*
X77381492Y-113936063D01*
X77427463Y-113885007D01*
X77507323Y-113796314D01*
X77507324Y-113796313D01*
X77511670Y-113791486D01*
X77608944Y-113623002D01*
X77669062Y-113437976D01*
X77684300Y-113292998D01*
X77684300Y-112745990D01*
X77669062Y-112601012D01*
X77608944Y-112415986D01*
X77511670Y-112247502D01*
X77397382Y-112120572D01*
X77385841Y-112107755D01*
X77381492Y-112102925D01*
X77354872Y-112083584D01*
X77229358Y-111992393D01*
X77229359Y-111992393D01*
X77224099Y-111988572D01*
X77146354Y-111953958D01*
X77052310Y-111912087D01*
X77052308Y-111912086D01*
X77046371Y-111909443D01*
X76998549Y-111899278D01*
X76862437Y-111870346D01*
X76862432Y-111870346D01*
X76856074Y-111868994D01*
X76661526Y-111868994D01*
X76655168Y-111870346D01*
X76655163Y-111870346D01*
X76519051Y-111899278D01*
X76471229Y-111909443D01*
X76465292Y-111912086D01*
X76465290Y-111912087D01*
X76371246Y-111953958D01*
X76293501Y-111988572D01*
X76288241Y-111992393D01*
X76288242Y-111992393D01*
X76196685Y-112058913D01*
X76130879Y-112082393D01*
X76062825Y-112066568D01*
X76050915Y-112058913D01*
X75959358Y-111992393D01*
X75959359Y-111992393D01*
X75954099Y-111988572D01*
X75876354Y-111953958D01*
X75782310Y-111912087D01*
X75782308Y-111912086D01*
X75776371Y-111909443D01*
X75728549Y-111899278D01*
X75592437Y-111870346D01*
X75592432Y-111870346D01*
X75586074Y-111868994D01*
X75391526Y-111868994D01*
X75385168Y-111870346D01*
X75385163Y-111870346D01*
X75249051Y-111899278D01*
X75201229Y-111909443D01*
X75195294Y-111912085D01*
X75195286Y-111912088D01*
X75101333Y-111953918D01*
X75032083Y-111963202D01*
X74978013Y-111940956D01*
X74973149Y-111937422D01*
X74877645Y-111888760D01*
X74859305Y-111882802D01*
X74780103Y-111870258D01*
X74770401Y-111869494D01*
X74436630Y-111869494D01*
X74421631Y-111873898D01*
X74420444Y-111875268D01*
X74418800Y-111882826D01*
X74418800Y-114151663D01*
X74018800Y-114151663D01*
X74018800Y-113237324D01*
X74014396Y-113222325D01*
X74013026Y-113221138D01*
X74005468Y-113219494D01*
X73311631Y-113219494D01*
X73296632Y-113223898D01*
X73295445Y-113225268D01*
X73293801Y-113232826D01*
X73293801Y-113796103D01*
X69952566Y-113796103D01*
X69365407Y-113208944D01*
X69351687Y-113201452D01*
X69349881Y-113201581D01*
X69343374Y-113205763D01*
X68669746Y-113879391D01*
X68663650Y-113890556D01*
X65055572Y-113890556D01*
X65200951Y-113769644D01*
X65205318Y-113766012D01*
X65263134Y-113696496D01*
X65342771Y-113600744D01*
X65342772Y-113600743D01*
X65346402Y-113596378D01*
X65362201Y-113568168D01*
X65451431Y-113408835D01*
X65454210Y-113403873D01*
X65485982Y-113310277D01*
X65492947Y-113289756D01*
X65525131Y-113194946D01*
X65556791Y-112976592D01*
X65558443Y-112913494D01*
X65556065Y-112887620D01*
X68148444Y-112887620D01*
X68162125Y-113096354D01*
X68163894Y-113107524D01*
X68215387Y-113310277D01*
X68219160Y-113320933D01*
X68306739Y-113510906D01*
X68312395Y-113520702D01*
X68364364Y-113594237D01*
X68374786Y-113602493D01*
X68387874Y-113595577D01*
X69057350Y-112926101D01*
X69063626Y-112914607D01*
X69640758Y-112914607D01*
X69640887Y-112916413D01*
X69645069Y-112922920D01*
X70320783Y-113598634D01*
X70333878Y-113605784D01*
X70343281Y-113599114D01*
X70348768Y-113591128D01*
X70450971Y-113408634D01*
X70455579Y-113398283D01*
X70522817Y-113200209D01*
X70525458Y-113189209D01*
X70555765Y-112980182D01*
X70556385Y-112972908D01*
X70557845Y-112917155D01*
X70557606Y-112909853D01*
X70547665Y-112801664D01*
X73293800Y-112801664D01*
X73298204Y-112816663D01*
X73299574Y-112817850D01*
X73307132Y-112819494D01*
X74000970Y-112819494D01*
X74015969Y-112815090D01*
X74017156Y-112813720D01*
X74018800Y-112806162D01*
X74018800Y-111887325D01*
X74014396Y-111872326D01*
X74013026Y-111871139D01*
X74005468Y-111869495D01*
X73667191Y-111869495D01*
X73657511Y-111870257D01*
X73578287Y-111882803D01*
X73559960Y-111888758D01*
X73464450Y-111937423D01*
X73448853Y-111948755D01*
X73373061Y-112024547D01*
X73361729Y-112040144D01*
X73313066Y-112135649D01*
X73307108Y-112153989D01*
X73294564Y-112233191D01*
X73293800Y-112242893D01*
X73293800Y-112801664D01*
X70547665Y-112801664D01*
X70538281Y-112699534D01*
X70536217Y-112688401D01*
X70479439Y-112487082D01*
X70475382Y-112476511D01*
X70382867Y-112288910D01*
X70376950Y-112279254D01*
X70341846Y-112232245D01*
X70330765Y-112223929D01*
X70318544Y-112230593D01*
X69648250Y-112900887D01*
X69640758Y-112914607D01*
X69063626Y-112914607D01*
X69064842Y-112912381D01*
X69064713Y-112910575D01*
X69060531Y-112904068D01*
X68386212Y-112229749D01*
X68373577Y-112222850D01*
X68363058Y-112230521D01*
X68345604Y-112252662D01*
X68339437Y-112262158D01*
X68242041Y-112447278D01*
X68237708Y-112457739D01*
X68175680Y-112657501D01*
X68173326Y-112668572D01*
X68148740Y-112876301D01*
X68148444Y-112887620D01*
X65556065Y-112887620D01*
X65538254Y-112693783D01*
X65478365Y-112481430D01*
X65380780Y-112283547D01*
X65248767Y-112106761D01*
X65086749Y-111956993D01*
X65081939Y-111953958D01*
X65049539Y-111933515D01*
X68660487Y-111933515D01*
X68663917Y-111941768D01*
X69340193Y-112618044D01*
X69353913Y-112625536D01*
X69355719Y-112625407D01*
X69362226Y-112621225D01*
X70036813Y-111946638D01*
X70043464Y-111934457D01*
X70037529Y-111926528D01*
X69904732Y-111842740D01*
X69894641Y-111837599D01*
X69700367Y-111760091D01*
X69689495Y-111756870D01*
X69484356Y-111716066D01*
X69473080Y-111714880D01*
X69263935Y-111712142D01*
X69252641Y-111713031D01*
X69046490Y-111748454D01*
X69035554Y-111751385D01*
X68839305Y-111823784D01*
X68829087Y-111828658D01*
X68669933Y-111923345D01*
X68660487Y-111933515D01*
X65049539Y-111933515D01*
X64904959Y-111842292D01*
X64904957Y-111842291D01*
X64900150Y-111839258D01*
X64695221Y-111757500D01*
X64689640Y-111756390D01*
X64689637Y-111756389D01*
X64563273Y-111731254D01*
X64478824Y-111714456D01*
X64473137Y-111714382D01*
X64473132Y-111714381D01*
X64263895Y-111711642D01*
X64263890Y-111711642D01*
X64258206Y-111711568D01*
X64252602Y-111712531D01*
X64252601Y-111712531D01*
X64046360Y-111747969D01*
X64046357Y-111747970D01*
X64040757Y-111748932D01*
X63833757Y-111825298D01*
X63805193Y-111842292D01*
X63687877Y-111912088D01*
X63644141Y-111938108D01*
X63478257Y-112083584D01*
X63341663Y-112256854D01*
X63339016Y-112261885D01*
X63282969Y-112368413D01*
X63238931Y-112452114D01*
X63237243Y-112457549D01*
X63237243Y-112457550D01*
X63229828Y-112481430D01*
X63173503Y-112662827D01*
X63172835Y-112668472D01*
X63172834Y-112668476D01*
X63155295Y-112816663D01*
X63147570Y-112881934D01*
X60065042Y-112881934D01*
X60076971Y-112860634D01*
X60081579Y-112850283D01*
X60148817Y-112652209D01*
X60151458Y-112641209D01*
X60181765Y-112432182D01*
X60182385Y-112424908D01*
X60183845Y-112369155D01*
X60183606Y-112361853D01*
X60164281Y-112151534D01*
X60162217Y-112140401D01*
X60105439Y-111939082D01*
X60101382Y-111928511D01*
X60008867Y-111740910D01*
X60002950Y-111731254D01*
X59967846Y-111684245D01*
X59956765Y-111675929D01*
X59944544Y-111682593D01*
X59274250Y-112352887D01*
X59266758Y-112366607D01*
X58689626Y-112366607D01*
X58690842Y-112364381D01*
X58690713Y-112362575D01*
X58686531Y-112356068D01*
X58012212Y-111681749D01*
X57999577Y-111674850D01*
X57989058Y-111682521D01*
X57971604Y-111704662D01*
X57965437Y-111714158D01*
X57868041Y-111899278D01*
X57863708Y-111909739D01*
X57801680Y-112109501D01*
X57799326Y-112120572D01*
X57774740Y-112328301D01*
X57774444Y-112339620D01*
X52317300Y-112339620D01*
X52317300Y-111385515D01*
X58286487Y-111385515D01*
X58289917Y-111393768D01*
X58966193Y-112070044D01*
X58979913Y-112077536D01*
X58981719Y-112077407D01*
X58988226Y-112073225D01*
X59662813Y-111398638D01*
X59669464Y-111386457D01*
X59663529Y-111378528D01*
X59530732Y-111294740D01*
X59520641Y-111289599D01*
X59434177Y-111255103D01*
X81858801Y-111255103D01*
X81859563Y-111264783D01*
X81872109Y-111344007D01*
X81878064Y-111362334D01*
X81926729Y-111457844D01*
X81938061Y-111473441D01*
X82013853Y-111549233D01*
X82029450Y-111560565D01*
X82124955Y-111609228D01*
X82143295Y-111615186D01*
X82222497Y-111627730D01*
X82232199Y-111628494D01*
X82890970Y-111628494D01*
X82905969Y-111624090D01*
X82907156Y-111622720D01*
X82908800Y-111615162D01*
X82908800Y-111610663D01*
X83308800Y-111610663D01*
X83313204Y-111625662D01*
X83314574Y-111626849D01*
X83322132Y-111628493D01*
X83985409Y-111628493D01*
X83995089Y-111627731D01*
X84074313Y-111615185D01*
X84092640Y-111609230D01*
X84188150Y-111560565D01*
X84203747Y-111549233D01*
X84279539Y-111473441D01*
X84290871Y-111457844D01*
X84339534Y-111362339D01*
X84345492Y-111343999D01*
X84358036Y-111264797D01*
X84358800Y-111255095D01*
X84358800Y-110596324D01*
X84354396Y-110581325D01*
X84353026Y-110580138D01*
X84345468Y-110578494D01*
X83326630Y-110578494D01*
X83311631Y-110582898D01*
X83310444Y-110584268D01*
X83308800Y-110591826D01*
X83308800Y-111610663D01*
X82908800Y-111610663D01*
X82908800Y-110596324D01*
X82904396Y-110581325D01*
X82903026Y-110580138D01*
X82895468Y-110578494D01*
X81876631Y-110578494D01*
X81861632Y-110582898D01*
X81860445Y-110584268D01*
X81858801Y-110591826D01*
X81858801Y-111255103D01*
X59434177Y-111255103D01*
X59326367Y-111212091D01*
X59315495Y-111208870D01*
X59110356Y-111168066D01*
X59099080Y-111166880D01*
X58889935Y-111164142D01*
X58878641Y-111165031D01*
X58672490Y-111200454D01*
X58661554Y-111203385D01*
X58465305Y-111275784D01*
X58455087Y-111280658D01*
X58295933Y-111375345D01*
X58286487Y-111385515D01*
X52317300Y-111385515D01*
X52317300Y-108595494D01*
X52897523Y-108595494D01*
X52916593Y-108813471D01*
X52917995Y-108818703D01*
X52955185Y-108957497D01*
X52973225Y-109024824D01*
X53065698Y-109223132D01*
X53068805Y-109227569D01*
X53068806Y-109227571D01*
X53188096Y-109397936D01*
X53188100Y-109397940D01*
X53191202Y-109402371D01*
X53345923Y-109557092D01*
X53525161Y-109682596D01*
X53723470Y-109775069D01*
X53728693Y-109776468D01*
X53728697Y-109776470D01*
X53895701Y-109821218D01*
X53934823Y-109831701D01*
X54152800Y-109850771D01*
X54370777Y-109831701D01*
X54409899Y-109821218D01*
X54576903Y-109776470D01*
X54576907Y-109776468D01*
X54582130Y-109775069D01*
X54780439Y-109682596D01*
X54959677Y-109557092D01*
X55114398Y-109402371D01*
X55117500Y-109397940D01*
X55117504Y-109397936D01*
X55236794Y-109227571D01*
X55236795Y-109227569D01*
X55239902Y-109223132D01*
X55332375Y-109024824D01*
X55350416Y-108957497D01*
X55387605Y-108818703D01*
X55389007Y-108813471D01*
X55408077Y-108595494D01*
X55389007Y-108377517D01*
X55367831Y-108298487D01*
X55333776Y-108171391D01*
X55333774Y-108171387D01*
X55332375Y-108166164D01*
X55239902Y-107967856D01*
X55210902Y-107926439D01*
X55117504Y-107793052D01*
X55117500Y-107793048D01*
X55114398Y-107788617D01*
X54959677Y-107633896D01*
X54780439Y-107508392D01*
X54628625Y-107437600D01*
X54576186Y-107391428D01*
X54559799Y-107333934D01*
X57773570Y-107333934D01*
X57773941Y-107339596D01*
X57773941Y-107339600D01*
X57779774Y-107428592D01*
X57788000Y-107554098D01*
X57842311Y-107767946D01*
X57844687Y-107773100D01*
X57851841Y-107788617D01*
X57934683Y-107968315D01*
X57944589Y-107982331D01*
X58044619Y-108123871D01*
X58062022Y-108148496D01*
X58066093Y-108152462D01*
X58066094Y-108152463D01*
X58215990Y-108298487D01*
X58215995Y-108298491D01*
X58220064Y-108302455D01*
X58224787Y-108305611D01*
X58224791Y-108305614D01*
X58308985Y-108361870D01*
X58403517Y-108425034D01*
X58606236Y-108512129D01*
X58639315Y-108519614D01*
X58815885Y-108559568D01*
X58815887Y-108559568D01*
X58821432Y-108560823D01*
X58959257Y-108566238D01*
X59036218Y-108569262D01*
X59036220Y-108569262D01*
X59041898Y-108569485D01*
X59047518Y-108568670D01*
X59047521Y-108568670D01*
X59254626Y-108538641D01*
X59254629Y-108538640D01*
X59260252Y-108537825D01*
X59367277Y-108501495D01*
X59463789Y-108468734D01*
X59463792Y-108468733D01*
X59469179Y-108466904D01*
X59554376Y-108419192D01*
X59656731Y-108361870D01*
X59656732Y-108361869D01*
X59661684Y-108359096D01*
X59831318Y-108218012D01*
X59892586Y-108144346D01*
X59968771Y-108052744D01*
X59968772Y-108052743D01*
X59972402Y-108048378D01*
X60017497Y-107967856D01*
X60077431Y-107860835D01*
X60080210Y-107855873D01*
X60086110Y-107838494D01*
X60149302Y-107652333D01*
X60151131Y-107646946D01*
X60153474Y-107630791D01*
X60171552Y-107506106D01*
X60182791Y-107428592D01*
X60184443Y-107365494D01*
X60164254Y-107145783D01*
X60135143Y-107042563D01*
X60667964Y-107042563D01*
X60668335Y-107048225D01*
X60668335Y-107048229D01*
X60673651Y-107129336D01*
X60681192Y-107244388D01*
X60730978Y-107440422D01*
X60815656Y-107624101D01*
X60932388Y-107789274D01*
X61077266Y-107930407D01*
X61245437Y-108042776D01*
X61431270Y-108122616D01*
X61525141Y-108143857D01*
X61622993Y-108165999D01*
X61622995Y-108165999D01*
X61628540Y-108167254D01*
X61733842Y-108171391D01*
X61824961Y-108174971D01*
X61824963Y-108174971D01*
X61830642Y-108175194D01*
X61836262Y-108174379D01*
X61836265Y-108174379D01*
X62025187Y-108146987D01*
X62025189Y-108146987D01*
X62030807Y-108146172D01*
X62036184Y-108144347D01*
X62036187Y-108144346D01*
X62120890Y-108115593D01*
X62222331Y-108081158D01*
X62323697Y-108024391D01*
X62393848Y-107985105D01*
X62393850Y-107985104D01*
X62398801Y-107982331D01*
X62410301Y-107972767D01*
X62549938Y-107856631D01*
X62554305Y-107852999D01*
X62683637Y-107697495D01*
X62717110Y-107637725D01*
X62779686Y-107525985D01*
X62782464Y-107521025D01*
X62825895Y-107393083D01*
X62845652Y-107334881D01*
X62845653Y-107334878D01*
X62847478Y-107329501D01*
X62848293Y-107323881D01*
X62875976Y-107132952D01*
X62875976Y-107132947D01*
X62876500Y-107129336D01*
X62878015Y-107071494D01*
X62875357Y-107042563D01*
X65747964Y-107042563D01*
X65748335Y-107048225D01*
X65748335Y-107048229D01*
X65753651Y-107129336D01*
X65761192Y-107244388D01*
X65810978Y-107440422D01*
X65895656Y-107624101D01*
X66012388Y-107789274D01*
X66157266Y-107930407D01*
X66325437Y-108042776D01*
X66511270Y-108122616D01*
X66605141Y-108143857D01*
X66702993Y-108165999D01*
X66702995Y-108165999D01*
X66708540Y-108167254D01*
X66813842Y-108171391D01*
X66904961Y-108174971D01*
X66904963Y-108174971D01*
X66910642Y-108175194D01*
X66916262Y-108174379D01*
X66916265Y-108174379D01*
X67105187Y-108146987D01*
X67105189Y-108146987D01*
X67110807Y-108146172D01*
X67116184Y-108144347D01*
X67116187Y-108144346D01*
X67200890Y-108115593D01*
X67302331Y-108081158D01*
X67403697Y-108024391D01*
X67473848Y-107985105D01*
X67473850Y-107985104D01*
X67478801Y-107982331D01*
X67490301Y-107972767D01*
X67629938Y-107856631D01*
X67634305Y-107852999D01*
X67763637Y-107697495D01*
X67797110Y-107637725D01*
X67847394Y-107547934D01*
X71529570Y-107547934D01*
X71529941Y-107553596D01*
X71529941Y-107553600D01*
X71535691Y-107641320D01*
X71544000Y-107768098D01*
X71598311Y-107981946D01*
X71600687Y-107987100D01*
X71683843Y-108167477D01*
X71690683Y-108182315D01*
X71693961Y-108186953D01*
X71751115Y-108267824D01*
X71818022Y-108362496D01*
X71822093Y-108366462D01*
X71822094Y-108366463D01*
X71971990Y-108512487D01*
X71971995Y-108512491D01*
X71976064Y-108516455D01*
X71980787Y-108519611D01*
X71980791Y-108519614D01*
X72064985Y-108575870D01*
X72159517Y-108639034D01*
X72362236Y-108726129D01*
X72467713Y-108749996D01*
X72571885Y-108773568D01*
X72571887Y-108773568D01*
X72577432Y-108774823D01*
X72715257Y-108780238D01*
X72792218Y-108783262D01*
X72792220Y-108783262D01*
X72797898Y-108783485D01*
X72803518Y-108782670D01*
X72803521Y-108782670D01*
X73010626Y-108752641D01*
X73010629Y-108752640D01*
X73016252Y-108751825D01*
X73123277Y-108715495D01*
X73219789Y-108682734D01*
X73219792Y-108682733D01*
X73225179Y-108680904D01*
X73417684Y-108573096D01*
X73432173Y-108561046D01*
X73582951Y-108435644D01*
X73587318Y-108432012D01*
X73647962Y-108359096D01*
X73724771Y-108266744D01*
X73724772Y-108266743D01*
X73728402Y-108262378D01*
X73836210Y-108069873D01*
X73838984Y-108061703D01*
X73872435Y-107963157D01*
X73907131Y-107860946D01*
X73908284Y-107852999D01*
X73930830Y-107697495D01*
X73938791Y-107642592D01*
X73940443Y-107579494D01*
X73937543Y-107547934D01*
X76529570Y-107547934D01*
X76529941Y-107553596D01*
X76529941Y-107553600D01*
X76535691Y-107641320D01*
X76544000Y-107768098D01*
X76598311Y-107981946D01*
X76600687Y-107987100D01*
X76683843Y-108167477D01*
X76690683Y-108182315D01*
X76693961Y-108186953D01*
X76751115Y-108267824D01*
X76818022Y-108362496D01*
X76822093Y-108366462D01*
X76822094Y-108366463D01*
X76971990Y-108512487D01*
X76971995Y-108512491D01*
X76976064Y-108516455D01*
X76980787Y-108519611D01*
X76980791Y-108519614D01*
X77064985Y-108575870D01*
X77159517Y-108639034D01*
X77362236Y-108726129D01*
X77467713Y-108749996D01*
X77571885Y-108773568D01*
X77571887Y-108773568D01*
X77577432Y-108774823D01*
X77715257Y-108780238D01*
X77792218Y-108783262D01*
X77792220Y-108783262D01*
X77797898Y-108783485D01*
X77803518Y-108782670D01*
X77803521Y-108782670D01*
X78010626Y-108752641D01*
X78010629Y-108752640D01*
X78016252Y-108751825D01*
X78123277Y-108715495D01*
X78219789Y-108682734D01*
X78219792Y-108682733D01*
X78225179Y-108680904D01*
X78417684Y-108573096D01*
X78432173Y-108561046D01*
X78582951Y-108435644D01*
X78587318Y-108432012D01*
X78647962Y-108359096D01*
X78724771Y-108266744D01*
X78724772Y-108266743D01*
X78728402Y-108262378D01*
X78836210Y-108069873D01*
X78838984Y-108061703D01*
X78872435Y-107963157D01*
X78907131Y-107860946D01*
X78908284Y-107852999D01*
X78910387Y-107838494D01*
X81853523Y-107838494D01*
X81872593Y-108056471D01*
X81873995Y-108061703D01*
X81927766Y-108262378D01*
X81929225Y-108267824D01*
X82021698Y-108466132D01*
X82024805Y-108470569D01*
X82024806Y-108470571D01*
X82144096Y-108640936D01*
X82144100Y-108640940D01*
X82147202Y-108645371D01*
X82301923Y-108800092D01*
X82395077Y-108865319D01*
X82448776Y-108902920D01*
X82492400Y-108957497D01*
X82499593Y-109026996D01*
X82468071Y-109089350D01*
X82407841Y-109124764D01*
X82377652Y-109128495D01*
X82232191Y-109128495D01*
X82222511Y-109129257D01*
X82143287Y-109141803D01*
X82124960Y-109147758D01*
X82029450Y-109196423D01*
X82013853Y-109207755D01*
X81938061Y-109283547D01*
X81926729Y-109299144D01*
X81878066Y-109394649D01*
X81872108Y-109412989D01*
X81859564Y-109492191D01*
X81858800Y-109501893D01*
X81858800Y-110160664D01*
X81863204Y-110175663D01*
X81864574Y-110176850D01*
X81872132Y-110178494D01*
X84340969Y-110178494D01*
X84355968Y-110174090D01*
X84357155Y-110172720D01*
X84358799Y-110165162D01*
X84358799Y-109501885D01*
X84358037Y-109492205D01*
X84345491Y-109412981D01*
X84339536Y-109394654D01*
X84290871Y-109299144D01*
X84279539Y-109283547D01*
X84203747Y-109207755D01*
X84188150Y-109196423D01*
X84092645Y-109147760D01*
X84074305Y-109141802D01*
X83995103Y-109129258D01*
X83985401Y-109128494D01*
X83839949Y-109128494D01*
X83772910Y-109108809D01*
X83727155Y-109056005D01*
X83717211Y-108986847D01*
X83746236Y-108923291D01*
X83768825Y-108902919D01*
X83915677Y-108800092D01*
X84070398Y-108645371D01*
X84073500Y-108640940D01*
X84073504Y-108640936D01*
X84192794Y-108470571D01*
X84192795Y-108470569D01*
X84195902Y-108466132D01*
X84288375Y-108267824D01*
X84289835Y-108262378D01*
X84343605Y-108061703D01*
X84345007Y-108056471D01*
X84364077Y-107838494D01*
X84345007Y-107620517D01*
X84296751Y-107440422D01*
X84289776Y-107414391D01*
X84289774Y-107414387D01*
X84288375Y-107409164D01*
X84195902Y-107210856D01*
X84192794Y-107206417D01*
X84073504Y-107036052D01*
X84073500Y-107036048D01*
X84070398Y-107031617D01*
X83915677Y-106876896D01*
X83736439Y-106751392D01*
X83538130Y-106658919D01*
X83532907Y-106657520D01*
X83532903Y-106657518D01*
X83332009Y-106603689D01*
X83332010Y-106603689D01*
X83326777Y-106602287D01*
X83108800Y-106583217D01*
X82890823Y-106602287D01*
X82885590Y-106603689D01*
X82885591Y-106603689D01*
X82684697Y-106657518D01*
X82684693Y-106657520D01*
X82679470Y-106658919D01*
X82481162Y-106751392D01*
X82476725Y-106754499D01*
X82476723Y-106754500D01*
X82306358Y-106873790D01*
X82306357Y-106873791D01*
X82301923Y-106876896D01*
X82147202Y-107031617D01*
X82144100Y-107036048D01*
X82144096Y-107036052D01*
X82024806Y-107206417D01*
X82021698Y-107210856D01*
X81929225Y-107409164D01*
X81927826Y-107414387D01*
X81927824Y-107414391D01*
X81920849Y-107440422D01*
X81872593Y-107620517D01*
X81853523Y-107838494D01*
X78910387Y-107838494D01*
X78930830Y-107697495D01*
X78938791Y-107642592D01*
X78940443Y-107579494D01*
X78920254Y-107359783D01*
X78860365Y-107147430D01*
X78762780Y-106949547D01*
X78630767Y-106772761D01*
X78468749Y-106622993D01*
X78374173Y-106563320D01*
X78286959Y-106508292D01*
X78286957Y-106508291D01*
X78282150Y-106505258D01*
X78077221Y-106423500D01*
X78071640Y-106422390D01*
X78071637Y-106422389D01*
X77928205Y-106393859D01*
X77860824Y-106380456D01*
X77855137Y-106380382D01*
X77855132Y-106380381D01*
X77645895Y-106377642D01*
X77645890Y-106377642D01*
X77640206Y-106377568D01*
X77634602Y-106378531D01*
X77634601Y-106378531D01*
X77428360Y-106413969D01*
X77428357Y-106413970D01*
X77422757Y-106414932D01*
X77215757Y-106491298D01*
X77187193Y-106508292D01*
X77061256Y-106583217D01*
X77026141Y-106604108D01*
X76860257Y-106749584D01*
X76723663Y-106922854D01*
X76721016Y-106927885D01*
X76657700Y-107048229D01*
X76620931Y-107118114D01*
X76619243Y-107123549D01*
X76619243Y-107123550D01*
X76611828Y-107147430D01*
X76555503Y-107328827D01*
X76554835Y-107334472D01*
X76554834Y-107334476D01*
X76547898Y-107393083D01*
X76529570Y-107547934D01*
X73937543Y-107547934D01*
X73920254Y-107359783D01*
X73860365Y-107147430D01*
X73762780Y-106949547D01*
X73630767Y-106772761D01*
X73468749Y-106622993D01*
X73374173Y-106563320D01*
X73286959Y-106508292D01*
X73286957Y-106508291D01*
X73282150Y-106505258D01*
X73077221Y-106423500D01*
X73071640Y-106422390D01*
X73071637Y-106422389D01*
X72928205Y-106393859D01*
X72860824Y-106380456D01*
X72855137Y-106380382D01*
X72855132Y-106380381D01*
X72645895Y-106377642D01*
X72645890Y-106377642D01*
X72640206Y-106377568D01*
X72634602Y-106378531D01*
X72634601Y-106378531D01*
X72428360Y-106413969D01*
X72428357Y-106413970D01*
X72422757Y-106414932D01*
X72215757Y-106491298D01*
X72187193Y-106508292D01*
X72061256Y-106583217D01*
X72026141Y-106604108D01*
X71860257Y-106749584D01*
X71723663Y-106922854D01*
X71721016Y-106927885D01*
X71657700Y-107048229D01*
X71620931Y-107118114D01*
X71619243Y-107123549D01*
X71619243Y-107123550D01*
X71611828Y-107147430D01*
X71555503Y-107328827D01*
X71554835Y-107334472D01*
X71554834Y-107334476D01*
X71547898Y-107393083D01*
X71529570Y-107547934D01*
X67847394Y-107547934D01*
X67859686Y-107525985D01*
X67862464Y-107521025D01*
X67905895Y-107393083D01*
X67925652Y-107334881D01*
X67925653Y-107334878D01*
X67927478Y-107329501D01*
X67928293Y-107323881D01*
X67955976Y-107132952D01*
X67955976Y-107132947D01*
X67956500Y-107129336D01*
X67958015Y-107071494D01*
X67939508Y-106870085D01*
X67895455Y-106713885D01*
X67886152Y-106680897D01*
X67886151Y-106680894D01*
X67884607Y-106675420D01*
X67795151Y-106494021D01*
X67674135Y-106331961D01*
X67541657Y-106209500D01*
X67529788Y-106198528D01*
X67529786Y-106198527D01*
X67525612Y-106194668D01*
X67354557Y-106086740D01*
X67166698Y-106011792D01*
X67161117Y-106010682D01*
X67161114Y-106010681D01*
X67093173Y-105997167D01*
X66968326Y-105972333D01*
X66962639Y-105972259D01*
X66962634Y-105972258D01*
X66771775Y-105969760D01*
X66771770Y-105969760D01*
X66766086Y-105969686D01*
X66760482Y-105970649D01*
X66760481Y-105970649D01*
X66572346Y-106002976D01*
X66572343Y-106002977D01*
X66566749Y-106003938D01*
X66545460Y-106011792D01*
X66382321Y-106071977D01*
X66382317Y-106071979D01*
X66376993Y-106073943D01*
X66372110Y-106076848D01*
X66372108Y-106076849D01*
X66226222Y-106163642D01*
X66203171Y-106177356D01*
X66051105Y-106310714D01*
X65925889Y-106469551D01*
X65923242Y-106474582D01*
X65845159Y-106622993D01*
X65831714Y-106648547D01*
X65830029Y-106653973D01*
X65830028Y-106653976D01*
X65801505Y-106745838D01*
X65771737Y-106841707D01*
X65747964Y-107042563D01*
X62875357Y-107042563D01*
X62859508Y-106870085D01*
X62815455Y-106713885D01*
X62806152Y-106680897D01*
X62806151Y-106680894D01*
X62804607Y-106675420D01*
X62715151Y-106494021D01*
X62594135Y-106331961D01*
X62461657Y-106209500D01*
X62449788Y-106198528D01*
X62449786Y-106198527D01*
X62445612Y-106194668D01*
X62274557Y-106086740D01*
X62086698Y-106011792D01*
X62081117Y-106010682D01*
X62081114Y-106010681D01*
X62013173Y-105997167D01*
X61888326Y-105972333D01*
X61882639Y-105972259D01*
X61882634Y-105972258D01*
X61691775Y-105969760D01*
X61691770Y-105969760D01*
X61686086Y-105969686D01*
X61680482Y-105970649D01*
X61680481Y-105970649D01*
X61492346Y-106002976D01*
X61492343Y-106002977D01*
X61486749Y-106003938D01*
X61465460Y-106011792D01*
X61302321Y-106071977D01*
X61302317Y-106071979D01*
X61296993Y-106073943D01*
X61292110Y-106076848D01*
X61292108Y-106076849D01*
X61146222Y-106163642D01*
X61123171Y-106177356D01*
X60971105Y-106310714D01*
X60845889Y-106469551D01*
X60843242Y-106474582D01*
X60765159Y-106622993D01*
X60751714Y-106648547D01*
X60750029Y-106653973D01*
X60750028Y-106653976D01*
X60721505Y-106745838D01*
X60691737Y-106841707D01*
X60667964Y-107042563D01*
X60135143Y-107042563D01*
X60104365Y-106933430D01*
X60099150Y-106922854D01*
X60009295Y-106740647D01*
X60006780Y-106735547D01*
X59874767Y-106558761D01*
X59712749Y-106408993D01*
X59678206Y-106387198D01*
X59530959Y-106294292D01*
X59530957Y-106294291D01*
X59526150Y-106291258D01*
X59321221Y-106209500D01*
X59315640Y-106208390D01*
X59315637Y-106208389D01*
X59213023Y-106187978D01*
X59104824Y-106166456D01*
X59099137Y-106166382D01*
X59099132Y-106166381D01*
X58889895Y-106163642D01*
X58889890Y-106163642D01*
X58884206Y-106163568D01*
X58878602Y-106164531D01*
X58878601Y-106164531D01*
X58672360Y-106199969D01*
X58672357Y-106199970D01*
X58666757Y-106200932D01*
X58459757Y-106277298D01*
X58431193Y-106294292D01*
X58286365Y-106380456D01*
X58270141Y-106390108D01*
X58104257Y-106535584D01*
X57967663Y-106708854D01*
X57965016Y-106713885D01*
X57889397Y-106857613D01*
X57864931Y-106904114D01*
X57799503Y-107114827D01*
X57798835Y-107120472D01*
X57798834Y-107120476D01*
X57788137Y-107210856D01*
X57773570Y-107333934D01*
X54559799Y-107333934D01*
X54557034Y-107324234D01*
X54577250Y-107257353D01*
X54628625Y-107212836D01*
X54775285Y-107144447D01*
X54784617Y-107139059D01*
X54954919Y-107019812D01*
X54963185Y-107012876D01*
X55110184Y-106865877D01*
X55117119Y-106857613D01*
X55236359Y-106687320D01*
X55241757Y-106677970D01*
X55329613Y-106489562D01*
X55333305Y-106479419D01*
X55387112Y-106278608D01*
X55388274Y-106272016D01*
X55385566Y-106258543D01*
X55374003Y-106255494D01*
X52933353Y-106255494D01*
X52918954Y-106259722D01*
X52917078Y-106270611D01*
X52918488Y-106278608D01*
X52972295Y-106479419D01*
X52975987Y-106489562D01*
X53063843Y-106677970D01*
X53069241Y-106687320D01*
X53188481Y-106857613D01*
X53195416Y-106865877D01*
X53342415Y-107012876D01*
X53350681Y-107019812D01*
X53520983Y-107139059D01*
X53530315Y-107144447D01*
X53676975Y-107212836D01*
X53729414Y-107259008D01*
X53748566Y-107326202D01*
X53728350Y-107393083D01*
X53676975Y-107437600D01*
X53525162Y-107508392D01*
X53520725Y-107511499D01*
X53520723Y-107511500D01*
X53350358Y-107630790D01*
X53350357Y-107630791D01*
X53345923Y-107633896D01*
X53191202Y-107788617D01*
X53188100Y-107793048D01*
X53188096Y-107793052D01*
X53094698Y-107926439D01*
X53065698Y-107967856D01*
X52973225Y-108166164D01*
X52971826Y-108171387D01*
X52971824Y-108171391D01*
X52937769Y-108298487D01*
X52916593Y-108377517D01*
X52897523Y-108595494D01*
X52317300Y-108595494D01*
X52317300Y-102633975D01*
X52902300Y-102633975D01*
X52902301Y-104397012D01*
X52917154Y-104490798D01*
X52974750Y-104603836D01*
X53064458Y-104693544D01*
X53177496Y-104751140D01*
X53206733Y-104755771D01*
X53266461Y-104765231D01*
X53266466Y-104765231D01*
X53271281Y-104765994D01*
X53421811Y-104765994D01*
X53488850Y-104785679D01*
X53534605Y-104838483D01*
X53544549Y-104907641D01*
X53515524Y-104971197D01*
X53492934Y-104991569D01*
X53350681Y-105091175D01*
X53342417Y-105098110D01*
X53195416Y-105245111D01*
X53188481Y-105253375D01*
X53069241Y-105423668D01*
X53063843Y-105433018D01*
X52975987Y-105621426D01*
X52972295Y-105631569D01*
X52918488Y-105832380D01*
X52917326Y-105838972D01*
X52920034Y-105852445D01*
X52931597Y-105855494D01*
X55372247Y-105855494D01*
X55386646Y-105851266D01*
X55388522Y-105840377D01*
X55387112Y-105832380D01*
X55333305Y-105631569D01*
X55329613Y-105621426D01*
X55241757Y-105433018D01*
X55236359Y-105423668D01*
X55117119Y-105253375D01*
X55110184Y-105245111D01*
X54963185Y-105098112D01*
X54954919Y-105091176D01*
X54812665Y-104991568D01*
X54769041Y-104936991D01*
X54761848Y-104867492D01*
X54793370Y-104805138D01*
X54853600Y-104769724D01*
X54883788Y-104765993D01*
X55034318Y-104765993D01*
X55106951Y-104754490D01*
X55118469Y-104752666D01*
X55118470Y-104752666D01*
X55128104Y-104751140D01*
X55241142Y-104693544D01*
X55330850Y-104603836D01*
X55388446Y-104490798D01*
X55394026Y-104455568D01*
X55402537Y-104401833D01*
X55402537Y-104401828D01*
X55403300Y-104397013D01*
X55403299Y-103232563D01*
X57365964Y-103232563D01*
X57366335Y-103238225D01*
X57366335Y-103238229D01*
X57371651Y-103319336D01*
X57379192Y-103434388D01*
X57428978Y-103630422D01*
X57513656Y-103814101D01*
X57630388Y-103979274D01*
X57775266Y-104120407D01*
X57943437Y-104232776D01*
X58129270Y-104312616D01*
X58166472Y-104321034D01*
X58320993Y-104355999D01*
X58320995Y-104355999D01*
X58326540Y-104357254D01*
X58443935Y-104361866D01*
X58522961Y-104364971D01*
X58522963Y-104364971D01*
X58528642Y-104365194D01*
X58534262Y-104364379D01*
X58534265Y-104364379D01*
X58723187Y-104336987D01*
X58723189Y-104336987D01*
X58728807Y-104336172D01*
X58734184Y-104334347D01*
X58734187Y-104334346D01*
X58818890Y-104305593D01*
X58920331Y-104271158D01*
X59096801Y-104172331D01*
X59159233Y-104120407D01*
X59247938Y-104046631D01*
X59252305Y-104042999D01*
X59309164Y-103974634D01*
X59378006Y-103891861D01*
X59378007Y-103891860D01*
X59381637Y-103887495D01*
X59480464Y-103711025D01*
X59535691Y-103548333D01*
X59543652Y-103524881D01*
X59543653Y-103524878D01*
X59545478Y-103519501D01*
X59558640Y-103428722D01*
X59573976Y-103322952D01*
X59573976Y-103322947D01*
X59574500Y-103319336D01*
X59576015Y-103261494D01*
X59573357Y-103232563D01*
X64985964Y-103232563D01*
X64986335Y-103238225D01*
X64986335Y-103238229D01*
X64991651Y-103319336D01*
X64999192Y-103434388D01*
X65048978Y-103630422D01*
X65133656Y-103814101D01*
X65250388Y-103979274D01*
X65395266Y-104120407D01*
X65563437Y-104232776D01*
X65749270Y-104312616D01*
X65786472Y-104321034D01*
X65940993Y-104355999D01*
X65940995Y-104355999D01*
X65946540Y-104357254D01*
X66063935Y-104361866D01*
X66142961Y-104364971D01*
X66142963Y-104364971D01*
X66148642Y-104365194D01*
X66154262Y-104364379D01*
X66154265Y-104364379D01*
X66343187Y-104336987D01*
X66343189Y-104336987D01*
X66348807Y-104336172D01*
X66354184Y-104334347D01*
X66354187Y-104334346D01*
X66438890Y-104305593D01*
X66540331Y-104271158D01*
X66716801Y-104172331D01*
X66779233Y-104120407D01*
X66867938Y-104046631D01*
X66872305Y-104042999D01*
X66929164Y-103974634D01*
X66998006Y-103891861D01*
X66998007Y-103891860D01*
X67001637Y-103887495D01*
X67100464Y-103711025D01*
X67155691Y-103548333D01*
X67163652Y-103524881D01*
X67163653Y-103524878D01*
X67165478Y-103519501D01*
X67178640Y-103428722D01*
X67193976Y-103322952D01*
X67193976Y-103322947D01*
X67194500Y-103319336D01*
X67196015Y-103261494D01*
X67193115Y-103229934D01*
X68949570Y-103229934D01*
X68949941Y-103235596D01*
X68949941Y-103235600D01*
X68955667Y-103322952D01*
X68964000Y-103450098D01*
X69018311Y-103663946D01*
X69110683Y-103864315D01*
X69113961Y-103868953D01*
X69233878Y-104038632D01*
X69238022Y-104044496D01*
X69242093Y-104048462D01*
X69242094Y-104048463D01*
X69391990Y-104194487D01*
X69391995Y-104194491D01*
X69396064Y-104198455D01*
X69400787Y-104201611D01*
X69400791Y-104201614D01*
X69484985Y-104257870D01*
X69579517Y-104321034D01*
X69782236Y-104408129D01*
X69887713Y-104431996D01*
X69991885Y-104455568D01*
X69991887Y-104455568D01*
X69997432Y-104456823D01*
X70135257Y-104462238D01*
X70212218Y-104465262D01*
X70212220Y-104465262D01*
X70217898Y-104465485D01*
X70223518Y-104464670D01*
X70223521Y-104464670D01*
X70430626Y-104434641D01*
X70430629Y-104434640D01*
X70436252Y-104433825D01*
X70544700Y-104397012D01*
X70639789Y-104364734D01*
X70639792Y-104364733D01*
X70645179Y-104362904D01*
X70837684Y-104255096D01*
X70868322Y-104229615D01*
X71002951Y-104117644D01*
X71007318Y-104114012D01*
X71066379Y-104042999D01*
X71144771Y-103948744D01*
X71144772Y-103948743D01*
X71148402Y-103944378D01*
X71256210Y-103751873D01*
X71268393Y-103715985D01*
X71325302Y-103548333D01*
X71327131Y-103542946D01*
X71329751Y-103524881D01*
X71358268Y-103328197D01*
X71358791Y-103324592D01*
X71360443Y-103261494D01*
X71357543Y-103229934D01*
X79109570Y-103229934D01*
X79109941Y-103235596D01*
X79109941Y-103235600D01*
X79115667Y-103322952D01*
X79124000Y-103450098D01*
X79178311Y-103663946D01*
X79270683Y-103864315D01*
X79273961Y-103868953D01*
X79393878Y-104038632D01*
X79398022Y-104044496D01*
X79402093Y-104048462D01*
X79402094Y-104048463D01*
X79551990Y-104194487D01*
X79551995Y-104194491D01*
X79556064Y-104198455D01*
X79560787Y-104201611D01*
X79560791Y-104201614D01*
X79644985Y-104257870D01*
X79739517Y-104321034D01*
X79942236Y-104408129D01*
X80047713Y-104431996D01*
X80151885Y-104455568D01*
X80151887Y-104455568D01*
X80157432Y-104456823D01*
X80295257Y-104462238D01*
X80372218Y-104465262D01*
X80372220Y-104465262D01*
X80377898Y-104465485D01*
X80383518Y-104464670D01*
X80383521Y-104464670D01*
X80590626Y-104434641D01*
X80590629Y-104434640D01*
X80596252Y-104433825D01*
X80704700Y-104397012D01*
X80799789Y-104364734D01*
X80799792Y-104364733D01*
X80805179Y-104362904D01*
X80997684Y-104255096D01*
X81028322Y-104229615D01*
X81162951Y-104117644D01*
X81167318Y-104114012D01*
X81226379Y-104042999D01*
X81304771Y-103948744D01*
X81304772Y-103948743D01*
X81308402Y-103944378D01*
X81416210Y-103751873D01*
X81428393Y-103715985D01*
X81485302Y-103548333D01*
X81487131Y-103542946D01*
X81489751Y-103524881D01*
X81518268Y-103328197D01*
X81518791Y-103324592D01*
X81520443Y-103261494D01*
X81500254Y-103041783D01*
X81440365Y-102829430D01*
X81342780Y-102631547D01*
X81210767Y-102454761D01*
X81048749Y-102304993D01*
X81006478Y-102278322D01*
X80866959Y-102190292D01*
X80866957Y-102190291D01*
X80862150Y-102187258D01*
X80657221Y-102105500D01*
X80651640Y-102104390D01*
X80651637Y-102104389D01*
X80549022Y-102083978D01*
X80440824Y-102062456D01*
X80435137Y-102062382D01*
X80435132Y-102062381D01*
X80225895Y-102059642D01*
X80225890Y-102059642D01*
X80220206Y-102059568D01*
X80214602Y-102060531D01*
X80214601Y-102060531D01*
X80008360Y-102095969D01*
X80008357Y-102095970D01*
X80002757Y-102096932D01*
X79795757Y-102173298D01*
X79709107Y-102224850D01*
X79619230Y-102278321D01*
X79606141Y-102286108D01*
X79440257Y-102431584D01*
X79303663Y-102604854D01*
X79301016Y-102609885D01*
X79290878Y-102629155D01*
X79200931Y-102800114D01*
X79199243Y-102805549D01*
X79199243Y-102805550D01*
X79182237Y-102860319D01*
X79135503Y-103010827D01*
X79134835Y-103016472D01*
X79134834Y-103016476D01*
X79110238Y-103224290D01*
X79109570Y-103229934D01*
X71357543Y-103229934D01*
X71340254Y-103041783D01*
X71280365Y-102829430D01*
X71182780Y-102631547D01*
X71050767Y-102454761D01*
X70888749Y-102304993D01*
X70846478Y-102278322D01*
X70706959Y-102190292D01*
X70706957Y-102190291D01*
X70702150Y-102187258D01*
X70497221Y-102105500D01*
X70491640Y-102104390D01*
X70491637Y-102104389D01*
X70389022Y-102083978D01*
X70280824Y-102062456D01*
X70275137Y-102062382D01*
X70275132Y-102062381D01*
X70065895Y-102059642D01*
X70065890Y-102059642D01*
X70060206Y-102059568D01*
X70054602Y-102060531D01*
X70054601Y-102060531D01*
X69848360Y-102095969D01*
X69848357Y-102095970D01*
X69842757Y-102096932D01*
X69635757Y-102173298D01*
X69549107Y-102224850D01*
X69459230Y-102278321D01*
X69446141Y-102286108D01*
X69280257Y-102431584D01*
X69143663Y-102604854D01*
X69141016Y-102609885D01*
X69130878Y-102629155D01*
X69040931Y-102800114D01*
X69039243Y-102805549D01*
X69039243Y-102805550D01*
X69022237Y-102860319D01*
X68975503Y-103010827D01*
X68974835Y-103016472D01*
X68974834Y-103016476D01*
X68950238Y-103224290D01*
X68949570Y-103229934D01*
X67193115Y-103229934D01*
X67177508Y-103060085D01*
X67122607Y-102865420D01*
X67033151Y-102684021D01*
X66912135Y-102521961D01*
X66809571Y-102427152D01*
X66767788Y-102388528D01*
X66767786Y-102388527D01*
X66763612Y-102384668D01*
X66643453Y-102308853D01*
X66597366Y-102279774D01*
X66597364Y-102279773D01*
X66592557Y-102276740D01*
X66404698Y-102201792D01*
X66399117Y-102200682D01*
X66399114Y-102200681D01*
X66321039Y-102185151D01*
X66206326Y-102162333D01*
X66200639Y-102162259D01*
X66200634Y-102162258D01*
X66009775Y-102159760D01*
X66009770Y-102159760D01*
X66004086Y-102159686D01*
X65998482Y-102160649D01*
X65998481Y-102160649D01*
X65810346Y-102192976D01*
X65810343Y-102192977D01*
X65804749Y-102193938D01*
X65783460Y-102201792D01*
X65620321Y-102261977D01*
X65620317Y-102261979D01*
X65614993Y-102263943D01*
X65610110Y-102266848D01*
X65610108Y-102266849D01*
X65479847Y-102344346D01*
X65441171Y-102367356D01*
X65289105Y-102500714D01*
X65163889Y-102659551D01*
X65069714Y-102838547D01*
X65068029Y-102843973D01*
X65068028Y-102843976D01*
X65061370Y-102865420D01*
X65009737Y-103031707D01*
X64985964Y-103232563D01*
X59573357Y-103232563D01*
X59557508Y-103060085D01*
X59502607Y-102865420D01*
X59413151Y-102684021D01*
X59292135Y-102521961D01*
X59189571Y-102427152D01*
X59147788Y-102388528D01*
X59147786Y-102388527D01*
X59143612Y-102384668D01*
X59023453Y-102308853D01*
X58977366Y-102279774D01*
X58977364Y-102279773D01*
X58972557Y-102276740D01*
X58784698Y-102201792D01*
X58779117Y-102200682D01*
X58779114Y-102200681D01*
X58701039Y-102185151D01*
X58586326Y-102162333D01*
X58580639Y-102162259D01*
X58580634Y-102162258D01*
X58389775Y-102159760D01*
X58389770Y-102159760D01*
X58384086Y-102159686D01*
X58378482Y-102160649D01*
X58378481Y-102160649D01*
X58190346Y-102192976D01*
X58190343Y-102192977D01*
X58184749Y-102193938D01*
X58163460Y-102201792D01*
X58000321Y-102261977D01*
X58000317Y-102261979D01*
X57994993Y-102263943D01*
X57990110Y-102266848D01*
X57990108Y-102266849D01*
X57859847Y-102344346D01*
X57821171Y-102367356D01*
X57669105Y-102500714D01*
X57543889Y-102659551D01*
X57449714Y-102838547D01*
X57448029Y-102843973D01*
X57448028Y-102843976D01*
X57441370Y-102865420D01*
X57389737Y-103031707D01*
X57365964Y-103232563D01*
X55403299Y-103232563D01*
X55403299Y-102633976D01*
X55388446Y-102540190D01*
X55330850Y-102427152D01*
X55241142Y-102337444D01*
X55128104Y-102279848D01*
X55095178Y-102274633D01*
X55039139Y-102265757D01*
X55039134Y-102265757D01*
X55034319Y-102264994D01*
X55029441Y-102264994D01*
X54152168Y-102264995D01*
X53271282Y-102264995D01*
X53198649Y-102276498D01*
X53187131Y-102278322D01*
X53187130Y-102278322D01*
X53177496Y-102279848D01*
X53064458Y-102337444D01*
X52974750Y-102427152D01*
X52917154Y-102540190D01*
X52902300Y-102633975D01*
X52317300Y-102633975D01*
X52317300Y-101295994D01*
X52336985Y-101228955D01*
X52389789Y-101183200D01*
X52441300Y-101171994D01*
X85074300Y-101171994D01*
X85141339Y-101191679D01*
G37*
%TD.AperFunction*%
%TA.AperFunction,NonConductor*%
G36*
X85192139Y-76807679D02*
G01*
X85237894Y-76860483D01*
X85249100Y-76911994D01*
X85249100Y-97606994D01*
X85229415Y-97674033D01*
X85176611Y-97719788D01*
X85125100Y-97730994D01*
X52492100Y-97730994D01*
X52425061Y-97711309D01*
X52379306Y-97658505D01*
X52368100Y-97606994D01*
X52368100Y-94850563D01*
X57162764Y-94850563D01*
X57163135Y-94856225D01*
X57163135Y-94856229D01*
X57168688Y-94940952D01*
X57175992Y-95052388D01*
X57225778Y-95248422D01*
X57228154Y-95253576D01*
X57272353Y-95349449D01*
X57310456Y-95432101D01*
X57427188Y-95597274D01*
X57572066Y-95738407D01*
X57740237Y-95850776D01*
X57926070Y-95930616D01*
X57953669Y-95936861D01*
X58117793Y-95973999D01*
X58117795Y-95973999D01*
X58123340Y-95975254D01*
X58234649Y-95979627D01*
X58319761Y-95982971D01*
X58319763Y-95982971D01*
X58325442Y-95983194D01*
X58331062Y-95982379D01*
X58331065Y-95982379D01*
X58519987Y-95954987D01*
X58519989Y-95954987D01*
X58525607Y-95954172D01*
X58530984Y-95952347D01*
X58530987Y-95952346D01*
X58615690Y-95923593D01*
X58717131Y-95889158D01*
X58893601Y-95790331D01*
X58909112Y-95777431D01*
X59044738Y-95664631D01*
X59049105Y-95660999D01*
X59105964Y-95592634D01*
X59174806Y-95509861D01*
X59174807Y-95509860D01*
X59178437Y-95505495D01*
X59277264Y-95329025D01*
X59342278Y-95137501D01*
X59355440Y-95046722D01*
X59370776Y-94940952D01*
X59370776Y-94940947D01*
X59371300Y-94937336D01*
X59372815Y-94879494D01*
X59370157Y-94850563D01*
X62242764Y-94850563D01*
X62243135Y-94856225D01*
X62243135Y-94856229D01*
X62248688Y-94940952D01*
X62255992Y-95052388D01*
X62305778Y-95248422D01*
X62308154Y-95253576D01*
X62352353Y-95349449D01*
X62390456Y-95432101D01*
X62507188Y-95597274D01*
X62652066Y-95738407D01*
X62820237Y-95850776D01*
X63006070Y-95930616D01*
X63033669Y-95936861D01*
X63197793Y-95973999D01*
X63197795Y-95973999D01*
X63203340Y-95975254D01*
X63314649Y-95979627D01*
X63399761Y-95982971D01*
X63399763Y-95982971D01*
X63405442Y-95983194D01*
X63411062Y-95982379D01*
X63411065Y-95982379D01*
X63599987Y-95954987D01*
X63599989Y-95954987D01*
X63605607Y-95954172D01*
X63610984Y-95952347D01*
X63610987Y-95952346D01*
X63695690Y-95923593D01*
X63797131Y-95889158D01*
X63973601Y-95790331D01*
X63989112Y-95777431D01*
X64124738Y-95664631D01*
X64129105Y-95660999D01*
X64185964Y-95592634D01*
X64254806Y-95509861D01*
X64254807Y-95509860D01*
X64258437Y-95505495D01*
X64357264Y-95329025D01*
X64422278Y-95137501D01*
X64435440Y-95046722D01*
X64450776Y-94940952D01*
X64450776Y-94940947D01*
X64451300Y-94937336D01*
X64452815Y-94879494D01*
X64450036Y-94849248D01*
X69414567Y-94849248D01*
X69414938Y-94854910D01*
X69414938Y-94854914D01*
X69416549Y-94879494D01*
X69428396Y-95060243D01*
X69480445Y-95265184D01*
X69482819Y-95270335D01*
X69482821Y-95270339D01*
X69559533Y-95436739D01*
X69568969Y-95457208D01*
X69572247Y-95461846D01*
X69667958Y-95597274D01*
X69691005Y-95629885D01*
X69695076Y-95633851D01*
X69695077Y-95633852D01*
X69722944Y-95660999D01*
X69842465Y-95777431D01*
X69847188Y-95780587D01*
X69847192Y-95780590D01*
X69918263Y-95828078D01*
X70018277Y-95894905D01*
X70212553Y-95978372D01*
X70275883Y-95992702D01*
X70413238Y-96023783D01*
X70413242Y-96023784D01*
X70418786Y-96025038D01*
X70545251Y-96030007D01*
X70624389Y-96033117D01*
X70624391Y-96033117D01*
X70630070Y-96033340D01*
X70635690Y-96032525D01*
X70635692Y-96032525D01*
X70833703Y-96003814D01*
X70833704Y-96003814D01*
X70839330Y-96002998D01*
X70920405Y-95975477D01*
X71034165Y-95936861D01*
X71034168Y-95936860D01*
X71039555Y-95935031D01*
X71044516Y-95932253D01*
X71044522Y-95932250D01*
X71185992Y-95853022D01*
X71224042Y-95831713D01*
X71270464Y-95793105D01*
X71382245Y-95700138D01*
X71386612Y-95696506D01*
X71419775Y-95656632D01*
X71518184Y-95538307D01*
X71518185Y-95538305D01*
X71521819Y-95533936D01*
X71581738Y-95426943D01*
X71622356Y-95354416D01*
X71622359Y-95354410D01*
X71625137Y-95349449D01*
X71630387Y-95333985D01*
X71691275Y-95154612D01*
X71693104Y-95149224D01*
X71723446Y-94939964D01*
X71725029Y-94879494D01*
X71722250Y-94849248D01*
X74294567Y-94849248D01*
X74294938Y-94854910D01*
X74294938Y-94854914D01*
X74296549Y-94879494D01*
X74308396Y-95060243D01*
X74360445Y-95265184D01*
X74362819Y-95270335D01*
X74362821Y-95270339D01*
X74439533Y-95436739D01*
X74448969Y-95457208D01*
X74452247Y-95461846D01*
X74547958Y-95597274D01*
X74571005Y-95629885D01*
X74575076Y-95633851D01*
X74575077Y-95633852D01*
X74602944Y-95660999D01*
X74722465Y-95777431D01*
X74727188Y-95780587D01*
X74727192Y-95780590D01*
X74798263Y-95828078D01*
X74898277Y-95894905D01*
X75092553Y-95978372D01*
X75155883Y-95992702D01*
X75293238Y-96023783D01*
X75293242Y-96023784D01*
X75298786Y-96025038D01*
X75425251Y-96030007D01*
X75504389Y-96033117D01*
X75504391Y-96033117D01*
X75510070Y-96033340D01*
X75515690Y-96032525D01*
X75515692Y-96032525D01*
X75713703Y-96003814D01*
X75713704Y-96003814D01*
X75719330Y-96002998D01*
X75800405Y-95975477D01*
X75914165Y-95936861D01*
X75914168Y-95936860D01*
X75919555Y-95935031D01*
X75924516Y-95932253D01*
X75924522Y-95932250D01*
X76065992Y-95853022D01*
X76104042Y-95831713D01*
X76150464Y-95793105D01*
X76262245Y-95700138D01*
X76266612Y-95696506D01*
X76299775Y-95656632D01*
X76398184Y-95538307D01*
X76398185Y-95538305D01*
X76401819Y-95533936D01*
X76461738Y-95426943D01*
X76502356Y-95354416D01*
X76502359Y-95354410D01*
X76505137Y-95349449D01*
X76510387Y-95333985D01*
X76571275Y-95154612D01*
X76573104Y-95149224D01*
X76603446Y-94939964D01*
X76605029Y-94879494D01*
X76585681Y-94668934D01*
X76528286Y-94465425D01*
X76434765Y-94275784D01*
X76308251Y-94106361D01*
X76304081Y-94102506D01*
X76304078Y-94102503D01*
X76174200Y-93982446D01*
X76152981Y-93962831D01*
X76119690Y-93941826D01*
X75978963Y-93853033D01*
X75978961Y-93853032D01*
X75974154Y-93849999D01*
X75777760Y-93771646D01*
X75772179Y-93770536D01*
X75772176Y-93770535D01*
X75674067Y-93751020D01*
X75570375Y-93730395D01*
X75564688Y-93730321D01*
X75564683Y-93730320D01*
X75364634Y-93727701D01*
X75364629Y-93727701D01*
X75358946Y-93727627D01*
X75353342Y-93728590D01*
X75353341Y-93728590D01*
X75156150Y-93762473D01*
X75156147Y-93762474D01*
X75150553Y-93763435D01*
X74952175Y-93836621D01*
X74947297Y-93839523D01*
X74947295Y-93839524D01*
X74775340Y-93941826D01*
X74775337Y-93941828D01*
X74770456Y-93944732D01*
X74611481Y-94084149D01*
X74607962Y-94088613D01*
X74607959Y-94088616D01*
X74549331Y-94162986D01*
X74480576Y-94250202D01*
X74382123Y-94437330D01*
X74380437Y-94442761D01*
X74380435Y-94442765D01*
X74366111Y-94488897D01*
X74319420Y-94639267D01*
X74318752Y-94644912D01*
X74318751Y-94644916D01*
X74314155Y-94683748D01*
X74294567Y-94849248D01*
X71722250Y-94849248D01*
X71705681Y-94668934D01*
X71648286Y-94465425D01*
X71554765Y-94275784D01*
X71428251Y-94106361D01*
X71424081Y-94102506D01*
X71424078Y-94102503D01*
X71294200Y-93982446D01*
X71272981Y-93962831D01*
X71239690Y-93941826D01*
X71098963Y-93853033D01*
X71098961Y-93853032D01*
X71094154Y-93849999D01*
X70897760Y-93771646D01*
X70892179Y-93770536D01*
X70892176Y-93770535D01*
X70794067Y-93751020D01*
X70690375Y-93730395D01*
X70684688Y-93730321D01*
X70684683Y-93730320D01*
X70484634Y-93727701D01*
X70484629Y-93727701D01*
X70478946Y-93727627D01*
X70473342Y-93728590D01*
X70473341Y-93728590D01*
X70276150Y-93762473D01*
X70276147Y-93762474D01*
X70270553Y-93763435D01*
X70072175Y-93836621D01*
X70067297Y-93839523D01*
X70067295Y-93839524D01*
X69895340Y-93941826D01*
X69895337Y-93941828D01*
X69890456Y-93944732D01*
X69731481Y-94084149D01*
X69727962Y-94088613D01*
X69727959Y-94088616D01*
X69669331Y-94162986D01*
X69600576Y-94250202D01*
X69502123Y-94437330D01*
X69500437Y-94442761D01*
X69500435Y-94442765D01*
X69486111Y-94488897D01*
X69439420Y-94639267D01*
X69438752Y-94644912D01*
X69438751Y-94644916D01*
X69434155Y-94683748D01*
X69414567Y-94849248D01*
X64450036Y-94849248D01*
X64434308Y-94678085D01*
X64379407Y-94483420D01*
X64289951Y-94302021D01*
X64168935Y-94139961D01*
X64020412Y-94002668D01*
X63963392Y-93966691D01*
X63854166Y-93897774D01*
X63854164Y-93897773D01*
X63849357Y-93894740D01*
X63661498Y-93819792D01*
X63655917Y-93818682D01*
X63655914Y-93818681D01*
X63587973Y-93805167D01*
X63463126Y-93780333D01*
X63457439Y-93780259D01*
X63457434Y-93780258D01*
X63266575Y-93777760D01*
X63266570Y-93777760D01*
X63260886Y-93777686D01*
X63255282Y-93778649D01*
X63255281Y-93778649D01*
X63067146Y-93810976D01*
X63067143Y-93810977D01*
X63061549Y-93811938D01*
X63040260Y-93819792D01*
X62877121Y-93879977D01*
X62877117Y-93879979D01*
X62871793Y-93881943D01*
X62866910Y-93884848D01*
X62866908Y-93884849D01*
X62735832Y-93962831D01*
X62697971Y-93985356D01*
X62545905Y-94118714D01*
X62420689Y-94277551D01*
X62326514Y-94456547D01*
X62324829Y-94461973D01*
X62324828Y-94461976D01*
X62318170Y-94483420D01*
X62266537Y-94649707D01*
X62242764Y-94850563D01*
X59370157Y-94850563D01*
X59354308Y-94678085D01*
X59299407Y-94483420D01*
X59209951Y-94302021D01*
X59088935Y-94139961D01*
X58940412Y-94002668D01*
X58883392Y-93966691D01*
X58774166Y-93897774D01*
X58774164Y-93897773D01*
X58769357Y-93894740D01*
X58581498Y-93819792D01*
X58575917Y-93818682D01*
X58575914Y-93818681D01*
X58507973Y-93805167D01*
X58383126Y-93780333D01*
X58377439Y-93780259D01*
X58377434Y-93780258D01*
X58186575Y-93777760D01*
X58186570Y-93777760D01*
X58180886Y-93777686D01*
X58175282Y-93778649D01*
X58175281Y-93778649D01*
X57987146Y-93810976D01*
X57987143Y-93810977D01*
X57981549Y-93811938D01*
X57960260Y-93819792D01*
X57797121Y-93879977D01*
X57797117Y-93879979D01*
X57791793Y-93881943D01*
X57786910Y-93884848D01*
X57786908Y-93884849D01*
X57655832Y-93962831D01*
X57617971Y-93985356D01*
X57465905Y-94118714D01*
X57340689Y-94277551D01*
X57246514Y-94456547D01*
X57244829Y-94461973D01*
X57244828Y-94461976D01*
X57238170Y-94483420D01*
X57186537Y-94649707D01*
X57162764Y-94850563D01*
X52368100Y-94850563D01*
X52368100Y-88958556D01*
X58340450Y-88958556D01*
X58350175Y-88970847D01*
X58449826Y-89037433D01*
X58459784Y-89042839D01*
X58651966Y-89125406D01*
X58662738Y-89128906D01*
X58866751Y-89175070D01*
X58877981Y-89176548D01*
X59086991Y-89184760D01*
X59098295Y-89184168D01*
X59305315Y-89154152D01*
X59316315Y-89151511D01*
X59514389Y-89084273D01*
X59524740Y-89079665D01*
X59707234Y-88977462D01*
X59714169Y-88972697D01*
X59721958Y-88961099D01*
X59715884Y-88950621D01*
X59042207Y-88276944D01*
X59028487Y-88269452D01*
X59026681Y-88269581D01*
X59020174Y-88273763D01*
X58346546Y-88947391D01*
X58340450Y-88958556D01*
X52368100Y-88958556D01*
X52368100Y-87955620D01*
X57825244Y-87955620D01*
X57838925Y-88164354D01*
X57840694Y-88175524D01*
X57892187Y-88378277D01*
X57895960Y-88388933D01*
X57983539Y-88578906D01*
X57989195Y-88588702D01*
X58041164Y-88662237D01*
X58051586Y-88670493D01*
X58064674Y-88663577D01*
X58734150Y-87994101D01*
X58740426Y-87982607D01*
X59317558Y-87982607D01*
X59317687Y-87984413D01*
X59321869Y-87990920D01*
X59997583Y-88666634D01*
X60010678Y-88673784D01*
X60020081Y-88667114D01*
X60025568Y-88659128D01*
X60115842Y-88497934D01*
X63198370Y-88497934D01*
X63198741Y-88503596D01*
X63198741Y-88503600D01*
X63204574Y-88592592D01*
X63212800Y-88718098D01*
X63267111Y-88931946D01*
X63269487Y-88937100D01*
X63315742Y-89037433D01*
X63359483Y-89132315D01*
X63362761Y-89136953D01*
X63430516Y-89232824D01*
X63486822Y-89312496D01*
X63490893Y-89316462D01*
X63490894Y-89316463D01*
X63640790Y-89462487D01*
X63640795Y-89462491D01*
X63644864Y-89466455D01*
X63649587Y-89469611D01*
X63649591Y-89469614D01*
X63733174Y-89525462D01*
X63828317Y-89589034D01*
X64031036Y-89676129D01*
X64134369Y-89699511D01*
X64240685Y-89723568D01*
X64240687Y-89723568D01*
X64246232Y-89724823D01*
X64384057Y-89730238D01*
X64461018Y-89733262D01*
X64461020Y-89733262D01*
X64466698Y-89733485D01*
X64472318Y-89732670D01*
X64472321Y-89732670D01*
X64679426Y-89702641D01*
X64679429Y-89702640D01*
X64685052Y-89701825D01*
X64800620Y-89662595D01*
X64888589Y-89632734D01*
X64888592Y-89632733D01*
X64893979Y-89630904D01*
X65034760Y-89552063D01*
X65081531Y-89525870D01*
X65081532Y-89525869D01*
X65086484Y-89523096D01*
X65091008Y-89519334D01*
X65106372Y-89506556D01*
X68714450Y-89506556D01*
X68724175Y-89518847D01*
X68823826Y-89585433D01*
X68833784Y-89590839D01*
X69025966Y-89673406D01*
X69036738Y-89676906D01*
X69240751Y-89723070D01*
X69251981Y-89724548D01*
X69460991Y-89732760D01*
X69472295Y-89732168D01*
X69679315Y-89702152D01*
X69690315Y-89699511D01*
X69888389Y-89632273D01*
X69898740Y-89627665D01*
X70081234Y-89525462D01*
X70088169Y-89520697D01*
X70095958Y-89509099D01*
X70089884Y-89498621D01*
X70003366Y-89412103D01*
X73344601Y-89412103D01*
X73345363Y-89421783D01*
X73357909Y-89501007D01*
X73363864Y-89519334D01*
X73412529Y-89614844D01*
X73423861Y-89630441D01*
X73499653Y-89706233D01*
X73515250Y-89717565D01*
X73610755Y-89766228D01*
X73629095Y-89772186D01*
X73708297Y-89784730D01*
X73717999Y-89785494D01*
X74051770Y-89785494D01*
X74066769Y-89781090D01*
X74067956Y-89779720D01*
X74069600Y-89772162D01*
X74069600Y-89767663D01*
X74469600Y-89767663D01*
X74474004Y-89782662D01*
X74475374Y-89783849D01*
X74482932Y-89785493D01*
X74821209Y-89785493D01*
X74830889Y-89784731D01*
X74910113Y-89772185D01*
X74928440Y-89766230D01*
X75023949Y-89717566D01*
X75028813Y-89714032D01*
X75094620Y-89690552D01*
X75152133Y-89701070D01*
X75246086Y-89742900D01*
X75246094Y-89742903D01*
X75252029Y-89745545D01*
X75258391Y-89746897D01*
X75258390Y-89746897D01*
X75435963Y-89784642D01*
X75435968Y-89784642D01*
X75442326Y-89785994D01*
X75636874Y-89785994D01*
X75643232Y-89784642D01*
X75643237Y-89784642D01*
X75820810Y-89746897D01*
X75820809Y-89746897D01*
X75827171Y-89745545D01*
X75854259Y-89733485D01*
X75998963Y-89669059D01*
X75998964Y-89669058D01*
X76004899Y-89666416D01*
X76101715Y-89596075D01*
X76167521Y-89572595D01*
X76235575Y-89588420D01*
X76247485Y-89596075D01*
X76344301Y-89666416D01*
X76350236Y-89669058D01*
X76350237Y-89669059D01*
X76494942Y-89733485D01*
X76522029Y-89745545D01*
X76528391Y-89746897D01*
X76528390Y-89746897D01*
X76705963Y-89784642D01*
X76705968Y-89784642D01*
X76712326Y-89785994D01*
X76906874Y-89785994D01*
X76913232Y-89784642D01*
X76913237Y-89784642D01*
X77090810Y-89746897D01*
X77090809Y-89746897D01*
X77097171Y-89745545D01*
X77124259Y-89733485D01*
X77268963Y-89669059D01*
X77268964Y-89669058D01*
X77274899Y-89666416D01*
X77432292Y-89552063D01*
X77478263Y-89501007D01*
X77558123Y-89412314D01*
X77558124Y-89412313D01*
X77562470Y-89407486D01*
X77659744Y-89239002D01*
X77719862Y-89053976D01*
X77735100Y-88908998D01*
X77735100Y-88361990D01*
X77719862Y-88217012D01*
X77659744Y-88031986D01*
X77562470Y-87863502D01*
X77448182Y-87736572D01*
X77436641Y-87723755D01*
X77432292Y-87718925D01*
X77405672Y-87699584D01*
X77280158Y-87608393D01*
X77280159Y-87608393D01*
X77274899Y-87604572D01*
X77197154Y-87569958D01*
X77103110Y-87528087D01*
X77103108Y-87528086D01*
X77097171Y-87525443D01*
X77049349Y-87515278D01*
X76913237Y-87486346D01*
X76913232Y-87486346D01*
X76906874Y-87484994D01*
X76712326Y-87484994D01*
X76705968Y-87486346D01*
X76705963Y-87486346D01*
X76569851Y-87515278D01*
X76522029Y-87525443D01*
X76516092Y-87528086D01*
X76516090Y-87528087D01*
X76422046Y-87569958D01*
X76344301Y-87604572D01*
X76339041Y-87608393D01*
X76339042Y-87608393D01*
X76247485Y-87674913D01*
X76181679Y-87698393D01*
X76113625Y-87682568D01*
X76101715Y-87674913D01*
X76010158Y-87608393D01*
X76010159Y-87608393D01*
X76004899Y-87604572D01*
X75927154Y-87569958D01*
X75833110Y-87528087D01*
X75833108Y-87528086D01*
X75827171Y-87525443D01*
X75779349Y-87515278D01*
X75643237Y-87486346D01*
X75643232Y-87486346D01*
X75636874Y-87484994D01*
X75442326Y-87484994D01*
X75435968Y-87486346D01*
X75435963Y-87486346D01*
X75299851Y-87515278D01*
X75252029Y-87525443D01*
X75246094Y-87528085D01*
X75246086Y-87528088D01*
X75152133Y-87569918D01*
X75082883Y-87579202D01*
X75028813Y-87556956D01*
X75023949Y-87553422D01*
X74928445Y-87504760D01*
X74910105Y-87498802D01*
X74830903Y-87486258D01*
X74821201Y-87485494D01*
X74487430Y-87485494D01*
X74472431Y-87489898D01*
X74471244Y-87491268D01*
X74469600Y-87498826D01*
X74469600Y-89767663D01*
X74069600Y-89767663D01*
X74069600Y-88853324D01*
X74065196Y-88838325D01*
X74063826Y-88837138D01*
X74056268Y-88835494D01*
X73362431Y-88835494D01*
X73347432Y-88839898D01*
X73346245Y-88841268D01*
X73344601Y-88848826D01*
X73344601Y-89412103D01*
X70003366Y-89412103D01*
X69416207Y-88824944D01*
X69402487Y-88817452D01*
X69400681Y-88817581D01*
X69394174Y-88821763D01*
X68720546Y-89495391D01*
X68714450Y-89506556D01*
X65106372Y-89506556D01*
X65251751Y-89385644D01*
X65256118Y-89382012D01*
X65313934Y-89312496D01*
X65393571Y-89216744D01*
X65393572Y-89216743D01*
X65397202Y-89212378D01*
X65413001Y-89184168D01*
X65502231Y-89024835D01*
X65505010Y-89019873D01*
X65536782Y-88926277D01*
X65543747Y-88905756D01*
X65575931Y-88810946D01*
X65607591Y-88592592D01*
X65609243Y-88529494D01*
X65606865Y-88503620D01*
X68199244Y-88503620D01*
X68212925Y-88712354D01*
X68214694Y-88723524D01*
X68266187Y-88926277D01*
X68269960Y-88936933D01*
X68357539Y-89126906D01*
X68363195Y-89136702D01*
X68415164Y-89210237D01*
X68425586Y-89218493D01*
X68438674Y-89211577D01*
X69108150Y-88542101D01*
X69114426Y-88530607D01*
X69691558Y-88530607D01*
X69691687Y-88532413D01*
X69695869Y-88538920D01*
X70371583Y-89214634D01*
X70384678Y-89221784D01*
X70394081Y-89215114D01*
X70399568Y-89207128D01*
X70501771Y-89024634D01*
X70506379Y-89014283D01*
X70573617Y-88816209D01*
X70576258Y-88805209D01*
X70606565Y-88596182D01*
X70607185Y-88588908D01*
X70608645Y-88533155D01*
X70608406Y-88525853D01*
X70598465Y-88417664D01*
X73344600Y-88417664D01*
X73349004Y-88432663D01*
X73350374Y-88433850D01*
X73357932Y-88435494D01*
X74051770Y-88435494D01*
X74066769Y-88431090D01*
X74067956Y-88429720D01*
X74069600Y-88422162D01*
X74069600Y-87503325D01*
X74065196Y-87488326D01*
X74063826Y-87487139D01*
X74056268Y-87485495D01*
X73717991Y-87485495D01*
X73708311Y-87486257D01*
X73629087Y-87498803D01*
X73610760Y-87504758D01*
X73515250Y-87553423D01*
X73499653Y-87564755D01*
X73423861Y-87640547D01*
X73412529Y-87656144D01*
X73363866Y-87751649D01*
X73357908Y-87769989D01*
X73345364Y-87849191D01*
X73344600Y-87858893D01*
X73344600Y-88417664D01*
X70598465Y-88417664D01*
X70589081Y-88315534D01*
X70587017Y-88304401D01*
X70530239Y-88103082D01*
X70526182Y-88092511D01*
X70433667Y-87904910D01*
X70427750Y-87895254D01*
X70392646Y-87848245D01*
X70381565Y-87839929D01*
X70369344Y-87846593D01*
X69699050Y-88516887D01*
X69691558Y-88530607D01*
X69114426Y-88530607D01*
X69115642Y-88528381D01*
X69115513Y-88526575D01*
X69111331Y-88520068D01*
X68437012Y-87845749D01*
X68424377Y-87838850D01*
X68413858Y-87846521D01*
X68396404Y-87868662D01*
X68390237Y-87878158D01*
X68292841Y-88063278D01*
X68288508Y-88073739D01*
X68226480Y-88273501D01*
X68224126Y-88284572D01*
X68199540Y-88492301D01*
X68199244Y-88503620D01*
X65606865Y-88503620D01*
X65589054Y-88309783D01*
X65529165Y-88097430D01*
X65431580Y-87899547D01*
X65299567Y-87722761D01*
X65137549Y-87572993D01*
X65132739Y-87569958D01*
X65100339Y-87549515D01*
X68711287Y-87549515D01*
X68714717Y-87557768D01*
X69390993Y-88234044D01*
X69404713Y-88241536D01*
X69406519Y-88241407D01*
X69413026Y-88237225D01*
X70087613Y-87562638D01*
X70094264Y-87550457D01*
X70088329Y-87542528D01*
X69955532Y-87458740D01*
X69945441Y-87453599D01*
X69751167Y-87376091D01*
X69740295Y-87372870D01*
X69535156Y-87332066D01*
X69523880Y-87330880D01*
X69314735Y-87328142D01*
X69303441Y-87329031D01*
X69097290Y-87364454D01*
X69086354Y-87367385D01*
X68890105Y-87439784D01*
X68879887Y-87444658D01*
X68720733Y-87539345D01*
X68711287Y-87549515D01*
X65100339Y-87549515D01*
X64955759Y-87458292D01*
X64955757Y-87458291D01*
X64950950Y-87455258D01*
X64746021Y-87373500D01*
X64740440Y-87372390D01*
X64740437Y-87372389D01*
X64614073Y-87347254D01*
X64529624Y-87330456D01*
X64523937Y-87330382D01*
X64523932Y-87330381D01*
X64314695Y-87327642D01*
X64314690Y-87327642D01*
X64309006Y-87327568D01*
X64303402Y-87328531D01*
X64303401Y-87328531D01*
X64097160Y-87363969D01*
X64097157Y-87363970D01*
X64091557Y-87364932D01*
X63884557Y-87441298D01*
X63855993Y-87458292D01*
X63738677Y-87528088D01*
X63694941Y-87554108D01*
X63529057Y-87699584D01*
X63392463Y-87872854D01*
X63389816Y-87877885D01*
X63333769Y-87984413D01*
X63289731Y-88068114D01*
X63288043Y-88073549D01*
X63288043Y-88073550D01*
X63280628Y-88097430D01*
X63224303Y-88278827D01*
X63223635Y-88284472D01*
X63223634Y-88284476D01*
X63206095Y-88432663D01*
X63198370Y-88497934D01*
X60115842Y-88497934D01*
X60127771Y-88476634D01*
X60132379Y-88466283D01*
X60199617Y-88268209D01*
X60202258Y-88257209D01*
X60232565Y-88048182D01*
X60233185Y-88040908D01*
X60234645Y-87985155D01*
X60234406Y-87977853D01*
X60215081Y-87767534D01*
X60213017Y-87756401D01*
X60156239Y-87555082D01*
X60152182Y-87544511D01*
X60059667Y-87356910D01*
X60053750Y-87347254D01*
X60018646Y-87300245D01*
X60007565Y-87291929D01*
X59995344Y-87298593D01*
X59325050Y-87968887D01*
X59317558Y-87982607D01*
X58740426Y-87982607D01*
X58741642Y-87980381D01*
X58741513Y-87978575D01*
X58737331Y-87972068D01*
X58063012Y-87297749D01*
X58050377Y-87290850D01*
X58039858Y-87298521D01*
X58022404Y-87320662D01*
X58016237Y-87330158D01*
X57918841Y-87515278D01*
X57914508Y-87525739D01*
X57852480Y-87725501D01*
X57850126Y-87736572D01*
X57825540Y-87944301D01*
X57825244Y-87955620D01*
X52368100Y-87955620D01*
X52368100Y-87001515D01*
X58337287Y-87001515D01*
X58340717Y-87009768D01*
X59016993Y-87686044D01*
X59030713Y-87693536D01*
X59032519Y-87693407D01*
X59039026Y-87689225D01*
X59713613Y-87014638D01*
X59720264Y-87002457D01*
X59714329Y-86994528D01*
X59581532Y-86910740D01*
X59571441Y-86905599D01*
X59484977Y-86871103D01*
X81909601Y-86871103D01*
X81910363Y-86880783D01*
X81922909Y-86960007D01*
X81928864Y-86978334D01*
X81977529Y-87073844D01*
X81988861Y-87089441D01*
X82064653Y-87165233D01*
X82080250Y-87176565D01*
X82175755Y-87225228D01*
X82194095Y-87231186D01*
X82273297Y-87243730D01*
X82282999Y-87244494D01*
X82941770Y-87244494D01*
X82956769Y-87240090D01*
X82957956Y-87238720D01*
X82959600Y-87231162D01*
X82959600Y-87226663D01*
X83359600Y-87226663D01*
X83364004Y-87241662D01*
X83365374Y-87242849D01*
X83372932Y-87244493D01*
X84036209Y-87244493D01*
X84045889Y-87243731D01*
X84125113Y-87231185D01*
X84143440Y-87225230D01*
X84238950Y-87176565D01*
X84254547Y-87165233D01*
X84330339Y-87089441D01*
X84341671Y-87073844D01*
X84390334Y-86978339D01*
X84396292Y-86959999D01*
X84408836Y-86880797D01*
X84409600Y-86871095D01*
X84409600Y-86212324D01*
X84405196Y-86197325D01*
X84403826Y-86196138D01*
X84396268Y-86194494D01*
X83377430Y-86194494D01*
X83362431Y-86198898D01*
X83361244Y-86200268D01*
X83359600Y-86207826D01*
X83359600Y-87226663D01*
X82959600Y-87226663D01*
X82959600Y-86212324D01*
X82955196Y-86197325D01*
X82953826Y-86196138D01*
X82946268Y-86194494D01*
X81927431Y-86194494D01*
X81912432Y-86198898D01*
X81911245Y-86200268D01*
X81909601Y-86207826D01*
X81909601Y-86871103D01*
X59484977Y-86871103D01*
X59377167Y-86828091D01*
X59366295Y-86824870D01*
X59161156Y-86784066D01*
X59149880Y-86782880D01*
X58940735Y-86780142D01*
X58929441Y-86781031D01*
X58723290Y-86816454D01*
X58712354Y-86819385D01*
X58516105Y-86891784D01*
X58505887Y-86896658D01*
X58346733Y-86991345D01*
X58337287Y-87001515D01*
X52368100Y-87001515D01*
X52368100Y-84211494D01*
X52948323Y-84211494D01*
X52967393Y-84429471D01*
X52968795Y-84434703D01*
X53005985Y-84573497D01*
X53024025Y-84640824D01*
X53116498Y-84839132D01*
X53119605Y-84843569D01*
X53119606Y-84843571D01*
X53238896Y-85013936D01*
X53238900Y-85013940D01*
X53242002Y-85018371D01*
X53396723Y-85173092D01*
X53575961Y-85298596D01*
X53774270Y-85391069D01*
X53779493Y-85392468D01*
X53779497Y-85392470D01*
X53946501Y-85437218D01*
X53985623Y-85447701D01*
X54203600Y-85466771D01*
X54421577Y-85447701D01*
X54460699Y-85437218D01*
X54627703Y-85392470D01*
X54627707Y-85392468D01*
X54632930Y-85391069D01*
X54831239Y-85298596D01*
X55010477Y-85173092D01*
X55165198Y-85018371D01*
X55168300Y-85013940D01*
X55168304Y-85013936D01*
X55287594Y-84843571D01*
X55287595Y-84843569D01*
X55290702Y-84839132D01*
X55383175Y-84640824D01*
X55401216Y-84573497D01*
X55438405Y-84434703D01*
X55439807Y-84429471D01*
X55458877Y-84211494D01*
X55439807Y-83993517D01*
X55418631Y-83914487D01*
X55384576Y-83787391D01*
X55384574Y-83787387D01*
X55383175Y-83782164D01*
X55290702Y-83583856D01*
X55261702Y-83542439D01*
X55168304Y-83409052D01*
X55168300Y-83409048D01*
X55165198Y-83404617D01*
X55010477Y-83249896D01*
X54831239Y-83124392D01*
X54679425Y-83053600D01*
X54626986Y-83007428D01*
X54610599Y-82949934D01*
X57824370Y-82949934D01*
X57824741Y-82955596D01*
X57824741Y-82955600D01*
X57830574Y-83044592D01*
X57838800Y-83170098D01*
X57893111Y-83383946D01*
X57895487Y-83389100D01*
X57902641Y-83404617D01*
X57985483Y-83584315D01*
X57995389Y-83598331D01*
X58095419Y-83739871D01*
X58112822Y-83764496D01*
X58116893Y-83768462D01*
X58116894Y-83768463D01*
X58266790Y-83914487D01*
X58266795Y-83914491D01*
X58270864Y-83918455D01*
X58275587Y-83921611D01*
X58275591Y-83921614D01*
X58359785Y-83977870D01*
X58454317Y-84041034D01*
X58657036Y-84128129D01*
X58690115Y-84135614D01*
X58866685Y-84175568D01*
X58866687Y-84175568D01*
X58872232Y-84176823D01*
X59010057Y-84182238D01*
X59087018Y-84185262D01*
X59087020Y-84185262D01*
X59092698Y-84185485D01*
X59098318Y-84184670D01*
X59098321Y-84184670D01*
X59305426Y-84154641D01*
X59305429Y-84154640D01*
X59311052Y-84153825D01*
X59418077Y-84117495D01*
X59514589Y-84084734D01*
X59514592Y-84084733D01*
X59519979Y-84082904D01*
X59605176Y-84035192D01*
X59707531Y-83977870D01*
X59707532Y-83977869D01*
X59712484Y-83975096D01*
X59882118Y-83834012D01*
X59943386Y-83760346D01*
X60019571Y-83668744D01*
X60019572Y-83668743D01*
X60023202Y-83664378D01*
X60068297Y-83583856D01*
X60128231Y-83476835D01*
X60131010Y-83471873D01*
X60136910Y-83454494D01*
X60200102Y-83268333D01*
X60201931Y-83262946D01*
X60204274Y-83246791D01*
X60222352Y-83122106D01*
X60233591Y-83044592D01*
X60235243Y-82981494D01*
X60215054Y-82761783D01*
X60185943Y-82658563D01*
X60718764Y-82658563D01*
X60719135Y-82664225D01*
X60719135Y-82664229D01*
X60724451Y-82745336D01*
X60731992Y-82860388D01*
X60781778Y-83056422D01*
X60866456Y-83240101D01*
X60983188Y-83405274D01*
X61128066Y-83546407D01*
X61296237Y-83658776D01*
X61482070Y-83738616D01*
X61575941Y-83759857D01*
X61673793Y-83781999D01*
X61673795Y-83781999D01*
X61679340Y-83783254D01*
X61784642Y-83787391D01*
X61875761Y-83790971D01*
X61875763Y-83790971D01*
X61881442Y-83791194D01*
X61887062Y-83790379D01*
X61887065Y-83790379D01*
X62075987Y-83762987D01*
X62075989Y-83762987D01*
X62081607Y-83762172D01*
X62086984Y-83760347D01*
X62086987Y-83760346D01*
X62171690Y-83731593D01*
X62273131Y-83697158D01*
X62374497Y-83640391D01*
X62444648Y-83601105D01*
X62444650Y-83601104D01*
X62449601Y-83598331D01*
X62461101Y-83588767D01*
X62600738Y-83472631D01*
X62605105Y-83468999D01*
X62734437Y-83313495D01*
X62767910Y-83253725D01*
X62830486Y-83141985D01*
X62833264Y-83137025D01*
X62876695Y-83009083D01*
X62896452Y-82950881D01*
X62896453Y-82950878D01*
X62898278Y-82945501D01*
X62899093Y-82939881D01*
X62926776Y-82748952D01*
X62926776Y-82748947D01*
X62927300Y-82745336D01*
X62928815Y-82687494D01*
X62926157Y-82658563D01*
X65798764Y-82658563D01*
X65799135Y-82664225D01*
X65799135Y-82664229D01*
X65804451Y-82745336D01*
X65811992Y-82860388D01*
X65861778Y-83056422D01*
X65946456Y-83240101D01*
X66063188Y-83405274D01*
X66208066Y-83546407D01*
X66376237Y-83658776D01*
X66562070Y-83738616D01*
X66655941Y-83759857D01*
X66753793Y-83781999D01*
X66753795Y-83781999D01*
X66759340Y-83783254D01*
X66864642Y-83787391D01*
X66955761Y-83790971D01*
X66955763Y-83790971D01*
X66961442Y-83791194D01*
X66967062Y-83790379D01*
X66967065Y-83790379D01*
X67155987Y-83762987D01*
X67155989Y-83762987D01*
X67161607Y-83762172D01*
X67166984Y-83760347D01*
X67166987Y-83760346D01*
X67251690Y-83731593D01*
X67353131Y-83697158D01*
X67454497Y-83640391D01*
X67524648Y-83601105D01*
X67524650Y-83601104D01*
X67529601Y-83598331D01*
X67541101Y-83588767D01*
X67680738Y-83472631D01*
X67685105Y-83468999D01*
X67814437Y-83313495D01*
X67847910Y-83253725D01*
X67898194Y-83163934D01*
X71580370Y-83163934D01*
X71580741Y-83169596D01*
X71580741Y-83169600D01*
X71586491Y-83257320D01*
X71594800Y-83384098D01*
X71649111Y-83597946D01*
X71651487Y-83603100D01*
X71734643Y-83783477D01*
X71741483Y-83798315D01*
X71744761Y-83802953D01*
X71801915Y-83883824D01*
X71868822Y-83978496D01*
X71872893Y-83982462D01*
X71872894Y-83982463D01*
X72022790Y-84128487D01*
X72022795Y-84128491D01*
X72026864Y-84132455D01*
X72031587Y-84135611D01*
X72031591Y-84135614D01*
X72115785Y-84191870D01*
X72210317Y-84255034D01*
X72413036Y-84342129D01*
X72518513Y-84365996D01*
X72622685Y-84389568D01*
X72622687Y-84389568D01*
X72628232Y-84390823D01*
X72766057Y-84396238D01*
X72843018Y-84399262D01*
X72843020Y-84399262D01*
X72848698Y-84399485D01*
X72854318Y-84398670D01*
X72854321Y-84398670D01*
X73061426Y-84368641D01*
X73061429Y-84368640D01*
X73067052Y-84367825D01*
X73174077Y-84331495D01*
X73270589Y-84298734D01*
X73270592Y-84298733D01*
X73275979Y-84296904D01*
X73468484Y-84189096D01*
X73482973Y-84177046D01*
X73633751Y-84051644D01*
X73638118Y-84048012D01*
X73698762Y-83975096D01*
X73775571Y-83882744D01*
X73775572Y-83882743D01*
X73779202Y-83878378D01*
X73887010Y-83685873D01*
X73889784Y-83677703D01*
X73923235Y-83579157D01*
X73957931Y-83476946D01*
X73959084Y-83468999D01*
X73981630Y-83313495D01*
X73989591Y-83258592D01*
X73991243Y-83195494D01*
X73988343Y-83163934D01*
X76580370Y-83163934D01*
X76580741Y-83169596D01*
X76580741Y-83169600D01*
X76586491Y-83257320D01*
X76594800Y-83384098D01*
X76649111Y-83597946D01*
X76651487Y-83603100D01*
X76734643Y-83783477D01*
X76741483Y-83798315D01*
X76744761Y-83802953D01*
X76801915Y-83883824D01*
X76868822Y-83978496D01*
X76872893Y-83982462D01*
X76872894Y-83982463D01*
X77022790Y-84128487D01*
X77022795Y-84128491D01*
X77026864Y-84132455D01*
X77031587Y-84135611D01*
X77031591Y-84135614D01*
X77115785Y-84191870D01*
X77210317Y-84255034D01*
X77413036Y-84342129D01*
X77518513Y-84365996D01*
X77622685Y-84389568D01*
X77622687Y-84389568D01*
X77628232Y-84390823D01*
X77766057Y-84396238D01*
X77843018Y-84399262D01*
X77843020Y-84399262D01*
X77848698Y-84399485D01*
X77854318Y-84398670D01*
X77854321Y-84398670D01*
X78061426Y-84368641D01*
X78061429Y-84368640D01*
X78067052Y-84367825D01*
X78174077Y-84331495D01*
X78270589Y-84298734D01*
X78270592Y-84298733D01*
X78275979Y-84296904D01*
X78468484Y-84189096D01*
X78482973Y-84177046D01*
X78633751Y-84051644D01*
X78638118Y-84048012D01*
X78698762Y-83975096D01*
X78775571Y-83882744D01*
X78775572Y-83882743D01*
X78779202Y-83878378D01*
X78887010Y-83685873D01*
X78889784Y-83677703D01*
X78923235Y-83579157D01*
X78957931Y-83476946D01*
X78959084Y-83468999D01*
X78961187Y-83454494D01*
X81904323Y-83454494D01*
X81923393Y-83672471D01*
X81924795Y-83677703D01*
X81978566Y-83878378D01*
X81980025Y-83883824D01*
X82072498Y-84082132D01*
X82075605Y-84086569D01*
X82075606Y-84086571D01*
X82194896Y-84256936D01*
X82194900Y-84256940D01*
X82198002Y-84261371D01*
X82352723Y-84416092D01*
X82445877Y-84481319D01*
X82499576Y-84518920D01*
X82543200Y-84573497D01*
X82550393Y-84642996D01*
X82518871Y-84705350D01*
X82458641Y-84740764D01*
X82428452Y-84744495D01*
X82282991Y-84744495D01*
X82273311Y-84745257D01*
X82194087Y-84757803D01*
X82175760Y-84763758D01*
X82080250Y-84812423D01*
X82064653Y-84823755D01*
X81988861Y-84899547D01*
X81977529Y-84915144D01*
X81928866Y-85010649D01*
X81922908Y-85028989D01*
X81910364Y-85108191D01*
X81909600Y-85117893D01*
X81909600Y-85776664D01*
X81914004Y-85791663D01*
X81915374Y-85792850D01*
X81922932Y-85794494D01*
X84391769Y-85794494D01*
X84406768Y-85790090D01*
X84407955Y-85788720D01*
X84409599Y-85781162D01*
X84409599Y-85117885D01*
X84408837Y-85108205D01*
X84396291Y-85028981D01*
X84390336Y-85010654D01*
X84341671Y-84915144D01*
X84330339Y-84899547D01*
X84254547Y-84823755D01*
X84238950Y-84812423D01*
X84143445Y-84763760D01*
X84125105Y-84757802D01*
X84045903Y-84745258D01*
X84036201Y-84744494D01*
X83890749Y-84744494D01*
X83823710Y-84724809D01*
X83777955Y-84672005D01*
X83768011Y-84602847D01*
X83797036Y-84539291D01*
X83819625Y-84518919D01*
X83966477Y-84416092D01*
X84121198Y-84261371D01*
X84124300Y-84256940D01*
X84124304Y-84256936D01*
X84243594Y-84086571D01*
X84243595Y-84086569D01*
X84246702Y-84082132D01*
X84339175Y-83883824D01*
X84340635Y-83878378D01*
X84394405Y-83677703D01*
X84395807Y-83672471D01*
X84414877Y-83454494D01*
X84395807Y-83236517D01*
X84347551Y-83056422D01*
X84340576Y-83030391D01*
X84340574Y-83030387D01*
X84339175Y-83025164D01*
X84246702Y-82826856D01*
X84243594Y-82822417D01*
X84124304Y-82652052D01*
X84124300Y-82652048D01*
X84121198Y-82647617D01*
X83966477Y-82492896D01*
X83787239Y-82367392D01*
X83588930Y-82274919D01*
X83583707Y-82273520D01*
X83583703Y-82273518D01*
X83382809Y-82219689D01*
X83382810Y-82219689D01*
X83377577Y-82218287D01*
X83159600Y-82199217D01*
X82941623Y-82218287D01*
X82936390Y-82219689D01*
X82936391Y-82219689D01*
X82735497Y-82273518D01*
X82735493Y-82273520D01*
X82730270Y-82274919D01*
X82531962Y-82367392D01*
X82527525Y-82370499D01*
X82527523Y-82370500D01*
X82357158Y-82489790D01*
X82357157Y-82489791D01*
X82352723Y-82492896D01*
X82198002Y-82647617D01*
X82194900Y-82652048D01*
X82194896Y-82652052D01*
X82075606Y-82822417D01*
X82072498Y-82826856D01*
X81980025Y-83025164D01*
X81978626Y-83030387D01*
X81978624Y-83030391D01*
X81971649Y-83056422D01*
X81923393Y-83236517D01*
X81904323Y-83454494D01*
X78961187Y-83454494D01*
X78981630Y-83313495D01*
X78989591Y-83258592D01*
X78991243Y-83195494D01*
X78971054Y-82975783D01*
X78911165Y-82763430D01*
X78813580Y-82565547D01*
X78681567Y-82388761D01*
X78519549Y-82238993D01*
X78424973Y-82179320D01*
X78337759Y-82124292D01*
X78337757Y-82124291D01*
X78332950Y-82121258D01*
X78128021Y-82039500D01*
X78122440Y-82038390D01*
X78122437Y-82038389D01*
X77979005Y-82009859D01*
X77911624Y-81996456D01*
X77905937Y-81996382D01*
X77905932Y-81996381D01*
X77696695Y-81993642D01*
X77696690Y-81993642D01*
X77691006Y-81993568D01*
X77685402Y-81994531D01*
X77685401Y-81994531D01*
X77479160Y-82029969D01*
X77479157Y-82029970D01*
X77473557Y-82030932D01*
X77266557Y-82107298D01*
X77237993Y-82124292D01*
X77112056Y-82199217D01*
X77076941Y-82220108D01*
X76911057Y-82365584D01*
X76774463Y-82538854D01*
X76771816Y-82543885D01*
X76708500Y-82664229D01*
X76671731Y-82734114D01*
X76670043Y-82739549D01*
X76670043Y-82739550D01*
X76662628Y-82763430D01*
X76606303Y-82944827D01*
X76605635Y-82950472D01*
X76605634Y-82950476D01*
X76598698Y-83009083D01*
X76580370Y-83163934D01*
X73988343Y-83163934D01*
X73971054Y-82975783D01*
X73911165Y-82763430D01*
X73813580Y-82565547D01*
X73681567Y-82388761D01*
X73519549Y-82238993D01*
X73424973Y-82179320D01*
X73337759Y-82124292D01*
X73337757Y-82124291D01*
X73332950Y-82121258D01*
X73128021Y-82039500D01*
X73122440Y-82038390D01*
X73122437Y-82038389D01*
X72979005Y-82009859D01*
X72911624Y-81996456D01*
X72905937Y-81996382D01*
X72905932Y-81996381D01*
X72696695Y-81993642D01*
X72696690Y-81993642D01*
X72691006Y-81993568D01*
X72685402Y-81994531D01*
X72685401Y-81994531D01*
X72479160Y-82029969D01*
X72479157Y-82029970D01*
X72473557Y-82030932D01*
X72266557Y-82107298D01*
X72237993Y-82124292D01*
X72112056Y-82199217D01*
X72076941Y-82220108D01*
X71911057Y-82365584D01*
X71774463Y-82538854D01*
X71771816Y-82543885D01*
X71708500Y-82664229D01*
X71671731Y-82734114D01*
X71670043Y-82739549D01*
X71670043Y-82739550D01*
X71662628Y-82763430D01*
X71606303Y-82944827D01*
X71605635Y-82950472D01*
X71605634Y-82950476D01*
X71598698Y-83009083D01*
X71580370Y-83163934D01*
X67898194Y-83163934D01*
X67910486Y-83141985D01*
X67913264Y-83137025D01*
X67956695Y-83009083D01*
X67976452Y-82950881D01*
X67976453Y-82950878D01*
X67978278Y-82945501D01*
X67979093Y-82939881D01*
X68006776Y-82748952D01*
X68006776Y-82748947D01*
X68007300Y-82745336D01*
X68008815Y-82687494D01*
X67990308Y-82486085D01*
X67946255Y-82329885D01*
X67936952Y-82296897D01*
X67936951Y-82296894D01*
X67935407Y-82291420D01*
X67845951Y-82110021D01*
X67724935Y-81947961D01*
X67592457Y-81825500D01*
X67580588Y-81814528D01*
X67580586Y-81814527D01*
X67576412Y-81810668D01*
X67405357Y-81702740D01*
X67217498Y-81627792D01*
X67211917Y-81626682D01*
X67211914Y-81626681D01*
X67143973Y-81613167D01*
X67019126Y-81588333D01*
X67013439Y-81588259D01*
X67013434Y-81588258D01*
X66822575Y-81585760D01*
X66822570Y-81585760D01*
X66816886Y-81585686D01*
X66811282Y-81586649D01*
X66811281Y-81586649D01*
X66623146Y-81618976D01*
X66623143Y-81618977D01*
X66617549Y-81619938D01*
X66596260Y-81627792D01*
X66433121Y-81687977D01*
X66433117Y-81687979D01*
X66427793Y-81689943D01*
X66422910Y-81692848D01*
X66422908Y-81692849D01*
X66277022Y-81779642D01*
X66253971Y-81793356D01*
X66101905Y-81926714D01*
X65976689Y-82085551D01*
X65974042Y-82090582D01*
X65895959Y-82238993D01*
X65882514Y-82264547D01*
X65880829Y-82269973D01*
X65880828Y-82269976D01*
X65852305Y-82361838D01*
X65822537Y-82457707D01*
X65798764Y-82658563D01*
X62926157Y-82658563D01*
X62910308Y-82486085D01*
X62866255Y-82329885D01*
X62856952Y-82296897D01*
X62856951Y-82296894D01*
X62855407Y-82291420D01*
X62765951Y-82110021D01*
X62644935Y-81947961D01*
X62512457Y-81825500D01*
X62500588Y-81814528D01*
X62500586Y-81814527D01*
X62496412Y-81810668D01*
X62325357Y-81702740D01*
X62137498Y-81627792D01*
X62131917Y-81626682D01*
X62131914Y-81626681D01*
X62063973Y-81613167D01*
X61939126Y-81588333D01*
X61933439Y-81588259D01*
X61933434Y-81588258D01*
X61742575Y-81585760D01*
X61742570Y-81585760D01*
X61736886Y-81585686D01*
X61731282Y-81586649D01*
X61731281Y-81586649D01*
X61543146Y-81618976D01*
X61543143Y-81618977D01*
X61537549Y-81619938D01*
X61516260Y-81627792D01*
X61353121Y-81687977D01*
X61353117Y-81687979D01*
X61347793Y-81689943D01*
X61342910Y-81692848D01*
X61342908Y-81692849D01*
X61197022Y-81779642D01*
X61173971Y-81793356D01*
X61021905Y-81926714D01*
X60896689Y-82085551D01*
X60894042Y-82090582D01*
X60815959Y-82238993D01*
X60802514Y-82264547D01*
X60800829Y-82269973D01*
X60800828Y-82269976D01*
X60772305Y-82361838D01*
X60742537Y-82457707D01*
X60718764Y-82658563D01*
X60185943Y-82658563D01*
X60155165Y-82549430D01*
X60149950Y-82538854D01*
X60060095Y-82356647D01*
X60057580Y-82351547D01*
X59925567Y-82174761D01*
X59763549Y-82024993D01*
X59729006Y-82003198D01*
X59581759Y-81910292D01*
X59581757Y-81910291D01*
X59576950Y-81907258D01*
X59372021Y-81825500D01*
X59366440Y-81824390D01*
X59366437Y-81824389D01*
X59263823Y-81803978D01*
X59155624Y-81782456D01*
X59149937Y-81782382D01*
X59149932Y-81782381D01*
X58940695Y-81779642D01*
X58940690Y-81779642D01*
X58935006Y-81779568D01*
X58929402Y-81780531D01*
X58929401Y-81780531D01*
X58723160Y-81815969D01*
X58723157Y-81815970D01*
X58717557Y-81816932D01*
X58510557Y-81893298D01*
X58481993Y-81910292D01*
X58337165Y-81996456D01*
X58320941Y-82006108D01*
X58155057Y-82151584D01*
X58018463Y-82324854D01*
X58015816Y-82329885D01*
X57940197Y-82473613D01*
X57915731Y-82520114D01*
X57850303Y-82730827D01*
X57849635Y-82736472D01*
X57849634Y-82736476D01*
X57838937Y-82826856D01*
X57824370Y-82949934D01*
X54610599Y-82949934D01*
X54607834Y-82940234D01*
X54628050Y-82873353D01*
X54679425Y-82828836D01*
X54826085Y-82760447D01*
X54835417Y-82755059D01*
X55005719Y-82635812D01*
X55013985Y-82628876D01*
X55160984Y-82481877D01*
X55167919Y-82473613D01*
X55287159Y-82303320D01*
X55292557Y-82293970D01*
X55380413Y-82105562D01*
X55384105Y-82095419D01*
X55437912Y-81894608D01*
X55439074Y-81888016D01*
X55436366Y-81874543D01*
X55424803Y-81871494D01*
X52984153Y-81871494D01*
X52969754Y-81875722D01*
X52967878Y-81886611D01*
X52969288Y-81894608D01*
X53023095Y-82095419D01*
X53026787Y-82105562D01*
X53114643Y-82293970D01*
X53120041Y-82303320D01*
X53239281Y-82473613D01*
X53246216Y-82481877D01*
X53393215Y-82628876D01*
X53401481Y-82635812D01*
X53571783Y-82755059D01*
X53581115Y-82760447D01*
X53727775Y-82828836D01*
X53780214Y-82875008D01*
X53799366Y-82942202D01*
X53779150Y-83009083D01*
X53727775Y-83053600D01*
X53575962Y-83124392D01*
X53571525Y-83127499D01*
X53571523Y-83127500D01*
X53401158Y-83246790D01*
X53401157Y-83246791D01*
X53396723Y-83249896D01*
X53242002Y-83404617D01*
X53238900Y-83409048D01*
X53238896Y-83409052D01*
X53145498Y-83542439D01*
X53116498Y-83583856D01*
X53024025Y-83782164D01*
X53022626Y-83787387D01*
X53022624Y-83787391D01*
X52988569Y-83914487D01*
X52967393Y-83993517D01*
X52948323Y-84211494D01*
X52368100Y-84211494D01*
X52368100Y-78249975D01*
X52953100Y-78249975D01*
X52953101Y-80013012D01*
X52967954Y-80106798D01*
X53025550Y-80219836D01*
X53115258Y-80309544D01*
X53228296Y-80367140D01*
X53257533Y-80371771D01*
X53317261Y-80381231D01*
X53317266Y-80381231D01*
X53322081Y-80381994D01*
X53472611Y-80381994D01*
X53539650Y-80401679D01*
X53585405Y-80454483D01*
X53595349Y-80523641D01*
X53566324Y-80587197D01*
X53543734Y-80607569D01*
X53401481Y-80707175D01*
X53393217Y-80714110D01*
X53246216Y-80861111D01*
X53239281Y-80869375D01*
X53120041Y-81039668D01*
X53114643Y-81049018D01*
X53026787Y-81237426D01*
X53023095Y-81247569D01*
X52969288Y-81448380D01*
X52968126Y-81454972D01*
X52970834Y-81468445D01*
X52982397Y-81471494D01*
X55423047Y-81471494D01*
X55437446Y-81467266D01*
X55439322Y-81456377D01*
X55437912Y-81448380D01*
X55384105Y-81247569D01*
X55380413Y-81237426D01*
X55292557Y-81049018D01*
X55287159Y-81039668D01*
X55167919Y-80869375D01*
X55160984Y-80861111D01*
X55013985Y-80714112D01*
X55005719Y-80707176D01*
X54863465Y-80607568D01*
X54819841Y-80552991D01*
X54812648Y-80483492D01*
X54844170Y-80421138D01*
X54904400Y-80385724D01*
X54934588Y-80381993D01*
X55085118Y-80381993D01*
X55157751Y-80370490D01*
X55169269Y-80368666D01*
X55169270Y-80368666D01*
X55178904Y-80367140D01*
X55291942Y-80309544D01*
X55381650Y-80219836D01*
X55439246Y-80106798D01*
X55444826Y-80071568D01*
X55453337Y-80017833D01*
X55453337Y-80017828D01*
X55454100Y-80013013D01*
X55454099Y-78848563D01*
X57416764Y-78848563D01*
X57417135Y-78854225D01*
X57417135Y-78854229D01*
X57422451Y-78935336D01*
X57429992Y-79050388D01*
X57479778Y-79246422D01*
X57564456Y-79430101D01*
X57681188Y-79595274D01*
X57826066Y-79736407D01*
X57994237Y-79848776D01*
X58180070Y-79928616D01*
X58217272Y-79937034D01*
X58371793Y-79971999D01*
X58371795Y-79971999D01*
X58377340Y-79973254D01*
X58494735Y-79977866D01*
X58573761Y-79980971D01*
X58573763Y-79980971D01*
X58579442Y-79981194D01*
X58585062Y-79980379D01*
X58585065Y-79980379D01*
X58773987Y-79952987D01*
X58773989Y-79952987D01*
X58779607Y-79952172D01*
X58784984Y-79950347D01*
X58784987Y-79950346D01*
X58869690Y-79921593D01*
X58971131Y-79887158D01*
X59147601Y-79788331D01*
X59210033Y-79736407D01*
X59298738Y-79662631D01*
X59303105Y-79658999D01*
X59359964Y-79590634D01*
X59428806Y-79507861D01*
X59428807Y-79507860D01*
X59432437Y-79503495D01*
X59531264Y-79327025D01*
X59586491Y-79164333D01*
X59594452Y-79140881D01*
X59594453Y-79140878D01*
X59596278Y-79135501D01*
X59609440Y-79044722D01*
X59624776Y-78938952D01*
X59624776Y-78938947D01*
X59625300Y-78935336D01*
X59626815Y-78877494D01*
X59624157Y-78848563D01*
X65036764Y-78848563D01*
X65037135Y-78854225D01*
X65037135Y-78854229D01*
X65042451Y-78935336D01*
X65049992Y-79050388D01*
X65099778Y-79246422D01*
X65184456Y-79430101D01*
X65301188Y-79595274D01*
X65446066Y-79736407D01*
X65614237Y-79848776D01*
X65800070Y-79928616D01*
X65837272Y-79937034D01*
X65991793Y-79971999D01*
X65991795Y-79971999D01*
X65997340Y-79973254D01*
X66114735Y-79977866D01*
X66193761Y-79980971D01*
X66193763Y-79980971D01*
X66199442Y-79981194D01*
X66205062Y-79980379D01*
X66205065Y-79980379D01*
X66393987Y-79952987D01*
X66393989Y-79952987D01*
X66399607Y-79952172D01*
X66404984Y-79950347D01*
X66404987Y-79950346D01*
X66489690Y-79921593D01*
X66591131Y-79887158D01*
X66767601Y-79788331D01*
X66830033Y-79736407D01*
X66918738Y-79662631D01*
X66923105Y-79658999D01*
X66979964Y-79590634D01*
X67048806Y-79507861D01*
X67048807Y-79507860D01*
X67052437Y-79503495D01*
X67151264Y-79327025D01*
X67206491Y-79164333D01*
X67214452Y-79140881D01*
X67214453Y-79140878D01*
X67216278Y-79135501D01*
X67229440Y-79044722D01*
X67244776Y-78938952D01*
X67244776Y-78938947D01*
X67245300Y-78935336D01*
X67246815Y-78877494D01*
X67243915Y-78845934D01*
X69000370Y-78845934D01*
X69000741Y-78851596D01*
X69000741Y-78851600D01*
X69006467Y-78938952D01*
X69014800Y-79066098D01*
X69069111Y-79279946D01*
X69161483Y-79480315D01*
X69164761Y-79484953D01*
X69284678Y-79654632D01*
X69288822Y-79660496D01*
X69292893Y-79664462D01*
X69292894Y-79664463D01*
X69442790Y-79810487D01*
X69442795Y-79810491D01*
X69446864Y-79814455D01*
X69451587Y-79817611D01*
X69451591Y-79817614D01*
X69535785Y-79873870D01*
X69630317Y-79937034D01*
X69833036Y-80024129D01*
X69938513Y-80047996D01*
X70042685Y-80071568D01*
X70042687Y-80071568D01*
X70048232Y-80072823D01*
X70186057Y-80078238D01*
X70263018Y-80081262D01*
X70263020Y-80081262D01*
X70268698Y-80081485D01*
X70274318Y-80080670D01*
X70274321Y-80080670D01*
X70481426Y-80050641D01*
X70481429Y-80050640D01*
X70487052Y-80049825D01*
X70595500Y-80013012D01*
X70690589Y-79980734D01*
X70690592Y-79980733D01*
X70695979Y-79978904D01*
X70888484Y-79871096D01*
X70919122Y-79845615D01*
X71053751Y-79733644D01*
X71058118Y-79730012D01*
X71117179Y-79658999D01*
X71195571Y-79564744D01*
X71195572Y-79564743D01*
X71199202Y-79560378D01*
X71307010Y-79367873D01*
X71319193Y-79331985D01*
X71376102Y-79164333D01*
X71377931Y-79158946D01*
X71380551Y-79140881D01*
X71409068Y-78944197D01*
X71409591Y-78940592D01*
X71411243Y-78877494D01*
X71408343Y-78845934D01*
X79160370Y-78845934D01*
X79160741Y-78851596D01*
X79160741Y-78851600D01*
X79166467Y-78938952D01*
X79174800Y-79066098D01*
X79229111Y-79279946D01*
X79321483Y-79480315D01*
X79324761Y-79484953D01*
X79444678Y-79654632D01*
X79448822Y-79660496D01*
X79452893Y-79664462D01*
X79452894Y-79664463D01*
X79602790Y-79810487D01*
X79602795Y-79810491D01*
X79606864Y-79814455D01*
X79611587Y-79817611D01*
X79611591Y-79817614D01*
X79695785Y-79873870D01*
X79790317Y-79937034D01*
X79993036Y-80024129D01*
X80098513Y-80047996D01*
X80202685Y-80071568D01*
X80202687Y-80071568D01*
X80208232Y-80072823D01*
X80346057Y-80078238D01*
X80423018Y-80081262D01*
X80423020Y-80081262D01*
X80428698Y-80081485D01*
X80434318Y-80080670D01*
X80434321Y-80080670D01*
X80641426Y-80050641D01*
X80641429Y-80050640D01*
X80647052Y-80049825D01*
X80755500Y-80013012D01*
X80850589Y-79980734D01*
X80850592Y-79980733D01*
X80855979Y-79978904D01*
X81048484Y-79871096D01*
X81079122Y-79845615D01*
X81213751Y-79733644D01*
X81218118Y-79730012D01*
X81277179Y-79658999D01*
X81355571Y-79564744D01*
X81355572Y-79564743D01*
X81359202Y-79560378D01*
X81467010Y-79367873D01*
X81479193Y-79331985D01*
X81536102Y-79164333D01*
X81537931Y-79158946D01*
X81540551Y-79140881D01*
X81569068Y-78944197D01*
X81569591Y-78940592D01*
X81571243Y-78877494D01*
X81551054Y-78657783D01*
X81491165Y-78445430D01*
X81393580Y-78247547D01*
X81261567Y-78070761D01*
X81099549Y-77920993D01*
X81057278Y-77894322D01*
X80917759Y-77806292D01*
X80917757Y-77806291D01*
X80912950Y-77803258D01*
X80708021Y-77721500D01*
X80702440Y-77720390D01*
X80702437Y-77720389D01*
X80599822Y-77699978D01*
X80491624Y-77678456D01*
X80485937Y-77678382D01*
X80485932Y-77678381D01*
X80276695Y-77675642D01*
X80276690Y-77675642D01*
X80271006Y-77675568D01*
X80265402Y-77676531D01*
X80265401Y-77676531D01*
X80059160Y-77711969D01*
X80059157Y-77711970D01*
X80053557Y-77712932D01*
X79846557Y-77789298D01*
X79759907Y-77840850D01*
X79670030Y-77894321D01*
X79656941Y-77902108D01*
X79491057Y-78047584D01*
X79354463Y-78220854D01*
X79351816Y-78225885D01*
X79341678Y-78245155D01*
X79251731Y-78416114D01*
X79250043Y-78421549D01*
X79250043Y-78421550D01*
X79233037Y-78476319D01*
X79186303Y-78626827D01*
X79185635Y-78632472D01*
X79185634Y-78632476D01*
X79161038Y-78840290D01*
X79160370Y-78845934D01*
X71408343Y-78845934D01*
X71391054Y-78657783D01*
X71331165Y-78445430D01*
X71233580Y-78247547D01*
X71101567Y-78070761D01*
X70939549Y-77920993D01*
X70897278Y-77894322D01*
X70757759Y-77806292D01*
X70757757Y-77806291D01*
X70752950Y-77803258D01*
X70548021Y-77721500D01*
X70542440Y-77720390D01*
X70542437Y-77720389D01*
X70439822Y-77699978D01*
X70331624Y-77678456D01*
X70325937Y-77678382D01*
X70325932Y-77678381D01*
X70116695Y-77675642D01*
X70116690Y-77675642D01*
X70111006Y-77675568D01*
X70105402Y-77676531D01*
X70105401Y-77676531D01*
X69899160Y-77711969D01*
X69899157Y-77711970D01*
X69893557Y-77712932D01*
X69686557Y-77789298D01*
X69599907Y-77840850D01*
X69510030Y-77894321D01*
X69496941Y-77902108D01*
X69331057Y-78047584D01*
X69194463Y-78220854D01*
X69191816Y-78225885D01*
X69181678Y-78245155D01*
X69091731Y-78416114D01*
X69090043Y-78421549D01*
X69090043Y-78421550D01*
X69073037Y-78476319D01*
X69026303Y-78626827D01*
X69025635Y-78632472D01*
X69025634Y-78632476D01*
X69001038Y-78840290D01*
X69000370Y-78845934D01*
X67243915Y-78845934D01*
X67228308Y-78676085D01*
X67173407Y-78481420D01*
X67083951Y-78300021D01*
X66962935Y-78137961D01*
X66860371Y-78043152D01*
X66818588Y-78004528D01*
X66818586Y-78004527D01*
X66814412Y-78000668D01*
X66694253Y-77924853D01*
X66648166Y-77895774D01*
X66648164Y-77895773D01*
X66643357Y-77892740D01*
X66455498Y-77817792D01*
X66449917Y-77816682D01*
X66449914Y-77816681D01*
X66371839Y-77801151D01*
X66257126Y-77778333D01*
X66251439Y-77778259D01*
X66251434Y-77778258D01*
X66060575Y-77775760D01*
X66060570Y-77775760D01*
X66054886Y-77775686D01*
X66049282Y-77776649D01*
X66049281Y-77776649D01*
X65861146Y-77808976D01*
X65861143Y-77808977D01*
X65855549Y-77809938D01*
X65834260Y-77817792D01*
X65671121Y-77877977D01*
X65671117Y-77877979D01*
X65665793Y-77879943D01*
X65660910Y-77882848D01*
X65660908Y-77882849D01*
X65530647Y-77960346D01*
X65491971Y-77983356D01*
X65339905Y-78116714D01*
X65214689Y-78275551D01*
X65120514Y-78454547D01*
X65118829Y-78459973D01*
X65118828Y-78459976D01*
X65112170Y-78481420D01*
X65060537Y-78647707D01*
X65036764Y-78848563D01*
X59624157Y-78848563D01*
X59608308Y-78676085D01*
X59553407Y-78481420D01*
X59463951Y-78300021D01*
X59342935Y-78137961D01*
X59240371Y-78043152D01*
X59198588Y-78004528D01*
X59198586Y-78004527D01*
X59194412Y-78000668D01*
X59074253Y-77924853D01*
X59028166Y-77895774D01*
X59028164Y-77895773D01*
X59023357Y-77892740D01*
X58835498Y-77817792D01*
X58829917Y-77816682D01*
X58829914Y-77816681D01*
X58751839Y-77801151D01*
X58637126Y-77778333D01*
X58631439Y-77778259D01*
X58631434Y-77778258D01*
X58440575Y-77775760D01*
X58440570Y-77775760D01*
X58434886Y-77775686D01*
X58429282Y-77776649D01*
X58429281Y-77776649D01*
X58241146Y-77808976D01*
X58241143Y-77808977D01*
X58235549Y-77809938D01*
X58214260Y-77817792D01*
X58051121Y-77877977D01*
X58051117Y-77877979D01*
X58045793Y-77879943D01*
X58040910Y-77882848D01*
X58040908Y-77882849D01*
X57910647Y-77960346D01*
X57871971Y-77983356D01*
X57719905Y-78116714D01*
X57594689Y-78275551D01*
X57500514Y-78454547D01*
X57498829Y-78459973D01*
X57498828Y-78459976D01*
X57492170Y-78481420D01*
X57440537Y-78647707D01*
X57416764Y-78848563D01*
X55454099Y-78848563D01*
X55454099Y-78249976D01*
X55439246Y-78156190D01*
X55381650Y-78043152D01*
X55291942Y-77953444D01*
X55178904Y-77895848D01*
X55145978Y-77890633D01*
X55089939Y-77881757D01*
X55089934Y-77881757D01*
X55085119Y-77880994D01*
X55080241Y-77880994D01*
X54202968Y-77880995D01*
X53322082Y-77880995D01*
X53249449Y-77892498D01*
X53237931Y-77894322D01*
X53237930Y-77894322D01*
X53228296Y-77895848D01*
X53115258Y-77953444D01*
X53025550Y-78043152D01*
X52967954Y-78156190D01*
X52953100Y-78249975D01*
X52368100Y-78249975D01*
X52368100Y-76911994D01*
X52387785Y-76844955D01*
X52440589Y-76799200D01*
X52492100Y-76787994D01*
X85125100Y-76787994D01*
X85192139Y-76807679D01*
G37*
%TD.AperFunction*%
%TA.AperFunction,NonConductor*%
G36*
X88782447Y-101321005D02*
G01*
X88836103Y-101274512D01*
X88888445Y-101263126D01*
X102519445Y-101263126D01*
X102587566Y-101283128D01*
X102634059Y-101336784D01*
X102645445Y-101389126D01*
X102645445Y-122020126D01*
X102625443Y-122088247D01*
X102571787Y-122134740D01*
X102519445Y-122146126D01*
X95609740Y-122146126D01*
X95609740Y-121851125D01*
X95614893Y-121850828D01*
X95614896Y-121850828D01*
X95709635Y-121845365D01*
X95832760Y-121838266D01*
X95837806Y-121837129D01*
X95837812Y-121837128D01*
X95925984Y-121817257D01*
X96050684Y-121789154D01*
X96257661Y-121705110D01*
X96448133Y-121588389D01*
X96616983Y-121442126D01*
X96759677Y-121270250D01*
X96872383Y-121077376D01*
X96952075Y-120868684D01*
X96953106Y-120863616D01*
X96953107Y-120863613D01*
X96974928Y-120756359D01*
X96996612Y-120649779D01*
X96996802Y-120644604D01*
X96996802Y-120644602D01*
X97004609Y-120431703D01*
X97004609Y-120431699D01*
X97004798Y-120426539D01*
X97004142Y-120421419D01*
X97004142Y-120421417D01*
X96977070Y-120210088D01*
X96977070Y-120210087D01*
X96976413Y-120204960D01*
X96974928Y-120200010D01*
X96913706Y-119995947D01*
X96913704Y-119995942D01*
X96912219Y-119990992D01*
X96813941Y-119790382D01*
X96684218Y-119608516D01*
X96526534Y-119450280D01*
X96443734Y-119390782D01*
X96349322Y-119322941D01*
X96345122Y-119319923D01*
X96144856Y-119220946D01*
X95931114Y-119156006D01*
X95709635Y-119126847D01*
X95643045Y-119125220D01*
X95420406Y-119143524D01*
X95203747Y-119197945D01*
X94998885Y-119287022D01*
X94811322Y-119408362D01*
X94646096Y-119558706D01*
X94642897Y-119562757D01*
X94642893Y-119562761D01*
X94510845Y-119729962D01*
X94510843Y-119729966D01*
X94507643Y-119734017D01*
X94484574Y-119775807D01*
X94434142Y-119825778D01*
X94364699Y-119840550D01*
X94298293Y-119815434D01*
X94271686Y-119788082D01*
X94146837Y-119613048D01*
X94140184Y-119605176D01*
X93989857Y-119454324D01*
X93982714Y-119448245D01*
X93982714Y-104320375D01*
X93989535Y-104320005D01*
X94040397Y-104314481D01*
X94055649Y-104310855D01*
X94176099Y-104265700D01*
X94191694Y-104257162D01*
X94293769Y-104180661D01*
X94306330Y-104168100D01*
X94382831Y-104066025D01*
X94391369Y-104050430D01*
X94436523Y-103929982D01*
X94440150Y-103914727D01*
X94445676Y-103863862D01*
X94446045Y-103857048D01*
X94446045Y-103234491D01*
X94441570Y-103219252D01*
X94440180Y-103218047D01*
X94432497Y-103216376D01*
X94427929Y-103216376D01*
X94427929Y-102708376D01*
X94443168Y-102703901D01*
X94444373Y-102702511D01*
X94446044Y-102694828D01*
X94446044Y-102067707D01*
X94445674Y-102060886D01*
X94440150Y-102010024D01*
X94436524Y-101994772D01*
X94391369Y-101874322D01*
X94382831Y-101858727D01*
X94306330Y-101756652D01*
X94293769Y-101744091D01*
X94191694Y-101667590D01*
X94176099Y-101659052D01*
X94055651Y-101613898D01*
X94040396Y-101610271D01*
X93989531Y-101604745D01*
X93982717Y-101604376D01*
X93360160Y-101604376D01*
X93344921Y-101608851D01*
X93343716Y-101610241D01*
X93342045Y-101617924D01*
X93342045Y-102690261D01*
X93346520Y-102705500D01*
X93347910Y-102706705D01*
X93355593Y-102708376D01*
X94427929Y-102708376D01*
X94427929Y-103216376D01*
X93360160Y-103216376D01*
X93344921Y-103220851D01*
X93343716Y-103222241D01*
X93342045Y-103229924D01*
X93342045Y-104302260D01*
X93346520Y-104317499D01*
X93347910Y-104318704D01*
X93355593Y-104320375D01*
X93982714Y-104320375D01*
X93982714Y-119448245D01*
X93982010Y-119447646D01*
X93809065Y-119323373D01*
X93800228Y-119318063D01*
X93609312Y-119223706D01*
X93599717Y-119219907D01*
X93395955Y-119157999D01*
X93385882Y-119155821D01*
X93375007Y-119154390D01*
X93360823Y-119156601D01*
X93357045Y-119169759D01*
X93357045Y-121805151D01*
X93361018Y-121818682D01*
X93371011Y-121820119D01*
X93505491Y-121789811D01*
X93515320Y-121786731D01*
X93712648Y-121706606D01*
X93721839Y-121701963D01*
X93903433Y-121590682D01*
X93911744Y-121584599D01*
X94072712Y-121445163D01*
X94079928Y-121437796D01*
X94215961Y-121273942D01*
X94221876Y-121265495D01*
X94262248Y-121196407D01*
X94313887Y-121147683D01*
X94383670Y-121134612D01*
X94449441Y-121161343D01*
X94482797Y-121201792D01*
X94489552Y-121214769D01*
X94492655Y-121218902D01*
X94492657Y-121218905D01*
X94510845Y-121243129D01*
X94623680Y-121393411D01*
X94785183Y-121547747D01*
X94969725Y-121673633D01*
X95172350Y-121767688D01*
X95387615Y-121827387D01*
X95609740Y-121851125D01*
X95609740Y-122146126D01*
X91461179Y-122146126D01*
X91461179Y-121846876D01*
X91523361Y-121840121D01*
X91659750Y-121788991D01*
X91776306Y-121701637D01*
X91863660Y-121585081D01*
X91866812Y-121576672D01*
X91866813Y-121576671D01*
X91907771Y-121467416D01*
X91950412Y-121410651D01*
X92016974Y-121385951D01*
X92086323Y-121401158D01*
X92112804Y-121420551D01*
X92241762Y-121543786D01*
X92249772Y-121550272D01*
X92425694Y-121670278D01*
X92434668Y-121675376D01*
X92627828Y-121765038D01*
X92637515Y-121768601D01*
X92837228Y-121823987D01*
X92845652Y-121822464D01*
X92849045Y-121810084D01*
X92849045Y-119170032D01*
X92845072Y-119156501D01*
X92835992Y-119155196D01*
X92668920Y-119197162D01*
X92659169Y-119200482D01*
X92463859Y-119285404D01*
X92454784Y-119290271D01*
X92275971Y-119405950D01*
X92267802Y-119412240D01*
X92109722Y-119556083D01*
X92045876Y-119587135D01*
X91975378Y-119578741D01*
X91920609Y-119533564D01*
X91906940Y-119507120D01*
X91866812Y-119400079D01*
X91863660Y-119391671D01*
X91776306Y-119275115D01*
X91659750Y-119187761D01*
X91523361Y-119136631D01*
X91461179Y-119129876D01*
X90514740Y-119129876D01*
X90514740Y-104325125D01*
X90519893Y-104324828D01*
X90519896Y-104324828D01*
X90614635Y-104319365D01*
X90737760Y-104312266D01*
X90742806Y-104311129D01*
X90742812Y-104311128D01*
X90830984Y-104291257D01*
X90955684Y-104263154D01*
X91162661Y-104179110D01*
X91353133Y-104062389D01*
X91521983Y-103916126D01*
X91525283Y-103912151D01*
X91525289Y-103912145D01*
X91529601Y-103906951D01*
X91588505Y-103867317D01*
X91659486Y-103865821D01*
X91720007Y-103902937D01*
X91744525Y-103943208D01*
X91784721Y-104050430D01*
X91793259Y-104066025D01*
X91869760Y-104168100D01*
X91882321Y-104180661D01*
X91984396Y-104257162D01*
X91999991Y-104265700D01*
X92120439Y-104310854D01*
X92135694Y-104314481D01*
X92186559Y-104320007D01*
X92193373Y-104320376D01*
X92815930Y-104320376D01*
X92831169Y-104315901D01*
X92832374Y-104314511D01*
X92834045Y-104306828D01*
X92834045Y-101622492D01*
X92829570Y-101607253D01*
X92828180Y-101606048D01*
X92820497Y-101604377D01*
X92193376Y-101604377D01*
X92186555Y-101604747D01*
X92135693Y-101610271D01*
X92120441Y-101613897D01*
X91999991Y-101659052D01*
X91984396Y-101667590D01*
X91882321Y-101744091D01*
X91869760Y-101756652D01*
X91793259Y-101858727D01*
X91784721Y-101874322D01*
X91743393Y-101984563D01*
X91700751Y-102041327D01*
X91634190Y-102066027D01*
X91564841Y-102050819D01*
X91536160Y-102029272D01*
X91435189Y-101927946D01*
X91435177Y-101927936D01*
X91431534Y-101924280D01*
X91348734Y-101864782D01*
X91254322Y-101796941D01*
X91250122Y-101793923D01*
X91049856Y-101694946D01*
X90836114Y-101630006D01*
X90614635Y-101600847D01*
X90548045Y-101599220D01*
X90325406Y-101617524D01*
X90108747Y-101671945D01*
X89903885Y-101761022D01*
X89716322Y-101882362D01*
X89551096Y-102032706D01*
X89547897Y-102036757D01*
X89547893Y-102036761D01*
X89415845Y-102203962D01*
X89415843Y-102203966D01*
X89412643Y-102208017D01*
X89304683Y-102403587D01*
X89302959Y-102408456D01*
X89302957Y-102408460D01*
X89231840Y-102609289D01*
X89231839Y-102609293D01*
X89230114Y-102614164D01*
X89229207Y-102619257D01*
X89229206Y-102619260D01*
X89191845Y-102829003D01*
X89191844Y-102829009D01*
X89190939Y-102834092D01*
X89190037Y-102907924D01*
X89188273Y-103052295D01*
X89188273Y-103052297D01*
X89188210Y-103057465D01*
X89222000Y-103278285D01*
X89291402Y-103490620D01*
X89394552Y-103688769D01*
X89397655Y-103692902D01*
X89397657Y-103692905D01*
X89525575Y-103863276D01*
X89528680Y-103867411D01*
X89532418Y-103870983D01*
X89664911Y-103997596D01*
X89690183Y-104021747D01*
X89874725Y-104147633D01*
X90077350Y-104241688D01*
X90292615Y-104301387D01*
X90514740Y-104325125D01*
X90514740Y-119129876D01*
X89664911Y-119129876D01*
X89602729Y-119136631D01*
X89466340Y-119187761D01*
X89349784Y-119275115D01*
X89262430Y-119391671D01*
X89211300Y-119528060D01*
X89204545Y-119590242D01*
X89204545Y-121386510D01*
X89211300Y-121448692D01*
X89262430Y-121585081D01*
X89349784Y-121701637D01*
X89466340Y-121788991D01*
X89602729Y-121840121D01*
X89664911Y-121846876D01*
X91461179Y-121846876D01*
X91461179Y-122146126D01*
X88888445Y-122146126D01*
X88820324Y-122126124D01*
X88773831Y-122072468D01*
X88762445Y-122020126D01*
X88762445Y-101389126D01*
X88782447Y-101321005D01*
G37*
%TD.AperFunction*%
%TA.AperFunction,NonConductor*%
G36*
X88789302Y-76866729D02*
G01*
X88842958Y-76820236D01*
X88895300Y-76808850D01*
X102526300Y-76808850D01*
X102594421Y-76828852D01*
X102640914Y-76882508D01*
X102652300Y-76934850D01*
X102652300Y-97565850D01*
X102632298Y-97633971D01*
X102578642Y-97680464D01*
X102526300Y-97691850D01*
X95616595Y-97691850D01*
X95616595Y-97396849D01*
X95621748Y-97396552D01*
X95621751Y-97396552D01*
X95716490Y-97391089D01*
X95839615Y-97383990D01*
X95844661Y-97382853D01*
X95844667Y-97382852D01*
X95932839Y-97362981D01*
X96057539Y-97334878D01*
X96264516Y-97250834D01*
X96454988Y-97134113D01*
X96623838Y-96987850D01*
X96766532Y-96815974D01*
X96879238Y-96623100D01*
X96958930Y-96414408D01*
X96959961Y-96409340D01*
X96959962Y-96409337D01*
X96981783Y-96302083D01*
X97003467Y-96195503D01*
X97003657Y-96190328D01*
X97003657Y-96190326D01*
X97011464Y-95977427D01*
X97011464Y-95977423D01*
X97011653Y-95972263D01*
X97010997Y-95967143D01*
X97010997Y-95967141D01*
X96983925Y-95755812D01*
X96983925Y-95755811D01*
X96983268Y-95750684D01*
X96981783Y-95745734D01*
X96920561Y-95541671D01*
X96920559Y-95541666D01*
X96919074Y-95536716D01*
X96820796Y-95336106D01*
X96691073Y-95154240D01*
X96533389Y-94996004D01*
X96450589Y-94936506D01*
X96356177Y-94868665D01*
X96351977Y-94865647D01*
X96151711Y-94766670D01*
X95937969Y-94701730D01*
X95716490Y-94672571D01*
X95649900Y-94670944D01*
X95427261Y-94689248D01*
X95210602Y-94743669D01*
X95005740Y-94832746D01*
X94818177Y-94954086D01*
X94652951Y-95104430D01*
X94649752Y-95108481D01*
X94649748Y-95108485D01*
X94517700Y-95275686D01*
X94517698Y-95275690D01*
X94514498Y-95279741D01*
X94491429Y-95321531D01*
X94440997Y-95371502D01*
X94371554Y-95386274D01*
X94305148Y-95361158D01*
X94278541Y-95333806D01*
X94153692Y-95158772D01*
X94147039Y-95150900D01*
X93996712Y-95000048D01*
X93989569Y-94993969D01*
X93989569Y-79866099D01*
X93996390Y-79865729D01*
X94047252Y-79860205D01*
X94062504Y-79856579D01*
X94182954Y-79811424D01*
X94198549Y-79802886D01*
X94300624Y-79726385D01*
X94313185Y-79713824D01*
X94389686Y-79611749D01*
X94398224Y-79596154D01*
X94443378Y-79475706D01*
X94447005Y-79460451D01*
X94452531Y-79409586D01*
X94452900Y-79402772D01*
X94452900Y-78780215D01*
X94448425Y-78764976D01*
X94447035Y-78763771D01*
X94439352Y-78762100D01*
X94434784Y-78762100D01*
X94434784Y-78254100D01*
X94450023Y-78249625D01*
X94451228Y-78248235D01*
X94452899Y-78240552D01*
X94452899Y-77613431D01*
X94452529Y-77606610D01*
X94447005Y-77555748D01*
X94443379Y-77540496D01*
X94398224Y-77420046D01*
X94389686Y-77404451D01*
X94313185Y-77302376D01*
X94300624Y-77289815D01*
X94198549Y-77213314D01*
X94182954Y-77204776D01*
X94062506Y-77159622D01*
X94047251Y-77155995D01*
X93996386Y-77150469D01*
X93989572Y-77150100D01*
X93367015Y-77150100D01*
X93351776Y-77154575D01*
X93350571Y-77155965D01*
X93348900Y-77163648D01*
X93348900Y-78235985D01*
X93353375Y-78251224D01*
X93354765Y-78252429D01*
X93362448Y-78254100D01*
X94434784Y-78254100D01*
X94434784Y-78762100D01*
X93367015Y-78762100D01*
X93351776Y-78766575D01*
X93350571Y-78767965D01*
X93348900Y-78775648D01*
X93348900Y-79847984D01*
X93353375Y-79863223D01*
X93354765Y-79864428D01*
X93362448Y-79866099D01*
X93989569Y-79866099D01*
X93989569Y-94993969D01*
X93988865Y-94993370D01*
X93815920Y-94869097D01*
X93807083Y-94863787D01*
X93616167Y-94769430D01*
X93606572Y-94765631D01*
X93402810Y-94703723D01*
X93392737Y-94701545D01*
X93381862Y-94700114D01*
X93367678Y-94702325D01*
X93363900Y-94715483D01*
X93363900Y-97350875D01*
X93367873Y-97364406D01*
X93377866Y-97365843D01*
X93512346Y-97335535D01*
X93522175Y-97332455D01*
X93719503Y-97252330D01*
X93728694Y-97247687D01*
X93910288Y-97136406D01*
X93918599Y-97130323D01*
X94079567Y-96990887D01*
X94086783Y-96983520D01*
X94222816Y-96819666D01*
X94228731Y-96811219D01*
X94269103Y-96742131D01*
X94320742Y-96693407D01*
X94390525Y-96680336D01*
X94456296Y-96707067D01*
X94489652Y-96747516D01*
X94496407Y-96760493D01*
X94499510Y-96764626D01*
X94499512Y-96764629D01*
X94517700Y-96788853D01*
X94630535Y-96939135D01*
X94792038Y-97093471D01*
X94976580Y-97219357D01*
X95179205Y-97313412D01*
X95394470Y-97373111D01*
X95616595Y-97396849D01*
X95616595Y-97691850D01*
X91468034Y-97691850D01*
X91468034Y-97392600D01*
X91530216Y-97385845D01*
X91666605Y-97334715D01*
X91783161Y-97247361D01*
X91870515Y-97130805D01*
X91873667Y-97122396D01*
X91873668Y-97122395D01*
X91914626Y-97013140D01*
X91957267Y-96956375D01*
X92023829Y-96931675D01*
X92093178Y-96946882D01*
X92119659Y-96966275D01*
X92248617Y-97089510D01*
X92256627Y-97095996D01*
X92432549Y-97216002D01*
X92441523Y-97221100D01*
X92634683Y-97310762D01*
X92644370Y-97314325D01*
X92844083Y-97369711D01*
X92852507Y-97368188D01*
X92855900Y-97355808D01*
X92855900Y-94715756D01*
X92851927Y-94702225D01*
X92842847Y-94700920D01*
X92675775Y-94742886D01*
X92666024Y-94746206D01*
X92470714Y-94831128D01*
X92461639Y-94835995D01*
X92282826Y-94951674D01*
X92274657Y-94957964D01*
X92116577Y-95101807D01*
X92052731Y-95132859D01*
X91982233Y-95124465D01*
X91927464Y-95079288D01*
X91913795Y-95052844D01*
X91873667Y-94945803D01*
X91870515Y-94937395D01*
X91783161Y-94820839D01*
X91666605Y-94733485D01*
X91530216Y-94682355D01*
X91468034Y-94675600D01*
X90521595Y-94675600D01*
X90521595Y-79870849D01*
X90526748Y-79870552D01*
X90526751Y-79870552D01*
X90621490Y-79865089D01*
X90744615Y-79857990D01*
X90749661Y-79856853D01*
X90749667Y-79856852D01*
X90837839Y-79836981D01*
X90962539Y-79808878D01*
X91169516Y-79724834D01*
X91359988Y-79608113D01*
X91528838Y-79461850D01*
X91532138Y-79457875D01*
X91532144Y-79457869D01*
X91536456Y-79452675D01*
X91595360Y-79413041D01*
X91666341Y-79411545D01*
X91726862Y-79448661D01*
X91751380Y-79488932D01*
X91791576Y-79596154D01*
X91800114Y-79611749D01*
X91876615Y-79713824D01*
X91889176Y-79726385D01*
X91991251Y-79802886D01*
X92006846Y-79811424D01*
X92127294Y-79856578D01*
X92142549Y-79860205D01*
X92193414Y-79865731D01*
X92200228Y-79866100D01*
X92822785Y-79866100D01*
X92838024Y-79861625D01*
X92839229Y-79860235D01*
X92840900Y-79852552D01*
X92840900Y-77168216D01*
X92836425Y-77152977D01*
X92835035Y-77151772D01*
X92827352Y-77150101D01*
X92200231Y-77150101D01*
X92193410Y-77150471D01*
X92142548Y-77155995D01*
X92127296Y-77159621D01*
X92006846Y-77204776D01*
X91991251Y-77213314D01*
X91889176Y-77289815D01*
X91876615Y-77302376D01*
X91800114Y-77404451D01*
X91791576Y-77420046D01*
X91750248Y-77530287D01*
X91707606Y-77587051D01*
X91641045Y-77611751D01*
X91571696Y-77596543D01*
X91543015Y-77574996D01*
X91442044Y-77473670D01*
X91442032Y-77473660D01*
X91438389Y-77470004D01*
X91355589Y-77410506D01*
X91261177Y-77342665D01*
X91256977Y-77339647D01*
X91056711Y-77240670D01*
X90842969Y-77175730D01*
X90621490Y-77146571D01*
X90554900Y-77144944D01*
X90332261Y-77163248D01*
X90115602Y-77217669D01*
X89910740Y-77306746D01*
X89723177Y-77428086D01*
X89557951Y-77578430D01*
X89554752Y-77582481D01*
X89554748Y-77582485D01*
X89422700Y-77749686D01*
X89422698Y-77749690D01*
X89419498Y-77753741D01*
X89311538Y-77949311D01*
X89309814Y-77954180D01*
X89309812Y-77954184D01*
X89238695Y-78155013D01*
X89238694Y-78155017D01*
X89236969Y-78159888D01*
X89236062Y-78164981D01*
X89236061Y-78164984D01*
X89198700Y-78374727D01*
X89198699Y-78374733D01*
X89197794Y-78379816D01*
X89196892Y-78453648D01*
X89195128Y-78598019D01*
X89195128Y-78598021D01*
X89195065Y-78603189D01*
X89228855Y-78824009D01*
X89298257Y-79036344D01*
X89401407Y-79234493D01*
X89404510Y-79238626D01*
X89404512Y-79238629D01*
X89532430Y-79409000D01*
X89535535Y-79413135D01*
X89539273Y-79416707D01*
X89671766Y-79543320D01*
X89697038Y-79567471D01*
X89881580Y-79693357D01*
X90084205Y-79787412D01*
X90299470Y-79847111D01*
X90521595Y-79870849D01*
X90521595Y-94675600D01*
X89671766Y-94675600D01*
X89609584Y-94682355D01*
X89473195Y-94733485D01*
X89356639Y-94820839D01*
X89269285Y-94937395D01*
X89218155Y-95073784D01*
X89211400Y-95135966D01*
X89211400Y-96932234D01*
X89218155Y-96994416D01*
X89269285Y-97130805D01*
X89356639Y-97247361D01*
X89473195Y-97334715D01*
X89609584Y-97385845D01*
X89671766Y-97392600D01*
X91468034Y-97392600D01*
X91468034Y-97691850D01*
X88895300Y-97691850D01*
X88827179Y-97671848D01*
X88780686Y-97618192D01*
X88769300Y-97565850D01*
X88769300Y-76934850D01*
X88789302Y-76866729D01*
G37*
%TD.AperFunction*%
M02*
