M48
; DRILL file {KiCad (6.0.4)} date Fri Jul 15 22:12:49 2022
; FORMAT={-:-/ absolute / metric / decimal}
; #@! TF.CreationDate,2022-07-15T22:12:49+03:00
; #@! TF.GenerationSoftware,Kicad,Pcbnew,(6.0.4)
; #@! TF.FileFunction,Plated,1,2,PTH
FMAT,2
METRIC
; #@! TA.AperFunction,Plated,PTH,ViaDrill
T1C0.400
; #@! TA.AperFunction,Plated,PTH,ComponentDrill
T2C0.700
; #@! TA.AperFunction,Plated,PTH,ComponentDrill
T3C0.750
; #@! TA.AperFunction,Plated,PTH,ComponentDrill
T4C0.800
; #@! TA.AperFunction,Plated,PTH,ComponentDrill
T5C1.000
%
G90
G05
T1
X94.383Y-117.567
X94.389Y-141.878
X94.39Y-93.113
X96.39Y-117.466
X96.395Y-141.776
X96.397Y-93.011
X96.542Y-108.017
X96.548Y-132.328
X96.549Y-83.563
X101.394Y-114.926
X101.399Y-139.236
X101.401Y-90.471
T2
X58.217Y-119.263
X58.239Y-143.774
X58.268Y-94.879
X58.471Y-103.261
X58.493Y-127.772
X58.522Y-78.877
X61.773Y-107.071
X61.795Y-131.582
X61.824Y-82.687
X63.297Y-119.263
X63.319Y-143.774
X63.348Y-94.879
X66.091Y-103.261
X66.113Y-127.772
X66.142Y-78.877
X66.853Y-107.071
X66.875Y-131.582
X66.904Y-82.687
T3
X74.219Y-113.019
X74.241Y-137.53
X74.27Y-88.635
X75.489Y-113.019
X75.511Y-137.53
X75.54Y-88.635
X76.759Y-113.019
X76.781Y-137.53
X76.81Y-88.635
T4
X58.979Y-107.365
X58.979Y-112.365
X59.001Y-131.876
X59.001Y-136.876
X59.03Y-82.981
X59.03Y-87.981
X64.353Y-112.913
X64.375Y-137.424
X64.404Y-88.529
X69.353Y-112.913
X69.375Y-137.424
X69.404Y-88.529
X70.155Y-103.261
X70.177Y-127.772
X70.206Y-78.877
X70.519Y-119.263
X70.541Y-143.774
X70.57Y-94.879
X72.735Y-107.579
X72.757Y-132.09
X72.786Y-83.195
X75.399Y-119.263
X75.421Y-143.774
X75.45Y-94.879
X77.735Y-107.579
X77.757Y-132.09
X77.786Y-83.195
X80.315Y-103.261
X80.337Y-127.772
X80.366Y-78.877
T5
X54.153Y-103.515
X54.153Y-106.055
X54.153Y-108.595
X54.175Y-128.026
X54.175Y-130.566
X54.175Y-133.106
X54.204Y-79.131
X54.204Y-81.671
X54.204Y-84.211
X83.109Y-107.838
X83.109Y-110.378
X83.131Y-132.349
X83.131Y-134.889
X83.16Y-83.454
X83.16Y-85.994
X90.548Y-102.962
X90.553Y-127.273
X90.555Y-78.508
X90.563Y-120.488
X90.568Y-144.799
X90.57Y-96.034
X93.088Y-102.962
X93.093Y-127.273
X93.095Y-78.508
X93.103Y-120.488
X93.108Y-144.799
X93.11Y-96.034
X95.643Y-120.488
X95.648Y-144.799
X95.65Y-96.034
T0
M30
