%TF.GenerationSoftware,KiCad,Pcbnew,(6.0.4)*%
%TF.CreationDate,2022-07-15T22:22:15+03:00*%
%TF.ProjectId,panelized,70616e65-6c69-47a6-9564-2e6b69636164,rev?*%
%TF.SameCoordinates,Original*%
%TF.FileFunction,Legend,Top*%
%TF.FilePolarity,Positive*%
%FSLAX46Y46*%
G04 Gerber Fmt 4.6, Leading zero omitted, Abs format (unit mm)*
G04 Created by KiCad (PCBNEW (6.0.4)) date 2022-07-15 22:22:15*
%MOMM*%
%LPD*%
G01*
G04 APERTURE LIST*
G04 Aperture macros list*
%AMRoundRect*
0 Rectangle with rounded corners*
0 $1 Rounding radius*
0 $2 $3 $4 $5 $6 $7 $8 $9 X,Y pos of 4 corners*
0 Add a 4 corners polygon primitive as box body*
4,1,4,$2,$3,$4,$5,$6,$7,$8,$9,$2,$3,0*
0 Add four circle primitives for the rounded corners*
1,1,$1+$1,$2,$3*
1,1,$1+$1,$4,$5*
1,1,$1+$1,$6,$7*
1,1,$1+$1,$8,$9*
0 Add four rect primitives between the rounded corners*
20,1,$1+$1,$2,$3,$4,$5,0*
20,1,$1+$1,$4,$5,$6,$7,0*
20,1,$1+$1,$6,$7,$8,$9,0*
20,1,$1+$1,$8,$9,$2,$3,0*%
G04 Aperture macros list end*
%ADD10C,0.150000*%
%ADD11C,0.010000*%
%ADD12C,0.120000*%
%ADD13C,0.600000*%
%ADD14RoundRect,0.250000X0.450000X-0.325000X0.450000X0.325000X-0.450000X0.325000X-0.450000X-0.325000X0*%
%ADD15R,1.800000X2.100000*%
%ADD16RoundRect,0.250000X0.337500X0.475000X-0.337500X0.475000X-0.337500X-0.475000X0.337500X-0.475000X0*%
%ADD17RoundRect,0.250000X-0.475000X0.337500X-0.475000X-0.337500X0.475000X-0.337500X0.475000X0.337500X0*%
%ADD18R,1.700000X1.700000*%
%ADD19O,1.700000X1.700000*%
%ADD20RoundRect,0.150000X0.587500X0.150000X-0.587500X0.150000X-0.587500X-0.150000X0.587500X-0.150000X0*%
%ADD21RoundRect,0.250000X-0.337500X-0.475000X0.337500X-0.475000X0.337500X0.475000X-0.337500X0.475000X0*%
%ADD22RoundRect,0.250000X0.475000X-0.337500X0.475000X0.337500X-0.475000X0.337500X-0.475000X-0.337500X0*%
%ADD23C,1.400000*%
%ADD24O,1.400000X1.400000*%
%ADD25C,1.500000*%
%ADD26C,1.600000*%
%ADD27O,1.600000X1.600000*%
%ADD28R,1.050000X1.500000*%
%ADD29O,1.050000X1.500000*%
G04 APERTURE END LIST*
D10*
%TO.C,*%
%TO.C,L1*%
X90141380Y-93489416D02*
X90141380Y-93965607D01*
X89141380Y-93965607D01*
X90141380Y-92632273D02*
X90141380Y-93203702D01*
X90141380Y-92917988D02*
X89141380Y-92917988D01*
X89284238Y-93013226D01*
X89379476Y-93108464D01*
X89427095Y-93203702D01*
%TO.C,Y1*%
X100665690Y-83734090D02*
X101141880Y-83734090D01*
X100141880Y-84067423D02*
X100665690Y-83734090D01*
X100141880Y-83400757D01*
X101141880Y-82543614D02*
X101141880Y-83115042D01*
X101141880Y-82829328D02*
X100141880Y-82829328D01*
X100284738Y-82924566D01*
X100379976Y-83019804D01*
X100427595Y-83115042D01*
%TO.C,C1*%
X92842442Y-93736966D02*
X92890061Y-93784585D01*
X92937680Y-93927442D01*
X92937680Y-94022680D01*
X92890061Y-94165538D01*
X92794823Y-94260776D01*
X92699585Y-94308395D01*
X92509109Y-94356014D01*
X92366252Y-94356014D01*
X92175776Y-94308395D01*
X92080538Y-94260776D01*
X91985300Y-94165538D01*
X91937680Y-94022680D01*
X91937680Y-93927442D01*
X91985300Y-93784585D01*
X92032919Y-93736966D01*
X92937680Y-92784585D02*
X92937680Y-93356014D01*
X92937680Y-93070300D02*
X91937680Y-93070300D01*
X92080538Y-93165538D01*
X92175776Y-93260776D01*
X92223395Y-93356014D01*
%TO.C,C2*%
X92944042Y-83932566D02*
X92991661Y-83980185D01*
X93039280Y-84123042D01*
X93039280Y-84218280D01*
X92991661Y-84361138D01*
X92896423Y-84456376D01*
X92801185Y-84503995D01*
X92610709Y-84551614D01*
X92467852Y-84551614D01*
X92277376Y-84503995D01*
X92182138Y-84456376D01*
X92086900Y-84361138D01*
X92039280Y-84218280D01*
X92039280Y-84123042D01*
X92086900Y-83980185D01*
X92134519Y-83932566D01*
X92134519Y-83551614D02*
X92086900Y-83503995D01*
X92039280Y-83408757D01*
X92039280Y-83170661D01*
X92086900Y-83075423D01*
X92134519Y-83027804D01*
X92229757Y-82980185D01*
X92324995Y-82980185D01*
X92467852Y-83027804D01*
X93039280Y-83599233D01*
X93039280Y-82980185D01*
%TO.C,J2*%
X94877280Y-78841433D02*
X95591566Y-78841433D01*
X95734423Y-78889052D01*
X95829661Y-78984290D01*
X95877280Y-79127147D01*
X95877280Y-79222385D01*
X94972519Y-78412861D02*
X94924900Y-78365242D01*
X94877280Y-78270004D01*
X94877280Y-78031909D01*
X94924900Y-77936671D01*
X94972519Y-77889052D01*
X95067757Y-77841433D01*
X95162995Y-77841433D01*
X95305852Y-77889052D01*
X95877280Y-78460480D01*
X95877280Y-77841433D01*
%TO.C,Q1*%
X95979319Y-82870538D02*
X95931700Y-82965776D01*
X95836461Y-83061014D01*
X95693604Y-83203871D01*
X95645985Y-83299109D01*
X95645985Y-83394347D01*
X95884080Y-83346728D02*
X95836461Y-83441966D01*
X95741223Y-83537204D01*
X95550747Y-83584823D01*
X95217414Y-83584823D01*
X95026938Y-83537204D01*
X94931700Y-83441966D01*
X94884080Y-83346728D01*
X94884080Y-83156252D01*
X94931700Y-83061014D01*
X95026938Y-82965776D01*
X95217414Y-82918157D01*
X95550747Y-82918157D01*
X95741223Y-82965776D01*
X95836461Y-83061014D01*
X95884080Y-83156252D01*
X95884080Y-83346728D01*
X95884080Y-81965776D02*
X95884080Y-82537204D01*
X95884080Y-82251490D02*
X94884080Y-82251490D01*
X95026938Y-82346728D01*
X95122176Y-82441966D01*
X95169795Y-82537204D01*
%TO.C,RP1*%
X94053833Y-88383880D02*
X93720500Y-87907690D01*
X93482404Y-88383880D02*
X93482404Y-87383880D01*
X93863357Y-87383880D01*
X93958595Y-87431500D01*
X94006214Y-87479119D01*
X94053833Y-87574357D01*
X94053833Y-87717214D01*
X94006214Y-87812452D01*
X93958595Y-87860071D01*
X93863357Y-87907690D01*
X93482404Y-87907690D01*
X94482404Y-88383880D02*
X94482404Y-87383880D01*
X94863357Y-87383880D01*
X94958595Y-87431500D01*
X95006214Y-87479119D01*
X95053833Y-87574357D01*
X95053833Y-87717214D01*
X95006214Y-87812452D01*
X94958595Y-87860071D01*
X94863357Y-87907690D01*
X94482404Y-87907690D01*
X96006214Y-88383880D02*
X95434785Y-88383880D01*
X95720500Y-88383880D02*
X95720500Y-87383880D01*
X95625261Y-87526738D01*
X95530023Y-87621976D01*
X95434785Y-87669595D01*
%TO.C,C3*%
X92408342Y-81881616D02*
X92455961Y-81929235D01*
X92503580Y-82072092D01*
X92503580Y-82167330D01*
X92455961Y-82310188D01*
X92360723Y-82405426D01*
X92265485Y-82453045D01*
X92075009Y-82500664D01*
X91932152Y-82500664D01*
X91741676Y-82453045D01*
X91646438Y-82405426D01*
X91551200Y-82310188D01*
X91503580Y-82167330D01*
X91503580Y-82072092D01*
X91551200Y-81929235D01*
X91598819Y-81881616D01*
X91503580Y-81548283D02*
X91503580Y-80929235D01*
X91884533Y-81262569D01*
X91884533Y-81119711D01*
X91932152Y-81024473D01*
X91979771Y-80976854D01*
X92075009Y-80929235D01*
X92313104Y-80929235D01*
X92408342Y-80976854D01*
X92455961Y-81024473D01*
X92503580Y-81119711D01*
X92503580Y-81405426D01*
X92455961Y-81500664D01*
X92408342Y-81548283D01*
%TO.C,L2*%
X89122228Y-86727100D02*
X89122228Y-87012814D01*
X88522228Y-87012814D01*
X88579371Y-86555671D02*
X88550800Y-86527100D01*
X88522228Y-86469957D01*
X88522228Y-86327100D01*
X88550800Y-86269957D01*
X88579371Y-86241385D01*
X88636514Y-86212814D01*
X88693657Y-86212814D01*
X88779371Y-86241385D01*
X89122228Y-86584242D01*
X89122228Y-86212814D01*
%TO.C,J1*%
X97777380Y-96805683D02*
X98491666Y-96805683D01*
X98634523Y-96853302D01*
X98729761Y-96948540D01*
X98777380Y-97091397D01*
X98777380Y-97186635D01*
X98777380Y-95805683D02*
X98777380Y-96377111D01*
X98777380Y-96091397D02*
X97777380Y-96091397D01*
X97920238Y-96186635D01*
X98015476Y-96281873D01*
X98063095Y-96377111D01*
%TO.C,CP1*%
X95577833Y-93876642D02*
X95530214Y-93924261D01*
X95387357Y-93971880D01*
X95292119Y-93971880D01*
X95149261Y-93924261D01*
X95054023Y-93829023D01*
X95006404Y-93733785D01*
X94958785Y-93543309D01*
X94958785Y-93400452D01*
X95006404Y-93209976D01*
X95054023Y-93114738D01*
X95149261Y-93019500D01*
X95292119Y-92971880D01*
X95387357Y-92971880D01*
X95530214Y-93019500D01*
X95577833Y-93067119D01*
X96006404Y-93971880D02*
X96006404Y-92971880D01*
X96387357Y-92971880D01*
X96482595Y-93019500D01*
X96530214Y-93067119D01*
X96577833Y-93162357D01*
X96577833Y-93305214D01*
X96530214Y-93400452D01*
X96482595Y-93448071D01*
X96387357Y-93495690D01*
X96006404Y-93495690D01*
X97530214Y-93971880D02*
X96958785Y-93971880D01*
X97244500Y-93971880D02*
X97244500Y-92971880D01*
X97149261Y-93114738D01*
X97054023Y-93209976D01*
X96958785Y-93257595D01*
%TO.C,R1*%
X101342780Y-93057616D02*
X100866590Y-93390950D01*
X101342780Y-93629045D02*
X100342780Y-93629045D01*
X100342780Y-93248092D01*
X100390400Y-93152854D01*
X100438019Y-93105235D01*
X100533257Y-93057616D01*
X100676114Y-93057616D01*
X100771352Y-93105235D01*
X100818971Y-93152854D01*
X100866590Y-93248092D01*
X100866590Y-93629045D01*
X101342780Y-92105235D02*
X101342780Y-92676664D01*
X101342780Y-92390950D02*
X100342780Y-92390950D01*
X100485638Y-92486188D01*
X100580876Y-92581426D01*
X100628495Y-92676664D01*
%TO.C,L2*%
X89115373Y-111181376D02*
X89115373Y-111467090D01*
X88515373Y-111467090D01*
X88572516Y-111009947D02*
X88543945Y-110981376D01*
X88515373Y-110924233D01*
X88515373Y-110781376D01*
X88543945Y-110724233D01*
X88572516Y-110695661D01*
X88629659Y-110667090D01*
X88686802Y-110667090D01*
X88772516Y-110695661D01*
X89115373Y-111038518D01*
X89115373Y-110667090D01*
%TO.C,L1*%
X90134525Y-117943692D02*
X90134525Y-118419883D01*
X89134525Y-118419883D01*
X90134525Y-117086549D02*
X90134525Y-117657978D01*
X90134525Y-117372264D02*
X89134525Y-117372264D01*
X89277383Y-117467502D01*
X89372621Y-117562740D01*
X89420240Y-117657978D01*
%TO.C,J1*%
X97770525Y-121259959D02*
X98484811Y-121259959D01*
X98627668Y-121307578D01*
X98722906Y-121402816D01*
X98770525Y-121545673D01*
X98770525Y-121640911D01*
X98770525Y-120259959D02*
X98770525Y-120831387D01*
X98770525Y-120545673D02*
X97770525Y-120545673D01*
X97913383Y-120640911D01*
X98008621Y-120736149D01*
X98056240Y-120831387D01*
%TO.C,Y1*%
X100658835Y-108188366D02*
X101135025Y-108188366D01*
X100135025Y-108521699D02*
X100658835Y-108188366D01*
X100135025Y-107855033D01*
X101135025Y-106997890D02*
X101135025Y-107569318D01*
X101135025Y-107283604D02*
X100135025Y-107283604D01*
X100277883Y-107378842D01*
X100373121Y-107474080D01*
X100420740Y-107569318D01*
%TO.C,C1*%
X92835587Y-118191242D02*
X92883206Y-118238861D01*
X92930825Y-118381718D01*
X92930825Y-118476956D01*
X92883206Y-118619814D01*
X92787968Y-118715052D01*
X92692730Y-118762671D01*
X92502254Y-118810290D01*
X92359397Y-118810290D01*
X92168921Y-118762671D01*
X92073683Y-118715052D01*
X91978445Y-118619814D01*
X91930825Y-118476956D01*
X91930825Y-118381718D01*
X91978445Y-118238861D01*
X92026064Y-118191242D01*
X92930825Y-117238861D02*
X92930825Y-117810290D01*
X92930825Y-117524576D02*
X91930825Y-117524576D01*
X92073683Y-117619814D01*
X92168921Y-117715052D01*
X92216540Y-117810290D01*
%TO.C,CP1*%
X95570978Y-118330918D02*
X95523359Y-118378537D01*
X95380502Y-118426156D01*
X95285264Y-118426156D01*
X95142406Y-118378537D01*
X95047168Y-118283299D01*
X94999549Y-118188061D01*
X94951930Y-117997585D01*
X94951930Y-117854728D01*
X94999549Y-117664252D01*
X95047168Y-117569014D01*
X95142406Y-117473776D01*
X95285264Y-117426156D01*
X95380502Y-117426156D01*
X95523359Y-117473776D01*
X95570978Y-117521395D01*
X95999549Y-118426156D02*
X95999549Y-117426156D01*
X96380502Y-117426156D01*
X96475740Y-117473776D01*
X96523359Y-117521395D01*
X96570978Y-117616633D01*
X96570978Y-117759490D01*
X96523359Y-117854728D01*
X96475740Y-117902347D01*
X96380502Y-117949966D01*
X95999549Y-117949966D01*
X97523359Y-118426156D02*
X96951930Y-118426156D01*
X97237645Y-118426156D02*
X97237645Y-117426156D01*
X97142406Y-117569014D01*
X97047168Y-117664252D01*
X96951930Y-117711871D01*
%TO.C,C2*%
X92937187Y-108386842D02*
X92984806Y-108434461D01*
X93032425Y-108577318D01*
X93032425Y-108672556D01*
X92984806Y-108815414D01*
X92889568Y-108910652D01*
X92794330Y-108958271D01*
X92603854Y-109005890D01*
X92460997Y-109005890D01*
X92270521Y-108958271D01*
X92175283Y-108910652D01*
X92080045Y-108815414D01*
X92032425Y-108672556D01*
X92032425Y-108577318D01*
X92080045Y-108434461D01*
X92127664Y-108386842D01*
X92127664Y-108005890D02*
X92080045Y-107958271D01*
X92032425Y-107863033D01*
X92032425Y-107624937D01*
X92080045Y-107529699D01*
X92127664Y-107482080D01*
X92222902Y-107434461D01*
X92318140Y-107434461D01*
X92460997Y-107482080D01*
X93032425Y-108053509D01*
X93032425Y-107434461D01*
%TO.C,J2*%
X94870425Y-103295709D02*
X95584711Y-103295709D01*
X95727568Y-103343328D01*
X95822806Y-103438566D01*
X95870425Y-103581423D01*
X95870425Y-103676661D01*
X94965664Y-102867137D02*
X94918045Y-102819518D01*
X94870425Y-102724280D01*
X94870425Y-102486185D01*
X94918045Y-102390947D01*
X94965664Y-102343328D01*
X95060902Y-102295709D01*
X95156140Y-102295709D01*
X95298997Y-102343328D01*
X95870425Y-102914756D01*
X95870425Y-102295709D01*
%TO.C,Q1*%
X95972464Y-107324814D02*
X95924845Y-107420052D01*
X95829606Y-107515290D01*
X95686749Y-107658147D01*
X95639130Y-107753385D01*
X95639130Y-107848623D01*
X95877225Y-107801004D02*
X95829606Y-107896242D01*
X95734368Y-107991480D01*
X95543892Y-108039099D01*
X95210559Y-108039099D01*
X95020083Y-107991480D01*
X94924845Y-107896242D01*
X94877225Y-107801004D01*
X94877225Y-107610528D01*
X94924845Y-107515290D01*
X95020083Y-107420052D01*
X95210559Y-107372433D01*
X95543892Y-107372433D01*
X95734368Y-107420052D01*
X95829606Y-107515290D01*
X95877225Y-107610528D01*
X95877225Y-107801004D01*
X95877225Y-106420052D02*
X95877225Y-106991480D01*
X95877225Y-106705766D02*
X94877225Y-106705766D01*
X95020083Y-106801004D01*
X95115321Y-106896242D01*
X95162940Y-106991480D01*
%TO.C,R1*%
X101335925Y-117511892D02*
X100859735Y-117845226D01*
X101335925Y-118083321D02*
X100335925Y-118083321D01*
X100335925Y-117702368D01*
X100383545Y-117607130D01*
X100431164Y-117559511D01*
X100526402Y-117511892D01*
X100669259Y-117511892D01*
X100764497Y-117559511D01*
X100812116Y-117607130D01*
X100859735Y-117702368D01*
X100859735Y-118083321D01*
X101335925Y-116559511D02*
X101335925Y-117130940D01*
X101335925Y-116845226D02*
X100335925Y-116845226D01*
X100478783Y-116940464D01*
X100574021Y-117035702D01*
X100621640Y-117130940D01*
%TO.C,RP1*%
X94046978Y-112838156D02*
X93713645Y-112361966D01*
X93475549Y-112838156D02*
X93475549Y-111838156D01*
X93856502Y-111838156D01*
X93951740Y-111885776D01*
X93999359Y-111933395D01*
X94046978Y-112028633D01*
X94046978Y-112171490D01*
X93999359Y-112266728D01*
X93951740Y-112314347D01*
X93856502Y-112361966D01*
X93475549Y-112361966D01*
X94475549Y-112838156D02*
X94475549Y-111838156D01*
X94856502Y-111838156D01*
X94951740Y-111885776D01*
X94999359Y-111933395D01*
X95046978Y-112028633D01*
X95046978Y-112171490D01*
X94999359Y-112266728D01*
X94951740Y-112314347D01*
X94856502Y-112361966D01*
X94475549Y-112361966D01*
X95999359Y-112838156D02*
X95427930Y-112838156D01*
X95713645Y-112838156D02*
X95713645Y-111838156D01*
X95618406Y-111981014D01*
X95523168Y-112076252D01*
X95427930Y-112123871D01*
%TO.C,C3*%
X92401487Y-106335892D02*
X92449106Y-106383511D01*
X92496725Y-106526368D01*
X92496725Y-106621606D01*
X92449106Y-106764464D01*
X92353868Y-106859702D01*
X92258630Y-106907321D01*
X92068154Y-106954940D01*
X91925297Y-106954940D01*
X91734821Y-106907321D01*
X91639583Y-106859702D01*
X91544345Y-106764464D01*
X91496725Y-106621606D01*
X91496725Y-106526368D01*
X91544345Y-106383511D01*
X91591964Y-106335892D01*
X91496725Y-106002559D02*
X91496725Y-105383511D01*
X91877678Y-105716845D01*
X91877678Y-105573987D01*
X91925297Y-105478749D01*
X91972916Y-105431130D01*
X92068154Y-105383511D01*
X92306249Y-105383511D01*
X92401487Y-105431130D01*
X92449106Y-105478749D01*
X92496725Y-105573987D01*
X92496725Y-105859702D01*
X92449106Y-105954940D01*
X92401487Y-106002559D01*
%TO.C,L1*%
X62418933Y-79329874D02*
X61942742Y-79329874D01*
X61942742Y-78329874D01*
X63276076Y-79329874D02*
X62704647Y-79329874D01*
X62990361Y-79329874D02*
X62990361Y-78329874D01*
X62895123Y-78472732D01*
X62799885Y-78567970D01*
X62704647Y-78615589D01*
%TO.C,J2*%
X82826266Y-87776874D02*
X82826266Y-88491160D01*
X82778647Y-88634017D01*
X82683409Y-88729255D01*
X82540552Y-88776874D01*
X82445314Y-88776874D01*
X83254838Y-87872113D02*
X83302457Y-87824494D01*
X83397695Y-87776874D01*
X83635790Y-87776874D01*
X83731028Y-87824494D01*
X83778647Y-87872113D01*
X83826266Y-87967351D01*
X83826266Y-88062589D01*
X83778647Y-88205446D01*
X83207219Y-88776874D01*
X83826266Y-88776874D01*
%TO.C,Y1*%
X79635409Y-95363684D02*
X79635409Y-95839874D01*
X79302076Y-94839874D02*
X79635409Y-95363684D01*
X79968742Y-94839874D01*
X80825885Y-95839874D02*
X80254457Y-95839874D01*
X80540171Y-95839874D02*
X80540171Y-94839874D01*
X80444933Y-94982732D01*
X80349695Y-95077970D01*
X80254457Y-95125589D01*
%TO.C,C2*%
X75118933Y-83552636D02*
X75071314Y-83600255D01*
X74928457Y-83647874D01*
X74833219Y-83647874D01*
X74690361Y-83600255D01*
X74595123Y-83505017D01*
X74547504Y-83409779D01*
X74499885Y-83219303D01*
X74499885Y-83076446D01*
X74547504Y-82885970D01*
X74595123Y-82790732D01*
X74690361Y-82695494D01*
X74833219Y-82647874D01*
X74928457Y-82647874D01*
X75071314Y-82695494D01*
X75118933Y-82743113D01*
X75499885Y-82743113D02*
X75547504Y-82695494D01*
X75642742Y-82647874D01*
X75880838Y-82647874D01*
X75976076Y-82695494D01*
X76023695Y-82743113D01*
X76071314Y-82838351D01*
X76071314Y-82933589D01*
X76023695Y-83076446D01*
X75452266Y-83647874D01*
X76071314Y-83647874D01*
%TO.C,L2*%
X75118933Y-79329874D02*
X74642742Y-79329874D01*
X74642742Y-78329874D01*
X75404647Y-78425113D02*
X75452266Y-78377494D01*
X75547504Y-78329874D01*
X75785600Y-78329874D01*
X75880838Y-78377494D01*
X75928457Y-78425113D01*
X75976076Y-78520351D01*
X75976076Y-78615589D01*
X75928457Y-78758446D01*
X75357028Y-79329874D01*
X75976076Y-79329874D01*
%TO.C,J1*%
X53362266Y-86457874D02*
X53362266Y-87172160D01*
X53314647Y-87315017D01*
X53219409Y-87410255D01*
X53076552Y-87457874D01*
X52981314Y-87457874D01*
X54362266Y-87457874D02*
X53790838Y-87457874D01*
X54076552Y-87457874D02*
X54076552Y-86457874D01*
X53981314Y-86600732D01*
X53886076Y-86695970D01*
X53790838Y-86743589D01*
%TO.C,R1*%
X55814933Y-95331874D02*
X55481600Y-94855684D01*
X55243504Y-95331874D02*
X55243504Y-94331874D01*
X55624457Y-94331874D01*
X55719695Y-94379494D01*
X55767314Y-94427113D01*
X55814933Y-94522351D01*
X55814933Y-94665208D01*
X55767314Y-94760446D01*
X55719695Y-94808065D01*
X55624457Y-94855684D01*
X55243504Y-94855684D01*
X56767314Y-95331874D02*
X56195885Y-95331874D01*
X56481600Y-95331874D02*
X56481600Y-94331874D01*
X56386361Y-94474732D01*
X56291123Y-94569970D01*
X56195885Y-94617589D01*
%TO.C,RP1*%
X63696933Y-85171874D02*
X63363600Y-84695684D01*
X63125504Y-85171874D02*
X63125504Y-84171874D01*
X63506457Y-84171874D01*
X63601695Y-84219494D01*
X63649314Y-84267113D01*
X63696933Y-84362351D01*
X63696933Y-84505208D01*
X63649314Y-84600446D01*
X63601695Y-84648065D01*
X63506457Y-84695684D01*
X63125504Y-84695684D01*
X64125504Y-85171874D02*
X64125504Y-84171874D01*
X64506457Y-84171874D01*
X64601695Y-84219494D01*
X64649314Y-84267113D01*
X64696933Y-84362351D01*
X64696933Y-84505208D01*
X64649314Y-84600446D01*
X64601695Y-84648065D01*
X64506457Y-84695684D01*
X64125504Y-84695684D01*
X65649314Y-85171874D02*
X65077885Y-85171874D01*
X65363600Y-85171874D02*
X65363600Y-84171874D01*
X65268361Y-84314732D01*
X65173123Y-84409970D01*
X65077885Y-84457589D01*
%TO.C,C1*%
X56068933Y-89648636D02*
X56021314Y-89696255D01*
X55878457Y-89743874D01*
X55783219Y-89743874D01*
X55640361Y-89696255D01*
X55545123Y-89601017D01*
X55497504Y-89505779D01*
X55449885Y-89315303D01*
X55449885Y-89172446D01*
X55497504Y-88981970D01*
X55545123Y-88886732D01*
X55640361Y-88791494D01*
X55783219Y-88743874D01*
X55878457Y-88743874D01*
X56021314Y-88791494D01*
X56068933Y-88839113D01*
X57021314Y-89743874D02*
X56449885Y-89743874D01*
X56735600Y-89743874D02*
X56735600Y-88743874D01*
X56640361Y-88886732D01*
X56545123Y-88981970D01*
X56449885Y-89029589D01*
%TO.C,CP1*%
X63442933Y-91426636D02*
X63395314Y-91474255D01*
X63252457Y-91521874D01*
X63157219Y-91521874D01*
X63014361Y-91474255D01*
X62919123Y-91379017D01*
X62871504Y-91283779D01*
X62823885Y-91093303D01*
X62823885Y-90950446D01*
X62871504Y-90759970D01*
X62919123Y-90664732D01*
X63014361Y-90569494D01*
X63157219Y-90521874D01*
X63252457Y-90521874D01*
X63395314Y-90569494D01*
X63442933Y-90617113D01*
X63871504Y-91521874D02*
X63871504Y-90521874D01*
X64252457Y-90521874D01*
X64347695Y-90569494D01*
X64395314Y-90617113D01*
X64442933Y-90712351D01*
X64442933Y-90855208D01*
X64395314Y-90950446D01*
X64347695Y-90998065D01*
X64252457Y-91045684D01*
X63871504Y-91045684D01*
X65395314Y-91521874D02*
X64823885Y-91521874D01*
X65109600Y-91521874D02*
X65109600Y-90521874D01*
X65014361Y-90664732D01*
X64919123Y-90759970D01*
X64823885Y-90807589D01*
%TO.C,Q1*%
X79254361Y-89585113D02*
X79159123Y-89537494D01*
X79063885Y-89442255D01*
X78921028Y-89299398D01*
X78825790Y-89251779D01*
X78730552Y-89251779D01*
X78778171Y-89489874D02*
X78682933Y-89442255D01*
X78587695Y-89347017D01*
X78540076Y-89156541D01*
X78540076Y-88823208D01*
X78587695Y-88632732D01*
X78682933Y-88537494D01*
X78778171Y-88489874D01*
X78968647Y-88489874D01*
X79063885Y-88537494D01*
X79159123Y-88632732D01*
X79206742Y-88823208D01*
X79206742Y-89156541D01*
X79159123Y-89347017D01*
X79063885Y-89442255D01*
X78968647Y-89489874D01*
X78778171Y-89489874D01*
X80159123Y-89489874D02*
X79587695Y-89489874D01*
X79873409Y-89489874D02*
X79873409Y-88489874D01*
X79778171Y-88632732D01*
X79682933Y-88727970D01*
X79587695Y-88775589D01*
%TO.C,L1*%
X62368133Y-103713874D02*
X61891942Y-103713874D01*
X61891942Y-102713874D01*
X63225276Y-103713874D02*
X62653847Y-103713874D01*
X62939561Y-103713874D02*
X62939561Y-102713874D01*
X62844323Y-102856732D01*
X62749085Y-102951970D01*
X62653847Y-102999589D01*
%TO.C,J2*%
X82775466Y-112160874D02*
X82775466Y-112875160D01*
X82727847Y-113018017D01*
X82632609Y-113113255D01*
X82489752Y-113160874D01*
X82394514Y-113160874D01*
X83204038Y-112256113D02*
X83251657Y-112208494D01*
X83346895Y-112160874D01*
X83584990Y-112160874D01*
X83680228Y-112208494D01*
X83727847Y-112256113D01*
X83775466Y-112351351D01*
X83775466Y-112446589D01*
X83727847Y-112589446D01*
X83156419Y-113160874D01*
X83775466Y-113160874D01*
%TO.C,Y1*%
X79584609Y-119747684D02*
X79584609Y-120223874D01*
X79251276Y-119223874D02*
X79584609Y-119747684D01*
X79917942Y-119223874D01*
X80775085Y-120223874D02*
X80203657Y-120223874D01*
X80489371Y-120223874D02*
X80489371Y-119223874D01*
X80394133Y-119366732D01*
X80298895Y-119461970D01*
X80203657Y-119509589D01*
%TO.C,C2*%
X75068133Y-107936636D02*
X75020514Y-107984255D01*
X74877657Y-108031874D01*
X74782419Y-108031874D01*
X74639561Y-107984255D01*
X74544323Y-107889017D01*
X74496704Y-107793779D01*
X74449085Y-107603303D01*
X74449085Y-107460446D01*
X74496704Y-107269970D01*
X74544323Y-107174732D01*
X74639561Y-107079494D01*
X74782419Y-107031874D01*
X74877657Y-107031874D01*
X75020514Y-107079494D01*
X75068133Y-107127113D01*
X75449085Y-107127113D02*
X75496704Y-107079494D01*
X75591942Y-107031874D01*
X75830038Y-107031874D01*
X75925276Y-107079494D01*
X75972895Y-107127113D01*
X76020514Y-107222351D01*
X76020514Y-107317589D01*
X75972895Y-107460446D01*
X75401466Y-108031874D01*
X76020514Y-108031874D01*
%TO.C,L2*%
X75068133Y-103713874D02*
X74591942Y-103713874D01*
X74591942Y-102713874D01*
X75353847Y-102809113D02*
X75401466Y-102761494D01*
X75496704Y-102713874D01*
X75734800Y-102713874D01*
X75830038Y-102761494D01*
X75877657Y-102809113D01*
X75925276Y-102904351D01*
X75925276Y-102999589D01*
X75877657Y-103142446D01*
X75306228Y-103713874D01*
X75925276Y-103713874D01*
%TO.C,J1*%
X53311466Y-110841874D02*
X53311466Y-111556160D01*
X53263847Y-111699017D01*
X53168609Y-111794255D01*
X53025752Y-111841874D01*
X52930514Y-111841874D01*
X54311466Y-111841874D02*
X53740038Y-111841874D01*
X54025752Y-111841874D02*
X54025752Y-110841874D01*
X53930514Y-110984732D01*
X53835276Y-111079970D01*
X53740038Y-111127589D01*
%TO.C,R1*%
X55764133Y-119715874D02*
X55430800Y-119239684D01*
X55192704Y-119715874D02*
X55192704Y-118715874D01*
X55573657Y-118715874D01*
X55668895Y-118763494D01*
X55716514Y-118811113D01*
X55764133Y-118906351D01*
X55764133Y-119049208D01*
X55716514Y-119144446D01*
X55668895Y-119192065D01*
X55573657Y-119239684D01*
X55192704Y-119239684D01*
X56716514Y-119715874D02*
X56145085Y-119715874D01*
X56430800Y-119715874D02*
X56430800Y-118715874D01*
X56335561Y-118858732D01*
X56240323Y-118953970D01*
X56145085Y-119001589D01*
%TO.C,RP1*%
X63646133Y-109555874D02*
X63312800Y-109079684D01*
X63074704Y-109555874D02*
X63074704Y-108555874D01*
X63455657Y-108555874D01*
X63550895Y-108603494D01*
X63598514Y-108651113D01*
X63646133Y-108746351D01*
X63646133Y-108889208D01*
X63598514Y-108984446D01*
X63550895Y-109032065D01*
X63455657Y-109079684D01*
X63074704Y-109079684D01*
X64074704Y-109555874D02*
X64074704Y-108555874D01*
X64455657Y-108555874D01*
X64550895Y-108603494D01*
X64598514Y-108651113D01*
X64646133Y-108746351D01*
X64646133Y-108889208D01*
X64598514Y-108984446D01*
X64550895Y-109032065D01*
X64455657Y-109079684D01*
X64074704Y-109079684D01*
X65598514Y-109555874D02*
X65027085Y-109555874D01*
X65312800Y-109555874D02*
X65312800Y-108555874D01*
X65217561Y-108698732D01*
X65122323Y-108793970D01*
X65027085Y-108841589D01*
%TO.C,C1*%
X56018133Y-114032636D02*
X55970514Y-114080255D01*
X55827657Y-114127874D01*
X55732419Y-114127874D01*
X55589561Y-114080255D01*
X55494323Y-113985017D01*
X55446704Y-113889779D01*
X55399085Y-113699303D01*
X55399085Y-113556446D01*
X55446704Y-113365970D01*
X55494323Y-113270732D01*
X55589561Y-113175494D01*
X55732419Y-113127874D01*
X55827657Y-113127874D01*
X55970514Y-113175494D01*
X56018133Y-113223113D01*
X56970514Y-114127874D02*
X56399085Y-114127874D01*
X56684800Y-114127874D02*
X56684800Y-113127874D01*
X56589561Y-113270732D01*
X56494323Y-113365970D01*
X56399085Y-113413589D01*
%TO.C,CP1*%
X63392133Y-115810636D02*
X63344514Y-115858255D01*
X63201657Y-115905874D01*
X63106419Y-115905874D01*
X62963561Y-115858255D01*
X62868323Y-115763017D01*
X62820704Y-115667779D01*
X62773085Y-115477303D01*
X62773085Y-115334446D01*
X62820704Y-115143970D01*
X62868323Y-115048732D01*
X62963561Y-114953494D01*
X63106419Y-114905874D01*
X63201657Y-114905874D01*
X63344514Y-114953494D01*
X63392133Y-115001113D01*
X63820704Y-115905874D02*
X63820704Y-114905874D01*
X64201657Y-114905874D01*
X64296895Y-114953494D01*
X64344514Y-115001113D01*
X64392133Y-115096351D01*
X64392133Y-115239208D01*
X64344514Y-115334446D01*
X64296895Y-115382065D01*
X64201657Y-115429684D01*
X63820704Y-115429684D01*
X65344514Y-115905874D02*
X64773085Y-115905874D01*
X65058800Y-115905874D02*
X65058800Y-114905874D01*
X64963561Y-115048732D01*
X64868323Y-115143970D01*
X64773085Y-115191589D01*
%TO.C,Q1*%
X79203561Y-113969113D02*
X79108323Y-113921494D01*
X79013085Y-113826255D01*
X78870228Y-113683398D01*
X78774990Y-113635779D01*
X78679752Y-113635779D01*
X78727371Y-113873874D02*
X78632133Y-113826255D01*
X78536895Y-113731017D01*
X78489276Y-113540541D01*
X78489276Y-113207208D01*
X78536895Y-113016732D01*
X78632133Y-112921494D01*
X78727371Y-112873874D01*
X78917847Y-112873874D01*
X79013085Y-112921494D01*
X79108323Y-113016732D01*
X79155942Y-113207208D01*
X79155942Y-113540541D01*
X79108323Y-113731017D01*
X79013085Y-113826255D01*
X78917847Y-113873874D01*
X78727371Y-113873874D01*
X80108323Y-113873874D02*
X79536895Y-113873874D01*
X79822609Y-113873874D02*
X79822609Y-112873874D01*
X79727371Y-113016732D01*
X79632133Y-113111970D01*
X79536895Y-113159589D01*
%TO.C,J1*%
X53333866Y-135352874D02*
X53333866Y-136067160D01*
X53286247Y-136210017D01*
X53191009Y-136305255D01*
X53048152Y-136352874D01*
X52952914Y-136352874D01*
X54333866Y-136352874D02*
X53762438Y-136352874D01*
X54048152Y-136352874D02*
X54048152Y-135352874D01*
X53952914Y-135495732D01*
X53857676Y-135590970D01*
X53762438Y-135638589D01*
%TO.C,L2*%
X75090533Y-128224874D02*
X74614342Y-128224874D01*
X74614342Y-127224874D01*
X75376247Y-127320113D02*
X75423866Y-127272494D01*
X75519104Y-127224874D01*
X75757200Y-127224874D01*
X75852438Y-127272494D01*
X75900057Y-127320113D01*
X75947676Y-127415351D01*
X75947676Y-127510589D01*
X75900057Y-127653446D01*
X75328628Y-128224874D01*
X75947676Y-128224874D01*
%TO.C,Y1*%
X79607009Y-144258684D02*
X79607009Y-144734874D01*
X79273676Y-143734874D02*
X79607009Y-144258684D01*
X79940342Y-143734874D01*
X80797485Y-144734874D02*
X80226057Y-144734874D01*
X80511771Y-144734874D02*
X80511771Y-143734874D01*
X80416533Y-143877732D01*
X80321295Y-143972970D01*
X80226057Y-144020589D01*
%TO.C,L1*%
X62390533Y-128224874D02*
X61914342Y-128224874D01*
X61914342Y-127224874D01*
X63247676Y-128224874D02*
X62676247Y-128224874D01*
X62961961Y-128224874D02*
X62961961Y-127224874D01*
X62866723Y-127367732D01*
X62771485Y-127462970D01*
X62676247Y-127510589D01*
%TO.C,C2*%
X75090533Y-132447636D02*
X75042914Y-132495255D01*
X74900057Y-132542874D01*
X74804819Y-132542874D01*
X74661961Y-132495255D01*
X74566723Y-132400017D01*
X74519104Y-132304779D01*
X74471485Y-132114303D01*
X74471485Y-131971446D01*
X74519104Y-131780970D01*
X74566723Y-131685732D01*
X74661961Y-131590494D01*
X74804819Y-131542874D01*
X74900057Y-131542874D01*
X75042914Y-131590494D01*
X75090533Y-131638113D01*
X75471485Y-131638113D02*
X75519104Y-131590494D01*
X75614342Y-131542874D01*
X75852438Y-131542874D01*
X75947676Y-131590494D01*
X75995295Y-131638113D01*
X76042914Y-131733351D01*
X76042914Y-131828589D01*
X75995295Y-131971446D01*
X75423866Y-132542874D01*
X76042914Y-132542874D01*
%TO.C,J2*%
X82797866Y-136671874D02*
X82797866Y-137386160D01*
X82750247Y-137529017D01*
X82655009Y-137624255D01*
X82512152Y-137671874D01*
X82416914Y-137671874D01*
X83226438Y-136767113D02*
X83274057Y-136719494D01*
X83369295Y-136671874D01*
X83607390Y-136671874D01*
X83702628Y-136719494D01*
X83750247Y-136767113D01*
X83797866Y-136862351D01*
X83797866Y-136957589D01*
X83750247Y-137100446D01*
X83178819Y-137671874D01*
X83797866Y-137671874D01*
%TO.C,C1*%
X56040533Y-138543636D02*
X55992914Y-138591255D01*
X55850057Y-138638874D01*
X55754819Y-138638874D01*
X55611961Y-138591255D01*
X55516723Y-138496017D01*
X55469104Y-138400779D01*
X55421485Y-138210303D01*
X55421485Y-138067446D01*
X55469104Y-137876970D01*
X55516723Y-137781732D01*
X55611961Y-137686494D01*
X55754819Y-137638874D01*
X55850057Y-137638874D01*
X55992914Y-137686494D01*
X56040533Y-137734113D01*
X56992914Y-138638874D02*
X56421485Y-138638874D01*
X56707200Y-138638874D02*
X56707200Y-137638874D01*
X56611961Y-137781732D01*
X56516723Y-137876970D01*
X56421485Y-137924589D01*
%TO.C,R1*%
X55786533Y-144226874D02*
X55453200Y-143750684D01*
X55215104Y-144226874D02*
X55215104Y-143226874D01*
X55596057Y-143226874D01*
X55691295Y-143274494D01*
X55738914Y-143322113D01*
X55786533Y-143417351D01*
X55786533Y-143560208D01*
X55738914Y-143655446D01*
X55691295Y-143703065D01*
X55596057Y-143750684D01*
X55215104Y-143750684D01*
X56738914Y-144226874D02*
X56167485Y-144226874D01*
X56453200Y-144226874D02*
X56453200Y-143226874D01*
X56357961Y-143369732D01*
X56262723Y-143464970D01*
X56167485Y-143512589D01*
%TO.C,Q1*%
X79225961Y-138480113D02*
X79130723Y-138432494D01*
X79035485Y-138337255D01*
X78892628Y-138194398D01*
X78797390Y-138146779D01*
X78702152Y-138146779D01*
X78749771Y-138384874D02*
X78654533Y-138337255D01*
X78559295Y-138242017D01*
X78511676Y-138051541D01*
X78511676Y-137718208D01*
X78559295Y-137527732D01*
X78654533Y-137432494D01*
X78749771Y-137384874D01*
X78940247Y-137384874D01*
X79035485Y-137432494D01*
X79130723Y-137527732D01*
X79178342Y-137718208D01*
X79178342Y-138051541D01*
X79130723Y-138242017D01*
X79035485Y-138337255D01*
X78940247Y-138384874D01*
X78749771Y-138384874D01*
X80130723Y-138384874D02*
X79559295Y-138384874D01*
X79845009Y-138384874D02*
X79845009Y-137384874D01*
X79749771Y-137527732D01*
X79654533Y-137622970D01*
X79559295Y-137670589D01*
%TO.C,CP1*%
X63414533Y-140321636D02*
X63366914Y-140369255D01*
X63224057Y-140416874D01*
X63128819Y-140416874D01*
X62985961Y-140369255D01*
X62890723Y-140274017D01*
X62843104Y-140178779D01*
X62795485Y-139988303D01*
X62795485Y-139845446D01*
X62843104Y-139654970D01*
X62890723Y-139559732D01*
X62985961Y-139464494D01*
X63128819Y-139416874D01*
X63224057Y-139416874D01*
X63366914Y-139464494D01*
X63414533Y-139512113D01*
X63843104Y-140416874D02*
X63843104Y-139416874D01*
X64224057Y-139416874D01*
X64319295Y-139464494D01*
X64366914Y-139512113D01*
X64414533Y-139607351D01*
X64414533Y-139750208D01*
X64366914Y-139845446D01*
X64319295Y-139893065D01*
X64224057Y-139940684D01*
X63843104Y-139940684D01*
X65366914Y-140416874D02*
X64795485Y-140416874D01*
X65081200Y-140416874D02*
X65081200Y-139416874D01*
X64985961Y-139559732D01*
X64890723Y-139654970D01*
X64795485Y-139702589D01*
%TO.C,RP1*%
X63668533Y-134066874D02*
X63335200Y-133590684D01*
X63097104Y-134066874D02*
X63097104Y-133066874D01*
X63478057Y-133066874D01*
X63573295Y-133114494D01*
X63620914Y-133162113D01*
X63668533Y-133257351D01*
X63668533Y-133400208D01*
X63620914Y-133495446D01*
X63573295Y-133543065D01*
X63478057Y-133590684D01*
X63097104Y-133590684D01*
X64097104Y-134066874D02*
X64097104Y-133066874D01*
X64478057Y-133066874D01*
X64573295Y-133114494D01*
X64620914Y-133162113D01*
X64668533Y-133257351D01*
X64668533Y-133400208D01*
X64620914Y-133495446D01*
X64573295Y-133543065D01*
X64478057Y-133590684D01*
X64097104Y-133590684D01*
X65620914Y-134066874D02*
X65049485Y-134066874D01*
X65335200Y-134066874D02*
X65335200Y-133066874D01*
X65239961Y-133209732D01*
X65144723Y-133304970D01*
X65049485Y-133352589D01*
%TO.C,L2*%
X89120628Y-135491950D02*
X89120628Y-135777664D01*
X88520628Y-135777664D01*
X88577771Y-135320521D02*
X88549200Y-135291950D01*
X88520628Y-135234807D01*
X88520628Y-135091950D01*
X88549200Y-135034807D01*
X88577771Y-135006235D01*
X88634914Y-134977664D01*
X88692057Y-134977664D01*
X88777771Y-135006235D01*
X89120628Y-135349092D01*
X89120628Y-134977664D01*
%TO.C,R1*%
X101341180Y-141822466D02*
X100864990Y-142155800D01*
X101341180Y-142393895D02*
X100341180Y-142393895D01*
X100341180Y-142012942D01*
X100388800Y-141917704D01*
X100436419Y-141870085D01*
X100531657Y-141822466D01*
X100674514Y-141822466D01*
X100769752Y-141870085D01*
X100817371Y-141917704D01*
X100864990Y-142012942D01*
X100864990Y-142393895D01*
X101341180Y-140870085D02*
X101341180Y-141441514D01*
X101341180Y-141155800D02*
X100341180Y-141155800D01*
X100484038Y-141251038D01*
X100579276Y-141346276D01*
X100626895Y-141441514D01*
%TO.C,Q1*%
X95977719Y-131635388D02*
X95930100Y-131730626D01*
X95834861Y-131825864D01*
X95692004Y-131968721D01*
X95644385Y-132063959D01*
X95644385Y-132159197D01*
X95882480Y-132111578D02*
X95834861Y-132206816D01*
X95739623Y-132302054D01*
X95549147Y-132349673D01*
X95215814Y-132349673D01*
X95025338Y-132302054D01*
X94930100Y-132206816D01*
X94882480Y-132111578D01*
X94882480Y-131921102D01*
X94930100Y-131825864D01*
X95025338Y-131730626D01*
X95215814Y-131683007D01*
X95549147Y-131683007D01*
X95739623Y-131730626D01*
X95834861Y-131825864D01*
X95882480Y-131921102D01*
X95882480Y-132111578D01*
X95882480Y-130730626D02*
X95882480Y-131302054D01*
X95882480Y-131016340D02*
X94882480Y-131016340D01*
X95025338Y-131111578D01*
X95120576Y-131206816D01*
X95168195Y-131302054D01*
%TO.C,L1*%
X90139780Y-142254266D02*
X90139780Y-142730457D01*
X89139780Y-142730457D01*
X90139780Y-141397123D02*
X90139780Y-141968552D01*
X90139780Y-141682838D02*
X89139780Y-141682838D01*
X89282638Y-141778076D01*
X89377876Y-141873314D01*
X89425495Y-141968552D01*
%TO.C,RP1*%
X94052233Y-137148730D02*
X93718900Y-136672540D01*
X93480804Y-137148730D02*
X93480804Y-136148730D01*
X93861757Y-136148730D01*
X93956995Y-136196350D01*
X94004614Y-136243969D01*
X94052233Y-136339207D01*
X94052233Y-136482064D01*
X94004614Y-136577302D01*
X93956995Y-136624921D01*
X93861757Y-136672540D01*
X93480804Y-136672540D01*
X94480804Y-137148730D02*
X94480804Y-136148730D01*
X94861757Y-136148730D01*
X94956995Y-136196350D01*
X95004614Y-136243969D01*
X95052233Y-136339207D01*
X95052233Y-136482064D01*
X95004614Y-136577302D01*
X94956995Y-136624921D01*
X94861757Y-136672540D01*
X94480804Y-136672540D01*
X96004614Y-137148730D02*
X95433185Y-137148730D01*
X95718900Y-137148730D02*
X95718900Y-136148730D01*
X95623661Y-136291588D01*
X95528423Y-136386826D01*
X95433185Y-136434445D01*
%TO.C,Y1*%
X100664090Y-132498940D02*
X101140280Y-132498940D01*
X100140280Y-132832273D02*
X100664090Y-132498940D01*
X100140280Y-132165607D01*
X101140280Y-131308464D02*
X101140280Y-131879892D01*
X101140280Y-131594178D02*
X100140280Y-131594178D01*
X100283138Y-131689416D01*
X100378376Y-131784654D01*
X100425995Y-131879892D01*
%TO.C,C1*%
X92840842Y-142501816D02*
X92888461Y-142549435D01*
X92936080Y-142692292D01*
X92936080Y-142787530D01*
X92888461Y-142930388D01*
X92793223Y-143025626D01*
X92697985Y-143073245D01*
X92507509Y-143120864D01*
X92364652Y-143120864D01*
X92174176Y-143073245D01*
X92078938Y-143025626D01*
X91983700Y-142930388D01*
X91936080Y-142787530D01*
X91936080Y-142692292D01*
X91983700Y-142549435D01*
X92031319Y-142501816D01*
X92936080Y-141549435D02*
X92936080Y-142120864D01*
X92936080Y-141835150D02*
X91936080Y-141835150D01*
X92078938Y-141930388D01*
X92174176Y-142025626D01*
X92221795Y-142120864D01*
%TO.C,CP1*%
X95576233Y-142641492D02*
X95528614Y-142689111D01*
X95385757Y-142736730D01*
X95290519Y-142736730D01*
X95147661Y-142689111D01*
X95052423Y-142593873D01*
X95004804Y-142498635D01*
X94957185Y-142308159D01*
X94957185Y-142165302D01*
X95004804Y-141974826D01*
X95052423Y-141879588D01*
X95147661Y-141784350D01*
X95290519Y-141736730D01*
X95385757Y-141736730D01*
X95528614Y-141784350D01*
X95576233Y-141831969D01*
X96004804Y-142736730D02*
X96004804Y-141736730D01*
X96385757Y-141736730D01*
X96480995Y-141784350D01*
X96528614Y-141831969D01*
X96576233Y-141927207D01*
X96576233Y-142070064D01*
X96528614Y-142165302D01*
X96480995Y-142212921D01*
X96385757Y-142260540D01*
X96004804Y-142260540D01*
X97528614Y-142736730D02*
X96957185Y-142736730D01*
X97242900Y-142736730D02*
X97242900Y-141736730D01*
X97147661Y-141879588D01*
X97052423Y-141974826D01*
X96957185Y-142022445D01*
%TO.C,C2*%
X92942442Y-132697416D02*
X92990061Y-132745035D01*
X93037680Y-132887892D01*
X93037680Y-132983130D01*
X92990061Y-133125988D01*
X92894823Y-133221226D01*
X92799585Y-133268845D01*
X92609109Y-133316464D01*
X92466252Y-133316464D01*
X92275776Y-133268845D01*
X92180538Y-133221226D01*
X92085300Y-133125988D01*
X92037680Y-132983130D01*
X92037680Y-132887892D01*
X92085300Y-132745035D01*
X92132919Y-132697416D01*
X92132919Y-132316464D02*
X92085300Y-132268845D01*
X92037680Y-132173607D01*
X92037680Y-131935511D01*
X92085300Y-131840273D01*
X92132919Y-131792654D01*
X92228157Y-131745035D01*
X92323395Y-131745035D01*
X92466252Y-131792654D01*
X93037680Y-132364083D01*
X93037680Y-131745035D01*
%TO.C,J2*%
X94875680Y-127606283D02*
X95589966Y-127606283D01*
X95732823Y-127653902D01*
X95828061Y-127749140D01*
X95875680Y-127891997D01*
X95875680Y-127987235D01*
X94970919Y-127177711D02*
X94923300Y-127130092D01*
X94875680Y-127034854D01*
X94875680Y-126796759D01*
X94923300Y-126701521D01*
X94970919Y-126653902D01*
X95066157Y-126606283D01*
X95161395Y-126606283D01*
X95304252Y-126653902D01*
X95875680Y-127225330D01*
X95875680Y-126606283D01*
%TO.C,J1*%
X97775780Y-145570533D02*
X98490066Y-145570533D01*
X98632923Y-145618152D01*
X98728161Y-145713390D01*
X98775780Y-145856247D01*
X98775780Y-145951485D01*
X98775780Y-144570533D02*
X98775780Y-145141961D01*
X98775780Y-144856247D02*
X97775780Y-144856247D01*
X97918638Y-144951485D01*
X98013876Y-145046723D01*
X98061495Y-145141961D01*
%TO.C,C3*%
X92406742Y-130646466D02*
X92454361Y-130694085D01*
X92501980Y-130836942D01*
X92501980Y-130932180D01*
X92454361Y-131075038D01*
X92359123Y-131170276D01*
X92263885Y-131217895D01*
X92073409Y-131265514D01*
X91930552Y-131265514D01*
X91740076Y-131217895D01*
X91644838Y-131170276D01*
X91549600Y-131075038D01*
X91501980Y-130932180D01*
X91501980Y-130836942D01*
X91549600Y-130694085D01*
X91597219Y-130646466D01*
X91501980Y-130313133D02*
X91501980Y-129694085D01*
X91882933Y-130027419D01*
X91882933Y-129884561D01*
X91930552Y-129789323D01*
X91978171Y-129741704D01*
X92073409Y-129694085D01*
X92311504Y-129694085D01*
X92406742Y-129741704D01*
X92454361Y-129789323D01*
X92501980Y-129884561D01*
X92501980Y-130170276D01*
X92454361Y-130265514D01*
X92406742Y-130313133D01*
%TO.C,*%
G36*
X82097880Y-90707210D02*
G01*
X82367120Y-90793570D01*
X82621120Y-90925650D01*
X83248500Y-90412570D01*
X83680300Y-90844370D01*
X83167220Y-91471750D01*
X83299300Y-91725750D01*
X83385660Y-91994990D01*
X84190840Y-92078810D01*
X84190840Y-92683330D01*
X83385660Y-92767150D01*
X83299300Y-93036390D01*
X83167220Y-93290390D01*
X83680300Y-93917770D01*
X83248500Y-94349570D01*
X82621120Y-93836490D01*
X82367120Y-93968570D01*
X82008980Y-93102430D01*
X82151220Y-93026230D01*
X82273140Y-92922090D01*
X82372200Y-92795090D01*
X82443320Y-92650310D01*
X82483960Y-92495370D01*
X82491580Y-92337890D01*
X82466180Y-92180410D01*
X82407760Y-92030550D01*
X82321400Y-91895930D01*
X82209640Y-91781630D01*
X82075020Y-91692730D01*
X81927700Y-91631770D01*
X81767680Y-91603830D01*
X81610200Y-91608910D01*
X81455260Y-91644470D01*
X81310480Y-91713050D01*
X81180940Y-91809570D01*
X81076800Y-91931490D01*
X80998060Y-92068650D01*
X80947260Y-92223590D01*
X80932020Y-92381070D01*
X80947260Y-92533470D01*
X80990440Y-92678250D01*
X81064100Y-92812870D01*
X81160620Y-92932250D01*
X81280000Y-93028770D01*
X81414620Y-93102430D01*
X81056480Y-93968570D01*
X80802480Y-93836490D01*
X80175100Y-94349570D01*
X79743300Y-93917770D01*
X80256380Y-93290390D01*
X80124300Y-93036390D01*
X80037940Y-92767150D01*
X79232760Y-92683330D01*
X79232760Y-92078810D01*
X80037940Y-91994990D01*
X80124300Y-91725750D01*
X80256380Y-91471750D01*
X79743300Y-90844370D01*
X80175100Y-90412570D01*
X80802480Y-90925650D01*
X81056480Y-90793570D01*
X81325720Y-90707210D01*
X81409540Y-89902030D01*
X82014060Y-89902030D01*
X82097880Y-90707210D01*
G37*
D11*
X82097880Y-90707210D02*
X82367120Y-90793570D01*
X82621120Y-90925650D01*
X83248500Y-90412570D01*
X83680300Y-90844370D01*
X83167220Y-91471750D01*
X83299300Y-91725750D01*
X83385660Y-91994990D01*
X84190840Y-92078810D01*
X84190840Y-92683330D01*
X83385660Y-92767150D01*
X83299300Y-93036390D01*
X83167220Y-93290390D01*
X83680300Y-93917770D01*
X83248500Y-94349570D01*
X82621120Y-93836490D01*
X82367120Y-93968570D01*
X82008980Y-93102430D01*
X82151220Y-93026230D01*
X82273140Y-92922090D01*
X82372200Y-92795090D01*
X82443320Y-92650310D01*
X82483960Y-92495370D01*
X82491580Y-92337890D01*
X82466180Y-92180410D01*
X82407760Y-92030550D01*
X82321400Y-91895930D01*
X82209640Y-91781630D01*
X82075020Y-91692730D01*
X81927700Y-91631770D01*
X81767680Y-91603830D01*
X81610200Y-91608910D01*
X81455260Y-91644470D01*
X81310480Y-91713050D01*
X81180940Y-91809570D01*
X81076800Y-91931490D01*
X80998060Y-92068650D01*
X80947260Y-92223590D01*
X80932020Y-92381070D01*
X80947260Y-92533470D01*
X80990440Y-92678250D01*
X81064100Y-92812870D01*
X81160620Y-92932250D01*
X81280000Y-93028770D01*
X81414620Y-93102430D01*
X81056480Y-93968570D01*
X80802480Y-93836490D01*
X80175100Y-94349570D01*
X79743300Y-93917770D01*
X80256380Y-93290390D01*
X80124300Y-93036390D01*
X80037940Y-92767150D01*
X79232760Y-92683330D01*
X79232760Y-92078810D01*
X80037940Y-91994990D01*
X80124300Y-91725750D01*
X80256380Y-91471750D01*
X79743300Y-90844370D01*
X80175100Y-90412570D01*
X80802480Y-90925650D01*
X81056480Y-90793570D01*
X81325720Y-90707210D01*
X81409540Y-89902030D01*
X82014060Y-89902030D01*
X82097880Y-90707210D01*
G36*
X99700080Y-78007210D02*
G01*
X99969320Y-78093570D01*
X100223320Y-78225650D01*
X100850700Y-77712570D01*
X101282500Y-78144370D01*
X100769420Y-78771750D01*
X100901500Y-79025750D01*
X100987860Y-79294990D01*
X101793040Y-79378810D01*
X101793040Y-79983330D01*
X100987860Y-80067150D01*
X100901500Y-80336390D01*
X100769420Y-80590390D01*
X101282500Y-81217770D01*
X100850700Y-81649570D01*
X100223320Y-81136490D01*
X99969320Y-81268570D01*
X99611180Y-80402430D01*
X99753420Y-80326230D01*
X99875340Y-80222090D01*
X99974400Y-80095090D01*
X100045520Y-79950310D01*
X100086160Y-79795370D01*
X100093780Y-79637890D01*
X100068380Y-79480410D01*
X100009960Y-79330550D01*
X99923600Y-79195930D01*
X99811840Y-79081630D01*
X99677220Y-78992730D01*
X99529900Y-78931770D01*
X99369880Y-78903830D01*
X99212400Y-78908910D01*
X99057460Y-78944470D01*
X98912680Y-79013050D01*
X98783140Y-79109570D01*
X98679000Y-79231490D01*
X98600260Y-79368650D01*
X98549460Y-79523590D01*
X98534220Y-79681070D01*
X98549460Y-79833470D01*
X98592640Y-79978250D01*
X98666300Y-80112870D01*
X98762820Y-80232250D01*
X98882200Y-80328770D01*
X99016820Y-80402430D01*
X98658680Y-81268570D01*
X98404680Y-81136490D01*
X97777300Y-81649570D01*
X97345500Y-81217770D01*
X97858580Y-80590390D01*
X97726500Y-80336390D01*
X97640140Y-80067150D01*
X96834960Y-79983330D01*
X96834960Y-79378810D01*
X97640140Y-79294990D01*
X97726500Y-79025750D01*
X97858580Y-78771750D01*
X97345500Y-78144370D01*
X97777300Y-77712570D01*
X98404680Y-78225650D01*
X98658680Y-78093570D01*
X98927920Y-78007210D01*
X99011740Y-77202030D01*
X99616260Y-77202030D01*
X99700080Y-78007210D01*
G37*
X99700080Y-78007210D02*
X99969320Y-78093570D01*
X100223320Y-78225650D01*
X100850700Y-77712570D01*
X101282500Y-78144370D01*
X100769420Y-78771750D01*
X100901500Y-79025750D01*
X100987860Y-79294990D01*
X101793040Y-79378810D01*
X101793040Y-79983330D01*
X100987860Y-80067150D01*
X100901500Y-80336390D01*
X100769420Y-80590390D01*
X101282500Y-81217770D01*
X100850700Y-81649570D01*
X100223320Y-81136490D01*
X99969320Y-81268570D01*
X99611180Y-80402430D01*
X99753420Y-80326230D01*
X99875340Y-80222090D01*
X99974400Y-80095090D01*
X100045520Y-79950310D01*
X100086160Y-79795370D01*
X100093780Y-79637890D01*
X100068380Y-79480410D01*
X100009960Y-79330550D01*
X99923600Y-79195930D01*
X99811840Y-79081630D01*
X99677220Y-78992730D01*
X99529900Y-78931770D01*
X99369880Y-78903830D01*
X99212400Y-78908910D01*
X99057460Y-78944470D01*
X98912680Y-79013050D01*
X98783140Y-79109570D01*
X98679000Y-79231490D01*
X98600260Y-79368650D01*
X98549460Y-79523590D01*
X98534220Y-79681070D01*
X98549460Y-79833470D01*
X98592640Y-79978250D01*
X98666300Y-80112870D01*
X98762820Y-80232250D01*
X98882200Y-80328770D01*
X99016820Y-80402430D01*
X98658680Y-81268570D01*
X98404680Y-81136490D01*
X97777300Y-81649570D01*
X97345500Y-81217770D01*
X97858580Y-80590390D01*
X97726500Y-80336390D01*
X97640140Y-80067150D01*
X96834960Y-79983330D01*
X96834960Y-79378810D01*
X97640140Y-79294990D01*
X97726500Y-79025750D01*
X97858580Y-78771750D01*
X97345500Y-78144370D01*
X97777300Y-77712570D01*
X98404680Y-78225650D01*
X98658680Y-78093570D01*
X98927920Y-78007210D01*
X99011740Y-77202030D01*
X99616260Y-77202030D01*
X99700080Y-78007210D01*
G36*
X82199480Y-115040410D02*
G01*
X82468720Y-115126770D01*
X82722720Y-115258850D01*
X83350100Y-114745770D01*
X83781900Y-115177570D01*
X83268820Y-115804950D01*
X83400900Y-116058950D01*
X83487260Y-116328190D01*
X84292440Y-116412010D01*
X84292440Y-117016530D01*
X83487260Y-117100350D01*
X83400900Y-117369590D01*
X83268820Y-117623590D01*
X83781900Y-118250970D01*
X83350100Y-118682770D01*
X82722720Y-118169690D01*
X82468720Y-118301770D01*
X82110580Y-117435630D01*
X82252820Y-117359430D01*
X82374740Y-117255290D01*
X82473800Y-117128290D01*
X82544920Y-116983510D01*
X82585560Y-116828570D01*
X82593180Y-116671090D01*
X82567780Y-116513610D01*
X82509360Y-116363750D01*
X82423000Y-116229130D01*
X82311240Y-116114830D01*
X82176620Y-116025930D01*
X82029300Y-115964970D01*
X81869280Y-115937030D01*
X81711800Y-115942110D01*
X81556860Y-115977670D01*
X81412080Y-116046250D01*
X81282540Y-116142770D01*
X81178400Y-116264690D01*
X81099660Y-116401850D01*
X81048860Y-116556790D01*
X81033620Y-116714270D01*
X81048860Y-116866670D01*
X81092040Y-117011450D01*
X81165700Y-117146070D01*
X81262220Y-117265450D01*
X81381600Y-117361970D01*
X81516220Y-117435630D01*
X81158080Y-118301770D01*
X80904080Y-118169690D01*
X80276700Y-118682770D01*
X79844900Y-118250970D01*
X80357980Y-117623590D01*
X80225900Y-117369590D01*
X80139540Y-117100350D01*
X79334360Y-117016530D01*
X79334360Y-116412010D01*
X80139540Y-116328190D01*
X80225900Y-116058950D01*
X80357980Y-115804950D01*
X79844900Y-115177570D01*
X80276700Y-114745770D01*
X80904080Y-115258850D01*
X81158080Y-115126770D01*
X81427320Y-115040410D01*
X81511140Y-114235230D01*
X82115660Y-114235230D01*
X82199480Y-115040410D01*
G37*
X82199480Y-115040410D02*
X82468720Y-115126770D01*
X82722720Y-115258850D01*
X83350100Y-114745770D01*
X83781900Y-115177570D01*
X83268820Y-115804950D01*
X83400900Y-116058950D01*
X83487260Y-116328190D01*
X84292440Y-116412010D01*
X84292440Y-117016530D01*
X83487260Y-117100350D01*
X83400900Y-117369590D01*
X83268820Y-117623590D01*
X83781900Y-118250970D01*
X83350100Y-118682770D01*
X82722720Y-118169690D01*
X82468720Y-118301770D01*
X82110580Y-117435630D01*
X82252820Y-117359430D01*
X82374740Y-117255290D01*
X82473800Y-117128290D01*
X82544920Y-116983510D01*
X82585560Y-116828570D01*
X82593180Y-116671090D01*
X82567780Y-116513610D01*
X82509360Y-116363750D01*
X82423000Y-116229130D01*
X82311240Y-116114830D01*
X82176620Y-116025930D01*
X82029300Y-115964970D01*
X81869280Y-115937030D01*
X81711800Y-115942110D01*
X81556860Y-115977670D01*
X81412080Y-116046250D01*
X81282540Y-116142770D01*
X81178400Y-116264690D01*
X81099660Y-116401850D01*
X81048860Y-116556790D01*
X81033620Y-116714270D01*
X81048860Y-116866670D01*
X81092040Y-117011450D01*
X81165700Y-117146070D01*
X81262220Y-117265450D01*
X81381600Y-117361970D01*
X81516220Y-117435630D01*
X81158080Y-118301770D01*
X80904080Y-118169690D01*
X80276700Y-118682770D01*
X79844900Y-118250970D01*
X80357980Y-117623590D01*
X80225900Y-117369590D01*
X80139540Y-117100350D01*
X79334360Y-117016530D01*
X79334360Y-116412010D01*
X80139540Y-116328190D01*
X80225900Y-116058950D01*
X80357980Y-115804950D01*
X79844900Y-115177570D01*
X80276700Y-114745770D01*
X80904080Y-115258850D01*
X81158080Y-115126770D01*
X81427320Y-115040410D01*
X81511140Y-114235230D01*
X82115660Y-114235230D01*
X82199480Y-115040410D01*
G36*
X99903280Y-102772210D02*
G01*
X100172520Y-102858570D01*
X100426520Y-102990650D01*
X101053900Y-102477570D01*
X101485700Y-102909370D01*
X100972620Y-103536750D01*
X101104700Y-103790750D01*
X101191060Y-104059990D01*
X101996240Y-104143810D01*
X101996240Y-104748330D01*
X101191060Y-104832150D01*
X101104700Y-105101390D01*
X100972620Y-105355390D01*
X101485700Y-105982770D01*
X101053900Y-106414570D01*
X100426520Y-105901490D01*
X100172520Y-106033570D01*
X99814380Y-105167430D01*
X99956620Y-105091230D01*
X100078540Y-104987090D01*
X100177600Y-104860090D01*
X100248720Y-104715310D01*
X100289360Y-104560370D01*
X100296980Y-104402890D01*
X100271580Y-104245410D01*
X100213160Y-104095550D01*
X100126800Y-103960930D01*
X100015040Y-103846630D01*
X99880420Y-103757730D01*
X99733100Y-103696770D01*
X99573080Y-103668830D01*
X99415600Y-103673910D01*
X99260660Y-103709470D01*
X99115880Y-103778050D01*
X98986340Y-103874570D01*
X98882200Y-103996490D01*
X98803460Y-104133650D01*
X98752660Y-104288590D01*
X98737420Y-104446070D01*
X98752660Y-104598470D01*
X98795840Y-104743250D01*
X98869500Y-104877870D01*
X98966020Y-104997250D01*
X99085400Y-105093770D01*
X99220020Y-105167430D01*
X98861880Y-106033570D01*
X98607880Y-105901490D01*
X97980500Y-106414570D01*
X97548700Y-105982770D01*
X98061780Y-105355390D01*
X97929700Y-105101390D01*
X97843340Y-104832150D01*
X97038160Y-104748330D01*
X97038160Y-104143810D01*
X97843340Y-104059990D01*
X97929700Y-103790750D01*
X98061780Y-103536750D01*
X97548700Y-102909370D01*
X97980500Y-102477570D01*
X98607880Y-102990650D01*
X98861880Y-102858570D01*
X99131120Y-102772210D01*
X99214940Y-101967030D01*
X99819460Y-101967030D01*
X99903280Y-102772210D01*
G37*
X99903280Y-102772210D02*
X100172520Y-102858570D01*
X100426520Y-102990650D01*
X101053900Y-102477570D01*
X101485700Y-102909370D01*
X100972620Y-103536750D01*
X101104700Y-103790750D01*
X101191060Y-104059990D01*
X101996240Y-104143810D01*
X101996240Y-104748330D01*
X101191060Y-104832150D01*
X101104700Y-105101390D01*
X100972620Y-105355390D01*
X101485700Y-105982770D01*
X101053900Y-106414570D01*
X100426520Y-105901490D01*
X100172520Y-106033570D01*
X99814380Y-105167430D01*
X99956620Y-105091230D01*
X100078540Y-104987090D01*
X100177600Y-104860090D01*
X100248720Y-104715310D01*
X100289360Y-104560370D01*
X100296980Y-104402890D01*
X100271580Y-104245410D01*
X100213160Y-104095550D01*
X100126800Y-103960930D01*
X100015040Y-103846630D01*
X99880420Y-103757730D01*
X99733100Y-103696770D01*
X99573080Y-103668830D01*
X99415600Y-103673910D01*
X99260660Y-103709470D01*
X99115880Y-103778050D01*
X98986340Y-103874570D01*
X98882200Y-103996490D01*
X98803460Y-104133650D01*
X98752660Y-104288590D01*
X98737420Y-104446070D01*
X98752660Y-104598470D01*
X98795840Y-104743250D01*
X98869500Y-104877870D01*
X98966020Y-104997250D01*
X99085400Y-105093770D01*
X99220020Y-105167430D01*
X98861880Y-106033570D01*
X98607880Y-105901490D01*
X97980500Y-106414570D01*
X97548700Y-105982770D01*
X98061780Y-105355390D01*
X97929700Y-105101390D01*
X97843340Y-104832150D01*
X97038160Y-104748330D01*
X97038160Y-104143810D01*
X97843340Y-104059990D01*
X97929700Y-103790750D01*
X98061780Y-103536750D01*
X97548700Y-102909370D01*
X97980500Y-102477570D01*
X98607880Y-102990650D01*
X98861880Y-102858570D01*
X99131120Y-102772210D01*
X99214940Y-101967030D01*
X99819460Y-101967030D01*
X99903280Y-102772210D01*
G36*
X99877880Y-126953010D02*
G01*
X100147120Y-127039370D01*
X100401120Y-127171450D01*
X101028500Y-126658370D01*
X101460300Y-127090170D01*
X100947220Y-127717550D01*
X101079300Y-127971550D01*
X101165660Y-128240790D01*
X101970840Y-128324610D01*
X101970840Y-128929130D01*
X101165660Y-129012950D01*
X101079300Y-129282190D01*
X100947220Y-129536190D01*
X101460300Y-130163570D01*
X101028500Y-130595370D01*
X100401120Y-130082290D01*
X100147120Y-130214370D01*
X99788980Y-129348230D01*
X99931220Y-129272030D01*
X100053140Y-129167890D01*
X100152200Y-129040890D01*
X100223320Y-128896110D01*
X100263960Y-128741170D01*
X100271580Y-128583690D01*
X100246180Y-128426210D01*
X100187760Y-128276350D01*
X100101400Y-128141730D01*
X99989640Y-128027430D01*
X99855020Y-127938530D01*
X99707700Y-127877570D01*
X99547680Y-127849630D01*
X99390200Y-127854710D01*
X99235260Y-127890270D01*
X99090480Y-127958850D01*
X98960940Y-128055370D01*
X98856800Y-128177290D01*
X98778060Y-128314450D01*
X98727260Y-128469390D01*
X98712020Y-128626870D01*
X98727260Y-128779270D01*
X98770440Y-128924050D01*
X98844100Y-129058670D01*
X98940620Y-129178050D01*
X99060000Y-129274570D01*
X99194620Y-129348230D01*
X98836480Y-130214370D01*
X98582480Y-130082290D01*
X97955100Y-130595370D01*
X97523300Y-130163570D01*
X98036380Y-129536190D01*
X97904300Y-129282190D01*
X97817940Y-129012950D01*
X97012760Y-128929130D01*
X97012760Y-128324610D01*
X97817940Y-128240790D01*
X97904300Y-127971550D01*
X98036380Y-127717550D01*
X97523300Y-127090170D01*
X97955100Y-126658370D01*
X98582480Y-127171450D01*
X98836480Y-127039370D01*
X99105720Y-126953010D01*
X99189540Y-126147830D01*
X99794060Y-126147830D01*
X99877880Y-126953010D01*
G37*
X99877880Y-126953010D02*
X100147120Y-127039370D01*
X100401120Y-127171450D01*
X101028500Y-126658370D01*
X101460300Y-127090170D01*
X100947220Y-127717550D01*
X101079300Y-127971550D01*
X101165660Y-128240790D01*
X101970840Y-128324610D01*
X101970840Y-128929130D01*
X101165660Y-129012950D01*
X101079300Y-129282190D01*
X100947220Y-129536190D01*
X101460300Y-130163570D01*
X101028500Y-130595370D01*
X100401120Y-130082290D01*
X100147120Y-130214370D01*
X99788980Y-129348230D01*
X99931220Y-129272030D01*
X100053140Y-129167890D01*
X100152200Y-129040890D01*
X100223320Y-128896110D01*
X100263960Y-128741170D01*
X100271580Y-128583690D01*
X100246180Y-128426210D01*
X100187760Y-128276350D01*
X100101400Y-128141730D01*
X99989640Y-128027430D01*
X99855020Y-127938530D01*
X99707700Y-127877570D01*
X99547680Y-127849630D01*
X99390200Y-127854710D01*
X99235260Y-127890270D01*
X99090480Y-127958850D01*
X98960940Y-128055370D01*
X98856800Y-128177290D01*
X98778060Y-128314450D01*
X98727260Y-128469390D01*
X98712020Y-128626870D01*
X98727260Y-128779270D01*
X98770440Y-128924050D01*
X98844100Y-129058670D01*
X98940620Y-129178050D01*
X99060000Y-129274570D01*
X99194620Y-129348230D01*
X98836480Y-130214370D01*
X98582480Y-130082290D01*
X97955100Y-130595370D01*
X97523300Y-130163570D01*
X98036380Y-129536190D01*
X97904300Y-129282190D01*
X97817940Y-129012950D01*
X97012760Y-128929130D01*
X97012760Y-128324610D01*
X97817940Y-128240790D01*
X97904300Y-127971550D01*
X98036380Y-127717550D01*
X97523300Y-127090170D01*
X97955100Y-126658370D01*
X98582480Y-127171450D01*
X98836480Y-127039370D01*
X99105720Y-126953010D01*
X99189540Y-126147830D01*
X99794060Y-126147830D01*
X99877880Y-126953010D01*
G36*
X82351880Y-139575540D02*
G01*
X82621120Y-139661900D01*
X82875120Y-139793980D01*
X83502500Y-139280900D01*
X83934300Y-139712700D01*
X83421220Y-140340080D01*
X83553300Y-140594080D01*
X83639660Y-140863320D01*
X84444840Y-140947140D01*
X84444840Y-141551660D01*
X83639660Y-141635480D01*
X83553300Y-141904720D01*
X83421220Y-142158720D01*
X83934300Y-142786100D01*
X83502500Y-143217900D01*
X82875120Y-142704820D01*
X82621120Y-142836900D01*
X82262980Y-141970760D01*
X82405220Y-141894560D01*
X82527140Y-141790420D01*
X82626200Y-141663420D01*
X82697320Y-141518640D01*
X82737960Y-141363700D01*
X82745580Y-141206220D01*
X82720180Y-141048740D01*
X82661760Y-140898880D01*
X82575400Y-140764260D01*
X82463640Y-140649960D01*
X82329020Y-140561060D01*
X82181700Y-140500100D01*
X82021680Y-140472160D01*
X81864200Y-140477240D01*
X81709260Y-140512800D01*
X81564480Y-140581380D01*
X81434940Y-140677900D01*
X81330800Y-140799820D01*
X81252060Y-140936980D01*
X81201260Y-141091920D01*
X81186020Y-141249400D01*
X81201260Y-141401800D01*
X81244440Y-141546580D01*
X81318100Y-141681200D01*
X81414620Y-141800580D01*
X81534000Y-141897100D01*
X81668620Y-141970760D01*
X81310480Y-142836900D01*
X81056480Y-142704820D01*
X80429100Y-143217900D01*
X79997300Y-142786100D01*
X80510380Y-142158720D01*
X80378300Y-141904720D01*
X80291940Y-141635480D01*
X79486760Y-141551660D01*
X79486760Y-140947140D01*
X80291940Y-140863320D01*
X80378300Y-140594080D01*
X80510380Y-140340080D01*
X79997300Y-139712700D01*
X80429100Y-139280900D01*
X81056480Y-139793980D01*
X81310480Y-139661900D01*
X81579720Y-139575540D01*
X81663540Y-138770360D01*
X82268060Y-138770360D01*
X82351880Y-139575540D01*
G37*
X82351880Y-139575540D02*
X82621120Y-139661900D01*
X82875120Y-139793980D01*
X83502500Y-139280900D01*
X83934300Y-139712700D01*
X83421220Y-140340080D01*
X83553300Y-140594080D01*
X83639660Y-140863320D01*
X84444840Y-140947140D01*
X84444840Y-141551660D01*
X83639660Y-141635480D01*
X83553300Y-141904720D01*
X83421220Y-142158720D01*
X83934300Y-142786100D01*
X83502500Y-143217900D01*
X82875120Y-142704820D01*
X82621120Y-142836900D01*
X82262980Y-141970760D01*
X82405220Y-141894560D01*
X82527140Y-141790420D01*
X82626200Y-141663420D01*
X82697320Y-141518640D01*
X82737960Y-141363700D01*
X82745580Y-141206220D01*
X82720180Y-141048740D01*
X82661760Y-140898880D01*
X82575400Y-140764260D01*
X82463640Y-140649960D01*
X82329020Y-140561060D01*
X82181700Y-140500100D01*
X82021680Y-140472160D01*
X81864200Y-140477240D01*
X81709260Y-140512800D01*
X81564480Y-140581380D01*
X81434940Y-140677900D01*
X81330800Y-140799820D01*
X81252060Y-140936980D01*
X81201260Y-141091920D01*
X81186020Y-141249400D01*
X81201260Y-141401800D01*
X81244440Y-141546580D01*
X81318100Y-141681200D01*
X81414620Y-141800580D01*
X81534000Y-141897100D01*
X81668620Y-141970760D01*
X81310480Y-142836900D01*
X81056480Y-142704820D01*
X80429100Y-143217900D01*
X79997300Y-142786100D01*
X80510380Y-142158720D01*
X80378300Y-141904720D01*
X80291940Y-141635480D01*
X79486760Y-141551660D01*
X79486760Y-140947140D01*
X80291940Y-140863320D01*
X80378300Y-140594080D01*
X80510380Y-140340080D01*
X79997300Y-139712700D01*
X80429100Y-139280900D01*
X81056480Y-139793980D01*
X81310480Y-139661900D01*
X81579720Y-139575540D01*
X81663540Y-138770360D01*
X82268060Y-138770360D01*
X82351880Y-139575540D01*
D12*
%TO.C,L1*%
X91010900Y-90970352D02*
X91010900Y-90447848D01*
X89590900Y-90970352D02*
X89590900Y-90447848D01*
%TO.C,Y1*%
X102536900Y-84370100D02*
X97836900Y-84370100D01*
X97836900Y-84370100D02*
X97836900Y-89970100D01*
%TO.C,C1*%
X93631652Y-92451100D02*
X93109148Y-92451100D01*
X93631652Y-90981100D02*
X93109148Y-90981100D01*
%TO.C,C2*%
X93067900Y-86353348D02*
X93067900Y-86875852D01*
X91597900Y-86353348D02*
X91597900Y-86875852D01*
%TO.C,J2*%
X91824900Y-77178100D02*
X91824900Y-79838100D01*
X93094900Y-77178100D02*
X94424900Y-77178100D01*
X89224900Y-77178100D02*
X89224900Y-79838100D01*
X91824900Y-77178100D02*
X89224900Y-77178100D01*
X94424900Y-77178100D02*
X94424900Y-78508100D01*
X91824900Y-79838100D02*
X89224900Y-79838100D01*
%TO.C,Q1*%
X95634900Y-87180100D02*
X94984900Y-87180100D01*
X95634900Y-84060100D02*
X96284900Y-84060100D01*
X95634900Y-84060100D02*
X94984900Y-84060100D01*
X95634900Y-87180100D02*
X97309900Y-87180100D01*
%TO.C,RP1*%
X93087648Y-90419100D02*
X93610152Y-90419100D01*
X93087648Y-88949100D02*
X93610152Y-88949100D01*
%TO.C,C3*%
X89565900Y-82854852D02*
X89565900Y-82332348D01*
X91035900Y-82854852D02*
X91035900Y-82332348D01*
%TO.C,L2*%
X89590900Y-86888352D02*
X89590900Y-86365848D01*
X91010900Y-86888352D02*
X91010900Y-86365848D01*
%TO.C,J1*%
X91839900Y-97364100D02*
X91839900Y-94704100D01*
X91839900Y-94704100D02*
X96979900Y-94704100D01*
X89239900Y-97364100D02*
X89239900Y-96034100D01*
X96979900Y-97364100D02*
X96979900Y-94704100D01*
X90569900Y-97364100D02*
X89239900Y-97364100D01*
X91839900Y-97364100D02*
X96979900Y-97364100D01*
%TO.C,CP1*%
X95661900Y-90438848D02*
X95661900Y-90961352D01*
X97131900Y-90438848D02*
X97131900Y-90961352D01*
%TO.C,R1*%
X99824300Y-93628352D02*
X99824300Y-93105848D01*
X98354300Y-93628352D02*
X98354300Y-93105848D01*
%TO.C,L2*%
X89584045Y-111342628D02*
X89584045Y-110820124D01*
X91004045Y-111342628D02*
X91004045Y-110820124D01*
%TO.C,L1*%
X91004045Y-115424628D02*
X91004045Y-114902124D01*
X89584045Y-115424628D02*
X89584045Y-114902124D01*
%TO.C,J1*%
X91833045Y-121818376D02*
X91833045Y-119158376D01*
X91833045Y-119158376D02*
X96973045Y-119158376D01*
X89233045Y-121818376D02*
X89233045Y-120488376D01*
X96973045Y-121818376D02*
X96973045Y-119158376D01*
X90563045Y-121818376D02*
X89233045Y-121818376D01*
X91833045Y-121818376D02*
X96973045Y-121818376D01*
%TO.C,Y1*%
X102530045Y-108824376D02*
X97830045Y-108824376D01*
X97830045Y-108824376D02*
X97830045Y-114424376D01*
%TO.C,C1*%
X93624797Y-116905376D02*
X93102293Y-116905376D01*
X93624797Y-115435376D02*
X93102293Y-115435376D01*
%TO.C,CP1*%
X95655045Y-114893124D02*
X95655045Y-115415628D01*
X97125045Y-114893124D02*
X97125045Y-115415628D01*
%TO.C,C2*%
X93061045Y-110807624D02*
X93061045Y-111330128D01*
X91591045Y-110807624D02*
X91591045Y-111330128D01*
%TO.C,J2*%
X91818045Y-101632376D02*
X91818045Y-104292376D01*
X93088045Y-101632376D02*
X94418045Y-101632376D01*
X89218045Y-101632376D02*
X89218045Y-104292376D01*
X91818045Y-101632376D02*
X89218045Y-101632376D01*
X94418045Y-101632376D02*
X94418045Y-102962376D01*
X91818045Y-104292376D02*
X89218045Y-104292376D01*
%TO.C,Q1*%
X95628045Y-111634376D02*
X94978045Y-111634376D01*
X95628045Y-108514376D02*
X96278045Y-108514376D01*
X95628045Y-108514376D02*
X94978045Y-108514376D01*
X95628045Y-111634376D02*
X97303045Y-111634376D01*
%TO.C,R1*%
X99817445Y-118082628D02*
X99817445Y-117560124D01*
X98347445Y-118082628D02*
X98347445Y-117560124D01*
%TO.C,RP1*%
X93080793Y-114873376D02*
X93603297Y-114873376D01*
X93080793Y-113403376D02*
X93603297Y-113403376D01*
%TO.C,C3*%
X89559045Y-107309128D02*
X89559045Y-106786624D01*
X91029045Y-107309128D02*
X91029045Y-106786624D01*
%TO.C,L1*%
X60411600Y-77957494D02*
X60411600Y-79797494D01*
X65201600Y-78877494D02*
X64251600Y-78877494D01*
X59461600Y-78877494D02*
X60411600Y-78877494D01*
X60411600Y-79797494D02*
X64251600Y-79797494D01*
X64251600Y-79797494D02*
X64251600Y-77957494D01*
X64251600Y-77957494D02*
X60411600Y-77957494D01*
%TO.C,J2*%
X84489600Y-87324494D02*
X83159600Y-87324494D01*
X84489600Y-85994494D02*
X84489600Y-87324494D01*
X84489600Y-82124494D02*
X81829600Y-82124494D01*
X81829600Y-84724494D02*
X81829600Y-82124494D01*
X84489600Y-84724494D02*
X81829600Y-84724494D01*
X84489600Y-84724494D02*
X84489600Y-82124494D01*
%TO.C,Y1*%
X76209600Y-92354494D02*
X69809600Y-92354494D01*
X76209600Y-97404494D02*
X69809600Y-97404494D01*
X76209600Y-97404494D02*
G75*
G03*
X76209600Y-92354494I0J2525000D01*
G01*
X69809600Y-92354494D02*
G75*
G03*
X69809600Y-97404494I0J-2525000D01*
G01*
%TO.C,C2*%
X70165600Y-84565494D02*
X70165600Y-81825494D01*
X80405600Y-84565494D02*
X70165600Y-84565494D01*
X80405600Y-81825494D02*
X70165600Y-81825494D01*
X80405600Y-84565494D02*
X80405600Y-81825494D01*
%TO.C,L2*%
X79325600Y-78877494D02*
X78555600Y-78877494D01*
X72015600Y-80247494D02*
X78555600Y-80247494D01*
X78555600Y-80247494D02*
X78555600Y-77507494D01*
X71245600Y-78877494D02*
X72015600Y-78877494D01*
X72015600Y-77507494D02*
X72015600Y-80247494D01*
X78555600Y-77507494D02*
X72015600Y-77507494D01*
%TO.C,J1*%
X52873600Y-85541494D02*
X55533600Y-85541494D01*
X52873600Y-79131494D02*
X52873600Y-77801494D01*
X52873600Y-77801494D02*
X54203600Y-77801494D01*
X52873600Y-80401494D02*
X52873600Y-85541494D01*
X55533600Y-80401494D02*
X55533600Y-85541494D01*
X52873600Y-80401494D02*
X55533600Y-80401494D01*
%TO.C,R1*%
X58887600Y-93959494D02*
X62727600Y-93959494D01*
X58887600Y-95799494D02*
X62727600Y-95799494D01*
%TO.C,RP1*%
X62443600Y-83607494D02*
X66283600Y-83607494D01*
X62443600Y-81767494D02*
X66283600Y-81767494D01*
%TO.C,C1*%
X57659600Y-90601494D02*
X57659600Y-80361494D01*
X60399600Y-90601494D02*
X60399600Y-80361494D01*
X57659600Y-90601494D02*
X60399600Y-90601494D01*
X57659600Y-80361494D02*
X60399600Y-80361494D01*
%TO.C,CP1*%
X72023600Y-87159494D02*
X72023600Y-89899494D01*
X61783600Y-87159494D02*
X61783600Y-89899494D01*
X61783600Y-87159494D02*
X72023600Y-87159494D01*
X61783600Y-89899494D02*
X72023600Y-89899494D01*
%TO.C,Q1*%
X73739600Y-90485494D02*
X77339600Y-90485494D01*
X77378078Y-90473972D02*
G75*
G03*
X75539600Y-86035494I-1838478J1838478D01*
G01*
X75539600Y-86035493D02*
G75*
G03*
X73701122Y-90473972I0J-2600001D01*
G01*
%TO.C,L1*%
X60360800Y-102341494D02*
X60360800Y-104181494D01*
X65150800Y-103261494D02*
X64200800Y-103261494D01*
X59410800Y-103261494D02*
X60360800Y-103261494D01*
X60360800Y-104181494D02*
X64200800Y-104181494D01*
X64200800Y-104181494D02*
X64200800Y-102341494D01*
X64200800Y-102341494D02*
X60360800Y-102341494D01*
%TO.C,J2*%
X84438800Y-111708494D02*
X83108800Y-111708494D01*
X84438800Y-110378494D02*
X84438800Y-111708494D01*
X84438800Y-106508494D02*
X81778800Y-106508494D01*
X81778800Y-109108494D02*
X81778800Y-106508494D01*
X84438800Y-109108494D02*
X81778800Y-109108494D01*
X84438800Y-109108494D02*
X84438800Y-106508494D01*
%TO.C,Y1*%
X76158800Y-116738494D02*
X69758800Y-116738494D01*
X76158800Y-121788494D02*
X69758800Y-121788494D01*
X76158800Y-121788494D02*
G75*
G03*
X76158800Y-116738494I0J2525000D01*
G01*
X69758800Y-116738494D02*
G75*
G03*
X69758800Y-121788494I0J-2525000D01*
G01*
%TO.C,C2*%
X70114800Y-108949494D02*
X70114800Y-106209494D01*
X80354800Y-108949494D02*
X70114800Y-108949494D01*
X80354800Y-106209494D02*
X70114800Y-106209494D01*
X80354800Y-108949494D02*
X80354800Y-106209494D01*
%TO.C,L2*%
X79274800Y-103261494D02*
X78504800Y-103261494D01*
X71964800Y-104631494D02*
X78504800Y-104631494D01*
X78504800Y-104631494D02*
X78504800Y-101891494D01*
X71194800Y-103261494D02*
X71964800Y-103261494D01*
X71964800Y-101891494D02*
X71964800Y-104631494D01*
X78504800Y-101891494D02*
X71964800Y-101891494D01*
%TO.C,J1*%
X52822800Y-109925494D02*
X55482800Y-109925494D01*
X52822800Y-103515494D02*
X52822800Y-102185494D01*
X52822800Y-102185494D02*
X54152800Y-102185494D01*
X52822800Y-104785494D02*
X52822800Y-109925494D01*
X55482800Y-104785494D02*
X55482800Y-109925494D01*
X52822800Y-104785494D02*
X55482800Y-104785494D01*
%TO.C,R1*%
X58836800Y-118343494D02*
X62676800Y-118343494D01*
X58836800Y-120183494D02*
X62676800Y-120183494D01*
%TO.C,RP1*%
X62392800Y-107991494D02*
X66232800Y-107991494D01*
X62392800Y-106151494D02*
X66232800Y-106151494D01*
%TO.C,C1*%
X57608800Y-114985494D02*
X57608800Y-104745494D01*
X60348800Y-114985494D02*
X60348800Y-104745494D01*
X57608800Y-114985494D02*
X60348800Y-114985494D01*
X57608800Y-104745494D02*
X60348800Y-104745494D01*
%TO.C,CP1*%
X71972800Y-111543494D02*
X71972800Y-114283494D01*
X61732800Y-111543494D02*
X61732800Y-114283494D01*
X61732800Y-111543494D02*
X71972800Y-111543494D01*
X61732800Y-114283494D02*
X71972800Y-114283494D01*
%TO.C,Q1*%
X73688800Y-114869494D02*
X77288800Y-114869494D01*
X77327278Y-114857972D02*
G75*
G03*
X75488800Y-110419494I-1838478J1838478D01*
G01*
X75488800Y-110419493D02*
G75*
G03*
X73650322Y-114857972I0J-2600001D01*
G01*
%TO.C,J1*%
X52845200Y-134436494D02*
X55505200Y-134436494D01*
X52845200Y-128026494D02*
X52845200Y-126696494D01*
X52845200Y-126696494D02*
X54175200Y-126696494D01*
X52845200Y-129296494D02*
X52845200Y-134436494D01*
X55505200Y-129296494D02*
X55505200Y-134436494D01*
X52845200Y-129296494D02*
X55505200Y-129296494D01*
%TO.C,L2*%
X79297200Y-127772494D02*
X78527200Y-127772494D01*
X71987200Y-129142494D02*
X78527200Y-129142494D01*
X78527200Y-129142494D02*
X78527200Y-126402494D01*
X71217200Y-127772494D02*
X71987200Y-127772494D01*
X71987200Y-126402494D02*
X71987200Y-129142494D01*
X78527200Y-126402494D02*
X71987200Y-126402494D01*
%TO.C,Y1*%
X76181200Y-141249494D02*
X69781200Y-141249494D01*
X76181200Y-146299494D02*
X69781200Y-146299494D01*
X76181200Y-146299494D02*
G75*
G03*
X76181200Y-141249494I0J2525000D01*
G01*
X69781200Y-141249494D02*
G75*
G03*
X69781200Y-146299494I0J-2525000D01*
G01*
%TO.C,L1*%
X60383200Y-126852494D02*
X60383200Y-128692494D01*
X65173200Y-127772494D02*
X64223200Y-127772494D01*
X59433200Y-127772494D02*
X60383200Y-127772494D01*
X60383200Y-128692494D02*
X64223200Y-128692494D01*
X64223200Y-128692494D02*
X64223200Y-126852494D01*
X64223200Y-126852494D02*
X60383200Y-126852494D01*
%TO.C,C2*%
X70137200Y-133460494D02*
X70137200Y-130720494D01*
X80377200Y-133460494D02*
X70137200Y-133460494D01*
X80377200Y-130720494D02*
X70137200Y-130720494D01*
X80377200Y-133460494D02*
X80377200Y-130720494D01*
%TO.C,J2*%
X84461200Y-136219494D02*
X83131200Y-136219494D01*
X84461200Y-134889494D02*
X84461200Y-136219494D01*
X84461200Y-131019494D02*
X81801200Y-131019494D01*
X81801200Y-133619494D02*
X81801200Y-131019494D01*
X84461200Y-133619494D02*
X81801200Y-133619494D01*
X84461200Y-133619494D02*
X84461200Y-131019494D01*
%TO.C,C1*%
X57631200Y-139496494D02*
X57631200Y-129256494D01*
X60371200Y-139496494D02*
X60371200Y-129256494D01*
X57631200Y-139496494D02*
X60371200Y-139496494D01*
X57631200Y-129256494D02*
X60371200Y-129256494D01*
%TO.C,R1*%
X58859200Y-142854494D02*
X62699200Y-142854494D01*
X58859200Y-144694494D02*
X62699200Y-144694494D01*
%TO.C,Q1*%
X73711200Y-139380494D02*
X77311200Y-139380494D01*
X77349678Y-139368972D02*
G75*
G03*
X75511200Y-134930494I-1838478J1838478D01*
G01*
X75511200Y-134930493D02*
G75*
G03*
X73672722Y-139368972I0J-2600001D01*
G01*
%TO.C,CP1*%
X71995200Y-136054494D02*
X71995200Y-138794494D01*
X61755200Y-136054494D02*
X61755200Y-138794494D01*
X61755200Y-136054494D02*
X71995200Y-136054494D01*
X61755200Y-138794494D02*
X71995200Y-138794494D01*
%TO.C,RP1*%
X62415200Y-132502494D02*
X66255200Y-132502494D01*
X62415200Y-130662494D02*
X66255200Y-130662494D01*
%TO.C,L2*%
X89589300Y-135653202D02*
X89589300Y-135130698D01*
X91009300Y-135653202D02*
X91009300Y-135130698D01*
%TO.C,R1*%
X99822700Y-142393202D02*
X99822700Y-141870698D01*
X98352700Y-142393202D02*
X98352700Y-141870698D01*
%TO.C,Q1*%
X95633300Y-135944950D02*
X94983300Y-135944950D01*
X95633300Y-132824950D02*
X96283300Y-132824950D01*
X95633300Y-132824950D02*
X94983300Y-132824950D01*
X95633300Y-135944950D02*
X97308300Y-135944950D01*
%TO.C,L1*%
X91009300Y-139735202D02*
X91009300Y-139212698D01*
X89589300Y-139735202D02*
X89589300Y-139212698D01*
%TO.C,RP1*%
X93086048Y-139183950D02*
X93608552Y-139183950D01*
X93086048Y-137713950D02*
X93608552Y-137713950D01*
%TO.C,Y1*%
X102535300Y-133134950D02*
X97835300Y-133134950D01*
X97835300Y-133134950D02*
X97835300Y-138734950D01*
%TO.C,C1*%
X93630052Y-141215950D02*
X93107548Y-141215950D01*
X93630052Y-139745950D02*
X93107548Y-139745950D01*
%TO.C,CP1*%
X95660300Y-139203698D02*
X95660300Y-139726202D01*
X97130300Y-139203698D02*
X97130300Y-139726202D01*
%TO.C,C2*%
X93066300Y-135118198D02*
X93066300Y-135640702D01*
X91596300Y-135118198D02*
X91596300Y-135640702D01*
%TO.C,J2*%
X91823300Y-125942950D02*
X91823300Y-128602950D01*
X93093300Y-125942950D02*
X94423300Y-125942950D01*
X89223300Y-125942950D02*
X89223300Y-128602950D01*
X91823300Y-125942950D02*
X89223300Y-125942950D01*
X94423300Y-125942950D02*
X94423300Y-127272950D01*
X91823300Y-128602950D02*
X89223300Y-128602950D01*
%TO.C,J1*%
X91838300Y-146128950D02*
X91838300Y-143468950D01*
X91838300Y-143468950D02*
X96978300Y-143468950D01*
X89238300Y-146128950D02*
X89238300Y-144798950D01*
X96978300Y-146128950D02*
X96978300Y-143468950D01*
X90568300Y-146128950D02*
X89238300Y-146128950D01*
X91838300Y-146128950D02*
X96978300Y-146128950D01*
%TO.C,C3*%
X89564300Y-131619702D02*
X89564300Y-131097198D01*
X91034300Y-131619702D02*
X91034300Y-131097198D01*
%TD*%
%LPC*%
D13*
%TO.C,REF\u002A\u002A*%
X99797800Y-122707400D03*
X100697800Y-125196600D03*
X98897800Y-125196600D03*
X102497800Y-122707400D03*
X100697800Y-122707400D03*
X97997800Y-122707400D03*
X97997800Y-125196600D03*
X102497800Y-125196600D03*
X101597800Y-122707400D03*
X101597800Y-125196600D03*
X98897800Y-122707400D03*
X99797800Y-125196600D03*
%TD*%
%TO.C,REF\u002A\u002A*%
X99823200Y-98298000D03*
X100723200Y-100787200D03*
X98923200Y-100787200D03*
X102523200Y-98298000D03*
X100723200Y-98298000D03*
X98023200Y-98298000D03*
X98023200Y-100787200D03*
X102523200Y-100787200D03*
X101623200Y-98298000D03*
X101623200Y-100787200D03*
X98923200Y-98298000D03*
X99823200Y-100787200D03*
%TD*%
D14*
%TO.C,L1*%
X90300900Y-91734100D03*
X90300900Y-89684100D03*
%TD*%
D15*
%TO.C,Y1*%
X98936900Y-85620100D03*
X98936900Y-88720100D03*
X101436900Y-88720100D03*
X101436900Y-85620100D03*
%TD*%
D16*
%TO.C,C1*%
X94407900Y-91716100D03*
X92332900Y-91716100D03*
%TD*%
D17*
%TO.C,C2*%
X92332900Y-85577100D03*
X92332900Y-87652100D03*
%TD*%
D18*
%TO.C,J2*%
X93094900Y-78508100D03*
D19*
X90554900Y-78508100D03*
%TD*%
D20*
%TO.C,Q1*%
X96572400Y-86570100D03*
X96572400Y-84670100D03*
X94697400Y-85620100D03*
%TD*%
D21*
%TO.C,RP1*%
X92311400Y-89684100D03*
X94386400Y-89684100D03*
%TD*%
D22*
%TO.C,C3*%
X90300900Y-83631100D03*
X90300900Y-81556100D03*
%TD*%
D14*
%TO.C,L2*%
X90300900Y-87652100D03*
X90300900Y-85602100D03*
%TD*%
D18*
%TO.C,J1*%
X90569900Y-96034100D03*
D19*
X93109900Y-96034100D03*
X95649900Y-96034100D03*
%TD*%
D17*
%TO.C,CP1*%
X96396900Y-89662600D03*
X96396900Y-91737600D03*
%TD*%
D22*
%TO.C,R1*%
X99089300Y-94404600D03*
X99089300Y-92329600D03*
%TD*%
D14*
%TO.C,L2*%
X90294045Y-112106376D03*
X90294045Y-110056376D03*
%TD*%
%TO.C,L1*%
X90294045Y-116188376D03*
X90294045Y-114138376D03*
%TD*%
D18*
%TO.C,J1*%
X90563045Y-120488376D03*
D19*
X93103045Y-120488376D03*
X95643045Y-120488376D03*
%TD*%
D15*
%TO.C,Y1*%
X98930045Y-110074376D03*
X98930045Y-113174376D03*
X101430045Y-113174376D03*
X101430045Y-110074376D03*
%TD*%
D16*
%TO.C,C1*%
X94401045Y-116170376D03*
X92326045Y-116170376D03*
%TD*%
D17*
%TO.C,CP1*%
X96390045Y-114116876D03*
X96390045Y-116191876D03*
%TD*%
%TO.C,C2*%
X92326045Y-110031376D03*
X92326045Y-112106376D03*
%TD*%
D18*
%TO.C,J2*%
X93088045Y-102962376D03*
D19*
X90548045Y-102962376D03*
%TD*%
D20*
%TO.C,Q1*%
X96565545Y-111024376D03*
X96565545Y-109124376D03*
X94690545Y-110074376D03*
%TD*%
D22*
%TO.C,R1*%
X99082445Y-118858876D03*
X99082445Y-116783876D03*
%TD*%
D21*
%TO.C,RP1*%
X92304545Y-114138376D03*
X94379545Y-114138376D03*
%TD*%
D22*
%TO.C,C3*%
X90294045Y-108085376D03*
X90294045Y-106010376D03*
%TD*%
D13*
%TO.C,REF\u002A\u002A*%
X85702600Y-91540400D03*
X88191800Y-90640400D03*
X88191800Y-92440400D03*
X85702600Y-88840400D03*
X85702600Y-90640400D03*
X85702600Y-93340400D03*
X88191800Y-93340400D03*
X88191800Y-88840400D03*
X85702600Y-89740400D03*
X88191800Y-89740400D03*
X85702600Y-92440400D03*
X88191800Y-91540400D03*
%TD*%
D23*
%TO.C,L1*%
X58521600Y-78877494D03*
D24*
X66141600Y-78877494D03*
%TD*%
D18*
%TO.C,J2*%
X83159600Y-85994494D03*
D19*
X83159600Y-83454494D03*
%TD*%
D25*
%TO.C,Y1*%
X75449600Y-94879494D03*
X70569600Y-94879494D03*
%TD*%
D26*
%TO.C,C2*%
X77785600Y-83195494D03*
X72785600Y-83195494D03*
%TD*%
%TO.C,L2*%
X70205600Y-78877494D03*
D27*
X80365600Y-78877494D03*
%TD*%
D18*
%TO.C,J1*%
X54203600Y-79131494D03*
D19*
X54203600Y-81671494D03*
X54203600Y-84211494D03*
%TD*%
D23*
%TO.C,R1*%
X58267600Y-94879494D03*
D24*
X63347600Y-94879494D03*
%TD*%
D23*
%TO.C,RP1*%
X61823600Y-82687494D03*
D24*
X66903600Y-82687494D03*
%TD*%
D26*
%TO.C,C1*%
X59029600Y-87981494D03*
X59029600Y-82981494D03*
%TD*%
%TO.C,CP1*%
X64403600Y-88529494D03*
X69403600Y-88529494D03*
%TD*%
D28*
%TO.C,Q1*%
X74269600Y-88635494D03*
D29*
X75539600Y-88635494D03*
X76809600Y-88635494D03*
%TD*%
D13*
%TO.C,REF\u002A\u002A*%
X85651800Y-115924400D03*
X88141000Y-115024400D03*
X88141000Y-116824400D03*
X85651800Y-113224400D03*
X85651800Y-115024400D03*
X85651800Y-117724400D03*
X88141000Y-117724400D03*
X88141000Y-113224400D03*
X85651800Y-114124400D03*
X88141000Y-114124400D03*
X85651800Y-116824400D03*
X88141000Y-115924400D03*
%TD*%
%TO.C,REF\u002A\u002A*%
X68762000Y-98196400D03*
X69662000Y-100685600D03*
X67862000Y-100685600D03*
X71462000Y-98196400D03*
X69662000Y-98196400D03*
X66962000Y-98196400D03*
X66962000Y-100685600D03*
X71462000Y-100685600D03*
X70562000Y-98196400D03*
X70562000Y-100685600D03*
X67862000Y-98196400D03*
X68762000Y-100685600D03*
%TD*%
D23*
%TO.C,L1*%
X58470800Y-103261494D03*
D24*
X66090800Y-103261494D03*
%TD*%
D18*
%TO.C,J2*%
X83108800Y-110378494D03*
D19*
X83108800Y-107838494D03*
%TD*%
D25*
%TO.C,Y1*%
X75398800Y-119263494D03*
X70518800Y-119263494D03*
%TD*%
D26*
%TO.C,C2*%
X77734800Y-107579494D03*
X72734800Y-107579494D03*
%TD*%
%TO.C,L2*%
X70154800Y-103261494D03*
D27*
X80314800Y-103261494D03*
%TD*%
D18*
%TO.C,J1*%
X54152800Y-103515494D03*
D19*
X54152800Y-106055494D03*
X54152800Y-108595494D03*
%TD*%
D23*
%TO.C,R1*%
X58216800Y-119263494D03*
D24*
X63296800Y-119263494D03*
%TD*%
D23*
%TO.C,RP1*%
X61772800Y-107071494D03*
D24*
X66852800Y-107071494D03*
%TD*%
D26*
%TO.C,C1*%
X58978800Y-112365494D03*
X58978800Y-107365494D03*
%TD*%
%TO.C,CP1*%
X64352800Y-112913494D03*
X69352800Y-112913494D03*
%TD*%
D28*
%TO.C,Q1*%
X74218800Y-113019494D03*
D29*
X75488800Y-113019494D03*
X76758800Y-113019494D03*
%TD*%
D13*
%TO.C,REF\u002A\u002A*%
X85674200Y-140435400D03*
X88163400Y-139535400D03*
X88163400Y-141335400D03*
X85674200Y-137735400D03*
X85674200Y-139535400D03*
X85674200Y-142235400D03*
X88163400Y-142235400D03*
X88163400Y-137735400D03*
X85674200Y-138635400D03*
X88163400Y-138635400D03*
X85674200Y-141335400D03*
X88163400Y-140435400D03*
%TD*%
%TO.C,REF\u002A\u002A*%
X68784400Y-122707400D03*
X69684400Y-125196600D03*
X67884400Y-125196600D03*
X71484400Y-122707400D03*
X69684400Y-122707400D03*
X66984400Y-122707400D03*
X66984400Y-125196600D03*
X71484400Y-125196600D03*
X70584400Y-122707400D03*
X70584400Y-125196600D03*
X67884400Y-122707400D03*
X68784400Y-125196600D03*
%TD*%
D18*
%TO.C,J1*%
X54175200Y-128026494D03*
D19*
X54175200Y-130566494D03*
X54175200Y-133106494D03*
%TD*%
D26*
%TO.C,L2*%
X70177200Y-127772494D03*
D27*
X80337200Y-127772494D03*
%TD*%
D25*
%TO.C,Y1*%
X75421200Y-143774494D03*
X70541200Y-143774494D03*
%TD*%
D23*
%TO.C,L1*%
X58493200Y-127772494D03*
D24*
X66113200Y-127772494D03*
%TD*%
D26*
%TO.C,C2*%
X77757200Y-132090494D03*
X72757200Y-132090494D03*
%TD*%
D18*
%TO.C,J2*%
X83131200Y-134889494D03*
D19*
X83131200Y-132349494D03*
%TD*%
D26*
%TO.C,C1*%
X59001200Y-136876494D03*
X59001200Y-131876494D03*
%TD*%
D23*
%TO.C,R1*%
X58239200Y-143774494D03*
D24*
X63319200Y-143774494D03*
%TD*%
D28*
%TO.C,Q1*%
X74241200Y-137530494D03*
D29*
X75511200Y-137530494D03*
X76781200Y-137530494D03*
%TD*%
D26*
%TO.C,CP1*%
X64375200Y-137424494D03*
X69375200Y-137424494D03*
%TD*%
D23*
%TO.C,RP1*%
X61795200Y-131582494D03*
D24*
X66875200Y-131582494D03*
%TD*%
D14*
%TO.C,L2*%
X90299300Y-136416950D03*
X90299300Y-134366950D03*
%TD*%
D22*
%TO.C,R1*%
X99087700Y-143169450D03*
X99087700Y-141094450D03*
%TD*%
D20*
%TO.C,Q1*%
X96570800Y-135334950D03*
X96570800Y-133434950D03*
X94695800Y-134384950D03*
%TD*%
D14*
%TO.C,L1*%
X90299300Y-140498950D03*
X90299300Y-138448950D03*
%TD*%
D21*
%TO.C,RP1*%
X92309800Y-138448950D03*
X94384800Y-138448950D03*
%TD*%
D15*
%TO.C,Y1*%
X98935300Y-134384950D03*
X98935300Y-137484950D03*
X101435300Y-137484950D03*
X101435300Y-134384950D03*
%TD*%
D16*
%TO.C,C1*%
X94406300Y-140480950D03*
X92331300Y-140480950D03*
%TD*%
D17*
%TO.C,CP1*%
X96395300Y-138427450D03*
X96395300Y-140502450D03*
%TD*%
%TO.C,C2*%
X92331300Y-134341950D03*
X92331300Y-136416950D03*
%TD*%
D18*
%TO.C,J2*%
X93093300Y-127272950D03*
D19*
X90553300Y-127272950D03*
%TD*%
D18*
%TO.C,J1*%
X90568300Y-144798950D03*
D19*
X93108300Y-144798950D03*
X95648300Y-144798950D03*
%TD*%
D22*
%TO.C,C3*%
X90299300Y-132395950D03*
X90299300Y-130320950D03*
%TD*%
M02*
