%TF.GenerationSoftware,KiCad,Pcbnew,(6.0.4)*%
%TF.CreationDate,2022-07-15T22:22:15+03:00*%
%TF.ProjectId,panelized,70616e65-6c69-47a6-9564-2e6b69636164,rev?*%
%TF.SameCoordinates,Original*%
%TF.FileFunction,Soldermask,Top*%
%TF.FilePolarity,Negative*%
%FSLAX46Y46*%
G04 Gerber Fmt 4.6, Leading zero omitted, Abs format (unit mm)*
G04 Created by KiCad (PCBNEW (6.0.4)) date 2022-07-15 22:22:15*
%MOMM*%
%LPD*%
G01*
G04 APERTURE LIST*
G04 Aperture macros list*
%AMRoundRect*
0 Rectangle with rounded corners*
0 $1 Rounding radius*
0 $2 $3 $4 $5 $6 $7 $8 $9 X,Y pos of 4 corners*
0 Add a 4 corners polygon primitive as box body*
4,1,4,$2,$3,$4,$5,$6,$7,$8,$9,$2,$3,0*
0 Add four circle primitives for the rounded corners*
1,1,$1+$1,$2,$3*
1,1,$1+$1,$4,$5*
1,1,$1+$1,$6,$7*
1,1,$1+$1,$8,$9*
0 Add four rect primitives between the rounded corners*
20,1,$1+$1,$2,$3,$4,$5,0*
20,1,$1+$1,$4,$5,$6,$7,0*
20,1,$1+$1,$6,$7,$8,$9,0*
20,1,$1+$1,$8,$9,$2,$3,0*%
G04 Aperture macros list end*
%ADD10C,0.600000*%
%ADD11RoundRect,0.250000X0.450000X-0.325000X0.450000X0.325000X-0.450000X0.325000X-0.450000X-0.325000X0*%
%ADD12R,1.800000X2.100000*%
%ADD13RoundRect,0.250000X0.337500X0.475000X-0.337500X0.475000X-0.337500X-0.475000X0.337500X-0.475000X0*%
%ADD14RoundRect,0.250000X-0.475000X0.337500X-0.475000X-0.337500X0.475000X-0.337500X0.475000X0.337500X0*%
%ADD15R,1.700000X1.700000*%
%ADD16O,1.700000X1.700000*%
%ADD17RoundRect,0.150000X0.587500X0.150000X-0.587500X0.150000X-0.587500X-0.150000X0.587500X-0.150000X0*%
%ADD18RoundRect,0.250000X-0.337500X-0.475000X0.337500X-0.475000X0.337500X0.475000X-0.337500X0.475000X0*%
%ADD19RoundRect,0.250000X0.475000X-0.337500X0.475000X0.337500X-0.475000X0.337500X-0.475000X-0.337500X0*%
%ADD20C,1.400000*%
%ADD21O,1.400000X1.400000*%
%ADD22C,1.500000*%
%ADD23C,1.600000*%
%ADD24O,1.600000X1.600000*%
%ADD25R,1.050000X1.500000*%
%ADD26O,1.050000X1.500000*%
G04 APERTURE END LIST*
D10*
%TO.C,REF\u002A\u002A*%
X99797800Y-122707400D03*
X100697800Y-125196600D03*
X98897800Y-125196600D03*
X102497800Y-122707400D03*
X100697800Y-122707400D03*
X97997800Y-122707400D03*
X97997800Y-125196600D03*
X102497800Y-125196600D03*
X101597800Y-122707400D03*
X101597800Y-125196600D03*
X98897800Y-122707400D03*
X99797800Y-125196600D03*
%TD*%
%TO.C,REF\u002A\u002A*%
X99823200Y-98298000D03*
X100723200Y-100787200D03*
X98923200Y-100787200D03*
X102523200Y-98298000D03*
X100723200Y-98298000D03*
X98023200Y-98298000D03*
X98023200Y-100787200D03*
X102523200Y-100787200D03*
X101623200Y-98298000D03*
X101623200Y-100787200D03*
X98923200Y-98298000D03*
X99823200Y-100787200D03*
%TD*%
D11*
%TO.C,L1*%
X90300900Y-91734100D03*
X90300900Y-89684100D03*
%TD*%
D12*
%TO.C,Y1*%
X98936900Y-85620100D03*
X98936900Y-88720100D03*
X101436900Y-88720100D03*
X101436900Y-85620100D03*
%TD*%
D13*
%TO.C,C1*%
X94407900Y-91716100D03*
X92332900Y-91716100D03*
%TD*%
D14*
%TO.C,C2*%
X92332900Y-85577100D03*
X92332900Y-87652100D03*
%TD*%
D15*
%TO.C,J2*%
X93094900Y-78508100D03*
D16*
X90554900Y-78508100D03*
%TD*%
D17*
%TO.C,Q1*%
X96572400Y-86570100D03*
X96572400Y-84670100D03*
X94697400Y-85620100D03*
%TD*%
D18*
%TO.C,RP1*%
X92311400Y-89684100D03*
X94386400Y-89684100D03*
%TD*%
D19*
%TO.C,C3*%
X90300900Y-83631100D03*
X90300900Y-81556100D03*
%TD*%
D11*
%TO.C,L2*%
X90300900Y-87652100D03*
X90300900Y-85602100D03*
%TD*%
D15*
%TO.C,J1*%
X90569900Y-96034100D03*
D16*
X93109900Y-96034100D03*
X95649900Y-96034100D03*
%TD*%
D14*
%TO.C,CP1*%
X96396900Y-89662600D03*
X96396900Y-91737600D03*
%TD*%
D19*
%TO.C,R1*%
X99089300Y-94404600D03*
X99089300Y-92329600D03*
%TD*%
D11*
%TO.C,L2*%
X90294045Y-112106376D03*
X90294045Y-110056376D03*
%TD*%
%TO.C,L1*%
X90294045Y-116188376D03*
X90294045Y-114138376D03*
%TD*%
D15*
%TO.C,J1*%
X90563045Y-120488376D03*
D16*
X93103045Y-120488376D03*
X95643045Y-120488376D03*
%TD*%
D12*
%TO.C,Y1*%
X98930045Y-110074376D03*
X98930045Y-113174376D03*
X101430045Y-113174376D03*
X101430045Y-110074376D03*
%TD*%
D13*
%TO.C,C1*%
X94401045Y-116170376D03*
X92326045Y-116170376D03*
%TD*%
D14*
%TO.C,CP1*%
X96390045Y-114116876D03*
X96390045Y-116191876D03*
%TD*%
%TO.C,C2*%
X92326045Y-110031376D03*
X92326045Y-112106376D03*
%TD*%
D15*
%TO.C,J2*%
X93088045Y-102962376D03*
D16*
X90548045Y-102962376D03*
%TD*%
D17*
%TO.C,Q1*%
X96565545Y-111024376D03*
X96565545Y-109124376D03*
X94690545Y-110074376D03*
%TD*%
D19*
%TO.C,R1*%
X99082445Y-118858876D03*
X99082445Y-116783876D03*
%TD*%
D18*
%TO.C,RP1*%
X92304545Y-114138376D03*
X94379545Y-114138376D03*
%TD*%
D19*
%TO.C,C3*%
X90294045Y-108085376D03*
X90294045Y-106010376D03*
%TD*%
D10*
%TO.C,REF\u002A\u002A*%
X85702600Y-91540400D03*
X88191800Y-90640400D03*
X88191800Y-92440400D03*
X85702600Y-88840400D03*
X85702600Y-90640400D03*
X85702600Y-93340400D03*
X88191800Y-93340400D03*
X88191800Y-88840400D03*
X85702600Y-89740400D03*
X88191800Y-89740400D03*
X85702600Y-92440400D03*
X88191800Y-91540400D03*
%TD*%
D20*
%TO.C,L1*%
X58521600Y-78877494D03*
D21*
X66141600Y-78877494D03*
%TD*%
D15*
%TO.C,J2*%
X83159600Y-85994494D03*
D16*
X83159600Y-83454494D03*
%TD*%
D22*
%TO.C,Y1*%
X75449600Y-94879494D03*
X70569600Y-94879494D03*
%TD*%
D23*
%TO.C,C2*%
X77785600Y-83195494D03*
X72785600Y-83195494D03*
%TD*%
%TO.C,L2*%
X70205600Y-78877494D03*
D24*
X80365600Y-78877494D03*
%TD*%
D15*
%TO.C,J1*%
X54203600Y-79131494D03*
D16*
X54203600Y-81671494D03*
X54203600Y-84211494D03*
%TD*%
D20*
%TO.C,R1*%
X58267600Y-94879494D03*
D21*
X63347600Y-94879494D03*
%TD*%
D20*
%TO.C,RP1*%
X61823600Y-82687494D03*
D21*
X66903600Y-82687494D03*
%TD*%
D23*
%TO.C,C1*%
X59029600Y-87981494D03*
X59029600Y-82981494D03*
%TD*%
%TO.C,CP1*%
X64403600Y-88529494D03*
X69403600Y-88529494D03*
%TD*%
D25*
%TO.C,Q1*%
X74269600Y-88635494D03*
D26*
X75539600Y-88635494D03*
X76809600Y-88635494D03*
%TD*%
D10*
%TO.C,REF\u002A\u002A*%
X85651800Y-115924400D03*
X88141000Y-115024400D03*
X88141000Y-116824400D03*
X85651800Y-113224400D03*
X85651800Y-115024400D03*
X85651800Y-117724400D03*
X88141000Y-117724400D03*
X88141000Y-113224400D03*
X85651800Y-114124400D03*
X88141000Y-114124400D03*
X85651800Y-116824400D03*
X88141000Y-115924400D03*
%TD*%
%TO.C,REF\u002A\u002A*%
X68762000Y-98196400D03*
X69662000Y-100685600D03*
X67862000Y-100685600D03*
X71462000Y-98196400D03*
X69662000Y-98196400D03*
X66962000Y-98196400D03*
X66962000Y-100685600D03*
X71462000Y-100685600D03*
X70562000Y-98196400D03*
X70562000Y-100685600D03*
X67862000Y-98196400D03*
X68762000Y-100685600D03*
%TD*%
D20*
%TO.C,L1*%
X58470800Y-103261494D03*
D21*
X66090800Y-103261494D03*
%TD*%
D15*
%TO.C,J2*%
X83108800Y-110378494D03*
D16*
X83108800Y-107838494D03*
%TD*%
D22*
%TO.C,Y1*%
X75398800Y-119263494D03*
X70518800Y-119263494D03*
%TD*%
D23*
%TO.C,C2*%
X77734800Y-107579494D03*
X72734800Y-107579494D03*
%TD*%
%TO.C,L2*%
X70154800Y-103261494D03*
D24*
X80314800Y-103261494D03*
%TD*%
D15*
%TO.C,J1*%
X54152800Y-103515494D03*
D16*
X54152800Y-106055494D03*
X54152800Y-108595494D03*
%TD*%
D20*
%TO.C,R1*%
X58216800Y-119263494D03*
D21*
X63296800Y-119263494D03*
%TD*%
D20*
%TO.C,RP1*%
X61772800Y-107071494D03*
D21*
X66852800Y-107071494D03*
%TD*%
D23*
%TO.C,C1*%
X58978800Y-112365494D03*
X58978800Y-107365494D03*
%TD*%
%TO.C,CP1*%
X64352800Y-112913494D03*
X69352800Y-112913494D03*
%TD*%
D25*
%TO.C,Q1*%
X74218800Y-113019494D03*
D26*
X75488800Y-113019494D03*
X76758800Y-113019494D03*
%TD*%
D10*
%TO.C,REF\u002A\u002A*%
X85674200Y-140435400D03*
X88163400Y-139535400D03*
X88163400Y-141335400D03*
X85674200Y-137735400D03*
X85674200Y-139535400D03*
X85674200Y-142235400D03*
X88163400Y-142235400D03*
X88163400Y-137735400D03*
X85674200Y-138635400D03*
X88163400Y-138635400D03*
X85674200Y-141335400D03*
X88163400Y-140435400D03*
%TD*%
%TO.C,REF\u002A\u002A*%
X68784400Y-122707400D03*
X69684400Y-125196600D03*
X67884400Y-125196600D03*
X71484400Y-122707400D03*
X69684400Y-122707400D03*
X66984400Y-122707400D03*
X66984400Y-125196600D03*
X71484400Y-125196600D03*
X70584400Y-122707400D03*
X70584400Y-125196600D03*
X67884400Y-122707400D03*
X68784400Y-125196600D03*
%TD*%
D15*
%TO.C,J1*%
X54175200Y-128026494D03*
D16*
X54175200Y-130566494D03*
X54175200Y-133106494D03*
%TD*%
D23*
%TO.C,L2*%
X70177200Y-127772494D03*
D24*
X80337200Y-127772494D03*
%TD*%
D22*
%TO.C,Y1*%
X75421200Y-143774494D03*
X70541200Y-143774494D03*
%TD*%
D20*
%TO.C,L1*%
X58493200Y-127772494D03*
D21*
X66113200Y-127772494D03*
%TD*%
D23*
%TO.C,C2*%
X77757200Y-132090494D03*
X72757200Y-132090494D03*
%TD*%
D15*
%TO.C,J2*%
X83131200Y-134889494D03*
D16*
X83131200Y-132349494D03*
%TD*%
D23*
%TO.C,C1*%
X59001200Y-136876494D03*
X59001200Y-131876494D03*
%TD*%
D20*
%TO.C,R1*%
X58239200Y-143774494D03*
D21*
X63319200Y-143774494D03*
%TD*%
D25*
%TO.C,Q1*%
X74241200Y-137530494D03*
D26*
X75511200Y-137530494D03*
X76781200Y-137530494D03*
%TD*%
D23*
%TO.C,CP1*%
X64375200Y-137424494D03*
X69375200Y-137424494D03*
%TD*%
D20*
%TO.C,RP1*%
X61795200Y-131582494D03*
D21*
X66875200Y-131582494D03*
%TD*%
D11*
%TO.C,L2*%
X90299300Y-136416950D03*
X90299300Y-134366950D03*
%TD*%
D19*
%TO.C,R1*%
X99087700Y-143169450D03*
X99087700Y-141094450D03*
%TD*%
D17*
%TO.C,Q1*%
X96570800Y-135334950D03*
X96570800Y-133434950D03*
X94695800Y-134384950D03*
%TD*%
D11*
%TO.C,L1*%
X90299300Y-140498950D03*
X90299300Y-138448950D03*
%TD*%
D18*
%TO.C,RP1*%
X92309800Y-138448950D03*
X94384800Y-138448950D03*
%TD*%
D12*
%TO.C,Y1*%
X98935300Y-134384950D03*
X98935300Y-137484950D03*
X101435300Y-137484950D03*
X101435300Y-134384950D03*
%TD*%
D13*
%TO.C,C1*%
X94406300Y-140480950D03*
X92331300Y-140480950D03*
%TD*%
D14*
%TO.C,CP1*%
X96395300Y-138427450D03*
X96395300Y-140502450D03*
%TD*%
%TO.C,C2*%
X92331300Y-134341950D03*
X92331300Y-136416950D03*
%TD*%
D15*
%TO.C,J2*%
X93093300Y-127272950D03*
D16*
X90553300Y-127272950D03*
%TD*%
D15*
%TO.C,J1*%
X90568300Y-144798950D03*
D16*
X93108300Y-144798950D03*
X95648300Y-144798950D03*
%TD*%
D19*
%TO.C,C3*%
X90299300Y-132395950D03*
X90299300Y-130320950D03*
%TD*%
M02*
