M48
; DRILL file {KiCad (6.0.4)} date Fri Jul 15 22:12:49 2022
; FORMAT={-:-/ absolute / metric / decimal}
; #@! TF.CreationDate,2022-07-15T22:12:49+03:00
; #@! TF.GenerationSoftware,Kicad,Pcbnew,(6.0.4)
; #@! TF.FileFunction,NonPlated,1,2,NPTH
FMAT,2
METRIC
; #@! TA.AperFunction,NonPlated,NPTH,ComponentDrill
T1C0.600
%
G90
G05
T1
X66.962Y-98.196
X66.962Y-100.686
X66.984Y-122.707
X66.984Y-125.197
X67.862Y-98.196
X67.862Y-100.686
X67.884Y-122.707
X67.884Y-125.197
X68.762Y-98.196
X68.762Y-100.686
X68.784Y-122.707
X68.784Y-125.197
X69.662Y-98.196
X69.662Y-100.686
X69.684Y-122.707
X69.684Y-125.197
X70.562Y-98.196
X70.562Y-100.686
X70.584Y-122.707
X70.584Y-125.197
X71.462Y-98.196
X71.462Y-100.686
X71.484Y-122.707
X71.484Y-125.197
X85.652Y-113.224
X85.652Y-114.124
X85.652Y-115.024
X85.652Y-115.924
X85.652Y-116.824
X85.652Y-117.724
X85.674Y-137.735
X85.674Y-138.635
X85.674Y-139.535
X85.674Y-140.435
X85.674Y-141.335
X85.674Y-142.235
X85.703Y-88.84
X85.703Y-89.74
X85.703Y-90.64
X85.703Y-91.54
X85.703Y-92.44
X85.703Y-93.34
X88.141Y-113.224
X88.141Y-114.124
X88.141Y-115.024
X88.141Y-115.924
X88.141Y-116.824
X88.141Y-117.724
X88.163Y-137.735
X88.163Y-138.635
X88.163Y-139.535
X88.163Y-140.435
X88.163Y-141.335
X88.163Y-142.235
X88.192Y-88.84
X88.192Y-89.74
X88.192Y-90.64
X88.192Y-91.54
X88.192Y-92.44
X88.192Y-93.34
X97.998Y-122.707
X97.998Y-125.197
X98.023Y-98.298
X98.023Y-100.787
X98.898Y-122.707
X98.898Y-125.197
X98.923Y-98.298
X98.923Y-100.787
X99.798Y-122.707
X99.798Y-125.197
X99.823Y-98.298
X99.823Y-100.787
X100.698Y-122.707
X100.698Y-125.197
X100.723Y-98.298
X100.723Y-100.787
X101.598Y-122.707
X101.598Y-125.197
X101.623Y-98.298
X101.623Y-100.787
X102.498Y-122.707
X102.498Y-125.197
X102.523Y-98.298
X102.523Y-100.787
T0
M30
