%TF.GenerationSoftware,KiCad,Pcbnew,(6.0.7)*%
%TF.CreationDate,2022-10-05T07:55:04+03:00*%
%TF.ProjectId,Basic-150-MHz-Telemetry-Transmitter-SMD,42617369-632d-4313-9530-2d4d487a2d54,rev?*%
%TF.SameCoordinates,Original*%
%TF.FileFunction,Legend,Bot*%
%TF.FilePolarity,Positive*%
%FSLAX46Y46*%
G04 Gerber Fmt 4.6, Leading zero omitted, Abs format (unit mm)*
G04 Created by KiCad (PCBNEW (6.0.7)) date 2022-10-05 07:55:04*
%MOMM*%
%LPD*%
G01*
G04 APERTURE LIST*
%ADD10C,0.300000*%
%ADD11C,1.700000*%
%ADD12R,1.700000X1.700000*%
%ADD13O,1.700000X1.700000*%
G04 APERTURE END LIST*
D10*
%TO.C, *%
%TO.C,kibuzzard-632D4E55*%
G36*
X45620781Y-47007859D02*
G01*
X45582681Y-47174249D01*
X45468381Y-47287656D01*
X45338471Y-47335943D01*
X45151940Y-47364915D01*
X44908787Y-47374572D01*
X44688654Y-47364782D01*
X44517204Y-47335414D01*
X44394437Y-47286466D01*
X44283709Y-47172761D01*
X44246800Y-47007859D01*
X44268231Y-46900703D01*
X45599350Y-46900703D01*
X45620781Y-47007859D01*
G37*
G36*
X43890803Y-47782956D02*
G01*
X43890803Y-47007859D01*
X44039631Y-47007859D01*
X44061195Y-47209340D01*
X44125885Y-47369280D01*
X44233703Y-47487681D01*
X44348673Y-47551752D01*
X44499510Y-47597516D01*
X44686215Y-47624975D01*
X44908787Y-47634128D01*
X45124423Y-47626323D01*
X45307779Y-47602907D01*
X45458856Y-47563881D01*
X45631199Y-47477859D01*
X45743416Y-47360284D01*
X45805030Y-47205503D01*
X45825569Y-47007859D01*
X45813663Y-46813192D01*
X45777944Y-46634003D01*
X44087256Y-46634003D01*
X44051537Y-46820336D01*
X44039631Y-47007859D01*
X43890803Y-47007859D01*
X43890803Y-46367303D01*
X44063444Y-46367303D01*
X45801756Y-46367303D01*
X45801756Y-46100603D01*
X44539694Y-45729128D01*
X44539694Y-45724366D01*
X45801756Y-45724366D01*
X45801756Y-45462428D01*
X44063444Y-45462428D01*
X44063444Y-45738653D01*
X45325506Y-46110128D01*
X45325506Y-46117272D01*
X44063444Y-46117272D01*
X44063444Y-46367303D01*
X43890803Y-46367303D01*
X43890803Y-44855209D01*
X44039631Y-44855209D01*
X44052728Y-45007014D01*
X44092019Y-45152866D01*
X44306331Y-45152866D01*
X44263469Y-45001061D01*
X44249181Y-44855209D01*
X44286984Y-44685545D01*
X44400391Y-44567078D01*
X44525406Y-44515484D01*
X44698841Y-44484528D01*
X44920694Y-44474209D01*
X45147706Y-44483999D01*
X45327094Y-44513368D01*
X45458856Y-44562316D01*
X45580300Y-44669472D01*
X45620781Y-44814728D01*
X45592206Y-44957603D01*
X44968319Y-44957603D01*
X44968319Y-44657566D01*
X44765912Y-44657566D01*
X44765912Y-45212397D01*
X45742225Y-45212397D01*
X45788527Y-45084868D01*
X45816308Y-44949930D01*
X45825569Y-44807584D01*
X45811430Y-44668058D01*
X45769014Y-44547135D01*
X45698321Y-44444816D01*
X45599350Y-44361100D01*
X45472102Y-44295988D01*
X45316577Y-44249479D01*
X45132774Y-44221574D01*
X44920694Y-44212272D01*
X44707423Y-44222318D01*
X44524811Y-44252455D01*
X44372857Y-44302685D01*
X44251562Y-44373006D01*
X44133823Y-44498022D01*
X44063179Y-44658756D01*
X44039631Y-44855209D01*
X43890803Y-44855209D01*
X43890803Y-44063444D01*
X45974397Y-44063444D01*
X45974397Y-47782956D01*
X43890803Y-47782956D01*
G37*
%TO.C,kibuzzard-632D4E48*%
G36*
X40447912Y-49224803D02*
G01*
X45353288Y-49224803D01*
X45353288Y-51308397D01*
X40447912Y-51308397D01*
X40447912Y-51135756D01*
X40596741Y-51135756D01*
X40872966Y-51135756D01*
X40963453Y-50678556D01*
X41370647Y-50678556D01*
X41461134Y-51135756D01*
X41727834Y-51135756D01*
X41367071Y-49604612D01*
X41863566Y-49604612D01*
X42218372Y-49604612D01*
X42218372Y-51135756D01*
X42485072Y-51135756D01*
X42977991Y-51135756D01*
X43254216Y-51135756D01*
X43344703Y-50678556D01*
X43751897Y-50678556D01*
X43842384Y-51135756D01*
X44109084Y-51135756D01*
X43898686Y-50242787D01*
X44204334Y-50242787D01*
X44212140Y-50458423D01*
X44235555Y-50641779D01*
X44274581Y-50792856D01*
X44360604Y-50965199D01*
X44478178Y-51077416D01*
X44632959Y-51139030D01*
X44830603Y-51159569D01*
X45025270Y-51147663D01*
X45204459Y-51111944D01*
X45204459Y-49421256D01*
X45018127Y-49385537D01*
X44830603Y-49373631D01*
X44629123Y-49395195D01*
X44469182Y-49459885D01*
X44350781Y-49567703D01*
X44286711Y-49682673D01*
X44240946Y-49833510D01*
X44213487Y-50020215D01*
X44204334Y-50242787D01*
X43898686Y-50242787D01*
X43699509Y-49397444D01*
X43389947Y-49397444D01*
X42977991Y-51135756D01*
X42485072Y-51135756D01*
X42485072Y-49604612D01*
X42839878Y-49604612D01*
X42839878Y-49397444D01*
X41863566Y-49397444D01*
X41863566Y-49604612D01*
X41367071Y-49604612D01*
X41318259Y-49397444D01*
X41008697Y-49397444D01*
X40596741Y-51135756D01*
X40447912Y-51135756D01*
X40447912Y-49224803D01*
G37*
G36*
X43711416Y-50476150D02*
G01*
X43385184Y-50476150D01*
X43547109Y-49659381D01*
X43549491Y-49659381D01*
X43711416Y-50476150D01*
G37*
G36*
X41330166Y-50476150D02*
G01*
X41003934Y-50476150D01*
X41165859Y-49659381D01*
X41168241Y-49659381D01*
X41330166Y-50476150D01*
G37*
G36*
X44937759Y-49602231D02*
G01*
X44937759Y-50933350D01*
X44830603Y-50954781D01*
X44664213Y-50916681D01*
X44550806Y-50802381D01*
X44502520Y-50672471D01*
X44473548Y-50485940D01*
X44463891Y-50242787D01*
X44473680Y-50022654D01*
X44503049Y-49851204D01*
X44551997Y-49728437D01*
X44665702Y-49617709D01*
X44830603Y-49580800D01*
X44937759Y-49602231D01*
G37*
%TO.C,kibuzzard-632D4E64*%
G36*
X45999797Y-40262572D02*
G01*
X45999797Y-43913028D01*
X43916203Y-43913028D01*
X43916203Y-43442731D01*
X44065031Y-43442731D01*
X44078128Y-43612395D01*
X44117419Y-43764200D01*
X44655581Y-43764200D01*
X44655581Y-43509406D01*
X44284106Y-43509406D01*
X44274581Y-43454638D01*
X44292904Y-43349135D01*
X44347871Y-43262815D01*
X44439483Y-43195677D01*
X44567740Y-43147721D01*
X44732641Y-43118947D01*
X44934187Y-43109356D01*
X45151741Y-43119940D01*
X45329740Y-43151690D01*
X45468183Y-43204606D01*
X45567071Y-43278690D01*
X45626404Y-43373940D01*
X45646181Y-43490356D01*
X45627727Y-43616563D01*
X45572363Y-43752294D01*
X45791438Y-43752294D01*
X45836086Y-43608823D01*
X45850969Y-43449875D01*
X45836644Y-43308674D01*
X45793670Y-43186300D01*
X45722046Y-43082753D01*
X45621773Y-42998033D01*
X45492851Y-42932139D01*
X45335279Y-42885072D01*
X45149058Y-42856832D01*
X44934187Y-42847419D01*
X44730479Y-42856721D01*
X44553932Y-42884626D01*
X44404545Y-42931135D01*
X44282320Y-42996247D01*
X44187256Y-43079963D01*
X44119354Y-43182282D01*
X44078612Y-43303205D01*
X44065031Y-43442731D01*
X43916203Y-43442731D01*
X43916203Y-42252106D01*
X44065031Y-42252106D01*
X44078128Y-42421770D01*
X44117419Y-42573575D01*
X44655581Y-42573575D01*
X44655581Y-42318781D01*
X44284106Y-42318781D01*
X44274581Y-42264013D01*
X44292904Y-42158510D01*
X44347871Y-42072190D01*
X44439483Y-42005052D01*
X44567740Y-41957096D01*
X44732641Y-41928322D01*
X44934187Y-41918731D01*
X45151741Y-41929315D01*
X45329740Y-41961065D01*
X45468183Y-42013981D01*
X45567071Y-42088065D01*
X45626404Y-42183315D01*
X45646181Y-42299731D01*
X45627727Y-42425938D01*
X45572363Y-42561669D01*
X45791438Y-42561669D01*
X45836086Y-42418198D01*
X45850969Y-42259250D01*
X45836644Y-42118049D01*
X45793670Y-41995675D01*
X45722046Y-41892128D01*
X45621773Y-41807408D01*
X45492851Y-41741514D01*
X45335279Y-41694447D01*
X45149058Y-41666207D01*
X44934187Y-41656794D01*
X44730479Y-41666096D01*
X44553932Y-41694001D01*
X44404545Y-41740510D01*
X44282320Y-41805622D01*
X44187256Y-41889338D01*
X44119354Y-41991657D01*
X44078612Y-42112580D01*
X44065031Y-42252106D01*
X43916203Y-42252106D01*
X43916203Y-40685244D01*
X44088844Y-40685244D01*
X45589031Y-40956706D01*
X45589031Y-40959087D01*
X44088844Y-41230550D01*
X44088844Y-41494869D01*
X45827156Y-41106725D01*
X45827156Y-40797162D01*
X44088844Y-40411400D01*
X44088844Y-40685244D01*
X43916203Y-40685244D01*
X43916203Y-40262572D01*
X45999797Y-40262572D01*
G37*
%TO.C, *%
G36*
X58336897Y-53420932D02*
G01*
X58175581Y-53420932D01*
X58175581Y-53259616D01*
X58336897Y-53259616D01*
X58336897Y-53420932D01*
G37*
G36*
X58820846Y-50839870D02*
G01*
X58820846Y-51323819D01*
X58659530Y-51323819D01*
X58659530Y-51001186D01*
X58498214Y-51001186D01*
X58498214Y-50839870D01*
X58820846Y-50839870D01*
G37*
G36*
X58336897Y-50678554D02*
G01*
X58498214Y-50678554D01*
X58498214Y-50839870D01*
X58336897Y-50839870D01*
X58336897Y-51001186D01*
X58498214Y-51001186D01*
X58498214Y-51323819D01*
X58014264Y-51323819D01*
X58014264Y-51162503D01*
X58336897Y-51162503D01*
X58336897Y-51001186D01*
X57852948Y-51001186D01*
X57852948Y-50678554D01*
X58014264Y-50678554D01*
X58014264Y-50517237D01*
X58336897Y-50517237D01*
X58336897Y-50678554D01*
G37*
G36*
X59950061Y-51485136D02*
G01*
X59627428Y-51485136D01*
X59627428Y-51323819D01*
X59788745Y-51323819D01*
X59788745Y-51162503D01*
X59950061Y-51162503D01*
X59950061Y-51485136D01*
G37*
G36*
X58498214Y-53259616D02*
G01*
X58336897Y-53259616D01*
X58336897Y-53098300D01*
X58498214Y-53098300D01*
X58498214Y-53259616D01*
G37*
G36*
X59466112Y-53420932D02*
G01*
X59304796Y-53420932D01*
X59304796Y-53259616D01*
X59143479Y-53259616D01*
X59143479Y-53098300D01*
X58982163Y-53098300D01*
X58982163Y-53259616D01*
X59143479Y-53259616D01*
X59143479Y-53420932D01*
X58982163Y-53420932D01*
X58982163Y-53259616D01*
X58820846Y-53259616D01*
X58820846Y-53098300D01*
X58982163Y-53098300D01*
X58982163Y-52775667D01*
X59466112Y-52775667D01*
X59466112Y-53420932D01*
G37*
G36*
X56239784Y-50678554D02*
G01*
X56078468Y-50678554D01*
X56078468Y-50517237D01*
X56239784Y-50517237D01*
X56239784Y-50678554D01*
G37*
G36*
X57530315Y-51807768D02*
G01*
X57368999Y-51807768D01*
X57368999Y-51646452D01*
X57530315Y-51646452D01*
X57530315Y-51807768D01*
G37*
G36*
X59466112Y-50194604D02*
G01*
X59627428Y-50194604D01*
X59627428Y-50355921D01*
X59304796Y-50355921D01*
X59304796Y-50033288D01*
X59466112Y-50033288D01*
X59466112Y-50194604D01*
G37*
G36*
X56885050Y-49549339D02*
G01*
X56401100Y-49549339D01*
X56401100Y-49065390D01*
X56885050Y-49065390D01*
X56885050Y-49549339D01*
G37*
G36*
X60434010Y-53098300D02*
G01*
X59950061Y-53098300D01*
X59950061Y-52614350D01*
X60434010Y-52614350D01*
X60434010Y-53098300D01*
G37*
G36*
X56723733Y-53259616D02*
G01*
X56562417Y-53259616D01*
X56562417Y-53098300D01*
X56723733Y-53098300D01*
X56723733Y-53259616D01*
G37*
G36*
X57852948Y-49871972D02*
G01*
X58014264Y-49871972D01*
X58014264Y-50194604D01*
X57691632Y-50194604D01*
X57691632Y-50355921D01*
X57368999Y-50355921D01*
X57368999Y-50194604D01*
X57207682Y-50194604D01*
X57207682Y-50355921D01*
X57046366Y-50355921D01*
X57046366Y-50517237D01*
X56885050Y-50517237D01*
X56885050Y-50678554D01*
X56723733Y-50678554D01*
X56723733Y-50839870D01*
X56562417Y-50839870D01*
X56562417Y-51162503D01*
X56401100Y-51162503D01*
X56401100Y-51485136D01*
X56562417Y-51485136D01*
X56562417Y-51323819D01*
X56723733Y-51323819D01*
X56723733Y-51162503D01*
X57046366Y-51162503D01*
X57046366Y-50839870D01*
X57207682Y-50839870D01*
X57207682Y-51162503D01*
X57368999Y-51162503D01*
X57368999Y-51001186D01*
X57530315Y-51001186D01*
X57530315Y-50517237D01*
X57691632Y-50517237D01*
X57691632Y-51323819D01*
X57852948Y-51323819D01*
X57852948Y-51485136D01*
X57368999Y-51485136D01*
X57368999Y-51323819D01*
X56885050Y-51323819D01*
X56885050Y-51485136D01*
X56723733Y-51485136D01*
X56723733Y-51646452D01*
X56562417Y-51646452D01*
X56562417Y-51969085D01*
X56723733Y-51969085D01*
X56723733Y-51646452D01*
X56885050Y-51646452D01*
X56885050Y-51485136D01*
X57046366Y-51485136D01*
X57046366Y-51646452D01*
X57207682Y-51646452D01*
X57207682Y-51969085D01*
X57530315Y-51969085D01*
X57530315Y-52291718D01*
X57691632Y-52291718D01*
X57691632Y-52130401D01*
X57852948Y-52130401D01*
X57852948Y-51807768D01*
X58014264Y-51807768D01*
X58014264Y-52130401D01*
X58175581Y-52130401D01*
X58175581Y-52614350D01*
X58014264Y-52614350D01*
X58014264Y-52453034D01*
X57852948Y-52453034D01*
X57852948Y-52614350D01*
X58014264Y-52614350D01*
X58014264Y-52775667D01*
X58336897Y-52775667D01*
X58336897Y-52453034D01*
X58659530Y-52453034D01*
X58659530Y-52291718D01*
X58820846Y-52291718D01*
X58820846Y-52130401D01*
X58982163Y-52130401D01*
X58982163Y-51969085D01*
X58659530Y-51969085D01*
X58659530Y-51807768D01*
X58498214Y-51807768D01*
X58498214Y-51485136D01*
X58820846Y-51485136D01*
X58820846Y-51323819D01*
X58982163Y-51323819D01*
X58982163Y-51162503D01*
X59143479Y-51162503D01*
X59143479Y-50839870D01*
X58982163Y-50839870D01*
X58982163Y-50517237D01*
X58820846Y-50517237D01*
X58820846Y-50194604D01*
X58982163Y-50194604D01*
X58982163Y-50355921D01*
X59304796Y-50355921D01*
X59304796Y-51162503D01*
X59466112Y-51162503D01*
X59466112Y-51485136D01*
X59304796Y-51485136D01*
X59304796Y-51323819D01*
X59143479Y-51323819D01*
X59143479Y-51485136D01*
X58982163Y-51485136D01*
X58982163Y-51646452D01*
X58820846Y-51646452D01*
X58820846Y-51807768D01*
X58982163Y-51807768D01*
X58982163Y-51969085D01*
X59143479Y-51969085D01*
X59143479Y-52130401D01*
X59304796Y-52130401D01*
X59304796Y-51969085D01*
X59466112Y-51969085D01*
X59466112Y-52291718D01*
X59304796Y-52291718D01*
X59304796Y-52453034D01*
X58659530Y-52453034D01*
X58659530Y-52614350D01*
X58498214Y-52614350D01*
X58498214Y-52775667D01*
X58336897Y-52775667D01*
X58336897Y-52936983D01*
X58175581Y-52936983D01*
X58175581Y-53259616D01*
X58014264Y-53259616D01*
X58014264Y-53098300D01*
X57852948Y-53098300D01*
X57852948Y-52936983D01*
X57530315Y-52936983D01*
X57530315Y-52775667D01*
X57852948Y-52775667D01*
X57852948Y-52614350D01*
X57691632Y-52614350D01*
X57691632Y-52453034D01*
X57530315Y-52453034D01*
X57530315Y-52775667D01*
X57368999Y-52775667D01*
X57368999Y-52936983D01*
X57530315Y-52936983D01*
X57530315Y-53259616D01*
X57852948Y-53259616D01*
X57852948Y-53420932D01*
X57046366Y-53420932D01*
X57046366Y-53259616D01*
X57207682Y-53259616D01*
X57207682Y-53098300D01*
X57368999Y-53098300D01*
X57368999Y-52936983D01*
X57207682Y-52936983D01*
X57207682Y-52775667D01*
X57046366Y-52775667D01*
X57046366Y-53259616D01*
X56885050Y-53259616D01*
X56885050Y-52936983D01*
X56562417Y-52936983D01*
X56562417Y-52775667D01*
X56723733Y-52775667D01*
X56723733Y-52614350D01*
X56885050Y-52614350D01*
X57368999Y-52614350D01*
X57368999Y-52130401D01*
X56885050Y-52130401D01*
X56885050Y-52614350D01*
X56723733Y-52614350D01*
X56562417Y-52614350D01*
X56562417Y-52775667D01*
X56401100Y-52775667D01*
X56401100Y-52614350D01*
X56562417Y-52614350D01*
X56562417Y-52291718D01*
X56401100Y-52291718D01*
X56401100Y-52453034D01*
X56239784Y-52453034D01*
X56239784Y-52291718D01*
X56078468Y-52291718D01*
X56078468Y-52130401D01*
X56401100Y-52130401D01*
X56401100Y-51646452D01*
X56239784Y-51646452D01*
X56239784Y-51162503D01*
X56078468Y-51162503D01*
X56078468Y-50839870D01*
X56401100Y-50839870D01*
X56401100Y-50678554D01*
X56723733Y-50678554D01*
X56723733Y-50517237D01*
X56885050Y-50517237D01*
X56885050Y-50355921D01*
X56723733Y-50355921D01*
X56723733Y-50194604D01*
X56401100Y-50194604D01*
X56401100Y-50033288D01*
X56885050Y-50033288D01*
X56885050Y-50194604D01*
X57207682Y-50194604D01*
X57207682Y-50033288D01*
X57368999Y-50033288D01*
X57368999Y-50194604D01*
X57691632Y-50194604D01*
X57691632Y-50033288D01*
X57852948Y-50033288D01*
X57852948Y-49871972D01*
X57691632Y-49871972D01*
X57691632Y-49710655D01*
X57852948Y-49710655D01*
X57852948Y-49871972D01*
G37*
G36*
X57852948Y-49226706D02*
G01*
X58014264Y-49226706D01*
X58014264Y-49710655D01*
X57852948Y-49710655D01*
X57852948Y-49549339D01*
X57691632Y-49549339D01*
X57691632Y-49710655D01*
X57530315Y-49710655D01*
X57530315Y-49871972D01*
X57368999Y-49871972D01*
X57368999Y-49549339D01*
X57530315Y-49549339D01*
X57530315Y-49226706D01*
X57368999Y-49226706D01*
X57368999Y-49065390D01*
X57691632Y-49065390D01*
X57691632Y-48904073D01*
X57368999Y-48904073D01*
X57368999Y-48742757D01*
X58336897Y-48742757D01*
X58336897Y-48904073D01*
X58820846Y-48904073D01*
X58820846Y-48742757D01*
X59466112Y-48742757D01*
X59466112Y-48904073D01*
X59304796Y-48904073D01*
X59304796Y-49065390D01*
X59466112Y-49065390D01*
X59466112Y-49549339D01*
X59304796Y-49549339D01*
X59304796Y-49065390D01*
X59143479Y-49065390D01*
X59143479Y-48904073D01*
X58982163Y-48904073D01*
X58982163Y-49065390D01*
X59143479Y-49065390D01*
X59143479Y-49549339D01*
X59304796Y-49549339D01*
X59304796Y-49710655D01*
X59143479Y-49710655D01*
X59143479Y-50194604D01*
X58982163Y-50194604D01*
X58982163Y-50033288D01*
X58820846Y-50033288D01*
X58820846Y-50194604D01*
X58659530Y-50194604D01*
X58659530Y-50678554D01*
X58498214Y-50678554D01*
X58498214Y-50194604D01*
X58336897Y-50194604D01*
X58336897Y-50033288D01*
X58659530Y-50033288D01*
X58659530Y-49710655D01*
X58820846Y-49710655D01*
X58820846Y-49871972D01*
X58982163Y-49871972D01*
X58982163Y-49388022D01*
X58820846Y-49388022D01*
X58820846Y-49549339D01*
X58659530Y-49549339D01*
X58659530Y-49226706D01*
X58498214Y-49226706D01*
X58498214Y-49549339D01*
X58175581Y-49549339D01*
X58175581Y-49388022D01*
X58336897Y-49388022D01*
X58336897Y-49226706D01*
X58175581Y-49226706D01*
X58175581Y-49065390D01*
X58336897Y-49065390D01*
X58336897Y-48904073D01*
X58175581Y-48904073D01*
X58175581Y-49065390D01*
X58014264Y-49065390D01*
X58014264Y-48904073D01*
X57852948Y-48904073D01*
X57852948Y-49226706D01*
X57691632Y-49226706D01*
X57691632Y-49388022D01*
X57852948Y-49388022D01*
X57852948Y-49226706D01*
G37*
G36*
X59466112Y-49871972D02*
G01*
X59304796Y-49871972D01*
X59304796Y-49710655D01*
X59466112Y-49710655D01*
X59466112Y-49871972D01*
G37*
G36*
X59627428Y-51969085D02*
G01*
X59466112Y-51969085D01*
X59466112Y-51807768D01*
X59627428Y-51807768D01*
X59627428Y-51969085D01*
G37*
G36*
X59627428Y-49871972D02*
G01*
X59627428Y-49710655D01*
X59788745Y-49710655D01*
X60595327Y-49710655D01*
X60595327Y-48904073D01*
X59788745Y-48904073D01*
X59788745Y-49710655D01*
X59627428Y-49710655D01*
X59627428Y-48742757D01*
X60756643Y-48742757D01*
X60756643Y-49871972D01*
X59627428Y-49871972D01*
G37*
G36*
X56562417Y-50517237D02*
G01*
X56239784Y-50517237D01*
X56239784Y-50355921D01*
X56562417Y-50355921D01*
X56562417Y-50517237D01*
G37*
G36*
X60434010Y-51646452D02*
G01*
X60272694Y-51646452D01*
X60272694Y-51485136D01*
X60434010Y-51485136D01*
X60434010Y-51646452D01*
G37*
G36*
X56239784Y-50355921D02*
G01*
X56078468Y-50355921D01*
X56078468Y-50033288D01*
X56239784Y-50033288D01*
X56239784Y-50355921D01*
G37*
G36*
X60756643Y-51807768D02*
G01*
X60595327Y-51807768D01*
X60595327Y-51646452D01*
X60756643Y-51646452D01*
X60756643Y-51807768D01*
G37*
G36*
X59788745Y-50517237D02*
G01*
X59627428Y-50517237D01*
X59627428Y-50355921D01*
X59788745Y-50355921D01*
X59788745Y-50517237D01*
G37*
G36*
X56239784Y-52614350D02*
G01*
X56078468Y-52614350D01*
X56078468Y-52453034D01*
X56239784Y-52453034D01*
X56239784Y-52614350D01*
G37*
G36*
X58014264Y-51646452D02*
G01*
X57852948Y-51646452D01*
X57852948Y-51485136D01*
X58014264Y-51485136D01*
X58014264Y-51646452D01*
G37*
G36*
X56401100Y-52936983D02*
G01*
X56239784Y-52936983D01*
X56239784Y-53098300D01*
X56401100Y-53098300D01*
X56401100Y-53420932D01*
X56239784Y-53420932D01*
X56239784Y-53098300D01*
X56078468Y-53098300D01*
X56078468Y-52775667D01*
X56401100Y-52775667D01*
X56401100Y-52936983D01*
G37*
G36*
X56562417Y-52936983D02*
G01*
X56562417Y-53098300D01*
X56401100Y-53098300D01*
X56401100Y-52936983D01*
X56562417Y-52936983D01*
G37*
G36*
X59788745Y-50194604D02*
G01*
X59627428Y-50194604D01*
X59627428Y-50033288D01*
X59788745Y-50033288D01*
X59788745Y-50194604D01*
G37*
G36*
X58336897Y-51807768D02*
G01*
X58175581Y-51807768D01*
X58175581Y-51485136D01*
X58336897Y-51485136D01*
X58336897Y-51807768D01*
G37*
G36*
X58820846Y-53098300D02*
G01*
X58659530Y-53098300D01*
X58659530Y-52614350D01*
X58820846Y-52614350D01*
X58820846Y-53098300D01*
G37*
G36*
X58659530Y-49710655D02*
G01*
X58498214Y-49710655D01*
X58498214Y-49549339D01*
X58659530Y-49549339D01*
X58659530Y-49710655D01*
G37*
G36*
X60434010Y-49549339D02*
G01*
X59950061Y-49549339D01*
X59950061Y-49065390D01*
X60434010Y-49065390D01*
X60434010Y-49549339D01*
G37*
G36*
X57368999Y-50678554D02*
G01*
X57046366Y-50678554D01*
X57046366Y-50517237D01*
X57207682Y-50517237D01*
X57207682Y-50355921D01*
X57368999Y-50355921D01*
X57368999Y-50678554D01*
G37*
G36*
X58175581Y-49871972D02*
G01*
X58014264Y-49871972D01*
X58014264Y-49710655D01*
X58175581Y-49710655D01*
X58175581Y-49871972D01*
G37*
G36*
X60756643Y-51162503D02*
G01*
X60756643Y-51485136D01*
X60434010Y-51485136D01*
X60434010Y-51323819D01*
X60272694Y-51323819D01*
X60272694Y-51001186D01*
X60434010Y-51001186D01*
X60434010Y-50678554D01*
X60272694Y-50678554D01*
X60272694Y-51001186D01*
X60111378Y-51001186D01*
X60111378Y-50839870D01*
X59627428Y-50839870D01*
X59627428Y-50678554D01*
X59950061Y-50678554D01*
X60111378Y-50678554D01*
X60272694Y-50678554D01*
X60272694Y-50517237D01*
X60434010Y-50517237D01*
X60434010Y-50355921D01*
X60111378Y-50355921D01*
X60111378Y-50678554D01*
X59950061Y-50678554D01*
X59950061Y-50194604D01*
X60111378Y-50194604D01*
X60111378Y-50033288D01*
X60756643Y-50033288D01*
X60756643Y-51001186D01*
X60595327Y-51001186D01*
X60595327Y-51162503D01*
X60756643Y-51162503D01*
G37*
G36*
X58014264Y-50517237D02*
G01*
X57691632Y-50517237D01*
X57691632Y-50355921D01*
X58014264Y-50355921D01*
X58014264Y-50517237D01*
G37*
G36*
X58820846Y-53420932D02*
G01*
X58659530Y-53420932D01*
X58659530Y-53259616D01*
X58820846Y-53259616D01*
X58820846Y-53420932D01*
G37*
G36*
X58498214Y-51969085D02*
G01*
X58659530Y-51969085D01*
X58659530Y-52130401D01*
X58498214Y-52130401D01*
X58498214Y-52291718D01*
X58336897Y-52291718D01*
X58336897Y-51807768D01*
X58498214Y-51807768D01*
X58498214Y-51969085D01*
G37*
G36*
X59627428Y-51001186D02*
G01*
X59788745Y-51001186D01*
X59788745Y-51162503D01*
X59466112Y-51162503D01*
X59466112Y-50839870D01*
X59627428Y-50839870D01*
X59627428Y-51001186D01*
G37*
G36*
X59627428Y-50678554D02*
G01*
X59466112Y-50678554D01*
X59466112Y-50517237D01*
X59627428Y-50517237D01*
X59627428Y-50678554D01*
G37*
G36*
X58498214Y-49871972D02*
G01*
X58336897Y-49871972D01*
X58336897Y-49710655D01*
X58498214Y-49710655D01*
X58498214Y-49871972D01*
G37*
G36*
X60272694Y-51807768D02*
G01*
X60434010Y-51807768D01*
X60434010Y-51969085D01*
X60595327Y-51969085D01*
X60595327Y-52130401D01*
X60272694Y-52130401D01*
X60272694Y-51969085D01*
X60111378Y-51969085D01*
X60111378Y-52130401D01*
X59627428Y-52130401D01*
X59627428Y-51969085D01*
X59950061Y-51969085D01*
X59950061Y-51807768D01*
X59627428Y-51807768D01*
X59627428Y-51646452D01*
X60272694Y-51646452D01*
X60272694Y-51807768D01*
G37*
G36*
X59627428Y-53420932D02*
G01*
X59627428Y-53259616D01*
X59788745Y-53259616D01*
X60595327Y-53259616D01*
X60595327Y-52453034D01*
X59788745Y-52453034D01*
X59788745Y-53259616D01*
X59627428Y-53259616D01*
X59627428Y-52291718D01*
X60756643Y-52291718D01*
X60756643Y-53420932D01*
X59627428Y-53420932D01*
G37*
G36*
X57207682Y-52453034D02*
G01*
X57046366Y-52453034D01*
X57046366Y-52291718D01*
X57207682Y-52291718D01*
X57207682Y-52453034D01*
G37*
G36*
X59466112Y-51807768D02*
G01*
X59304796Y-51807768D01*
X59304796Y-51969085D01*
X59143479Y-51969085D01*
X59143479Y-51807768D01*
X58982163Y-51807768D01*
X58982163Y-51646452D01*
X59466112Y-51646452D01*
X59466112Y-51807768D01*
G37*
G36*
X56078468Y-49871972D02*
G01*
X56078468Y-49710655D01*
X56239784Y-49710655D01*
X57046366Y-49710655D01*
X57046366Y-48904073D01*
X56239784Y-48904073D01*
X56239784Y-49710655D01*
X56078468Y-49710655D01*
X56078468Y-48742757D01*
X57207682Y-48742757D01*
X57207682Y-49871972D01*
X56078468Y-49871972D01*
G37*
%TD*%
%LPC*%
D11*
%TO.C,J1*%
X42246650Y-42359100D03*
D12*
X42246650Y-44899100D03*
D13*
X42246650Y-47439100D03*
%TD*%
D12*
%TO.C,J2*%
X59772650Y-44884100D03*
D13*
X59772650Y-42344100D03*
%TD*%
M02*
