%TF.GenerationSoftware,KiCad,Pcbnew,(6.0.4)*%
%TF.CreationDate,2022-07-15T22:25:20+03:00*%
%TF.ProjectId,Basic-150-MHz-Telemetry-Transmitter-SMD,42617369-632d-4313-9530-2d4d487a2d54,rev?*%
%TF.SameCoordinates,Original*%
%TF.FileFunction,Copper,L2,Bot*%
%TF.FilePolarity,Positive*%
%FSLAX46Y46*%
G04 Gerber Fmt 4.6, Leading zero omitted, Abs format (unit mm)*
G04 Created by KiCad (PCBNEW (6.0.4)) date 2022-07-15 22:25:20*
%MOMM*%
%LPD*%
G01*
G04 APERTURE LIST*
%TA.AperFunction,ComponentPad*%
%ADD10R,1.700000X1.700000*%
%TD*%
%TA.AperFunction,ComponentPad*%
%ADD11O,1.700000X1.700000*%
%TD*%
%TA.AperFunction,ViaPad*%
%ADD12C,0.620000*%
%TD*%
G04 APERTURE END LIST*
D10*
%TO.P,J1,1,Pin_1*%
%TO.N,Net-(C1-Pad2)*%
X42246650Y-42359100D03*
D11*
%TO.P,J1,2,Pin_2*%
%TO.N,GND*%
X42246650Y-44899100D03*
%TO.P,J1,3,Pin_3*%
%TO.N,data*%
X42246650Y-47439100D03*
%TD*%
D10*
%TO.P,J2,1,Pin_1*%
%TO.N,GND*%
X59772650Y-44884100D03*
D11*
%TO.P,J2,2,Pin_2*%
%TO.N,Net-(J2-Pad2)*%
X59772650Y-42344100D03*
%TD*%
D12*
%TO.N,GND*%
X54718050Y-48338500D03*
X45167650Y-46179500D03*
X45269250Y-48186100D03*
X47809250Y-53189900D03*
%TD*%
%TA.AperFunction,Conductor*%
%TO.N,GND*%
G36*
X61414021Y-40578502D02*
G01*
X61460514Y-40632158D01*
X61471900Y-40684500D01*
X61471900Y-54315500D01*
X61451898Y-54383621D01*
X61398242Y-54430114D01*
X61345900Y-54441500D01*
X40714900Y-54441500D01*
X40646779Y-54421498D01*
X40600286Y-54367842D01*
X40588900Y-54315500D01*
X40588900Y-47405795D01*
X40883901Y-47405795D01*
X40884198Y-47410948D01*
X40884198Y-47410951D01*
X40889661Y-47505690D01*
X40896760Y-47628815D01*
X40897897Y-47633861D01*
X40897898Y-47633867D01*
X40917769Y-47722039D01*
X40945872Y-47846739D01*
X41029916Y-48053716D01*
X41146637Y-48244188D01*
X41292900Y-48413038D01*
X41464776Y-48555732D01*
X41657650Y-48668438D01*
X41866342Y-48748130D01*
X41871410Y-48749161D01*
X41871413Y-48749162D01*
X41978667Y-48770983D01*
X42085247Y-48792667D01*
X42090422Y-48792857D01*
X42090424Y-48792857D01*
X42303323Y-48800664D01*
X42303327Y-48800664D01*
X42308487Y-48800853D01*
X42313607Y-48800197D01*
X42313609Y-48800197D01*
X42524938Y-48773125D01*
X42524939Y-48773125D01*
X42530066Y-48772468D01*
X42535016Y-48770983D01*
X42739079Y-48709761D01*
X42739084Y-48709759D01*
X42744034Y-48708274D01*
X42944644Y-48609996D01*
X43126510Y-48480273D01*
X43284746Y-48322589D01*
X43344244Y-48239789D01*
X43412085Y-48145377D01*
X43415103Y-48141177D01*
X43514080Y-47940911D01*
X43579020Y-47727169D01*
X43608179Y-47505690D01*
X43609806Y-47439100D01*
X43591502Y-47216461D01*
X43537081Y-46999802D01*
X43448004Y-46794940D01*
X43326664Y-46607377D01*
X43176320Y-46442151D01*
X43172269Y-46438952D01*
X43172265Y-46438948D01*
X43005064Y-46306900D01*
X43005060Y-46306898D01*
X43001009Y-46303698D01*
X42959219Y-46280629D01*
X42909248Y-46230197D01*
X42894476Y-46160754D01*
X42919592Y-46094348D01*
X42946944Y-46067741D01*
X43121978Y-45942892D01*
X43129850Y-45936239D01*
X43280702Y-45785912D01*
X43286781Y-45778769D01*
X58414651Y-45778769D01*
X58415021Y-45785590D01*
X58420545Y-45836452D01*
X58424171Y-45851704D01*
X58469326Y-45972154D01*
X58477864Y-45987749D01*
X58554365Y-46089824D01*
X58566926Y-46102385D01*
X58669001Y-46178886D01*
X58684596Y-46187424D01*
X58805044Y-46232578D01*
X58820299Y-46236205D01*
X58871164Y-46241731D01*
X58877978Y-46242100D01*
X59500535Y-46242100D01*
X59515774Y-46237625D01*
X59516979Y-46236235D01*
X59518650Y-46228552D01*
X59518650Y-46223984D01*
X60026650Y-46223984D01*
X60031125Y-46239223D01*
X60032515Y-46240428D01*
X60040198Y-46242099D01*
X60667319Y-46242099D01*
X60674140Y-46241729D01*
X60725002Y-46236205D01*
X60740254Y-46232579D01*
X60860704Y-46187424D01*
X60876299Y-46178886D01*
X60978374Y-46102385D01*
X60990935Y-46089824D01*
X61067436Y-45987749D01*
X61075974Y-45972154D01*
X61121128Y-45851706D01*
X61124755Y-45836451D01*
X61130281Y-45785586D01*
X61130650Y-45778772D01*
X61130650Y-45156215D01*
X61126175Y-45140976D01*
X61124785Y-45139771D01*
X61117102Y-45138100D01*
X60044765Y-45138100D01*
X60029526Y-45142575D01*
X60028321Y-45143965D01*
X60026650Y-45151648D01*
X60026650Y-46223984D01*
X59518650Y-46223984D01*
X59518650Y-45156215D01*
X59514175Y-45140976D01*
X59512785Y-45139771D01*
X59505102Y-45138100D01*
X58432766Y-45138100D01*
X58417527Y-45142575D01*
X58416322Y-45143965D01*
X58414651Y-45151648D01*
X58414651Y-45778769D01*
X43286781Y-45778769D01*
X43287380Y-45778065D01*
X43411653Y-45605120D01*
X43416963Y-45596283D01*
X43511320Y-45405367D01*
X43515119Y-45395772D01*
X43577027Y-45192010D01*
X43579205Y-45181937D01*
X43580636Y-45171062D01*
X43578425Y-45156878D01*
X43565267Y-45153100D01*
X40929875Y-45153100D01*
X40916344Y-45157073D01*
X40914907Y-45167066D01*
X40945215Y-45301546D01*
X40948295Y-45311375D01*
X41028420Y-45508703D01*
X41033063Y-45517894D01*
X41144344Y-45699488D01*
X41150427Y-45707799D01*
X41289863Y-45868767D01*
X41297230Y-45875983D01*
X41461084Y-46012016D01*
X41469531Y-46017931D01*
X41538619Y-46058303D01*
X41587343Y-46109942D01*
X41600414Y-46179725D01*
X41573683Y-46245496D01*
X41533234Y-46278852D01*
X41520257Y-46285607D01*
X41516124Y-46288710D01*
X41516121Y-46288712D01*
X41491897Y-46306900D01*
X41341615Y-46419735D01*
X41187279Y-46581238D01*
X41061393Y-46765780D01*
X40967338Y-46968405D01*
X40907639Y-47183670D01*
X40883901Y-47405795D01*
X40588900Y-47405795D01*
X40588900Y-43257234D01*
X40888150Y-43257234D01*
X40894905Y-43319416D01*
X40946035Y-43455805D01*
X41033389Y-43572361D01*
X41149945Y-43659715D01*
X41158354Y-43662867D01*
X41158355Y-43662868D01*
X41267610Y-43703826D01*
X41324375Y-43746467D01*
X41349075Y-43813029D01*
X41333868Y-43882378D01*
X41314475Y-43908859D01*
X41191240Y-44037817D01*
X41184754Y-44045827D01*
X41064748Y-44221749D01*
X41059650Y-44230723D01*
X40969988Y-44423883D01*
X40966425Y-44433570D01*
X40911039Y-44633283D01*
X40912562Y-44641707D01*
X40924942Y-44645100D01*
X43564994Y-44645100D01*
X43578525Y-44641127D01*
X43579830Y-44632047D01*
X43537864Y-44464975D01*
X43534544Y-44455224D01*
X43449622Y-44259914D01*
X43444755Y-44250839D01*
X43329076Y-44072026D01*
X43322786Y-44063857D01*
X43178943Y-43905777D01*
X43147891Y-43841931D01*
X43156285Y-43771433D01*
X43201462Y-43716664D01*
X43227906Y-43702995D01*
X43334947Y-43662867D01*
X43343355Y-43659715D01*
X43459911Y-43572361D01*
X43547265Y-43455805D01*
X43598395Y-43319416D01*
X43605150Y-43257234D01*
X43605150Y-42310795D01*
X58409901Y-42310795D01*
X58410198Y-42315948D01*
X58410198Y-42315951D01*
X58415661Y-42410690D01*
X58422760Y-42533815D01*
X58423897Y-42538861D01*
X58423898Y-42538867D01*
X58443769Y-42627039D01*
X58471872Y-42751739D01*
X58555916Y-42958716D01*
X58672637Y-43149188D01*
X58818900Y-43318038D01*
X58822875Y-43321338D01*
X58822881Y-43321344D01*
X58828075Y-43325656D01*
X58867709Y-43384560D01*
X58869205Y-43455541D01*
X58832089Y-43516062D01*
X58791818Y-43540580D01*
X58684596Y-43580776D01*
X58669001Y-43589314D01*
X58566926Y-43665815D01*
X58554365Y-43678376D01*
X58477864Y-43780451D01*
X58469326Y-43796046D01*
X58424172Y-43916494D01*
X58420545Y-43931749D01*
X58415019Y-43982614D01*
X58414650Y-43989428D01*
X58414650Y-44611985D01*
X58419125Y-44627224D01*
X58420515Y-44628429D01*
X58428198Y-44630100D01*
X61112534Y-44630100D01*
X61127773Y-44625625D01*
X61128978Y-44624235D01*
X61130649Y-44616552D01*
X61130649Y-43989431D01*
X61130279Y-43982610D01*
X61124755Y-43931748D01*
X61121129Y-43916496D01*
X61075974Y-43796046D01*
X61067436Y-43780451D01*
X60990935Y-43678376D01*
X60978374Y-43665815D01*
X60876299Y-43589314D01*
X60860704Y-43580776D01*
X60750463Y-43539448D01*
X60693699Y-43496806D01*
X60668999Y-43430245D01*
X60684207Y-43360896D01*
X60705754Y-43332215D01*
X60807080Y-43231244D01*
X60807090Y-43231232D01*
X60810746Y-43227589D01*
X60870244Y-43144789D01*
X60938085Y-43050377D01*
X60941103Y-43046177D01*
X61040080Y-42845911D01*
X61105020Y-42632169D01*
X61134179Y-42410690D01*
X61135806Y-42344100D01*
X61117502Y-42121461D01*
X61063081Y-41904802D01*
X60974004Y-41699940D01*
X60852664Y-41512377D01*
X60702320Y-41347151D01*
X60698269Y-41343952D01*
X60698265Y-41343948D01*
X60531064Y-41211900D01*
X60531060Y-41211898D01*
X60527009Y-41208698D01*
X60331439Y-41100738D01*
X60326570Y-41099014D01*
X60326566Y-41099012D01*
X60125737Y-41027895D01*
X60125733Y-41027894D01*
X60120862Y-41026169D01*
X60115769Y-41025262D01*
X60115766Y-41025261D01*
X59906023Y-40987900D01*
X59906017Y-40987899D01*
X59900934Y-40986994D01*
X59827102Y-40986092D01*
X59682731Y-40984328D01*
X59682729Y-40984328D01*
X59677561Y-40984265D01*
X59456741Y-41018055D01*
X59244406Y-41087457D01*
X59046257Y-41190607D01*
X59042124Y-41193710D01*
X59042121Y-41193712D01*
X58871750Y-41321630D01*
X58867615Y-41324735D01*
X58864043Y-41328473D01*
X58737430Y-41460966D01*
X58713279Y-41486238D01*
X58587393Y-41670780D01*
X58493338Y-41873405D01*
X58433639Y-42088670D01*
X58409901Y-42310795D01*
X43605150Y-42310795D01*
X43605150Y-41460966D01*
X43598395Y-41398784D01*
X43547265Y-41262395D01*
X43459911Y-41145839D01*
X43343355Y-41058485D01*
X43206966Y-41007355D01*
X43144784Y-41000600D01*
X41348516Y-41000600D01*
X41286334Y-41007355D01*
X41149945Y-41058485D01*
X41033389Y-41145839D01*
X40946035Y-41262395D01*
X40894905Y-41398784D01*
X40888150Y-41460966D01*
X40888150Y-43257234D01*
X40588900Y-43257234D01*
X40588900Y-40684500D01*
X40608902Y-40616379D01*
X40662558Y-40569886D01*
X40714900Y-40558500D01*
X61345900Y-40558500D01*
X61414021Y-40578502D01*
G37*
%TD.AperFunction*%
%TD*%
M02*
