%TF.GenerationSoftware,KiCad,Pcbnew,(6.0.7)*%
%TF.CreationDate,2022-10-05T07:55:04+03:00*%
%TF.ProjectId,Basic-150-MHz-Telemetry-Transmitter-SMD,42617369-632d-4313-9530-2d4d487a2d54,rev?*%
%TF.SameCoordinates,Original*%
%TF.FileFunction,Copper,L2,Bot*%
%TF.FilePolarity,Positive*%
%FSLAX46Y46*%
G04 Gerber Fmt 4.6, Leading zero omitted, Abs format (unit mm)*
G04 Created by KiCad (PCBNEW (6.0.7)) date 2022-10-05 07:55:04*
%MOMM*%
%LPD*%
G01*
G04 APERTURE LIST*
%TA.AperFunction,ComponentPad*%
%ADD10C,1.700000*%
%TD*%
%TA.AperFunction,ComponentPad*%
%ADD11R,1.700000X1.700000*%
%TD*%
%TA.AperFunction,ComponentPad*%
%ADD12O,1.700000X1.700000*%
%TD*%
%TA.AperFunction,ViaPad*%
%ADD13C,0.620000*%
%TD*%
G04 APERTURE END LIST*
D10*
%TO.P,J1,1,Pin_1*%
%TO.N,Net-(C1-Pad2)*%
X42246650Y-42359100D03*
D11*
%TO.P,J1,2,Pin_2*%
%TO.N,GND*%
X42246650Y-44899100D03*
D12*
%TO.P,J1,3,Pin_3*%
%TO.N,data*%
X42246650Y-47439100D03*
%TD*%
D11*
%TO.P,J2,1,Pin_1*%
%TO.N,GND*%
X59772650Y-44884100D03*
D12*
%TO.P,J2,2,Pin_2*%
%TO.N,Net-(J2-Pad2)*%
X59772650Y-42344100D03*
%TD*%
D13*
%TO.N,GND*%
X54718050Y-48338500D03*
X45167650Y-46179500D03*
X45269250Y-48186100D03*
X47809250Y-53189900D03*
%TD*%
%TA.AperFunction,Conductor*%
%TO.N,GND*%
G36*
X61639091Y-40369407D02*
G01*
X61675055Y-40418907D01*
X61679900Y-40449500D01*
X61679900Y-54550500D01*
X61660993Y-54608691D01*
X61611493Y-54644655D01*
X61580900Y-54649500D01*
X40479900Y-54649500D01*
X40421709Y-54630593D01*
X40385745Y-54581093D01*
X40380900Y-54550500D01*
X40380900Y-47408854D01*
X41091617Y-47408854D01*
X41105446Y-47619849D01*
X41106562Y-47624242D01*
X41106562Y-47624244D01*
X41129137Y-47713132D01*
X41157495Y-47824790D01*
X41159397Y-47828915D01*
X41159397Y-47828916D01*
X41198168Y-47913016D01*
X41246019Y-48016814D01*
X41368055Y-48189491D01*
X41519515Y-48337037D01*
X41523288Y-48339558D01*
X41691549Y-48451987D01*
X41691552Y-48451989D01*
X41695327Y-48454511D01*
X41792122Y-48496097D01*
X41885424Y-48536183D01*
X41885428Y-48536184D01*
X41889603Y-48537978D01*
X41894037Y-48538981D01*
X41894036Y-48538981D01*
X42091410Y-48583643D01*
X42091415Y-48583644D01*
X42095836Y-48584644D01*
X42201478Y-48588795D01*
X42302587Y-48592768D01*
X42302588Y-48592768D01*
X42307120Y-48592946D01*
X42516380Y-48562604D01*
X42520679Y-48561145D01*
X42520682Y-48561144D01*
X42712304Y-48496097D01*
X42716605Y-48494637D01*
X42901092Y-48391319D01*
X43063662Y-48256112D01*
X43198869Y-48093542D01*
X43302187Y-47909055D01*
X43303647Y-47904754D01*
X43368694Y-47713132D01*
X43368695Y-47713129D01*
X43370154Y-47708830D01*
X43400496Y-47499570D01*
X43402079Y-47439100D01*
X43382731Y-47228540D01*
X43325336Y-47025031D01*
X43231815Y-46835390D01*
X43105301Y-46665967D01*
X42950031Y-46522437D01*
X42771204Y-46409605D01*
X42574810Y-46331252D01*
X42367425Y-46290001D01*
X42263249Y-46288637D01*
X42160536Y-46287292D01*
X42160531Y-46287292D01*
X42155996Y-46287233D01*
X42151523Y-46288002D01*
X42151518Y-46288002D01*
X42048251Y-46305747D01*
X41947603Y-46323041D01*
X41749225Y-46396227D01*
X41745326Y-46398546D01*
X41745321Y-46398549D01*
X41571412Y-46502014D01*
X41567506Y-46504338D01*
X41564091Y-46507333D01*
X41564088Y-46507335D01*
X41549627Y-46520017D01*
X41408531Y-46643755D01*
X41277626Y-46809808D01*
X41179173Y-46996936D01*
X41116470Y-47198873D01*
X41091617Y-47408854D01*
X40380900Y-47408854D01*
X40380900Y-45790739D01*
X41096650Y-45790739D01*
X41096996Y-45796585D01*
X41098884Y-45812453D01*
X41102778Y-45826619D01*
X41141420Y-45913614D01*
X41151596Y-45928421D01*
X41217758Y-45994467D01*
X41232581Y-46004617D01*
X41319630Y-46043100D01*
X41333835Y-46046973D01*
X41349230Y-46048768D01*
X41354942Y-46049100D01*
X41855970Y-46049100D01*
X41868655Y-46044978D01*
X41871650Y-46040857D01*
X41871650Y-46033420D01*
X42621650Y-46033420D01*
X42625772Y-46046105D01*
X42629893Y-46049100D01*
X43138289Y-46049100D01*
X43144135Y-46048754D01*
X43160003Y-46046866D01*
X43174169Y-46042972D01*
X43261164Y-46004330D01*
X43275971Y-45994154D01*
X43342017Y-45927992D01*
X43352167Y-45913169D01*
X43390650Y-45826120D01*
X43394523Y-45811915D01*
X43396318Y-45796520D01*
X43396650Y-45790808D01*
X43396650Y-45775739D01*
X58622650Y-45775739D01*
X58622996Y-45781585D01*
X58624884Y-45797453D01*
X58628778Y-45811619D01*
X58667420Y-45898614D01*
X58677596Y-45913421D01*
X58743758Y-45979467D01*
X58758581Y-45989617D01*
X58845630Y-46028100D01*
X58859835Y-46031973D01*
X58875230Y-46033768D01*
X58880942Y-46034100D01*
X59381970Y-46034100D01*
X59394655Y-46029978D01*
X59397650Y-46025857D01*
X59397650Y-46018420D01*
X60147650Y-46018420D01*
X60151772Y-46031105D01*
X60155893Y-46034100D01*
X60664289Y-46034100D01*
X60670135Y-46033754D01*
X60686003Y-46031866D01*
X60700169Y-46027972D01*
X60787164Y-45989330D01*
X60801971Y-45979154D01*
X60868017Y-45912992D01*
X60878167Y-45898169D01*
X60916650Y-45811120D01*
X60920523Y-45796915D01*
X60922318Y-45781520D01*
X60922650Y-45775808D01*
X60922650Y-45274780D01*
X60918528Y-45262095D01*
X60914407Y-45259100D01*
X60163330Y-45259100D01*
X60150645Y-45263222D01*
X60147650Y-45267343D01*
X60147650Y-46018420D01*
X59397650Y-46018420D01*
X59397650Y-45274780D01*
X59393528Y-45262095D01*
X59389407Y-45259100D01*
X58638330Y-45259100D01*
X58625645Y-45263222D01*
X58622650Y-45267343D01*
X58622650Y-45775739D01*
X43396650Y-45775739D01*
X43396650Y-45289780D01*
X43392528Y-45277095D01*
X43388407Y-45274100D01*
X42637330Y-45274100D01*
X42624645Y-45278222D01*
X42621650Y-45282343D01*
X42621650Y-46033420D01*
X41871650Y-46033420D01*
X41871650Y-45289780D01*
X41867528Y-45277095D01*
X41863407Y-45274100D01*
X41112330Y-45274100D01*
X41099645Y-45278222D01*
X41096650Y-45282343D01*
X41096650Y-45790739D01*
X40380900Y-45790739D01*
X40380900Y-44508420D01*
X41096650Y-44508420D01*
X41100772Y-44521105D01*
X41104893Y-44524100D01*
X41855970Y-44524100D01*
X41868655Y-44519978D01*
X41871650Y-44515857D01*
X41871650Y-44508420D01*
X42621650Y-44508420D01*
X42625772Y-44521105D01*
X42629893Y-44524100D01*
X43380970Y-44524100D01*
X43393655Y-44519978D01*
X43396650Y-44515857D01*
X43396650Y-44493420D01*
X58622650Y-44493420D01*
X58626772Y-44506105D01*
X58630893Y-44509100D01*
X59381970Y-44509100D01*
X59394655Y-44504978D01*
X59397650Y-44500857D01*
X59397650Y-44493420D01*
X60147650Y-44493420D01*
X60151772Y-44506105D01*
X60155893Y-44509100D01*
X60906970Y-44509100D01*
X60919655Y-44504978D01*
X60922650Y-44500857D01*
X60922650Y-43992461D01*
X60922304Y-43986615D01*
X60920416Y-43970747D01*
X60916522Y-43956581D01*
X60877880Y-43869586D01*
X60867704Y-43854779D01*
X60801542Y-43788733D01*
X60786719Y-43778583D01*
X60699670Y-43740100D01*
X60685465Y-43736227D01*
X60670070Y-43734432D01*
X60664358Y-43734100D01*
X60163330Y-43734100D01*
X60150645Y-43738222D01*
X60147650Y-43742343D01*
X60147650Y-44493420D01*
X59397650Y-44493420D01*
X59397650Y-43749780D01*
X59393528Y-43737095D01*
X59389407Y-43734100D01*
X58881011Y-43734100D01*
X58875165Y-43734446D01*
X58859297Y-43736334D01*
X58845131Y-43740228D01*
X58758136Y-43778870D01*
X58743329Y-43789046D01*
X58677283Y-43855208D01*
X58667133Y-43870031D01*
X58628650Y-43957080D01*
X58624777Y-43971285D01*
X58622982Y-43986680D01*
X58622650Y-43992392D01*
X58622650Y-44493420D01*
X43396650Y-44493420D01*
X43396650Y-44007461D01*
X43396304Y-44001615D01*
X43394416Y-43985747D01*
X43390522Y-43971581D01*
X43351880Y-43884586D01*
X43341704Y-43869779D01*
X43275542Y-43803733D01*
X43260719Y-43793583D01*
X43173670Y-43755100D01*
X43159465Y-43751227D01*
X43144070Y-43749432D01*
X43138358Y-43749100D01*
X42637330Y-43749100D01*
X42624645Y-43753222D01*
X42621650Y-43757343D01*
X42621650Y-44508420D01*
X41871650Y-44508420D01*
X41871650Y-43764780D01*
X41867528Y-43752095D01*
X41863407Y-43749100D01*
X41355011Y-43749100D01*
X41349165Y-43749446D01*
X41333297Y-43751334D01*
X41319131Y-43755228D01*
X41232136Y-43793870D01*
X41217329Y-43804046D01*
X41151283Y-43870208D01*
X41141133Y-43885031D01*
X41102650Y-43972080D01*
X41098777Y-43986285D01*
X41096982Y-44001680D01*
X41096650Y-44007392D01*
X41096650Y-44508420D01*
X40380900Y-44508420D01*
X40380900Y-42328854D01*
X41091617Y-42328854D01*
X41105446Y-42539849D01*
X41106562Y-42544242D01*
X41106562Y-42544244D01*
X41129137Y-42633132D01*
X41157495Y-42744790D01*
X41159397Y-42748915D01*
X41159397Y-42748916D01*
X41198168Y-42833016D01*
X41246019Y-42936814D01*
X41368055Y-43109491D01*
X41519515Y-43257037D01*
X41523288Y-43259558D01*
X41691549Y-43371987D01*
X41691552Y-43371989D01*
X41695327Y-43374511D01*
X41792122Y-43416097D01*
X41885424Y-43456183D01*
X41885428Y-43456184D01*
X41889603Y-43457978D01*
X41894037Y-43458981D01*
X41894036Y-43458981D01*
X42091410Y-43503643D01*
X42091415Y-43503644D01*
X42095836Y-43504644D01*
X42201478Y-43508795D01*
X42302587Y-43512768D01*
X42302588Y-43512768D01*
X42307120Y-43512946D01*
X42516380Y-43482604D01*
X42520679Y-43481145D01*
X42520682Y-43481144D01*
X42712304Y-43416097D01*
X42716605Y-43414637D01*
X42740783Y-43401097D01*
X42897131Y-43313537D01*
X42901092Y-43311319D01*
X43063662Y-43176112D01*
X43198869Y-43013542D01*
X43302187Y-42829055D01*
X43308739Y-42809754D01*
X43368694Y-42633132D01*
X43368695Y-42633129D01*
X43370154Y-42628830D01*
X43400496Y-42419570D01*
X43400966Y-42401645D01*
X43402003Y-42362014D01*
X43402003Y-42362009D01*
X43402079Y-42359100D01*
X43400969Y-42347014D01*
X43397922Y-42313854D01*
X58617617Y-42313854D01*
X58631446Y-42524849D01*
X58632562Y-42529242D01*
X58632562Y-42529244D01*
X58655137Y-42618132D01*
X58683495Y-42729790D01*
X58685397Y-42733915D01*
X58685397Y-42733916D01*
X58729257Y-42829055D01*
X58772019Y-42921814D01*
X58894055Y-43094491D01*
X59045515Y-43242037D01*
X59049288Y-43244558D01*
X59217549Y-43356987D01*
X59217552Y-43356989D01*
X59221327Y-43359511D01*
X59318122Y-43401097D01*
X59411424Y-43441183D01*
X59411428Y-43441184D01*
X59415603Y-43442978D01*
X59420037Y-43443981D01*
X59420036Y-43443981D01*
X59617410Y-43488643D01*
X59617415Y-43488644D01*
X59621836Y-43489644D01*
X59727478Y-43493795D01*
X59828587Y-43497768D01*
X59828588Y-43497768D01*
X59833120Y-43497946D01*
X60042380Y-43467604D01*
X60046679Y-43466145D01*
X60046682Y-43466144D01*
X60238304Y-43401097D01*
X60242605Y-43399637D01*
X60291978Y-43371987D01*
X60396347Y-43313537D01*
X60427092Y-43296319D01*
X60589662Y-43161112D01*
X60724869Y-42998542D01*
X60776528Y-42906298D01*
X60825969Y-42818016D01*
X60825970Y-42818014D01*
X60828187Y-42814055D01*
X60851699Y-42744790D01*
X60894694Y-42618132D01*
X60894695Y-42618129D01*
X60896154Y-42613830D01*
X60926496Y-42404570D01*
X60927687Y-42359100D01*
X60928003Y-42347014D01*
X60928003Y-42347009D01*
X60928079Y-42344100D01*
X60926265Y-42324350D01*
X60917843Y-42232701D01*
X60908731Y-42133540D01*
X60856800Y-41949406D01*
X60852570Y-41934406D01*
X60852570Y-41934405D01*
X60851336Y-41930031D01*
X60757815Y-41740390D01*
X60631301Y-41570967D01*
X60476031Y-41427437D01*
X60471120Y-41424338D01*
X60301041Y-41317026D01*
X60297204Y-41314605D01*
X60100810Y-41236252D01*
X59893425Y-41195001D01*
X59789249Y-41193637D01*
X59686536Y-41192292D01*
X59686531Y-41192292D01*
X59681996Y-41192233D01*
X59677523Y-41193002D01*
X59677518Y-41193002D01*
X59578934Y-41209942D01*
X59473603Y-41228041D01*
X59275225Y-41301227D01*
X59271326Y-41303546D01*
X59271321Y-41303549D01*
X59097412Y-41407014D01*
X59093506Y-41409338D01*
X59090091Y-41412333D01*
X59090088Y-41412335D01*
X58986912Y-41502818D01*
X58934531Y-41548755D01*
X58803626Y-41714808D01*
X58705173Y-41901936D01*
X58642470Y-42103873D01*
X58617617Y-42313854D01*
X43397922Y-42313854D01*
X43383146Y-42153060D01*
X43382731Y-42148540D01*
X43325336Y-41945031D01*
X43231815Y-41755390D01*
X43105301Y-41585967D01*
X42950031Y-41442437D01*
X42931138Y-41430516D01*
X42775041Y-41332026D01*
X42771204Y-41329605D01*
X42574810Y-41251252D01*
X42367425Y-41210001D01*
X42263249Y-41208637D01*
X42160536Y-41207292D01*
X42160531Y-41207292D01*
X42155996Y-41207233D01*
X42151523Y-41208002D01*
X42151518Y-41208002D01*
X42048251Y-41225747D01*
X41947603Y-41243041D01*
X41749225Y-41316227D01*
X41745326Y-41318546D01*
X41745321Y-41318549D01*
X41587681Y-41412335D01*
X41567506Y-41424338D01*
X41564091Y-41427333D01*
X41564088Y-41427335D01*
X41563972Y-41427437D01*
X41408531Y-41563755D01*
X41277626Y-41729808D01*
X41275512Y-41733826D01*
X41272059Y-41740390D01*
X41179173Y-41916936D01*
X41171715Y-41940955D01*
X41121128Y-42103873D01*
X41116470Y-42118873D01*
X41115936Y-42123383D01*
X41115936Y-42123384D01*
X41115252Y-42129168D01*
X41091617Y-42328854D01*
X40380900Y-42328854D01*
X40380900Y-40449500D01*
X40399807Y-40391309D01*
X40449307Y-40355345D01*
X40479900Y-40350500D01*
X61580900Y-40350500D01*
X61639091Y-40369407D01*
G37*
%TD.AperFunction*%
%TD*%
M02*
