%TF.GenerationSoftware,KiCad,Pcbnew,(6.0.4)*%
%TF.CreationDate,2022-07-15T22:25:20+03:00*%
%TF.ProjectId,Basic-150-MHz-Telemetry-Transmitter-SMD,42617369-632d-4313-9530-2d4d487a2d54,rev?*%
%TF.SameCoordinates,Original*%
%TF.FileFunction,Legend,Bot*%
%TF.FilePolarity,Positive*%
%FSLAX46Y46*%
G04 Gerber Fmt 4.6, Leading zero omitted, Abs format (unit mm)*
G04 Created by KiCad (PCBNEW (6.0.4)) date 2022-07-15 22:25:20*
%MOMM*%
%LPD*%
G01*
G04 APERTURE LIST*
%ADD10C,0.300000*%
%ADD11R,1.700000X1.700000*%
%ADD12O,1.700000X1.700000*%
G04 APERTURE END LIST*
D10*
%TO.C,G\u002A\u002A\u002A*%
X59762571Y-50317400D02*
X59907714Y-50244828D01*
X60125428Y-50244828D01*
X60343142Y-50317400D01*
X60488285Y-50462542D01*
X60560857Y-50607685D01*
X60633428Y-50897971D01*
X60633428Y-51115685D01*
X60560857Y-51405971D01*
X60488285Y-51551114D01*
X60343142Y-51696257D01*
X60125428Y-51768828D01*
X59980285Y-51768828D01*
X59762571Y-51696257D01*
X59690000Y-51623685D01*
X59690000Y-51115685D01*
X59980285Y-51115685D01*
X58819142Y-50244828D02*
X58819142Y-50607685D01*
X59182000Y-50462542D02*
X58819142Y-50607685D01*
X58456285Y-50462542D01*
X59036857Y-50897971D02*
X58819142Y-50607685D01*
X58601428Y-50897971D01*
X57658000Y-50244828D02*
X57658000Y-50607685D01*
X58020857Y-50462542D02*
X57658000Y-50607685D01*
X57295142Y-50462542D01*
X57875714Y-50897971D02*
X57658000Y-50607685D01*
X57440285Y-50897971D01*
X56496857Y-50244828D02*
X56496857Y-50607685D01*
X56859714Y-50462542D02*
X56496857Y-50607685D01*
X56134000Y-50462542D01*
X56714571Y-50897971D02*
X56496857Y-50607685D01*
X56279142Y-50897971D01*
G36*
X59627428Y-53420932D02*
G01*
X59627428Y-53259616D01*
X59788745Y-53259616D01*
X60595327Y-53259616D01*
X60595327Y-52453034D01*
X59788745Y-52453034D01*
X59788745Y-53259616D01*
X59627428Y-53259616D01*
X59627428Y-52291718D01*
X60756643Y-52291718D01*
X60756643Y-53420932D01*
X59627428Y-53420932D01*
G37*
G36*
X58820846Y-53420932D02*
G01*
X58659530Y-53420932D01*
X58659530Y-53259616D01*
X58820846Y-53259616D01*
X58820846Y-53420932D01*
G37*
G36*
X58336897Y-53420932D02*
G01*
X58175581Y-53420932D01*
X58175581Y-53259616D01*
X58336897Y-53259616D01*
X58336897Y-53420932D01*
G37*
G36*
X56401100Y-52936983D02*
G01*
X56239784Y-52936983D01*
X56239784Y-53098300D01*
X56401100Y-53098300D01*
X56401100Y-53420932D01*
X56239784Y-53420932D01*
X56239784Y-53098300D01*
X56078468Y-53098300D01*
X56078468Y-52775667D01*
X56401100Y-52775667D01*
X56401100Y-52936983D01*
G37*
G36*
X56562417Y-52936983D02*
G01*
X56562417Y-53098300D01*
X56401100Y-53098300D01*
X56401100Y-52936983D01*
X56562417Y-52936983D01*
G37*
G36*
X58498214Y-53259616D02*
G01*
X58336897Y-53259616D01*
X58336897Y-53098300D01*
X58498214Y-53098300D01*
X58498214Y-53259616D01*
G37*
G36*
X56239784Y-52614350D02*
G01*
X56078468Y-52614350D01*
X56078468Y-52453034D01*
X56239784Y-52453034D01*
X56239784Y-52614350D01*
G37*
G36*
X60272694Y-51807768D02*
G01*
X60434010Y-51807768D01*
X60434010Y-51969085D01*
X60595327Y-51969085D01*
X60595327Y-52130401D01*
X60272694Y-52130401D01*
X60272694Y-51969085D01*
X60111378Y-51969085D01*
X60111378Y-52130401D01*
X59627428Y-52130401D01*
X59627428Y-51969085D01*
X59950061Y-51969085D01*
X59950061Y-51807768D01*
X59627428Y-51807768D01*
X59627428Y-51646452D01*
X60272694Y-51646452D01*
X60272694Y-51807768D01*
G37*
G36*
X59627428Y-51969085D02*
G01*
X59466112Y-51969085D01*
X59466112Y-51807768D01*
X59627428Y-51807768D01*
X59627428Y-51969085D01*
G37*
G36*
X60434010Y-51646452D02*
G01*
X60272694Y-51646452D01*
X60272694Y-51485136D01*
X60434010Y-51485136D01*
X60434010Y-51646452D01*
G37*
G36*
X60756643Y-51162503D02*
G01*
X60756643Y-51485136D01*
X60434010Y-51485136D01*
X60434010Y-51323819D01*
X60272694Y-51323819D01*
X60272694Y-51001186D01*
X60434010Y-51001186D01*
X60434010Y-50678554D01*
X60272694Y-50678554D01*
X60272694Y-51001186D01*
X60111378Y-51001186D01*
X60111378Y-50839870D01*
X59627428Y-50839870D01*
X59627428Y-50678554D01*
X59950061Y-50678554D01*
X60111378Y-50678554D01*
X60272694Y-50678554D01*
X60272694Y-50517237D01*
X60434010Y-50517237D01*
X60434010Y-50355921D01*
X60111378Y-50355921D01*
X60111378Y-50678554D01*
X59950061Y-50678554D01*
X59950061Y-50194604D01*
X60111378Y-50194604D01*
X60111378Y-50033288D01*
X60756643Y-50033288D01*
X60756643Y-51001186D01*
X60595327Y-51001186D01*
X60595327Y-51162503D01*
X60756643Y-51162503D01*
G37*
G36*
X59627428Y-50678554D02*
G01*
X59466112Y-50678554D01*
X59466112Y-50517237D01*
X59627428Y-50517237D01*
X59627428Y-50678554D01*
G37*
G36*
X59788745Y-50517237D02*
G01*
X59627428Y-50517237D01*
X59627428Y-50355921D01*
X59788745Y-50355921D01*
X59788745Y-50517237D01*
G37*
G36*
X59466112Y-50194604D02*
G01*
X59627428Y-50194604D01*
X59627428Y-50355921D01*
X59304796Y-50355921D01*
X59304796Y-50033288D01*
X59466112Y-50033288D01*
X59466112Y-50194604D01*
G37*
G36*
X59788745Y-50194604D02*
G01*
X59627428Y-50194604D01*
X59627428Y-50033288D01*
X59788745Y-50033288D01*
X59788745Y-50194604D01*
G37*
G36*
X56723733Y-53259616D02*
G01*
X56562417Y-53259616D01*
X56562417Y-53098300D01*
X56723733Y-53098300D01*
X56723733Y-53259616D01*
G37*
G36*
X59466112Y-49871972D02*
G01*
X59304796Y-49871972D01*
X59304796Y-49710655D01*
X59466112Y-49710655D01*
X59466112Y-49871972D01*
G37*
G36*
X59466112Y-53420932D02*
G01*
X59304796Y-53420932D01*
X59304796Y-53259616D01*
X59143479Y-53259616D01*
X59143479Y-53098300D01*
X58982163Y-53098300D01*
X58982163Y-53259616D01*
X59143479Y-53259616D01*
X59143479Y-53420932D01*
X58982163Y-53420932D01*
X58982163Y-53259616D01*
X58820846Y-53259616D01*
X58820846Y-53098300D01*
X58982163Y-53098300D01*
X58982163Y-52775667D01*
X59466112Y-52775667D01*
X59466112Y-53420932D01*
G37*
G36*
X58820846Y-53098300D02*
G01*
X58659530Y-53098300D01*
X58659530Y-52614350D01*
X58820846Y-52614350D01*
X58820846Y-53098300D01*
G37*
G36*
X57852948Y-49871972D02*
G01*
X58014264Y-49871972D01*
X58014264Y-50194604D01*
X57691632Y-50194604D01*
X57691632Y-50355921D01*
X57368999Y-50355921D01*
X57368999Y-50194604D01*
X57207682Y-50194604D01*
X57207682Y-50355921D01*
X57046366Y-50355921D01*
X57046366Y-50517237D01*
X56885050Y-50517237D01*
X56885050Y-50678554D01*
X56723733Y-50678554D01*
X56723733Y-50839870D01*
X56562417Y-50839870D01*
X56562417Y-51162503D01*
X56401100Y-51162503D01*
X56401100Y-51485136D01*
X56562417Y-51485136D01*
X56562417Y-51323819D01*
X56723733Y-51323819D01*
X56723733Y-51162503D01*
X57046366Y-51162503D01*
X57046366Y-50839870D01*
X57207682Y-50839870D01*
X57207682Y-51162503D01*
X57368999Y-51162503D01*
X57368999Y-51001186D01*
X57530315Y-51001186D01*
X57530315Y-50517237D01*
X57691632Y-50517237D01*
X57691632Y-51323819D01*
X57852948Y-51323819D01*
X57852948Y-51485136D01*
X57368999Y-51485136D01*
X57368999Y-51323819D01*
X56885050Y-51323819D01*
X56885050Y-51485136D01*
X56723733Y-51485136D01*
X56723733Y-51646452D01*
X56562417Y-51646452D01*
X56562417Y-51969085D01*
X56723733Y-51969085D01*
X56723733Y-51646452D01*
X56885050Y-51646452D01*
X56885050Y-51485136D01*
X57046366Y-51485136D01*
X57046366Y-51646452D01*
X57207682Y-51646452D01*
X57207682Y-51969085D01*
X57530315Y-51969085D01*
X57530315Y-52291718D01*
X57691632Y-52291718D01*
X57691632Y-52130401D01*
X57852948Y-52130401D01*
X57852948Y-51807768D01*
X58014264Y-51807768D01*
X58014264Y-52130401D01*
X58175581Y-52130401D01*
X58175581Y-52614350D01*
X58014264Y-52614350D01*
X58014264Y-52453034D01*
X57852948Y-52453034D01*
X57852948Y-52614350D01*
X58014264Y-52614350D01*
X58014264Y-52775667D01*
X58336897Y-52775667D01*
X58336897Y-52453034D01*
X58659530Y-52453034D01*
X58659530Y-52291718D01*
X58820846Y-52291718D01*
X58820846Y-52130401D01*
X58982163Y-52130401D01*
X58982163Y-51969085D01*
X58659530Y-51969085D01*
X58659530Y-51807768D01*
X58498214Y-51807768D01*
X58498214Y-51485136D01*
X58820846Y-51485136D01*
X58820846Y-51323819D01*
X58982163Y-51323819D01*
X58982163Y-51162503D01*
X59143479Y-51162503D01*
X59143479Y-50839870D01*
X58982163Y-50839870D01*
X58982163Y-50517237D01*
X58820846Y-50517237D01*
X58820846Y-50194604D01*
X58982163Y-50194604D01*
X58982163Y-50355921D01*
X59304796Y-50355921D01*
X59304796Y-51162503D01*
X59466112Y-51162503D01*
X59466112Y-51485136D01*
X59304796Y-51485136D01*
X59304796Y-51323819D01*
X59143479Y-51323819D01*
X59143479Y-51485136D01*
X58982163Y-51485136D01*
X58982163Y-51646452D01*
X58820846Y-51646452D01*
X58820846Y-51807768D01*
X58982163Y-51807768D01*
X58982163Y-51969085D01*
X59143479Y-51969085D01*
X59143479Y-52130401D01*
X59304796Y-52130401D01*
X59304796Y-51969085D01*
X59466112Y-51969085D01*
X59466112Y-52291718D01*
X59304796Y-52291718D01*
X59304796Y-52453034D01*
X58659530Y-52453034D01*
X58659530Y-52614350D01*
X58498214Y-52614350D01*
X58498214Y-52775667D01*
X58336897Y-52775667D01*
X58336897Y-52936983D01*
X58175581Y-52936983D01*
X58175581Y-53259616D01*
X58014264Y-53259616D01*
X58014264Y-53098300D01*
X57852948Y-53098300D01*
X57852948Y-52936983D01*
X57530315Y-52936983D01*
X57530315Y-52775667D01*
X57852948Y-52775667D01*
X57852948Y-52614350D01*
X57691632Y-52614350D01*
X57691632Y-52453034D01*
X57530315Y-52453034D01*
X57530315Y-52775667D01*
X57368999Y-52775667D01*
X57368999Y-52936983D01*
X57530315Y-52936983D01*
X57530315Y-53259616D01*
X57852948Y-53259616D01*
X57852948Y-53420932D01*
X57046366Y-53420932D01*
X57046366Y-53259616D01*
X57207682Y-53259616D01*
X57207682Y-53098300D01*
X57368999Y-53098300D01*
X57368999Y-52936983D01*
X57207682Y-52936983D01*
X57207682Y-52775667D01*
X57046366Y-52775667D01*
X57046366Y-53259616D01*
X56885050Y-53259616D01*
X56885050Y-52936983D01*
X56562417Y-52936983D01*
X56562417Y-52775667D01*
X56723733Y-52775667D01*
X56723733Y-52614350D01*
X56885050Y-52614350D01*
X57368999Y-52614350D01*
X57368999Y-52130401D01*
X56885050Y-52130401D01*
X56885050Y-52614350D01*
X56723733Y-52614350D01*
X56562417Y-52614350D01*
X56562417Y-52775667D01*
X56401100Y-52775667D01*
X56401100Y-52614350D01*
X56562417Y-52614350D01*
X56562417Y-52291718D01*
X56401100Y-52291718D01*
X56401100Y-52453034D01*
X56239784Y-52453034D01*
X56239784Y-52291718D01*
X56078468Y-52291718D01*
X56078468Y-52130401D01*
X56401100Y-52130401D01*
X56401100Y-51646452D01*
X56239784Y-51646452D01*
X56239784Y-51162503D01*
X56078468Y-51162503D01*
X56078468Y-50839870D01*
X56401100Y-50839870D01*
X56401100Y-50678554D01*
X56723733Y-50678554D01*
X56723733Y-50517237D01*
X56885050Y-50517237D01*
X56885050Y-50355921D01*
X56723733Y-50355921D01*
X56723733Y-50194604D01*
X56401100Y-50194604D01*
X56401100Y-50033288D01*
X56885050Y-50033288D01*
X56885050Y-50194604D01*
X57207682Y-50194604D01*
X57207682Y-50033288D01*
X57368999Y-50033288D01*
X57368999Y-50194604D01*
X57691632Y-50194604D01*
X57691632Y-50033288D01*
X57852948Y-50033288D01*
X57852948Y-49871972D01*
X57691632Y-49871972D01*
X57691632Y-49710655D01*
X57852948Y-49710655D01*
X57852948Y-49871972D01*
G37*
G36*
X57852948Y-49226706D02*
G01*
X58014264Y-49226706D01*
X58014264Y-49710655D01*
X57852948Y-49710655D01*
X57852948Y-49549339D01*
X57691632Y-49549339D01*
X57691632Y-49710655D01*
X57530315Y-49710655D01*
X57530315Y-49871972D01*
X57368999Y-49871972D01*
X57368999Y-49549339D01*
X57530315Y-49549339D01*
X57530315Y-49226706D01*
X57368999Y-49226706D01*
X57368999Y-49065390D01*
X57691632Y-49065390D01*
X57691632Y-48904073D01*
X57368999Y-48904073D01*
X57368999Y-48742757D01*
X58336897Y-48742757D01*
X58336897Y-48904073D01*
X58820846Y-48904073D01*
X58820846Y-48742757D01*
X59466112Y-48742757D01*
X59466112Y-48904073D01*
X59304796Y-48904073D01*
X59304796Y-49065390D01*
X59466112Y-49065390D01*
X59466112Y-49549339D01*
X59304796Y-49549339D01*
X59304796Y-49065390D01*
X59143479Y-49065390D01*
X59143479Y-48904073D01*
X58982163Y-48904073D01*
X58982163Y-49065390D01*
X59143479Y-49065390D01*
X59143479Y-49549339D01*
X59304796Y-49549339D01*
X59304796Y-49710655D01*
X59143479Y-49710655D01*
X59143479Y-50194604D01*
X58982163Y-50194604D01*
X58982163Y-50033288D01*
X58820846Y-50033288D01*
X58820846Y-50194604D01*
X58659530Y-50194604D01*
X58659530Y-50678554D01*
X58498214Y-50678554D01*
X58498214Y-50194604D01*
X58336897Y-50194604D01*
X58336897Y-50033288D01*
X58659530Y-50033288D01*
X58659530Y-49710655D01*
X58820846Y-49710655D01*
X58820846Y-49871972D01*
X58982163Y-49871972D01*
X58982163Y-49388022D01*
X58820846Y-49388022D01*
X58820846Y-49549339D01*
X58659530Y-49549339D01*
X58659530Y-49226706D01*
X58498214Y-49226706D01*
X58498214Y-49549339D01*
X58175581Y-49549339D01*
X58175581Y-49388022D01*
X58336897Y-49388022D01*
X58336897Y-49226706D01*
X58175581Y-49226706D01*
X58175581Y-49065390D01*
X58336897Y-49065390D01*
X58336897Y-48904073D01*
X58175581Y-48904073D01*
X58175581Y-49065390D01*
X58014264Y-49065390D01*
X58014264Y-48904073D01*
X57852948Y-48904073D01*
X57852948Y-49226706D01*
X57691632Y-49226706D01*
X57691632Y-49388022D01*
X57852948Y-49388022D01*
X57852948Y-49226706D01*
G37*
G36*
X60756643Y-51807768D02*
G01*
X60595327Y-51807768D01*
X60595327Y-51646452D01*
X60756643Y-51646452D01*
X60756643Y-51807768D01*
G37*
G36*
X56239784Y-50678554D02*
G01*
X56078468Y-50678554D01*
X56078468Y-50517237D01*
X56239784Y-50517237D01*
X56239784Y-50678554D01*
G37*
G36*
X56562417Y-50517237D02*
G01*
X56239784Y-50517237D01*
X56239784Y-50355921D01*
X56562417Y-50355921D01*
X56562417Y-50517237D01*
G37*
G36*
X56239784Y-50355921D02*
G01*
X56078468Y-50355921D01*
X56078468Y-50033288D01*
X56239784Y-50033288D01*
X56239784Y-50355921D01*
G37*
G36*
X59627428Y-49871972D02*
G01*
X59627428Y-49710655D01*
X59788745Y-49710655D01*
X60595327Y-49710655D01*
X60595327Y-48904073D01*
X59788745Y-48904073D01*
X59788745Y-49710655D01*
X59627428Y-49710655D01*
X59627428Y-48742757D01*
X60756643Y-48742757D01*
X60756643Y-49871972D01*
X59627428Y-49871972D01*
G37*
G36*
X56078468Y-49871972D02*
G01*
X56078468Y-49710655D01*
X56239784Y-49710655D01*
X57046366Y-49710655D01*
X57046366Y-48904073D01*
X56239784Y-48904073D01*
X56239784Y-49710655D01*
X56078468Y-49710655D01*
X56078468Y-48742757D01*
X57207682Y-48742757D01*
X57207682Y-49871972D01*
X56078468Y-49871972D01*
G37*
G36*
X60434010Y-53098300D02*
G01*
X59950061Y-53098300D01*
X59950061Y-52614350D01*
X60434010Y-52614350D01*
X60434010Y-53098300D01*
G37*
G36*
X58498214Y-51969085D02*
G01*
X58659530Y-51969085D01*
X58659530Y-52130401D01*
X58498214Y-52130401D01*
X58498214Y-52291718D01*
X58336897Y-52291718D01*
X58336897Y-51807768D01*
X58498214Y-51807768D01*
X58498214Y-51969085D01*
G37*
G36*
X58336897Y-51807768D02*
G01*
X58175581Y-51807768D01*
X58175581Y-51485136D01*
X58336897Y-51485136D01*
X58336897Y-51807768D01*
G37*
G36*
X59466112Y-51807768D02*
G01*
X59304796Y-51807768D01*
X59304796Y-51969085D01*
X59143479Y-51969085D01*
X59143479Y-51807768D01*
X58982163Y-51807768D01*
X58982163Y-51646452D01*
X59466112Y-51646452D01*
X59466112Y-51807768D01*
G37*
G36*
X57530315Y-51807768D02*
G01*
X57368999Y-51807768D01*
X57368999Y-51646452D01*
X57530315Y-51646452D01*
X57530315Y-51807768D01*
G37*
G36*
X58014264Y-51646452D02*
G01*
X57852948Y-51646452D01*
X57852948Y-51485136D01*
X58014264Y-51485136D01*
X58014264Y-51646452D01*
G37*
G36*
X59950061Y-51485136D02*
G01*
X59627428Y-51485136D01*
X59627428Y-51323819D01*
X59788745Y-51323819D01*
X59788745Y-51162503D01*
X59950061Y-51162503D01*
X59950061Y-51485136D01*
G37*
G36*
X59627428Y-51001186D02*
G01*
X59788745Y-51001186D01*
X59788745Y-51162503D01*
X59466112Y-51162503D01*
X59466112Y-50839870D01*
X59627428Y-50839870D01*
X59627428Y-51001186D01*
G37*
G36*
X58820846Y-50839870D02*
G01*
X58820846Y-51323819D01*
X58659530Y-51323819D01*
X58659530Y-51001186D01*
X58498214Y-51001186D01*
X58498214Y-50839870D01*
X58820846Y-50839870D01*
G37*
G36*
X58336897Y-50678554D02*
G01*
X58498214Y-50678554D01*
X58498214Y-50839870D01*
X58336897Y-50839870D01*
X58336897Y-51001186D01*
X58498214Y-51001186D01*
X58498214Y-51323819D01*
X58014264Y-51323819D01*
X58014264Y-51162503D01*
X58336897Y-51162503D01*
X58336897Y-51001186D01*
X57852948Y-51001186D01*
X57852948Y-50678554D01*
X58014264Y-50678554D01*
X58014264Y-50517237D01*
X58336897Y-50517237D01*
X58336897Y-50678554D01*
G37*
G36*
X58014264Y-50517237D02*
G01*
X57691632Y-50517237D01*
X57691632Y-50355921D01*
X58014264Y-50355921D01*
X58014264Y-50517237D01*
G37*
G36*
X57368999Y-50678554D02*
G01*
X57046366Y-50678554D01*
X57046366Y-50517237D01*
X57207682Y-50517237D01*
X57207682Y-50355921D01*
X57368999Y-50355921D01*
X57368999Y-50678554D01*
G37*
G36*
X58498214Y-49871972D02*
G01*
X58336897Y-49871972D01*
X58336897Y-49710655D01*
X58498214Y-49710655D01*
X58498214Y-49871972D01*
G37*
G36*
X58659530Y-49710655D02*
G01*
X58498214Y-49710655D01*
X58498214Y-49549339D01*
X58659530Y-49549339D01*
X58659530Y-49710655D01*
G37*
G36*
X58175581Y-49871972D02*
G01*
X58014264Y-49871972D01*
X58014264Y-49710655D01*
X58175581Y-49710655D01*
X58175581Y-49871972D01*
G37*
G36*
X57207682Y-52453034D02*
G01*
X57046366Y-52453034D01*
X57046366Y-52291718D01*
X57207682Y-52291718D01*
X57207682Y-52453034D01*
G37*
G36*
X60434010Y-49549339D02*
G01*
X59950061Y-49549339D01*
X59950061Y-49065390D01*
X60434010Y-49065390D01*
X60434010Y-49549339D01*
G37*
G36*
X56885050Y-49549339D02*
G01*
X56401100Y-49549339D01*
X56401100Y-49065390D01*
X56885050Y-49065390D01*
X56885050Y-49549339D01*
G37*
%TD*%
%LPC*%
D11*
%TO.C,J1*%
X42246650Y-42359100D03*
D12*
X42246650Y-44899100D03*
X42246650Y-47439100D03*
%TD*%
D11*
%TO.C,J2*%
X59772650Y-44884100D03*
D12*
X59772650Y-42344100D03*
%TD*%
M02*
