%TF.GenerationSoftware,KiCad,Pcbnew,(6.0.7)*%
%TF.CreationDate,2022-10-05T07:55:04+03:00*%
%TF.ProjectId,Basic-150-MHz-Telemetry-Transmitter-SMD,42617369-632d-4313-9530-2d4d487a2d54,rev?*%
%TF.SameCoordinates,Original*%
%TF.FileFunction,Legend,Top*%
%TF.FilePolarity,Positive*%
%FSLAX46Y46*%
G04 Gerber Fmt 4.6, Leading zero omitted, Abs format (unit mm)*
G04 Created by KiCad (PCBNEW (6.0.7)) date 2022-10-05 07:55:04*
%MOMM*%
%LPD*%
G01*
G04 APERTURE LIST*
G04 Aperture macros list*
%AMRoundRect*
0 Rectangle with rounded corners*
0 $1 Rounding radius*
0 $2 $3 $4 $5 $6 $7 $8 $9 X,Y pos of 4 corners*
0 Add a 4 corners polygon primitive as box body*
4,1,4,$2,$3,$4,$5,$6,$7,$8,$9,$2,$3,0*
0 Add four circle primitives for the rounded corners*
1,1,$1+$1,$2,$3*
1,1,$1+$1,$4,$5*
1,1,$1+$1,$6,$7*
1,1,$1+$1,$8,$9*
0 Add four rect primitives between the rounded corners*
20,1,$1+$1,$2,$3,$4,$5,0*
20,1,$1+$1,$4,$5,$6,$7,0*
20,1,$1+$1,$6,$7,$8,$9,0*
20,1,$1+$1,$8,$9,$2,$3,0*%
G04 Aperture macros list end*
%ADD10C,0.150000*%
%ADD11C,0.120000*%
%ADD12C,0.010000*%
%ADD13R,2.100000X1.800000*%
%ADD14RoundRect,0.250000X-0.475000X0.337500X-0.475000X-0.337500X0.475000X-0.337500X0.475000X0.337500X0*%
%ADD15RoundRect,0.250000X-0.325000X-0.450000X0.325000X-0.450000X0.325000X0.450000X-0.325000X0.450000X0*%
%ADD16RoundRect,0.250000X-0.337500X-0.475000X0.337500X-0.475000X0.337500X0.475000X-0.337500X0.475000X0*%
%ADD17RoundRect,0.150000X0.150000X-0.587500X0.150000X0.587500X-0.150000X0.587500X-0.150000X-0.587500X0*%
%ADD18C,1.700000*%
%ADD19R,1.700000X1.700000*%
%ADD20O,1.700000X1.700000*%
%ADD21RoundRect,0.250000X0.337500X0.475000X-0.337500X0.475000X-0.337500X-0.475000X0.337500X-0.475000X0*%
%ADD22RoundRect,0.250000X0.475000X-0.337500X0.475000X0.337500X-0.475000X0.337500X-0.475000X-0.337500X0*%
G04 APERTURE END LIST*
D10*
%TO.C,Y1*%
X54546659Y-52454890D02*
X54546659Y-52931080D01*
X54213326Y-51931080D02*
X54546659Y-52454890D01*
X54879992Y-51931080D01*
X55737135Y-52931080D02*
X55165707Y-52931080D01*
X55451421Y-52931080D02*
X55451421Y-51931080D01*
X55356183Y-52073938D01*
X55260945Y-52169176D01*
X55165707Y-52216795D01*
%TO.C,RP1*%
X50801630Y-47176366D02*
X50325440Y-47509700D01*
X50801630Y-47747795D02*
X49801630Y-47747795D01*
X49801630Y-47366842D01*
X49849250Y-47271604D01*
X49896869Y-47223985D01*
X49992107Y-47176366D01*
X50134964Y-47176366D01*
X50230202Y-47223985D01*
X50277821Y-47271604D01*
X50325440Y-47366842D01*
X50325440Y-47747795D01*
X50801630Y-46747795D02*
X49801630Y-46747795D01*
X49801630Y-46366842D01*
X49849250Y-46271604D01*
X49896869Y-46223985D01*
X49992107Y-46176366D01*
X50134964Y-46176366D01*
X50230202Y-46223985D01*
X50277821Y-46271604D01*
X50325440Y-46366842D01*
X50325440Y-46747795D01*
X50801630Y-45223985D02*
X50801630Y-45795414D01*
X50801630Y-45509700D02*
X49801630Y-45509700D01*
X49944488Y-45604938D01*
X50039726Y-45700176D01*
X50087345Y-45795414D01*
%TO.C,L1*%
X44791333Y-41930580D02*
X44315142Y-41930580D01*
X44315142Y-40930580D01*
X45648476Y-41930580D02*
X45077047Y-41930580D01*
X45362761Y-41930580D02*
X45362761Y-40930580D01*
X45267523Y-41073438D01*
X45172285Y-41168676D01*
X45077047Y-41216295D01*
%TO.C,C3*%
X56399133Y-44197542D02*
X56351514Y-44245161D01*
X56208657Y-44292780D01*
X56113419Y-44292780D01*
X55970561Y-44245161D01*
X55875323Y-44149923D01*
X55827704Y-44054685D01*
X55780085Y-43864209D01*
X55780085Y-43721352D01*
X55827704Y-43530876D01*
X55875323Y-43435638D01*
X55970561Y-43340400D01*
X56113419Y-43292780D01*
X56208657Y-43292780D01*
X56351514Y-43340400D01*
X56399133Y-43388019D01*
X56732466Y-43292780D02*
X57351514Y-43292780D01*
X57018180Y-43673733D01*
X57161038Y-43673733D01*
X57256276Y-43721352D01*
X57303895Y-43768971D01*
X57351514Y-43864209D01*
X57351514Y-44102304D01*
X57303895Y-44197542D01*
X57256276Y-44245161D01*
X57161038Y-44292780D01*
X56875323Y-44292780D01*
X56780085Y-44245161D01*
X56732466Y-44197542D01*
%TO.C,*%
%TO.C,Q1*%
X55410211Y-47768519D02*
X55314973Y-47720900D01*
X55219735Y-47625661D01*
X55076878Y-47482804D01*
X54981640Y-47435185D01*
X54886402Y-47435185D01*
X54934021Y-47673280D02*
X54838783Y-47625661D01*
X54743545Y-47530423D01*
X54695926Y-47339947D01*
X54695926Y-47006614D01*
X54743545Y-46816138D01*
X54838783Y-46720900D01*
X54934021Y-46673280D01*
X55124497Y-46673280D01*
X55219735Y-46720900D01*
X55314973Y-46816138D01*
X55362592Y-47006614D01*
X55362592Y-47339947D01*
X55314973Y-47530423D01*
X55219735Y-47625661D01*
X55124497Y-47673280D01*
X54934021Y-47673280D01*
X56314973Y-47673280D02*
X55743545Y-47673280D01*
X56029259Y-47673280D02*
X56029259Y-46673280D01*
X55934021Y-46816138D01*
X55838783Y-46911376D01*
X55743545Y-46958995D01*
%TO.C,R1*%
X45223133Y-53131980D02*
X44889800Y-52655790D01*
X44651704Y-53131980D02*
X44651704Y-52131980D01*
X45032657Y-52131980D01*
X45127895Y-52179600D01*
X45175514Y-52227219D01*
X45223133Y-52322457D01*
X45223133Y-52465314D01*
X45175514Y-52560552D01*
X45127895Y-52608171D01*
X45032657Y-52655790D01*
X44651704Y-52655790D01*
X46175514Y-53131980D02*
X45604085Y-53131980D01*
X45889800Y-53131980D02*
X45889800Y-52131980D01*
X45794561Y-52274838D01*
X45699323Y-52370076D01*
X45604085Y-52417695D01*
%TO.C,J1*%
X41475066Y-49566580D02*
X41475066Y-50280866D01*
X41427447Y-50423723D01*
X41332209Y-50518961D01*
X41189352Y-50566580D01*
X41094114Y-50566580D01*
X42475066Y-50566580D02*
X41903638Y-50566580D01*
X42189352Y-50566580D02*
X42189352Y-49566580D01*
X42094114Y-49709438D01*
X41998876Y-49804676D01*
X41903638Y-49852295D01*
%TO.C,C2*%
X54348183Y-44733242D02*
X54300564Y-44780861D01*
X54157707Y-44828480D01*
X54062469Y-44828480D01*
X53919611Y-44780861D01*
X53824373Y-44685623D01*
X53776754Y-44590385D01*
X53729135Y-44399909D01*
X53729135Y-44257052D01*
X53776754Y-44066576D01*
X53824373Y-43971338D01*
X53919611Y-43876100D01*
X54062469Y-43828480D01*
X54157707Y-43828480D01*
X54300564Y-43876100D01*
X54348183Y-43923719D01*
X54729135Y-43923719D02*
X54776754Y-43876100D01*
X54871992Y-43828480D01*
X55110088Y-43828480D01*
X55205326Y-43876100D01*
X55252945Y-43923719D01*
X55300564Y-44018957D01*
X55300564Y-44114195D01*
X55252945Y-44257052D01*
X54681516Y-44828480D01*
X55300564Y-44828480D01*
%TO.C,CP1*%
X45118392Y-48700366D02*
X45166011Y-48747985D01*
X45213630Y-48890842D01*
X45213630Y-48986080D01*
X45166011Y-49128938D01*
X45070773Y-49224176D01*
X44975535Y-49271795D01*
X44785059Y-49319414D01*
X44642202Y-49319414D01*
X44451726Y-49271795D01*
X44356488Y-49224176D01*
X44261250Y-49128938D01*
X44213630Y-48986080D01*
X44213630Y-48890842D01*
X44261250Y-48747985D01*
X44308869Y-48700366D01*
X45213630Y-48271795D02*
X44213630Y-48271795D01*
X44213630Y-47890842D01*
X44261250Y-47795604D01*
X44308869Y-47747985D01*
X44404107Y-47700366D01*
X44546964Y-47700366D01*
X44642202Y-47747985D01*
X44689821Y-47795604D01*
X44737440Y-47890842D01*
X44737440Y-48271795D01*
X45213630Y-46747985D02*
X45213630Y-47319414D01*
X45213630Y-47033700D02*
X44213630Y-47033700D01*
X44356488Y-47128938D01*
X44451726Y-47224176D01*
X44499345Y-47319414D01*
%TO.C,J2*%
X59439316Y-46666480D02*
X59439316Y-47380766D01*
X59391697Y-47523623D01*
X59296459Y-47618861D01*
X59153602Y-47666480D01*
X59058364Y-47666480D01*
X59867888Y-46761719D02*
X59915507Y-46714100D01*
X60010745Y-46666480D01*
X60248840Y-46666480D01*
X60344078Y-46714100D01*
X60391697Y-46761719D01*
X60439316Y-46856957D01*
X60439316Y-46952195D01*
X60391697Y-47095052D01*
X59820269Y-47666480D01*
X60439316Y-47666480D01*
%TO.C,C1*%
X44543783Y-44631642D02*
X44496164Y-44679261D01*
X44353307Y-44726880D01*
X44258069Y-44726880D01*
X44115211Y-44679261D01*
X44019973Y-44584023D01*
X43972354Y-44488785D01*
X43924735Y-44298309D01*
X43924735Y-44155452D01*
X43972354Y-43964976D01*
X44019973Y-43869738D01*
X44115211Y-43774500D01*
X44258069Y-43726880D01*
X44353307Y-43726880D01*
X44496164Y-43774500D01*
X44543783Y-43822119D01*
X45496164Y-44726880D02*
X44924735Y-44726880D01*
X45210450Y-44726880D02*
X45210450Y-43726880D01*
X45115211Y-43869738D01*
X45019973Y-43964976D01*
X44924735Y-44012595D01*
%TO.C,L2*%
X51553650Y-40911428D02*
X51267935Y-40911428D01*
X51267935Y-40311428D01*
X51725078Y-40368571D02*
X51753650Y-40340000D01*
X51810792Y-40311428D01*
X51953650Y-40311428D01*
X52010792Y-40340000D01*
X52039364Y-40368571D01*
X52067935Y-40425714D01*
X52067935Y-40482857D01*
X52039364Y-40568571D01*
X51696507Y-40911428D01*
X52067935Y-40911428D01*
D11*
%TO.C,Y1*%
X53910650Y-54326100D02*
X53910650Y-49626100D01*
X53910650Y-49626100D02*
X48310650Y-49626100D01*
%TO.C,RP1*%
X47861650Y-44876848D02*
X47861650Y-45399352D01*
X49331650Y-44876848D02*
X49331650Y-45399352D01*
%TO.C,L1*%
X47310398Y-42800100D02*
X47832902Y-42800100D01*
X47310398Y-41380100D02*
X47832902Y-41380100D01*
%TO.C,C3*%
X55425898Y-41355100D02*
X55948402Y-41355100D01*
X55425898Y-42825100D02*
X55948402Y-42825100D01*
%TO.C,*%
G36*
X58907680Y-49430940D02*
G01*
X59176920Y-49517300D01*
X59430920Y-49649380D01*
X60058300Y-49136300D01*
X60490100Y-49568100D01*
X59977020Y-50195480D01*
X60109100Y-50449480D01*
X60195460Y-50718720D01*
X61000640Y-50802540D01*
X61000640Y-51407060D01*
X60195460Y-51490880D01*
X60109100Y-51760120D01*
X59977020Y-52014120D01*
X60490100Y-52641500D01*
X60058300Y-53073300D01*
X59430920Y-52560220D01*
X59176920Y-52692300D01*
X58818780Y-51826160D01*
X58961020Y-51749960D01*
X59082940Y-51645820D01*
X59182000Y-51518820D01*
X59253120Y-51374040D01*
X59293760Y-51219100D01*
X59301380Y-51061620D01*
X59275980Y-50904140D01*
X59217560Y-50754280D01*
X59131200Y-50619660D01*
X59019440Y-50505360D01*
X58884820Y-50416460D01*
X58737500Y-50355500D01*
X58577480Y-50327560D01*
X58420000Y-50332640D01*
X58265060Y-50368200D01*
X58120280Y-50436780D01*
X57990740Y-50533300D01*
X57886600Y-50655220D01*
X57807860Y-50792380D01*
X57757060Y-50947320D01*
X57741820Y-51104800D01*
X57757060Y-51257200D01*
X57800240Y-51401980D01*
X57873900Y-51536600D01*
X57970420Y-51655980D01*
X58089800Y-51752500D01*
X58224420Y-51826160D01*
X57866280Y-52692300D01*
X57612280Y-52560220D01*
X56984900Y-53073300D01*
X56553100Y-52641500D01*
X57066180Y-52014120D01*
X56934100Y-51760120D01*
X56847740Y-51490880D01*
X56042560Y-51407060D01*
X56042560Y-50802540D01*
X56847740Y-50718720D01*
X56934100Y-50449480D01*
X57066180Y-50195480D01*
X56553100Y-49568100D01*
X56984900Y-49136300D01*
X57612280Y-49649380D01*
X57866280Y-49517300D01*
X58135520Y-49430940D01*
X58219340Y-48625760D01*
X58823860Y-48625760D01*
X58907680Y-49430940D01*
G37*
D12*
X58907680Y-49430940D02*
X59176920Y-49517300D01*
X59430920Y-49649380D01*
X60058300Y-49136300D01*
X60490100Y-49568100D01*
X59977020Y-50195480D01*
X60109100Y-50449480D01*
X60195460Y-50718720D01*
X61000640Y-50802540D01*
X61000640Y-51407060D01*
X60195460Y-51490880D01*
X60109100Y-51760120D01*
X59977020Y-52014120D01*
X60490100Y-52641500D01*
X60058300Y-53073300D01*
X59430920Y-52560220D01*
X59176920Y-52692300D01*
X58818780Y-51826160D01*
X58961020Y-51749960D01*
X59082940Y-51645820D01*
X59182000Y-51518820D01*
X59253120Y-51374040D01*
X59293760Y-51219100D01*
X59301380Y-51061620D01*
X59275980Y-50904140D01*
X59217560Y-50754280D01*
X59131200Y-50619660D01*
X59019440Y-50505360D01*
X58884820Y-50416460D01*
X58737500Y-50355500D01*
X58577480Y-50327560D01*
X58420000Y-50332640D01*
X58265060Y-50368200D01*
X58120280Y-50436780D01*
X57990740Y-50533300D01*
X57886600Y-50655220D01*
X57807860Y-50792380D01*
X57757060Y-50947320D01*
X57741820Y-51104800D01*
X57757060Y-51257200D01*
X57800240Y-51401980D01*
X57873900Y-51536600D01*
X57970420Y-51655980D01*
X58089800Y-51752500D01*
X58224420Y-51826160D01*
X57866280Y-52692300D01*
X57612280Y-52560220D01*
X56984900Y-53073300D01*
X56553100Y-52641500D01*
X57066180Y-52014120D01*
X56934100Y-51760120D01*
X56847740Y-51490880D01*
X56042560Y-51407060D01*
X56042560Y-50802540D01*
X56847740Y-50718720D01*
X56934100Y-50449480D01*
X57066180Y-50195480D01*
X56553100Y-49568100D01*
X56984900Y-49136300D01*
X57612280Y-49649380D01*
X57866280Y-49517300D01*
X58135520Y-49430940D01*
X58219340Y-48625760D01*
X58823860Y-48625760D01*
X58907680Y-49430940D01*
D11*
%TO.C,Q1*%
X51100650Y-47424100D02*
X51100650Y-46774100D01*
X54220650Y-47424100D02*
X54220650Y-48074100D01*
X54220650Y-47424100D02*
X54220650Y-46774100D01*
X51100650Y-47424100D02*
X51100650Y-49099100D01*
%TO.C,R1*%
X44652398Y-51613500D02*
X45174902Y-51613500D01*
X44652398Y-50143500D02*
X45174902Y-50143500D01*
%TO.C,J1*%
X40916650Y-43629100D02*
X43576650Y-43629100D01*
X43576650Y-43629100D02*
X43576650Y-48769100D01*
X40916650Y-41029100D02*
X42246650Y-41029100D01*
X40916650Y-48769100D02*
X43576650Y-48769100D01*
X40916650Y-42359100D02*
X40916650Y-41029100D01*
X40916650Y-43629100D02*
X40916650Y-48769100D01*
%TO.C,C2*%
X51927402Y-44857100D02*
X51404898Y-44857100D01*
X51927402Y-43387100D02*
X51404898Y-43387100D01*
%TO.C,CP1*%
X47841902Y-47451100D02*
X47319398Y-47451100D01*
X47841902Y-48921100D02*
X47319398Y-48921100D01*
%TO.C,J2*%
X61102650Y-43614100D02*
X58442650Y-43614100D01*
X61102650Y-44884100D02*
X61102650Y-46214100D01*
X61102650Y-41014100D02*
X58442650Y-41014100D01*
X61102650Y-43614100D02*
X61102650Y-41014100D01*
X61102650Y-46214100D02*
X59772650Y-46214100D01*
X58442650Y-43614100D02*
X58442650Y-41014100D01*
%TO.C,C1*%
X45829650Y-45420852D02*
X45829650Y-44898348D01*
X47299650Y-45420852D02*
X47299650Y-44898348D01*
%TO.C,L2*%
X51392398Y-41380100D02*
X51914902Y-41380100D01*
X51392398Y-42800100D02*
X51914902Y-42800100D01*
%TD*%
%LPC*%
D13*
%TO.C,Y1*%
X52660650Y-50726100D03*
X49560650Y-50726100D03*
X49560650Y-53226100D03*
X52660650Y-53226100D03*
%TD*%
D14*
%TO.C,RP1*%
X48596650Y-44100600D03*
X48596650Y-46175600D03*
%TD*%
D15*
%TO.C,L1*%
X46546650Y-42090100D03*
X48596650Y-42090100D03*
%TD*%
D16*
%TO.C,C3*%
X54649650Y-42090100D03*
X56724650Y-42090100D03*
%TD*%
D17*
%TO.C,Q1*%
X51710650Y-48361600D03*
X53610650Y-48361600D03*
X52660650Y-46486600D03*
%TD*%
D16*
%TO.C,R1*%
X43876150Y-50878500D03*
X45951150Y-50878500D03*
%TD*%
D18*
%TO.C,J1*%
X42246650Y-42359100D03*
D19*
X42246650Y-44899100D03*
D20*
X42246650Y-47439100D03*
%TD*%
D21*
%TO.C,C2*%
X52703650Y-44122100D03*
X50628650Y-44122100D03*
%TD*%
%TO.C,CP1*%
X48618150Y-48186100D03*
X46543150Y-48186100D03*
%TD*%
D19*
%TO.C,J2*%
X59772650Y-44884100D03*
D20*
X59772650Y-42344100D03*
%TD*%
D22*
%TO.C,C1*%
X46564650Y-46197100D03*
X46564650Y-44122100D03*
%TD*%
D15*
%TO.C,L2*%
X50628650Y-42090100D03*
X52678650Y-42090100D03*
%TD*%
M02*
